<?xml version="1.0" encoding="utf-8"?>
<svg width="95" height="30" viewBox="0 0 95 30" fill="none" xmlns="http://www.w3.org/2000/svg">
    <g clip-path="url(#clip0)">
        <path d="M7.55719 13.4323C7.93578 13.397 8.24964 13.3151 8.49735 13.185C8.74646 13.055 8.94209 12.8925 9.08284 12.6975C9.22499 12.5011 9.31929 12.2906 9.36995 12.0659C9.41921 11.8398 9.43329 11.6151 9.41218 11.3904C9.37699 10.9891 9.19825 10.6754 8.87876 10.4451C8.55927 10.2161 8.17927 10.1215 7.73734 10.1624L4.76485 10.4338C4.65279 10.444 4.54755 10.4923 4.46646 10.5707C4.38537 10.649 4.33325 10.7527 4.3187 10.8648L4.02314 13.1469C3.98232 13.462 4.2441 13.7347 4.55937 13.7065L7.55719 13.4323V13.4323ZM6.90133 19.0225C7.26585 18.9886 7.58252 18.9038 7.84993 18.7653C8.11734 18.6254 8.3369 18.4573 8.51001 18.2566C8.68313 18.0574 8.80839 17.8327 8.88721 17.5854C8.96743 17.3367 8.99417 17.0795 8.97024 16.8153C8.93084 16.3758 8.7535 16.0268 8.43683 15.771C8.12156 15.5138 7.70497 15.4093 7.18703 15.4559L4.08366 15.7399C3.97159 15.7502 3.86635 15.7985 3.78526 15.8768C3.70417 15.9552 3.65206 16.0589 3.6375 16.1709L3.30957 18.7442C3.30003 18.8179 3.30712 18.8928 3.3303 18.9635C3.35349 19.0341 3.39219 19.0986 3.44353 19.1521C3.49487 19.2057 3.55755 19.247 3.62694 19.273C3.69632 19.299 3.77064 19.309 3.84439 19.3023L6.90133 19.0225ZM0.838128 20.9613L2.34267 9.056C2.35693 8.94371 2.40891 8.83966 2.49003 8.76104C2.57115 8.68242 2.67655 8.63394 2.78882 8.62359L8.14408 8.13466C8.66202 8.08662 9.1321 8.12477 9.55714 8.24488C9.98078 8.365 10.3495 8.54446 10.6648 8.78327C10.9758 9.01874 11.2334 9.31785 11.4206 9.6608C11.6106 10.007 11.726 10.3871 11.7626 10.8054C11.802 11.235 11.7598 11.649 11.6373 12.0489C11.5149 12.4488 11.3347 12.8092 11.0969 13.1299C10.859 13.4521 10.5719 13.7263 10.2369 13.9552C9.90196 14.1827 9.54588 14.3325 9.17151 14.4045C9.45581 14.4554 9.71899 14.5572 9.96248 14.7069C10.2046 14.8567 10.4143 15.039 10.593 15.2524C10.7718 15.4672 10.9139 15.7088 11.0223 15.9801C11.1292 16.2515 11.1954 16.5256 11.2207 16.8054C11.2615 17.2618 11.2207 17.7225 11.0983 18.186C10.9744 18.6509 10.7535 19.0805 10.4326 19.4733C10.1117 19.8676 9.68803 20.1996 9.15884 20.4709C8.63105 20.7437 7.98223 20.9147 7.21237 20.9839L1.37436 21.518C1.05909 21.5463 0.79872 21.275 0.838128 20.9613V20.9613ZM24.2887 19.6542C23.4316 19.7319 22.6687 19.6966 22.0002 19.5482C21.3317 19.3984 20.756 19.1539 20.2733 18.8148C19.792 18.4771 19.4134 18.0517 19.1375 17.5416C18.8616 17.0301 18.6956 16.4521 18.6365 15.8077C18.6224 15.6551 18.6182 15.4898 18.621 15.3118C18.6238 15.1323 18.6322 14.991 18.6491 14.8878L19.5879 7.4804C19.6021 7.36811 19.6541 7.26406 19.7352 7.18545C19.8164 7.10683 19.9218 7.05834 20.034 7.04799L21.2754 6.93495C21.5906 6.90669 21.851 7.178 21.8102 7.49312L20.8954 14.6306C20.8883 14.6956 20.8813 14.7903 20.8743 14.9189C20.8658 15.0475 20.8686 15.1803 20.8813 15.3202C20.9151 15.6862 21.0122 16.0239 21.174 16.3348C21.3359 16.6443 21.5526 16.9043 21.8271 17.1149C22.1001 17.3254 22.4295 17.4837 22.8137 17.5882C23.1979 17.6942 23.63 17.7239 24.1099 17.6801C25.1571 17.5854 25.9241 17.2124 26.4125 16.5623C26.8995 15.9137 27.2119 15.0729 27.347 14.0414L28.2717 6.68766C28.286 6.57537 28.3379 6.47132 28.4191 6.3927C28.5002 6.31408 28.6056 6.2656 28.7179 6.25525L29.9592 6.1422C30.2745 6.11253 30.5348 6.38384 30.4954 6.69896L29.5834 13.8888C29.4779 14.6773 29.3118 15.4064 29.0866 16.0776C28.8614 16.7489 28.5391 17.3367 28.1211 17.8398C27.7017 18.3442 27.1795 18.7526 26.5532 19.0649C25.9269 19.3772 25.1711 19.5736 24.2887 19.6542V19.6542ZM41.8745 18.0475C41.282 18.1012 40.7021 18.097 40.1377 18.0348C39.5719 17.9712 39.0442 17.8567 38.5516 17.6914C38.0604 17.5261 37.6142 17.3169 37.2173 17.0668C36.9541 16.9015 36.7191 16.7206 36.5122 16.5242C36.332 16.3546 36.3109 16.0762 36.4559 15.8756L37.1286 14.9401C37.3032 14.6985 37.6424 14.6716 37.8661 14.868C38.2912 15.2411 38.795 15.535 39.3777 15.7498C40.1532 16.0367 40.9836 16.1384 41.866 16.0579C42.27 16.0211 42.6106 15.9321 42.8906 15.7922C43.1707 15.6523 43.3945 15.4856 43.5606 15.2906C43.7267 15.097 43.8449 14.8892 43.9139 14.666C43.9828 14.4427 44.0081 14.2293 43.9898 14.0273C43.9589 13.6853 43.7773 13.4111 43.448 13.2062C43.1172 12.9999 42.7161 12.8191 42.2446 12.665C41.7732 12.5096 41.2566 12.3598 40.6965 12.2128C40.1363 12.0673 39.617 11.8751 39.137 11.6377C38.6585 11.4017 38.2461 11.0951 37.8999 10.7178C37.5537 10.3405 37.3538 9.84874 37.2989 9.24111C37.2525 8.73522 37.3186 8.23499 37.496 7.74041C37.6733 7.24583 37.9534 6.79646 38.3362 6.39091C38.7204 5.98535 39.1947 5.64621 39.7605 5.37066C40.3277 5.09652 40.9695 4.92553 41.6887 4.85912C42.6725 4.77009 43.607 4.86477 44.4909 5.14456C45.2115 5.37348 45.835 5.7098 46.36 6.15351C46.5584 6.32025 46.5894 6.61841 46.4346 6.82755L45.752 7.7503C45.5817 7.98205 45.2551 8.01172 45.0313 7.83085C44.6133 7.4917 44.139 7.24441 43.607 7.08615C42.9019 6.8756 42.2151 6.80212 41.5466 6.86288C41.244 6.88973 40.9695 6.96038 40.726 7.07202C40.4811 7.18365 40.2742 7.31931 40.1054 7.48181C39.9351 7.64432 39.8056 7.82802 39.7169 8.03292C39.6268 8.23923 39.5916 8.44837 39.6113 8.66316C39.6395 8.97969 39.8182 9.23405 40.1476 9.42623C40.4769 9.61982 40.878 9.78939 41.3481 9.93777C41.8196 10.0861 42.3361 10.2359 42.8963 10.3885C43.4564 10.5412 43.9772 10.739 44.4571 10.982C44.937 11.2251 45.3494 11.5374 45.6971 11.9189C46.0433 12.3019 46.2431 12.7964 46.298 13.4027C46.3496 13.9494 46.2893 14.501 46.1207 15.0235C45.9518 15.5477 45.6802 16.0225 45.3058 16.4451C44.9314 16.8676 44.4543 17.2237 43.8773 17.5105C43.2988 17.8002 42.6317 17.9783 41.8745 18.0475V18.0475ZM55.5082 15.966L56.7454 6.29199C56.7862 5.97687 56.5244 5.70556 56.2091 5.73382L53.611 5.97122C53.2972 5.99948 53.0368 5.73241 53.0748 5.4187L53.193 4.41541C53.2062 4.30228 53.2577 4.19715 53.339 4.11765C53.4202 4.03815 53.5262 3.98911 53.6392 3.97876L62.4877 3.17047C62.5611 3.16354 62.6351 3.17318 62.7044 3.19869C62.7736 3.22419 62.8363 3.26492 62.8878 3.31788C62.9394 3.37085 62.9785 3.43472 63.0023 3.50481C63.026 3.5749 63.0339 3.64945 63.0253 3.72299L62.9071 4.72629C62.8936 4.83953 62.8418 4.94469 62.7603 5.02417C62.6788 5.10365 62.5727 5.15263 62.4595 5.16293L59.4336 5.4399C59.3215 5.45018 59.2163 5.49846 59.1352 5.5768C59.0541 5.65514 59.002 5.75886 58.9874 5.87089L57.694 15.9816C57.6796 16.094 57.6274 16.1982 57.546 16.2769C57.4646 16.3555 57.3589 16.4039 57.2464 16.414L56.0445 16.5242C55.7292 16.5524 55.4674 16.2811 55.5082 15.966ZM68.23 14.8045L69.7345 2.89916C69.7488 2.78687 69.8008 2.68282 69.8819 2.6042C69.963 2.52559 70.0684 2.4771 70.1807 2.46675L71.384 2.35653C71.6993 2.32827 71.9611 2.59958 71.9202 2.9147L70.7 12.5887C70.6606 12.9024 70.921 13.1737 71.2362 13.1455L75.5697 12.7498C75.885 12.7201 76.1467 12.9915 76.1059 13.3066L75.9793 14.3113C75.965 14.4236 75.913 14.5276 75.8319 14.6062C75.7508 14.6849 75.6454 14.7333 75.5331 14.7437L68.7662 15.3612C68.4509 15.3895 68.1906 15.1196 68.23 14.8045V14.8045ZM82.9221 13.462L84.4252 1.55672C84.4397 1.44439 84.4919 1.34039 84.5733 1.26199C84.6547 1.18359 84.7604 1.13551 84.8728 1.12573L92.5137 0.427662C92.8276 0.397987 93.0865 0.666475 93.05 0.980181L92.9317 1.98348C92.9185 2.0966 92.867 2.20173 92.7858 2.28123C92.7045 2.36074 92.5985 2.40977 92.4856 2.42012L86.8474 2.93449C86.7354 2.94477 86.6301 2.99305 86.549 3.07139C86.4679 3.14972 86.4158 3.25344 86.4013 3.36548L86.1057 5.64903C86.0649 5.96415 86.3267 6.23547 86.6419 6.2072L91.7129 5.74371C92.0282 5.71545 92.2885 5.98676 92.2477 6.30188L92.1211 7.30518C92.1068 7.41747 92.0548 7.52151 91.9737 7.60013C91.8926 7.67875 91.7872 7.72724 91.6749 7.73758L86.1662 8.24064C86.054 8.25099 85.9486 8.29948 85.8674 8.37809C85.7863 8.45671 85.7343 8.56076 85.7201 8.67305L85.3921 11.2449C85.3513 11.56 85.6131 11.8313 85.9284 11.803L91.1316 11.3282C91.4469 11.2986 91.7073 11.5699 91.6679 11.885L91.5398 12.8897C91.5257 13.0021 91.4738 13.1063 91.3927 13.1849C91.3115 13.2636 91.206 13.312 91.0936 13.3221L83.4583 14.0188C83.1431 14.0484 82.8813 13.7771 82.9221 13.462V13.462ZM0.400418 28.9946L0.310343 27.9715C0.286417 27.6889 0.494716 27.4388 0.776201 27.4147L67.9809 21.5151C68.0518 21.5089 68.1232 21.5177 68.1906 21.5408C68.2579 21.5639 68.3198 21.6009 68.3721 21.6493L73.3052 26.2023C73.3547 26.2483 73.4127 26.284 73.476 26.3074C73.5393 26.3307 73.6066 26.3412 73.674 26.3384C73.7414 26.3355 73.8075 26.3192 73.8686 26.2905C73.9297 26.2618 73.9846 26.2213 74.03 26.1712L79.0249 20.6814C79.1122 20.5867 79.2304 20.5273 79.3585 20.516L93.3089 19.2923C93.5918 19.2669 93.8395 19.476 93.8634 19.7586L93.9535 20.7817C93.9774 21.0643 93.7691 21.3144 93.4877 21.3384L80.3324 22.4929C80.2044 22.5042 80.0861 22.5636 79.9989 22.6583L74.1552 29.0794C74.1098 29.1294 74.055 29.1699 73.994 29.1986C73.933 29.2273 73.8669 29.2436 73.7995 29.2466C73.7322 29.2497 73.6649 29.2393 73.6016 29.2162C73.5383 29.193 73.4801 29.1576 73.4304 29.1119L67.6501 23.7746C67.5977 23.7264 67.5358 23.6896 67.4684 23.6668C67.4011 23.6439 67.3297 23.6354 67.2588 23.6418L0.954945 29.4609C0.673459 29.4863 0.424344 29.2772 0.400418 28.9946" fill="white"/>
    </g>
    <defs>
        <clipPath id="clip0">
            <rect width="93.7347" height="29.1097" fill="white" transform="translate(0.309937 0.423706)"/>
        </clipPath>
    </defs>
</svg>
