<?xml version="1.0" encoding="utf-8"?>
<svg width="104" height="18" viewBox="0 0 104 18" fill="none" xmlns="http://www.w3.org/2000/svg">
    <g clip-path="url(#clip0)">
        <path d="M11.0022 9.00843C11.8211 9.0738 12.509 9.40068 13.0987 10.0217C13.6883 10.6428 13.9831 11.4927 13.9831 12.5714C13.9831 13.8789 13.5573 14.9576 12.6728 15.7421C11.7884 16.5266 10.5436 16.9188 8.87298 16.9188H0.814697V1.42489H8.84023C10.2488 1.42489 11.3953 1.81714 12.247 2.56896C13.0987 3.35346 13.5245 4.36678 13.5245 5.6416C13.5245 6.62223 13.2625 7.37405 12.7056 7.96242C12.1487 8.5508 11.5918 8.84499 10.9694 8.91037L11.0022 9.00843ZM4.6473 7.83167H7.98854C8.54541 7.83167 9.00401 7.66823 9.36434 7.34136C9.69191 7.01448 9.88846 6.62223 9.88846 6.06654C9.88846 5.57622 9.72467 5.21666 9.3971 4.92247C9.06953 4.62828 8.64368 4.49753 8.15232 4.49753H4.6473V7.83167V7.83167ZM8.18508 13.8462C8.77471 13.8462 9.26607 13.6828 9.59364 13.3886C9.92121 13.0944 10.085 12.6694 10.085 12.1138C10.085 11.5908 9.92121 11.1985 9.56088 10.9043C9.23331 10.6101 8.77471 10.4467 8.25059 10.4467H4.6473V13.8462H8.18508ZM27.2498 16.9188H23.5482V15.8075C22.631 16.7881 21.419 17.2784 19.9777 17.2784C18.6019 17.2784 17.5209 16.8208 16.702 15.9382C15.883 15.0556 15.4572 13.8789 15.4572 12.4406V5.31472H19.126V11.6561C19.126 12.3426 19.3225 12.8983 19.6829 13.3232C20.0432 13.7481 20.5346 13.9443 21.1242 13.9443C21.8776 13.9443 22.4672 13.6828 22.8931 13.1598C23.3189 12.6368 23.5155 11.8196 23.5155 10.7082V5.31472H27.217L27.2498 16.9188V16.9188ZM38.6821 16.9188H28.8549V16.2324L33.4737 8.25661H28.9859V5.31472H38.6166V6.00116L33.9978 13.977H38.6493V16.9188H38.6821ZM50.0816 16.9188H40.2872V16.2324L44.8732 8.25661H40.3855V5.31472H50.0161V6.00116L45.3973 13.977H50.0489L50.0816 16.9188ZM55.5848 8.06049H62.3001V11.3946H55.5848V16.9515H51.7522V1.42489H62.8897V4.75903H55.5848V8.06049ZM89.4558 12.0811H80.939C81.1683 13.5193 82.2492 14.3365 83.8543 14.3365C85.1319 14.3365 86.4094 13.8462 87.3594 13.0944L88.7679 15.546C87.4576 16.6573 85.787 17.2784 83.8543 17.2784C79.9562 17.2784 77.3029 14.9249 77.3029 11.1331C77.3029 9.33531 77.8925 7.86436 79.0718 6.72029C80.2511 5.57622 81.7251 4.98785 83.4613 4.98785C85.1319 4.98785 86.5404 5.54354 87.6869 6.6876C88.8334 7.83167 89.4231 9.30262 89.4558 11.1658V12.0811V12.0811ZM81.9544 8.45274C81.4958 8.77961 81.1683 9.23724 81.0045 9.79293H85.787C85.6232 9.20455 85.3284 8.74693 84.9026 8.42005C84.4767 8.12586 83.9854 7.96242 83.4613 7.96242C82.9044 7.96242 82.413 8.12586 81.9544 8.45274V8.45274ZM75.8943 12.0811H67.3774C67.6067 13.5193 68.6877 14.3365 70.2928 14.3365C71.5704 14.3365 72.8479 13.8462 73.7979 13.0944L75.2064 15.546C73.8961 16.6573 72.2255 17.2784 70.2928 17.2784C66.3947 17.2784 63.7414 14.9249 63.7414 11.1331C63.7414 9.33531 64.331 7.86436 65.5103 6.72029C66.6895 5.57622 68.1636 4.98785 69.8998 4.98785C71.5704 4.98785 72.9789 5.54354 74.1254 6.6876C75.2719 7.83167 75.8616 9.30262 75.8943 11.1658V12.0811V12.0811ZM68.3929 8.45274C67.9343 8.77961 67.6068 9.23724 67.443 9.79293H72.2255C72.0617 9.20455 71.7669 8.74693 71.3411 8.42005C70.9152 8.12586 70.4239 7.96242 69.8998 7.96242C69.3429 7.96242 68.8515 8.12586 68.3929 8.45274V8.45274ZM103.771 16.9188H100.069V16.0036C99.1192 16.8535 97.94 17.2784 96.4659 17.2784C94.8935 17.2784 93.5505 16.69 92.4367 15.546C91.323 14.4019 90.7661 12.9309 90.7661 11.1331C90.7661 9.33531 91.323 7.86436 92.4367 6.72029C93.5505 5.57622 94.8935 4.98785 96.4659 4.98785C97.94 4.98785 99.152 5.41279 100.069 6.26266V0.280823H103.771V16.9188ZM99.2503 13.2905C99.8071 12.7348 100.102 12.0157 100.102 11.1331C100.102 10.2832 99.8071 9.56412 99.2503 8.97574C98.6934 8.42005 98.0055 8.12586 97.2521 8.12586C96.4331 8.12586 95.778 8.42005 95.2539 8.97574C94.7298 9.53143 94.4677 10.2506 94.4677 11.1331C94.4677 12.0157 94.7298 12.7675 95.2539 13.3232C95.778 13.8789 96.4331 14.1404 97.2521 14.1404C98.0055 14.1404 98.6606 13.8462 99.2503 13.2905Z" fill="white"/>
    </g>
    <defs>
        <clipPath id="clip0">
            <rect width="103.415" height="17.3898" fill="white" transform="translate(0.585327 0.0847168)"/>
        </clipPath>
    </defs>
</svg>
