<?xml version="1.0" encoding="utf-8"?>
<svg width="133" height="57" viewBox="0 0 133 57" fill="none" xmlns="http://www.w3.org/2000/svg">
    <path d="M18.0287 43.225C18.0287 44.6726 19.4892 44.0167 19.4892 44.9893V45.7131H14.9024V44.6726H14.8339C14.1265 45.6452 13.0996 46.1881 11.4794 46.1881C8.1933 46.1881 5.68311 43.0667 5.68311 37.6155C5.68311 32.1869 8.12484 28.6357 11.5022 28.6357C12.7573 28.6357 14.0124 29.1559 14.7426 29.6762V24.7452C14.7426 23.2976 13.2821 23.9536 13.2821 22.9809V22.2571H18.0287V43.225ZM14.7654 31.7798C14.309 31.0786 13.3962 30.6488 12.4606 30.6488C10.2927 30.6488 9.31148 33.1821 9.31148 37.525C9.31148 42.6143 10.5666 44.4012 12.3465 44.4012C13.6016 44.4012 14.309 43.8131 14.7426 43.0214V31.7798H14.7654Z" fill="white"/>
    <path d="M32.4282 37.4119C32.4282 43.7 29.2106 46.1881 25.8104 46.1881C22.3874 46.1881 19.1926 43.7 19.1926 37.4119C19.1926 31.1238 22.4102 28.6357 25.8104 28.6357C29.2106 28.6357 32.4282 31.1238 32.4282 37.4119ZM28.7998 37.4119C28.7998 32.0965 27.8642 30.0834 25.8104 30.0834C23.7566 30.0834 22.821 32.0965 22.821 37.4119C22.821 42.7274 23.7566 44.7405 25.8104 44.7405C27.8642 44.7405 28.7998 42.75 28.7998 37.4119Z" fill="white"/>
    <path d="M35.8967 40.3298C34.71 39.4702 33.2496 38.0905 33.2496 35.15C33.2496 31.2143 35.9651 28.6583 39.0458 28.6583C40.4835 28.6583 41.6017 29.2464 42.2863 29.6536C42.1722 27.8893 43.0621 26.7809 44.3401 26.7809C45.8005 26.7809 46.5764 27.4821 46.5764 28.6131C46.5764 29.3369 45.9375 30.0155 45.23 30.0155C44.2944 30.0155 44.089 29.4274 43.6326 29.4274C43.4273 29.4274 43.4044 30.1059 43.4501 30.4678C44.6367 31.825 45.1159 33.2274 45.1159 35.1274C45.1159 37.7512 43.5185 41.144 39.1599 41.144C38.4297 41.144 37.9048 41.0309 37.3343 40.8726C36.9464 41.5964 36.1477 42.6369 36.1477 42.9083C36.1477 43.044 36.2162 43.0893 36.3303 43.0893C36.5813 43.0893 37.9733 42.6821 39.5707 42.6821C43.5414 42.6821 46.508 44.3786 46.508 47.5226C46.508 49.8071 44.3401 53.1321 38.9089 53.1321C35.6913 53.1321 32.9757 51.8881 32.9757 49.4905C32.9757 48.2012 33.7516 47.5226 34.9611 47.5226C36.1021 47.5226 36.8779 48.156 36.8779 49.0833C36.8779 49.7393 36.5585 50.1238 36.5585 50.5988C36.5585 51.1869 37.4713 51.6619 39.1371 51.6619C41.6245 51.6619 43.6326 50.35 43.6326 48.5179C43.6326 46.7536 41.8983 45.7131 38.3612 45.7131C35.4631 45.7131 33.957 46.55 33.2039 46.55C32.816 46.55 32.6562 46.3464 32.6562 46.0298C32.6562 45.5548 33.0442 44.9893 33.4321 44.3333L35.8967 40.3298ZM36.8779 34.969C36.8779 37.9774 37.6538 39.8548 39.3653 39.8548C41.0768 39.8548 41.8527 37.9774 41.8527 34.969C41.8527 31.9607 41.0768 30.0833 39.3653 30.0833C37.6538 30.0833 36.8779 31.9607 36.8779 34.969Z" fill="white"/>
    <path d="M56.2522 44.2203C55.4535 45.5774 54.1299 46.1881 52.4412 46.1881C51.6425 46.1881 50.6613 45.9846 50.068 45.5322C49.2236 44.9441 49.0182 44.0393 49.0182 42.8405V30.7846H47.2383V29.7215C47.5806 28.8846 49.0639 29.0203 49.3834 27.9119C50.0451 25.6048 50.4331 24.1572 51.2318 23.8179L52.2815 23.6143V29.156H55.4078V30.8072H52.3043V43.8584C52.3043 44.1072 52.5781 44.5596 53.354 44.5596C54.1299 44.5596 54.7232 44.1072 55.2024 43.2703L56.2522 44.2203Z" fill="white"/>
    <path d="M61.3181 29.1107V43.225C61.3181 44.6726 62.7786 44.0167 62.7786 44.9893V45.7131H56.5715V44.9893C56.5715 44.0167 58.032 44.6726 58.032 43.225V31.5988C58.032 30.1512 56.5715 30.8071 56.5715 29.8345V29.1107H61.3181Z" fill="white"/>
    <path d="M68.3012 29.1107V30.4679C69.1684 29.6084 70.4919 28.6357 72.5914 28.6357C74.3941 28.6357 75.809 29.6762 76.5392 30.8072C77.84 29.4953 79.5743 28.6357 81.5596 28.7036C84.047 28.7715 85.7357 30.2869 85.7357 33.3405V43.225C85.7357 44.6726 87.1961 44.0167 87.1961 44.9893V45.7131H80.9891V44.9893C80.9891 44.0167 82.4496 44.6726 82.4496 43.225V32.9786C82.4496 31.5988 81.7194 30.6262 80.2132 30.6262C78.5702 30.6262 77.5661 31.8024 76.9956 32.5262V43.2024C76.9956 44.65 78.4561 43.9941 78.4561 44.9667V45.6905H72.2491V44.9667C72.2491 43.9941 73.7096 44.65 73.7096 43.2024V32.956C73.7096 31.5762 72.9793 30.6036 71.4732 30.6036C69.8302 30.6036 68.8261 31.7798 68.2556 32.5036V43.1798C68.2556 44.6274 69.7161 43.9715 69.7161 44.9441V45.6679H63.509V44.9441C63.509 43.9715 64.9695 44.6274 64.9695 43.1798V31.5536C64.9695 30.106 63.509 30.7619 63.509 29.7893V29.0655H68.3012V29.1107Z" fill="white"/>
    <path d="M90.5277 36.9369C90.5277 43.1346 92.1022 44.5369 94.4299 44.5369C96.9401 44.5369 97.9213 42.8405 98.7657 40.8274L100.135 41.7322C99.0852 44.6274 97.2367 46.1881 94.2473 46.1881C89.6833 46.1881 86.9221 43.2929 86.9221 37.4119C86.9221 32.1643 89.4323 28.6357 93.5399 28.6357C97.8757 28.6357 99.9523 31.9607 99.9523 36.3488V36.9369H90.5277V36.9369ZM96.3239 35.2631C96.3239 31.8024 95.5481 30.2869 93.5399 30.2869C91.874 30.2869 90.5505 31.8024 90.5505 35.2631H96.3239Z" fill="white"/>
    <path d="M61.5919 24.3607C61.5919 25.5369 60.6335 26.4869 59.4468 26.4869C58.2602 26.4869 57.3018 25.5369 57.3018 24.3607C57.3018 23.1846 58.2602 22.2346 59.4468 22.2346C60.6335 22.2572 61.5919 23.2072 61.5919 24.3607Z" fill="white"/>
    <path fill-rule="evenodd" clip-rule="evenodd" d="M76.6305 20.9L75.9002 20.5834C72.9259 22.4841 68.5254 23.9026 66.7273 24.4822C66.4284 24.5785 66.2014 24.6517 66.0648 24.7C65.1292 25.0167 64.65 24.9488 64.399 24.7453C64.399 24.7453 64.0795 24.4738 64.3305 24.0441C64.65 23.5238 65.0836 23.2976 65.791 23.3429C66.4528 23.3655 72.0437 21.4655 74.3256 19.4976C73.6922 18.9214 73.2963 18.2241 72.9398 17.5961C72.3587 16.5725 71.882 15.733 70.6516 15.9012C70.2536 15.967 68.7229 17.4541 67.8108 18.3402C67.4677 18.6735 67.2122 18.9218 67.1374 18.9774C66.8635 19.181 66.1789 18.8191 66.1789 18.8191C66.3843 18.6155 67.822 16.9643 68.2327 16.4214C68.6207 15.9012 68.1186 15.4488 67.7991 15.7203C67.7028 15.7953 67.4592 16.0451 67.1533 16.3587C66.4448 17.0852 65.4024 18.1541 65.0836 18.1857C64.4218 18.231 63.3721 17.3941 63.3721 17.3941C63.3721 17.3941 66.1333 15.1774 65.9279 14.1369C65.7225 13.0964 67.3656 12.4405 67.3656 12.4405L65.9735 9.13811C68.3696 8.32383 68.963 11.6262 68.963 11.6262L68.5294 8.23335C69.8073 7.98454 70.9483 9.02502 70.9483 11.7393C70.9483 11.7393 73.5726 12.35 76.311 13.4131C76.9034 13.6426 77.9732 12.7947 79.4198 11.6481C82.8215 8.9521 88.3067 4.60477 94.5669 8.73097C100.89 12.8805 103.086 6.15545 103.672 4.36005C103.85 3.8164 103.88 3.72474 103.832 4.52383C103.535 9.31907 99.9068 13.5941 93.8823 10.2691C93.8823 10.2691 94.3159 11.4905 94.2931 13.2095C94.2475 15.856 95.32 17.6881 97.0087 19.2488C97.1912 19.4072 98.6517 26.6905 96.7577 26.8714C96.7577 26.8714 95.5938 27.075 95.2744 26.7131C94.9549 26.3512 95.2972 25.4238 96.0959 25.4691C96.7805 25.5143 96.2556 20.9905 94.7723 20.0857C94.6168 19.9905 94.4488 19.8907 94.2718 19.7857C93.0206 19.0429 91.3275 18.0378 90.5278 16.5119C91.1077 18.5811 91.6876 19.148 91.9792 19.4332C92.0893 19.5408 92.1583 19.6083 92.1708 19.7012C92.4903 21.8274 92.4219 26.8036 91.0983 26.781C91.0983 26.781 89.7976 26.9167 89.5694 26.4869C89.3412 26.0572 89.7747 25.3107 90.505 25.3334C91.1896 25.356 90.9842 20.9905 89.7519 19.7691C89.722 19.7394 89.6879 19.706 89.6498 19.6688C88.9336 18.9685 86.8594 16.9404 86.5343 13.9334C84.549 17.8464 83.0657 20.6738 78.9125 21.556C74.3865 24.3314 71.804 25.2748 70.2525 25.8416C69.7935 26.0092 69.4248 26.1439 69.1227 26.2833C68.2327 26.6905 67.8904 26.6679 67.5025 26.5774C67.5025 26.5774 66.9776 26.4191 67.1602 25.8762C67.3427 25.2881 67.8448 25.1298 68.5522 25.0845C69.0999 25.0619 74.5082 22.9357 76.6305 20.9ZM67.16 14.2727L68.1413 13.5941C67.7305 13.3226 66.9547 13.5941 66.9547 13.6167C66.7949 13.8203 67.0459 14.2048 67.16 14.2727Z" fill="white"/>
    <path d="M75.2157 12.4857C72.8653 14.5214 72.272 17.6655 72.272 17.6655L73.0935 18.5929C74.3486 13.9107 76.4024 12.8929 76.4024 12.8929L75.2157 12.4857Z" fill="white"/>
    <path d="M102.531 44.8084C102.531 45.4191 102.052 45.8489 101.481 45.8489C100.888 45.8489 100.432 45.4191 100.432 44.8084C100.432 44.1977 100.911 43.7679 101.481 43.7679C102.052 43.7679 102.531 44.1977 102.531 44.8084Z" fill="white"/>
    <path d="M109.057 44.0846C108.533 45.4191 107.894 45.9393 106.639 45.9393C104.904 45.9393 103.467 44.7405 103.467 41.8679C103.467 39.4477 104.79 37.5024 106.775 37.5024C108.145 37.5024 109.08 38.3167 109.08 39.312C109.08 39.8322 108.806 40.3298 108.19 40.3298C107.688 40.3298 107.346 39.9905 107.346 39.5155C107.346 39.1536 107.574 38.8596 107.574 38.6786C107.574 38.4524 107.323 38.2941 106.89 38.2941C105.954 38.2941 105.224 39.2215 105.224 41.7548C105.224 44.1524 105.863 45.1477 106.89 45.1477C107.78 45.1477 108.122 44.4465 108.464 43.7453L109.057 44.0846Z" fill="white"/>
    <path d="M115.949 41.7322C115.949 44.7631 114.397 45.9393 112.777 45.9393C111.134 45.9393 109.605 44.7405 109.605 41.7322C109.605 38.7012 111.157 37.525 112.777 37.525C114.397 37.525 115.949 38.7238 115.949 41.7322ZM114.192 41.7322C114.192 39.1762 113.736 38.2036 112.754 38.2036C111.773 38.2036 111.317 39.1762 111.317 41.7322C111.317 44.2881 111.773 45.2607 112.754 45.2607C113.758 45.2607 114.192 44.2881 114.192 41.7322Z" fill="white"/>
    <path d="M118.414 37.7512V38.4072C118.825 38 119.464 37.525 120.468 37.525C121.335 37.525 122.019 38.0226 122.362 38.5655C122.978 37.9322 123.822 37.525 124.781 37.5476C125.967 37.5703 126.789 38.3167 126.789 39.7643V44.5143C126.789 45.2155 127.496 44.8988 127.496 45.3512V45.6905H124.507V45.3512C124.507 44.8762 125.214 45.1929 125.214 44.5143V39.606C125.214 38.95 124.872 38.475 124.142 38.475C123.343 38.475 122.864 39.0405 122.59 39.3798V44.5143C122.59 45.2155 123.297 44.8988 123.297 45.3512V45.6905H120.308V45.3512C120.308 44.8762 121.015 45.1929 121.015 44.5143V39.606C121.015 38.95 120.673 38.475 119.943 38.475C119.167 38.475 118.665 39.0405 118.391 39.3798V44.5143C118.391 45.2155 119.099 44.8988 119.099 45.3512V45.6905H116.109V45.3512C116.109 44.8762 116.817 45.1929 116.817 44.5143V38.9274C116.817 38.2262 116.109 38.5429 116.109 38.0905V37.7512H118.414V37.7512Z" fill="white"/>
    <path d="M101.824 28.7941C102.782 28.7941 103.581 29.5405 103.581 30.5357C103.581 31.531 102.782 32.3 101.824 32.3C100.865 32.3 100.044 31.5536 100.044 30.5357C100.044 29.5405 100.842 28.7941 101.824 28.7941ZM101.824 32.0286C102.645 32.0286 103.261 31.3953 103.261 30.5357C103.261 29.6988 102.622 29.0655 101.824 29.0655C101.002 29.0655 100.363 29.6988 100.363 30.5357C100.363 31.3726 101.002 32.0286 101.824 32.0286ZM101.116 29.5179H101.915C102.394 29.5179 102.645 29.6988 102.645 30.106C102.645 30.4679 102.417 30.6262 102.098 30.6714L102.691 31.5762H102.349L101.778 30.6941H101.436V31.5762H101.116V29.5179V29.5179ZM101.459 30.4226H101.801C102.075 30.4226 102.349 30.4 102.349 30.0834C102.349 29.8119 102.12 29.7667 101.892 29.7667H101.459V30.4226Z" fill="white"/>
</svg>
