<?xml version="1.0" encoding="utf-8"?>
<svg width="129" height="46" viewBox="0 0 129 46" fill="none" xmlns="http://www.w3.org/2000/svg">
    <path d="M18.9063 36.9937C28.8859 36.9937 36.9759 28.8452 36.9759 18.7934C36.9759 8.74172 28.8859 0.593201 18.9063 0.593201C8.92672 0.593201 0.83667 8.74172 0.83667 18.7934C0.83667 28.8452 8.92672 36.9937 18.9063 36.9937Z" fill="#E6E6E6"/>
    <path d="M27.5769 42.2132C27.5469 41.8815 27.3873 41.5754 27.1332 41.3622C26.8792 41.1489 26.5515 41.046 26.2222 41.076C25.556 41.1272 25.0931 41.8266 24.9746 42.5146C24.9039 42.1709 24.722 41.8606 24.4574 41.6321C24.1928 41.4037 23.8605 41.2702 23.5125 41.2523C23.3444 41.2613 23.1799 41.3048 23.029 41.3802C22.8782 41.4556 22.7442 41.5612 22.6353 41.6905C22.5264 41.8199 22.4449 41.9703 22.3958 42.1325C22.3467 42.2948 22.331 42.4654 22.3497 42.634C22.355 42.7087 22.3663 42.7828 22.3835 42.8557C22.5641 43.5818 22.9198 44.2517 23.4191 44.8062C23.9183 45.3606 24.5457 45.7824 25.2456 46.0341C25.8724 45.6905 26.4095 45.2022 26.8127 44.6092C27.216 44.0162 27.474 43.3354 27.5657 42.6226C27.577 42.513 27.577 42.4024 27.5657 42.2928L27.5769 42.2132Z" fill="white"/>
    <path d="M24.6867 35.9646V39.8252C19.9496 41.1926 14.8917 40.8979 10.3428 38.9894L10.0662 38.8643V34.7762C10.1565 34.8274 10.2468 34.8786 10.3428 34.9241C12.535 36.0792 14.9397 36.7676 17.4073 36.9466C19.875 37.1256 22.3528 36.7913 24.6867 35.9646Z" fill="#D6D6D6"/>
    <path d="M18.3362 10.1851V17.9519H13.5605V14.9953C13.5605 13.7196 14.0637 12.4961 14.9593 11.594C15.8549 10.6919 17.0696 10.1851 18.3362 10.1851V10.1851Z" fill="#C2C2C2"/>
    <path d="M23.2812 17.9519H14.8137V10.1851C14.1868 10.1851 13.5661 10.3096 12.987 10.5514C12.4079 10.7932 11.8818 11.1476 11.4388 11.5943C10.9958 12.0411 10.6446 12.5714 10.4052 13.155C10.1658 13.7385 10.043 14.3639 10.0437 14.9953V28.0499L10.326 28.175C11.46 28.6424 12.6739 28.8819 13.8992 28.88C14.1707 28.8811 14.442 28.8678 14.7121 28.8402L17.0209 28.3456C18.876 27.6969 20.4849 26.4832 21.6248 24.8726C22.7647 23.262 23.379 21.3342 23.3828 19.3563C23.3838 18.8863 23.3498 18.4168 23.2812 17.9519V17.9519Z" fill="#D6D6D6"/>
    <path d="M30.7551 21.6819C30.4652 23.3167 29.7511 24.8453 28.6854 26.1125C27.6196 27.3796 26.2401 28.3404 24.6867 28.8971V35.9646C22.3528 36.7914 19.875 37.1256 17.4073 36.9466C14.9397 36.7676 12.535 36.0792 10.3428 34.9241C10.2468 34.8786 10.1565 34.8274 10.0662 34.7763V27.9533L10.3428 28.0727C11.4662 28.5355 12.6684 28.773 13.8822 28.7721C14.1531 28.7721 14.4185 28.7721 14.6838 28.7379C15.454 28.6686 16.2126 28.5024 16.9418 28.2433C18.7772 27.6029 20.3695 26.4036 21.4982 24.8114C22.6269 23.2191 23.2362 21.3128 23.2416 19.3564C23.2413 18.8942 23.2093 18.4325 23.1456 17.9747H27.2044C27.2108 18.9336 27.5829 19.8532 28.2439 20.5433C28.9049 21.2334 29.804 21.641 30.7551 21.6819V21.6819Z" fill="white"/>
    <path d="M19.3015 22.8019C19.9188 22.8019 20.4193 22.1808 20.4193 21.4146C20.4193 20.6484 19.9188 20.0272 19.3015 20.0272C18.6843 20.0272 18.1838 20.6484 18.1838 21.4146C18.1838 22.1808 18.6843 22.8019 19.3015 22.8019Z" fill="white"/>
    <path d="M30.9076 17.9633V20.0785C30.9068 20.6502 30.8577 21.2209 30.7608 21.7842C29.7754 21.746 28.8429 21.325 28.1588 20.6095C27.4748 19.894 27.0923 18.9396 27.0916 17.9463L30.9076 17.9633Z" fill="#D6D6D6"/>
    <path d="M48.9207 27.0492C49.1465 25.9462 49.4457 24.8147 49.79 23.6889C49.8804 22.7451 49.9029 21.7785 49.9933 20.846C50.2247 18.6115 50.5578 16.377 50.6819 14.1425C50.6819 13.9102 50.7735 13.6875 50.9366 13.5233C51.0996 13.3591 51.3207 13.2668 51.5513 13.2668C51.7818 13.2668 52.003 13.3591 52.166 13.5233C52.329 13.6875 52.4206 13.9102 52.4206 14.1425C52.5335 15.109 52.5787 16.0984 52.6012 17.065C53.2422 16.4197 53.9393 15.8336 54.6842 15.3137C56.056 14.3471 57.5067 16.4509 56.4229 17.5881C55.1963 18.8912 54.2372 20.4253 53.6004 22.1026L53.7867 22.2902C54.2223 22.6016 54.6809 22.8791 55.1584 23.1203C55.9441 23.5442 56.7526 23.9239 57.5801 24.2575C59.5502 25.0194 58.7091 28.2376 56.7164 27.4586C55.2524 26.9287 53.8422 26.2585 52.5053 25.4572L52.4375 25.6846C52.3189 26.4307 52.1299 27.1637 51.873 27.8737C51.8256 27.9999 51.7709 28.1233 51.7093 28.2432C51.0037 29.9547 48.5764 28.664 48.9207 27.0492Z" fill="white"/>
    <path d="M63.1065 23.0691L63.1743 21.8012C63.0586 21.9219 62.9361 22.0358 62.8074 22.1424C61.255 23.2795 59.7196 22.239 59.33 20.5333C58.8954 18.5717 59.5841 16.2007 61.3227 15.0522C62.6719 14.1538 64.7097 14.5916 64.6138 16.4793C64.9266 16.3977 65.2588 16.444 65.5379 16.608C65.817 16.772 66.0205 17.0405 66.104 17.3549C66.5387 18.8503 66.1718 20.647 66.0758 22.1935C65.9426 23.6904 65.9824 25.1977 66.1944 26.6853C66.3976 27.976 64.8452 29.2837 63.8178 28.0897C62.6945 26.8218 62.9936 24.6327 63.1065 23.0691ZM62.717 18.5546L63.3323 17.8155C63.609 17.4686 63.6315 17.5141 63.6767 17.3549C63.7121 17.2565 63.7595 17.1629 63.8178 17.0763C63.0162 16.9171 62.7622 17.4004 62.463 18.2135C62.38 18.4737 62.327 18.7427 62.305 19.0152C62.4404 18.8275 62.5816 18.6911 62.717 18.5546Z" fill="white"/>
    <path d="M73.0362 27.6747C71.7379 25.3492 72.308 21.8013 73.087 19.4019C73.6515 17.5597 74.8483 14.3358 77.2474 14.4495C78.4837 14.5462 79.624 15.0522 79.8102 16.1553C80.4434 19.56 80.1027 23.0758 78.828 26.293C78.2974 27.5837 77.5014 28.9881 76.0337 29.261C75.4327 29.3399 74.8222 29.2299 74.2856 28.9459C73.749 28.662 73.3127 28.218 73.0362 27.6747V27.6747ZM76.5136 23.6946C77.1476 21.5032 77.1885 19.181 76.6321 16.9683C76.1508 17.9554 75.827 19.0126 75.6725 20.1012C75.3507 21.8069 75.0289 23.7856 75.441 25.5141L75.5765 25.8837C75.9365 25.1815 76.2495 24.4559 76.5136 23.7117V23.6946Z" fill="white"/>
    <path d="M80.5666 29.5168V29.4714C80.5666 29.2204 80.6308 28.9737 80.7529 28.7549C80.7529 28.7549 80.911 28.4365 80.8658 28.573C81.0464 28.067 81.1819 27.5382 81.3231 27.0265C81.5489 26.1508 81.7351 25.2752 81.8876 24.4053C81.7144 24.2982 81.5758 24.1429 81.4886 23.9581C81.4014 23.7732 81.3693 23.5669 81.3962 23.3641C81.4231 23.1612 81.5078 22.9706 81.6401 22.8153C81.7724 22.66 81.9466 22.5468 82.1416 22.4892C82.1867 22.4892 82.2319 22.4892 82.2771 22.4437C82.6214 20.6015 82.9657 18.7138 83.2593 16.8489C83.013 16.8175 82.7865 16.6968 82.6221 16.5094C82.4577 16.3221 82.3666 16.0808 82.366 15.8308C82.3653 15.5807 82.455 15.339 82.6183 15.1507C82.7817 14.9624 83.0075 14.8405 83.2536 14.8077C83.4209 14.7969 83.5887 14.7969 83.756 14.8077C83.904 14.6891 84.0845 14.619 84.2732 14.6068C84.4619 14.5946 84.6498 14.6409 84.8117 14.7395C85.2946 14.7202 85.7756 14.667 86.2511 14.5803C87.0979 14.4381 87.9898 13.8866 88.814 14.3926C89.0771 14.5555 89.2671 14.8149 89.344 15.1161C89.4209 15.4174 89.3786 15.7369 89.2261 16.0074C89.2217 16.0222 89.2217 16.038 89.2261 16.0529C89.1005 16.2451 88.9255 16.3995 88.7197 16.4997C88.514 16.5998 88.2851 16.6419 88.0575 16.6215C87.9898 16.6215 87.8995 16.6215 87.7358 16.6669C87.5721 16.7124 87.2785 16.7579 87.0527 16.7807C86.6632 16.8546 86.2737 16.8773 85.8842 16.9228C85.7169 16.9115 85.5491 16.9115 85.3818 16.9228C85.33 18.5965 85.1773 20.2655 84.9246 21.9206C85.4651 21.684 86.0347 21.5215 86.6181 21.4373C86.8567 21.4372 87.086 21.5312 87.2568 21.699C87.4277 21.8669 87.5267 22.0953 87.5326 22.3357C87.4197 23.7173 85.9745 24.0414 84.6028 24.2461V24.4565C84.3544 26.1338 84.2133 31.433 81.4924 30.9042C81.3383 30.8802 81.1908 30.8243 81.0593 30.7401C80.9277 30.6558 80.8148 30.545 80.7279 30.4147C80.6409 30.2844 80.5817 30.1373 80.5539 29.9828C80.5262 29.8282 80.5305 29.6696 80.5666 29.5168V29.5168Z" fill="white"/>
    <path d="M101.318 21.3407C101.25 20.6698 101.227 20.0273 101.182 19.3563C100.958 19.8605 100.618 20.3032 100.189 20.647C99.931 20.8909 99.5908 21.0267 99.2374 21.0267C98.8839 21.0267 98.5437 20.8909 98.2862 20.647C97.93 20.2941 97.6512 19.8699 97.4677 19.4018C97.4677 19.6577 97.5128 19.8624 97.5128 20.0045C97.6216 22.422 97.4319 24.8437 96.9483 27.2141C96.6266 28.6413 94.4758 28.2717 94.4758 26.8673C94.4307 22.9725 93.7194 19.0095 94.5436 15.2341C94.8427 13.8752 95.6218 13.9207 96.5588 13.4602C96.8528 13.3017 97.1955 13.2611 97.5179 13.3466C97.8404 13.432 98.1189 13.6371 98.2975 13.9207C98.7889 14.7067 99.103 15.5918 99.2176 16.5134L99.3531 16.0074C99.5977 15.0262 100.131 14.1423 100.883 13.4715C101.034 13.3236 101.216 13.2118 101.415 13.1446C101.615 13.0773 101.827 13.0563 102.036 13.0831C102.245 13.1098 102.445 13.1837 102.622 13.2992C102.798 13.4147 102.947 13.5689 103.056 13.7501C104.247 15.8198 104.27 18.2647 104.451 20.5731C104.637 23.0123 105.207 25.4572 105.015 27.8964C104.874 30.0854 101.47 30.0627 101.628 27.8964C101.786 25.7301 101.481 23.5297 101.318 21.3407V21.3407Z" fill="white"/>
    <path d="M106.726 23.2966C107.29 20.6015 107.087 17.8382 107.476 15.1431C107.572 14.5177 109.17 14.2448 109.334 14.9783C109.764 17.3402 109.885 19.7487 109.695 22.1424C109.605 23.6207 108.921 25.4174 109.26 26.8445C109.537 27.9817 107.776 29.1928 106.771 28.1124C105.489 26.7479 106.398 24.8374 106.726 23.2966V23.2966Z" fill="white"/>
    <path d="M113.223 21.5909C113.223 22.1196 113.223 22.6541 113.178 23.2056C113.407 24.2817 113.422 25.3929 113.223 26.475C112.879 28.1125 110.502 27.6121 110.457 26.1054C110.338 22.7451 110.502 14.7338 112.856 14.8646C114.205 14.9555 115.029 19.1971 115.758 21.2213C115.758 21.0848 115.758 20.9711 115.808 20.8801C116.034 18.8503 116.124 16.4338 116.858 14.5689C117.248 13.5966 118.896 13.2782 119.116 14.5689C119.528 16.8432 118.682 19.2881 118.478 21.5681C118.315 23.2284 118.36 25.1388 117.378 26.5887C116.875 27.3506 115.481 27.6064 115.024 26.5887C114.324 24.9609 113.722 23.2919 113.223 21.5909V21.5909Z" fill="white"/>
    <path d="M119.698 28.6185C119.847 26.2421 120.2 23.8831 120.753 21.5681C121.233 19.3791 121.278 16.9853 122.328 14.9555C122.808 14.0856 124.321 14.4495 124.253 15.49V15.7629C124.637 15.6492 125.027 15.5582 125.416 15.4672C126.173 15.2796 127.042 15.0067 127.798 15.3023C127.944 15.3464 128.075 15.4273 128.18 15.5373C128.286 15.6472 128.361 15.7826 128.4 15.9304C128.438 16.0781 128.439 16.2334 128.4 16.3813C128.362 16.5291 128.287 16.6647 128.182 16.775C127.589 17.4004 126.788 17.4686 125.992 17.5823C125.326 17.6733 124.637 17.8155 123.977 17.9747C123.723 19.8396 123.361 21.7102 123.04 23.5752C123.359 23.5411 123.68 23.5411 123.999 23.5752C124.981 23.7344 124.801 25.1615 123.999 25.4174C123.589 25.5275 123.165 25.5811 122.74 25.5766C122.673 26.1054 122.628 26.6398 122.582 27.1686C123.931 27.0549 125.213 26.7081 126.562 26.7763C126.828 26.777 127.086 26.8655 127.297 27.0283C127.508 27.191 127.66 27.4191 127.73 27.6773C127.8 27.9356 127.784 28.2098 127.684 28.4579C127.584 28.706 127.406 28.9142 127.177 29.0506C125.281 30.1536 122.853 30.273 120.753 29.9717C120.454 29.8951 120.188 29.7209 119.997 29.4761C119.806 29.2313 119.701 28.9298 119.698 28.6185V28.6185Z" fill="white"/>
</svg>
