<?xml version="1.0" encoding="utf-8"?>
<svg width="135" height="26" viewBox="0 0 135 26" fill="none" xmlns="http://www.w3.org/2000/svg">
    <path d="M134.342 20.675C133.859 22.6216 133.128 24.4223 131.054 25.0482C128.429 25.8438 125.778 25.918 123.275 24.6132C121.949 23.9237 121.332 22.6799 121.446 20.9561C122.572 20.9561 123.678 20.9375 124.781 20.972C124.899 20.9798 125.013 21.0151 125.116 21.0754C125.218 21.1356 125.306 21.219 125.373 21.3194C126 22.839 127.24 22.7356 128.434 22.4704C129.674 22.2052 130.02 21.0993 130.157 19.9509C130.182 19.5288 130.182 19.1055 130.157 18.6833C129.201 19.0864 128.305 19.6566 127.341 19.829C124.804 20.2878 122.73 19.1527 121.657 16.7526C120.451 14.0661 120.487 11.3477 121.947 8.76198C123.624 5.79169 127.155 5.10481 129.617 7.01428C130.253 6.76234 130.738 6.43879 131.247 6.3937C132.281 6.30088 133.314 6.35923 134.348 6.35392L134.342 20.675ZM130.209 13.0132C130.083 12.143 129.911 11.2806 129.692 10.4301C129.387 9.45416 128.625 8.76993 127.649 9.00597C126.912 9.1863 125.977 9.72202 125.683 10.3638C124.936 12.0001 124.99 13.8115 125.592 15.5167C125.747 15.9546 126.03 16.3324 126.403 16.5979C126.776 16.8634 127.22 17.0034 127.674 16.9988C128.127 16.9941 128.568 16.8449 128.936 16.5719C129.304 16.2988 129.58 15.9153 129.726 15.4743C129.934 14.6645 130.096 13.8427 130.209 13.0132V13.0132Z" fill="white"/>
    <path d="M0 6.35396H1.88338L2.14173 7.94518C2.64654 7.26727 3.3108 6.73205 4.07221 6.38972C4.83362 6.04739 5.66725 5.90916 6.49494 5.98798C8.26723 6.08875 9.57448 6.95332 10.5381 8.60289C11.9048 6.86845 13.4859 5.78377 15.6819 5.99593C18.0381 6.22401 19.6579 7.66672 19.8155 10.2816C20.0015 13.5304 19.8594 16.8004 19.8594 20.1525H18.0587V12.8541C18.0587 12.2335 18.0897 11.613 18.0432 10.9977C17.9063 9.17573 17.0098 8.12287 15.3176 7.79667C13.7675 7.49434 12.1812 8.18652 11.6077 9.73001C11.214 10.8887 11.0029 12.1045 10.9825 13.3315C10.8869 15.5698 10.9541 17.8161 10.9541 20.1525H9.17404C9.15078 19.6831 9.10687 19.2217 9.10687 18.7602C9.10687 16.2859 9.13012 13.8089 9.09136 11.3345C9.05778 9.18634 8.09155 8.038 6.20042 7.75424C4.42813 7.48903 2.84186 8.56576 2.32516 10.5018C2.14444 11.2719 2.05766 12.062 2.06681 12.8541C2.03322 15.2728 2.06681 17.6914 2.06681 20.1764H0.232516C0.206681 19.7123 0.160177 19.2482 0.157594 18.7841C0.157594 15.6918 0.157594 12.5969 0.157594 9.50193C0.144676 8.98478 0.0516702 8.47559 0 7.94518V6.35396Z" fill="white"/>
    <path d="M99.3566 7.52616V0.591064H103.524V20.0677H99.5762C99.5116 19.7547 99.4367 19.3861 99.3566 18.983C99.2403 19.0095 99.0982 18.9989 99.0104 19.0679C95.6828 21.8684 91.5983 20.7599 90.0766 16.6306C89.4298 14.8875 89.3074 12.9853 89.7253 11.1701C90.7018 6.73055 95.4348 4.30127 99.3566 7.52616ZM93.7219 13.2493C93.8718 14.1881 93.9415 15.0288 94.1534 15.8271C94.2662 16.3269 94.533 16.7762 94.9141 17.1082C95.2952 17.4402 95.7705 17.6373 96.2693 17.6702C97.3931 17.7975 98.2095 17.2432 98.6745 16.2673C99.6356 14.2438 99.633 12.1885 98.5712 10.1915C98.0545 9.24203 97.2433 8.86544 96.197 8.98213C95.2023 9.10412 94.5022 9.65045 94.2309 10.629C93.988 11.5016 93.8744 12.4192 93.7219 13.2493Z" fill="white"/>
    <path d="M119.384 13.366C119.356 17.832 116.607 20.6299 112.259 20.614C107.991 20.5954 105.188 17.6808 105.211 13.2493C105.234 8.81772 108.091 5.9482 112.383 5.99064C116.697 6.03307 119.41 8.88667 119.384 13.366ZM115.121 13.3262C114.992 12.4537 114.93 11.6581 114.744 10.8969C114.437 9.63455 113.62 8.95828 112.323 8.95032C111.026 8.94236 110.05 9.63985 109.915 10.8837C109.752 12.5734 109.782 14.2769 110.003 15.9597C110.153 17.1398 111.176 17.6702 112.308 17.6782C113.439 17.6862 114.328 17.1345 114.656 15.9809C114.86 15.1057 115.015 14.2194 115.121 13.3262V13.3262Z" fill="white"/>
    <path d="M48.8437 20.1631H47.1463C47.0843 19.6619 47.0301 19.2349 46.9526 18.6302C46.6141 18.9167 46.3429 19.1474 46.0716 19.3728C43.2297 21.7252 39.2511 20.8208 37.7501 17.405C37.174 16.1392 36.8673 14.7619 36.8504 13.3649C36.8334 11.9678 37.1067 10.5831 37.6519 9.303C39.0393 5.91104 43.023 4.88735 45.976 7.08855C46.2757 7.31397 46.5573 7.56061 47.0327 7.95046V0.48761H48.8411L48.8437 20.1631ZM38.8352 13.3076C39.0186 14.265 39.1349 15.2754 39.4165 16.2248C39.8247 17.6198 40.6488 18.6674 42.1834 18.8079C43.8524 18.9591 45.2836 18.4366 46.0948 16.8454C46.6389 15.8127 46.9472 14.6666 46.9964 13.4937C47.0457 12.3207 46.8346 11.1516 46.379 10.0747C46.0773 9.3343 45.5585 8.70867 44.8946 8.28475C44.2307 7.86082 43.4547 7.65963 42.6743 7.70912C41.0544 7.79664 39.7988 8.7832 39.3157 10.5044C39.0599 11.3928 38.9954 12.3263 38.8352 13.3076Z" fill="white"/>
    <path d="M63.8126 13.7797H53.6387C53.2848 16.0153 54.4499 17.9964 56.3927 18.6329C58.4776 19.3145 60.5005 18.5162 61.3014 16.4529C61.7974 15.1799 62.6422 15.7528 63.4069 15.6122C63.2442 18.8981 60.0484 21.1603 56.4961 20.5928C53.8092 20.1631 51.9465 18.2059 51.5461 14.9519C51.3705 13.4264 51.4819 11.8806 51.8742 10.3983C52.6932 7.31928 55.0131 5.78906 58.0746 5.98796C61.0379 6.17891 62.9833 8.01677 63.5 11.1939C63.655 12.0028 63.7015 12.8249 63.8126 13.7797ZM53.5561 11.9789H61.5649C61.4047 9.37197 59.9063 7.77544 57.6354 7.70914C55.5273 7.65344 53.9772 9.22345 53.5483 11.9842L53.5561 11.9789Z" fill="white"/>
    <path d="M34.8772 13.4163C34.8772 18.5215 31.2448 21.6509 26.765 20.4097C24.2849 19.7043 22.5074 17.3466 22.2775 14.257C22.2039 13.2473 22.2708 12.2319 22.4764 11.2416C23.2179 7.67993 25.742 5.74129 29.1419 6.00119C32.3118 6.24253 34.6318 8.75666 34.8798 12.2255C34.9082 12.6207 34.8772 13.0185 34.8772 13.4163ZM24.0007 13.1511C24.3779 14.4161 24.5949 15.5379 25.0341 16.559C25.667 17.9752 26.8193 18.7628 28.3926 18.8291C30.0099 18.8981 31.2552 18.2085 32.0096 16.7817C33.3013 14.3525 33.3142 11.8622 31.8158 9.53106C31.4705 8.96827 30.9915 8.50484 30.4238 8.18435C29.8561 7.86385 29.2183 7.69681 28.5703 7.69894C27.9224 7.70106 27.2857 7.87227 26.72 8.19647C26.1542 8.52068 25.6781 8.98723 25.3364 9.55228C24.7034 10.6343 24.4399 11.9603 24.0058 13.1564L24.0007 13.1511Z" fill="white"/>
    <path d="M78.306 20.187H76.4976V6.45734H78.1898C78.2388 6.82863 78.2983 7.25296 78.3784 7.82845C78.7168 7.53673 78.9906 7.29804 79.2697 7.06466C82.189 4.63274 86.6146 6.10727 87.0202 9.89439C87.387 13.2386 87.0977 16.6598 87.0977 20.1472H85.3926V18.3332C85.3926 16.0365 85.421 13.7399 85.3926 11.4379C85.3641 9.13591 84.323 7.93984 82.3337 7.72502C80.4968 7.53142 78.8925 8.82562 78.5179 10.9075C78.3718 11.8217 78.3018 12.7471 78.3086 13.6736C78.2802 15.7925 78.306 17.9062 78.306 20.187Z" fill="white"/>
    <path d="M67.365 6.40699C68.1245 6.44146 69.1734 5.87658 69.238 7.61102C70.5298 6.07018 71.9998 5.70685 73.7643 6.13117V7.69588C70.2172 7.87887 69.2044 8.99538 69.1786 12.6976C69.1631 15.0845 69.1579 17.4713 69.1399 19.8396C69.1399 19.9165 69.0701 19.9934 68.99 20.1578H67.365V6.40699Z" fill="white"/>
</svg>
