<?xml version="1.0" encoding="utf-8"?>
<svg width="121" height="30" viewBox="0 0 121 30" fill="none" xmlns="http://www.w3.org/2000/svg">
    <path d="M1.5586 27.6846C2.71632 27.1152 4.00407 27.1363 5.28633 26.9389C5.1657 26.4689 4.99651 26.0162 4.93698 25.5477C4.72392 23.8557 4.51478 22.163 4.36517 20.4647C4.13488 17.8586 4.47718 15.2948 4.94481 12.7302C5.15944 11.5552 5.24325 10.3528 5.41479 9.16761C5.49312 8.64278 5.57145 8.10855 5.75474 7.61427C6.11663 6.60692 6.1088 5.55178 6.27329 4.51779C6.39589 3.72515 6.57653 2.94259 6.81377 2.17643C6.96259 1.69938 7.29785 1.26698 7.88532 1.30693C8.45557 1.34532 8.69212 1.82001 8.81667 2.28609C9.00309 2.98638 9.11119 3.70704 9.24435 4.42065C9.28665 4.6486 9.30075 4.88203 9.33051 5.13583L9.79188 5.01833C9.79188 4.22091 9.77464 3.42661 9.79971 2.6331C9.81092 2.29665 9.87217 1.96374 9.98143 1.64533C10.1639 1.12285 10.6668 0.960704 11.1039 1.29988C11.3865 1.52756 11.6269 1.80303 11.8144 2.11376C12.2953 2.89709 12.5091 3.76814 12.5726 4.67758C12.593 4.96193 12.6917 5.06533 12.9924 5.14758C14.2238 5.49773 15.4371 5.91054 16.6583 6.29594C16.7789 6.33665 16.9047 6.35987 17.0319 6.36487C17.7024 6.3774 18.0095 6.67193 18.0142 7.34951C18.0244 8.79396 17.4204 9.96112 16.3692 10.9176C15.7691 11.4821 15.0418 11.8937 14.2489 12.1176C13.4405 12.3377 13.3567 12.4764 13.3261 13.3263C13.3214 13.4438 13.3512 13.5722 13.3136 13.6772C13.0849 14.3101 13.4146 14.6767 13.8948 15.0089C14.841 15.6551 15.8053 16.281 16.7061 16.9875C18.1419 18.1132 19.3199 19.4527 19.844 21.2606C20.151 22.3212 20.0523 23.4022 20.0116 24.4801C20.0116 24.5952 19.9897 24.7104 19.9732 24.8717C20.7416 24.6164 21.4106 24.69 21.8766 25.3848C22.2887 25.9989 22.0262 26.5473 21.6338 27.0948C22.3826 27.2945 23.1847 27.2515 23.8271 27.7152C23.8357 27.7614 23.8435 27.8076 23.8521 27.8538C23.5881 27.958 23.3328 28.1116 23.0594 28.1562C21.9698 28.334 20.8795 28.5283 19.7813 28.6262C16.6082 28.8996 13.424 28.9325 10.2438 28.8612C7.72083 28.8024 5.19312 28.7249 2.70301 28.2447C2.31136 28.1664 1.93067 28.0097 1.54529 27.8914L1.5586 27.6846ZM11.6843 4.89927C11.7305 4.78177 11.83 4.658 11.8159 4.54912C11.7116 3.7078 11.3916 2.90773 10.8869 2.22656C10.8189 2.155 10.7453 2.08899 10.6668 2.02916C10.6363 2.43101 10.6128 2.74982 10.5885 3.06863L10.594 3.33496L10.5877 3.56996L10.6394 4.58828C10.612 4.83973 10.7177 4.93843 10.9731 4.9071C11.1513 4.89285 11.3301 4.88762 11.5089 4.89143L11.6843 4.89927ZM8.30204 3.48928L8.22371 3.08665L7.91509 2.07929H7.75843C7.62997 2.29627 7.45372 2.49916 7.38244 2.73415C7.25043 3.19663 7.14271 3.6657 7.05972 4.13944C6.83805 5.29093 6.8827 6.48863 6.50045 7.63621C6.21611 8.49786 6.0806 9.40809 5.92942 10.3058C5.73595 11.4682 5.84247 11.646 6.97043 12.0659C8.53076 12.6464 10.1514 12.7145 11.7893 12.5414C12.2499 12.4928 12.7042 12.4497 12.9478 11.9257C13.0308 11.7479 13.3105 11.6406 13.5212 11.5481C13.8063 11.4228 14.1212 11.3656 14.4039 11.2348C14.7596 11.0781 15.0964 10.8713 15.441 10.6865C14.653 10.4272 13.9598 10.1562 13.5039 9.48642L13.5744 9.41592C14.1831 9.6329 14.7799 9.90393 15.405 10.052C16.0943 10.2157 16.2008 10.1146 16.5424 9.45039C15.788 8.67489 15.5241 7.53359 16.0724 6.83565L12.5162 5.81497C12.871 6.89126 12.8037 7.64404 12.3235 8.51353C12.1809 8.03727 12.0321 7.56414 11.6146 7.24141C11.458 7.14898 11.3177 7.00641 11.1533 6.97351C10.5605 6.85016 9.94307 6.94384 9.41354 7.23749C8.7916 7.57746 8.53781 8.1062 8.67802 8.80414C8.71092 8.96864 8.7352 9.13549 8.7634 9.30156C8.52841 8.99919 8.22841 8.72738 8.07645 8.3882C7.77958 7.71924 7.88454 7.01816 8.05138 6.3304C8.21509 6.01707 8.49551 5.70374 8.51588 5.37788C8.54956 4.82955 8.41797 4.27104 8.35922 3.71644L8.30204 3.48928ZM5.71715 12.7325C5.5315 13.3506 5.63882 13.602 6.26154 13.9435C8.00595 14.8937 9.84201 15.0363 11.7376 14.5185C12.4629 14.3203 12.4567 14.2968 12.4559 13.5174L12.4402 13.2041C10.0997 13.6318 7.87357 13.5503 5.75239 12.297L5.71715 12.7325ZM13.2368 23.6207C13.2468 22.8113 13.2564 22.0019 13.2658 21.1924C13.2462 20.829 13.2024 20.4639 13.218 20.1013C13.2251 19.9407 13.3159 19.6908 13.4319 19.6462C13.6723 19.5537 13.7538 19.7801 13.7938 19.9846C13.827 20.1105 13.8508 20.2388 13.865 20.3684C13.9144 21.5637 13.9583 22.7591 14.0045 23.9544C13.935 24.4182 13.865 24.8819 13.7945 25.3456C13.5964 25.9316 13.3982 26.5206 13.1851 27.1473C13.5674 27.1269 13.9277 27.0932 14.2888 27.0917C16.0371 27.0859 17.7865 27.0859 19.5369 27.0917C20.1542 27.0917 20.6962 26.9279 21.1153 26.4572C21.3127 26.2363 21.4129 25.9872 21.2085 25.7154C21.004 25.4435 20.7385 25.3699 20.4518 25.5399C20.1283 25.731 19.833 25.9684 19.5119 26.1666C19.4132 26.2284 19.2518 26.2919 19.1711 26.2512C19.0904 26.2104 19.0411 26.0428 19.0333 25.9269C19.0307 25.7706 19.0489 25.6146 19.0873 25.4631C19.4006 23.938 19.3779 22.4317 18.8131 20.9629C18.4693 20.0723 18.0298 19.2333 17.292 18.5926C17.0766 18.3693 16.8878 18.1108 16.6426 17.9275C15.3329 16.9484 14.0092 15.9872 12.6823 15.0143C10.4107 16.0593 8.09446 15.8235 5.33725 14.2428C5.30257 14.3667 5.2764 14.4928 5.25892 14.6203C5.18685 15.8282 5.08972 17.0353 5.06387 18.244C5.04586 19.061 5.13124 19.8804 5.1704 20.6989L5.39521 23.3858C5.45161 23.8236 5.47354 24.2701 5.57145 24.697C5.74456 25.4287 5.89574 26.1799 6.19026 26.8653C6.57878 27.7724 7.56574 28.0309 8.43285 27.5523C8.79473 27.3525 8.89421 27.0752 8.7023 26.7024C8.61536 26.5332 8.45322 26.4055 8.35217 26.2418C8.18515 25.9916 8.04121 25.7268 7.92214 25.4506C7.84381 25.2508 7.85164 25.0166 7.82109 24.7973L7.74276 23.6748C7.74276 23.5448 7.74824 23.4147 7.74981 23.2831C7.75451 22.8257 7.73728 22.3674 7.77566 21.9139C7.78584 21.7948 7.96914 21.6906 8.07253 21.5794C8.16496 21.6875 8.28246 21.7831 8.3412 21.906C8.38742 22.0047 8.36 22.1371 8.36862 22.2538C8.43207 23.0607 8.52528 23.8659 8.54956 24.6728C8.56914 25.3112 8.81823 25.7827 9.34148 26.1188C9.52712 25.9684 9.69945 25.7749 9.91485 25.6684C10.1647 25.5446 10.236 25.3691 10.2611 25.1161C10.3592 24.1166 10.4666 23.1181 10.583 22.1207C10.6096 21.8857 10.5047 21.5034 10.8963 21.5254C11.2504 21.5457 11.1885 21.917 11.1893 22.1575C11.1893 22.7701 11.1525 23.3826 11.1298 23.9944L11.0506 24.9524C11.0128 25.0329 10.9864 25.1183 10.9723 25.2062C10.9613 25.7075 10.9089 26.1744 10.301 26.317C10.2321 26.3334 10.1749 26.407 10.1177 26.4603C9.86551 26.6953 9.6736 26.9836 9.81772 27.3259C9.95559 27.6533 10.2642 27.763 10.623 27.77C11.5144 27.788 12.101 27.329 12.499 26.5896C12.9948 25.666 13.1781 24.6571 13.2368 23.6207Z" fill="white"/>
    <path d="M68.1658 9.75587C69.412 9.75587 70.5987 9.74882 71.7846 9.76841C71.8818 9.76841 72.0251 9.93056 72.0635 10.0457C72.5648 11.5387 73.0504 13.0372 73.5408 14.5349C73.5651 14.607 73.5948 14.6775 73.6575 14.8483L75.3917 9.75666C76.4758 9.75666 77.5576 9.74882 78.6385 9.76997C78.7317 9.76997 78.8657 9.94779 78.9056 10.0684C79.4007 11.5497 79.8816 13.0364 80.3673 14.5216C80.3994 14.6203 80.4346 14.7182 80.502 14.9133L82.2362 9.77859H85.7611L82.3898 19.4691C81.1404 19.4691 79.9145 19.477 78.6887 19.4558C78.5806 19.4558 78.42 19.2866 78.3753 19.1644C77.9578 17.9448 77.5599 16.7189 77.1565 15.4945C77.1166 15.3747 77.0719 15.2595 76.9873 15.0159L75.4685 19.4527H71.541L68.1658 9.75587Z" fill="white"/>
    <path d="M69.1825 19.455H64.8743C64.6307 18.8166 64.3934 18.1704 64.1341 17.5335C64.091 17.4278 63.9563 17.2884 63.8623 17.2868C62.349 17.2719 60.8356 17.2758 59.3192 17.2758C59.0364 18.0114 58.7615 18.7281 58.4826 19.455H54.2269C54.2763 19.3234 54.3162 19.2028 54.3671 19.0861C56.0669 15.1961 57.7656 11.3056 59.4633 7.41455C59.5651 7.17955 59.6724 7.08085 59.9466 7.08477C61.1341 7.10435 62.3223 7.09652 63.5098 7.09025C63.708 7.09025 63.8325 7.11688 63.9258 7.3323C65.649 11.2985 67.3783 15.2616 69.1135 19.2216C69.1412 19.298 69.1642 19.3759 69.1825 19.455V19.455ZM61.6769 11.1385C61.257 12.2281 60.8717 13.226 60.4855 14.2295H62.8738C62.4727 13.1947 62.0889 12.2038 61.6769 11.1385Z" fill="white"/>
    <path d="M95.8751 19.4566H92.1403V18.3537C91.592 19.1433 90.8431 19.5067 89.9517 19.5984C88.9468 19.7018 87.9622 19.5984 87.0856 19.0501C86.083 18.4156 85.6835 17.4638 85.7838 16.3084C85.8793 15.2047 86.5185 14.5068 87.5259 14.1088C88.3875 13.7697 89.3008 13.7054 90.2157 13.6906C90.7366 13.6819 91.2575 13.6906 91.8137 13.6906C91.7204 13.1501 91.4071 12.854 90.9356 12.7255C89.846 12.431 88.8207 12.6519 87.8313 13.1407C87.7295 13.1908 87.6324 13.2503 87.5047 13.3216C87.0794 12.4513 86.6634 11.5983 86.2185 10.6873C86.5788 10.5212 86.9235 10.3356 87.2791 10.2024C88.8738 9.59804 90.6035 9.44226 92.2805 9.752C94.4738 10.1538 95.727 11.4596 95.8414 13.6757C95.9362 15.4585 95.8704 17.2508 95.8751 19.0391C95.8751 19.1621 95.8751 19.2913 95.8751 19.4566ZM91.8238 15.6026C91.2975 15.6355 90.7773 15.6332 90.269 15.7092C89.8311 15.775 89.611 16.082 89.6243 16.4627C89.6376 16.8434 89.922 17.1333 90.3489 17.2069C91.1753 17.3487 92.0424 16.7494 91.8238 15.6026Z" fill="white"/>
    <path d="M27.0894 16.0225V19.437H24.2241V7.09257H24.4998C26.5364 7.09257 28.573 7.0863 30.6096 7.09257C32.7174 7.10118 34.6381 8.6835 34.9397 10.6442C35.3525 13.3255 33.9457 15.3347 31.2621 15.8541C30.7104 15.9502 30.152 16.0026 29.5921 16.0107C28.7712 16.0421 27.9511 16.0225 27.0894 16.0225ZM27.1051 13.6725C27.4803 13.6725 27.8179 13.6803 28.1547 13.6725C28.8714 13.6514 29.5944 13.6772 30.301 13.5816C31.4344 13.4297 32.0751 12.6651 32.0986 11.5646C32.1221 10.464 31.5096 9.62663 30.3863 9.47858C29.3101 9.33758 28.2111 9.36969 27.1051 9.32191V13.6725Z" fill="white"/>
    <path d="M115.903 15.5431H109.229C109.645 16.8144 111.361 16.9954 113.242 15.9347C113.3 16.0424 113.369 16.1437 113.448 16.2371C114.048 16.8332 114.655 17.4231 115.277 18.0317C114.704 18.6869 113.945 19.1516 113.101 19.3634C111.59 19.7597 110.079 19.7464 108.592 19.2459C106.286 18.4704 104.979 16.563 105.126 14.2146C105.261 12.0479 106.889 10.2392 109.154 9.76136C110.81 9.41199 112.403 9.57023 113.86 10.4859C115.492 11.5105 116.241 13.3803 115.903 15.5431ZM109.129 13.5942H112.184C112.073 12.8383 111.51 12.3651 110.74 12.3408C109.884 12.3158 109.317 12.7435 109.129 13.5942Z" fill="white"/>
    <path d="M38.9473 15.4687C39.3389 17.5915 42.5027 18.0074 44.0708 16.4815L45.5332 18.067C45.0625 18.6383 44.437 19.0618 43.7317 19.2866C42.1345 19.8091 40.5405 19.7754 38.9911 19.1151C36.9099 18.2268 35.8657 16.2285 36.19 13.8378C36.4634 11.8176 38.1655 10.1366 40.2507 9.83736C42.0397 9.58121 43.6682 9.91569 44.9505 11.2732C46.0581 12.4482 46.3228 13.8872 46.1685 15.4687H38.9473ZM43.5366 13.8237C43.5225 12.7631 42.5034 11.8771 41.3019 11.8654C40.0141 11.8513 38.9833 12.6988 38.9418 13.8237H43.5366Z" fill="white"/>
    <path d="M101.493 9.77784V10.7695C102.396 9.89377 103.435 9.60786 104.606 9.59454V13.1164C104.329 13.0984 104.05 13.0647 103.77 13.0631C102.394 13.0545 101.687 13.7438 101.675 15.1209C101.664 16.4267 101.675 17.7317 101.675 19.0375V19.4464H97.6938V9.77784H101.493Z" fill="white"/>
    <path d="M53.468 17.08C53.7241 17.7513 53.9646 18.3803 54.2105 19.0258C53.2816 19.6164 52.2789 19.7245 51.2544 19.5843C49.3008 19.3164 48.3851 18.2135 48.364 16.1557C48.3507 14.8781 48.364 13.5997 48.364 12.2798H46.9266V10.1476H48.3491V7.82343H51.1384V10.1248H53.5165V12.2563H51.1666C51.1596 12.4067 51.1486 12.532 51.1486 12.6573C51.1486 13.7665 51.1776 14.8765 51.1408 15.9849C51.0946 17.3683 52.127 17.6455 53.1108 17.2586C53.2197 17.2163 53.3199 17.1544 53.468 17.08Z" fill="white"/>
    <path d="M109.375 20.341H110.733C110.748 20.4256 110.762 20.5023 110.78 20.6018C111.528 20.1021 112.241 20.106 112.824 20.6802C113.279 20.5235 113.679 20.3104 114.096 20.2689C114.991 20.178 115.558 20.7593 115.612 21.7188C115.612 21.7839 115.612 21.8489 115.612 21.9139V23.9028H114.124V22.4058C114.124 22.3009 114.124 22.1967 114.124 22.0925C114.11 21.7956 114.035 21.5222 113.673 21.5277C113.335 21.5316 113.195 21.7745 113.189 22.08C113.177 22.6792 113.189 23.2784 113.189 23.9059H111.701C111.701 23.3803 111.701 22.85 111.701 22.3197C111.701 22.1888 111.735 22.0361 111.68 21.9335C111.597 21.7768 111.446 21.5418 111.332 21.5504C111.175 21.5614 110.959 21.7306 110.891 21.8857C110.808 22.0753 110.844 22.3197 110.842 22.5406C110.836 22.9847 110.842 23.4281 110.842 23.9028H109.381L109.375 20.341Z" fill="white"/>
    <path d="M106.79 20.2525C108.278 20.2446 109.243 21.447 108.794 22.7521C108.531 23.515 107.759 24.0054 106.816 24.0124C105.595 24.0195 104.709 23.2252 104.713 22.1246C104.717 21.0241 105.575 20.2595 106.79 20.2525ZM107.39 22.1411C107.39 21.7055 107.155 21.4157 106.801 21.4157C106.457 21.4157 106.225 21.6883 106.214 22.1035C106.203 22.5366 106.433 22.8382 106.783 22.8492C107.133 22.8602 107.39 22.5742 107.39 22.1411H107.39Z" fill="white"/>
    <path d="M104.582 21.3287L103.515 21.8677C103.029 21.3742 102.684 21.2919 102.403 21.5958C102.143 21.8755 102.162 22.4575 102.438 22.7058C102.738 22.9753 103.092 22.875 103.497 22.3925L104.561 22.9236C104.409 23.6403 103.613 24.0782 102.629 24.003C101.527 23.9184 100.766 23.2197 100.719 22.2444C100.671 21.2371 101.297 20.4992 102.369 20.2987C103.399 20.1044 104.314 20.5219 104.582 21.3287Z" fill="white"/>
    <path d="M99.5338 24.0124C99.4198 24.0147 99.3067 23.9937 99.2012 23.9506C99.0957 23.9076 99.0001 23.8434 98.9203 23.762C98.8406 23.6806 98.7783 23.5838 98.7374 23.4775C98.6964 23.3711 98.6777 23.2575 98.6823 23.1437C98.6823 22.6494 99.0552 22.2945 99.5596 22.3024C100.064 22.3102 100.421 22.6784 100.421 23.1687C100.42 23.283 100.396 23.3959 100.351 23.5007C100.305 23.6055 100.239 23.7001 100.156 23.7788C100.074 23.8575 99.9758 23.9188 99.8689 23.9589C99.7619 23.999 99.6479 24.0172 99.5338 24.0124V24.0124Z" fill="white"/>
    <path d="M17.6296 19.9391L17.2888 18.5918C18.0291 19.2318 18.4638 20.0707 18.81 20.9614C19.3748 22.4301 19.3951 23.938 19.0842 25.4616C19.0458 25.6131 19.0276 25.769 19.0301 25.9253C19.038 26.0412 19.0857 26.2081 19.168 26.2496C19.2502 26.2911 19.41 26.2269 19.5087 26.165C19.8267 25.9652 20.122 25.7279 20.4487 25.5383C20.7362 25.3683 21.0064 25.4529 21.2054 25.7138C21.4043 25.9746 21.3095 26.2347 21.1121 26.4556C20.6931 26.9256 20.151 27.0924 19.5338 27.0901C17.7855 27.0844 16.0361 27.0844 14.2857 27.0901C13.9246 27.0901 13.5643 27.1253 13.182 27.1457C13.3951 26.5191 13.5932 25.9316 13.7914 25.3441C14.4627 25.3958 15.1363 25.5078 15.8037 25.4796C16.2795 25.4513 16.7442 25.3252 17.169 25.1091C17.9797 24.701 18.2515 23.9043 18.228 23.0724C18.2045 22.2256 18.0197 21.382 17.8802 20.5415C17.8458 20.3308 17.7157 20.1404 17.6296 19.9391Z" fill="white"/>
    <path d="M17.6296 19.9391C17.7157 20.1404 17.8458 20.3307 17.8802 20.5438C18.0196 21.3843 18.2045 22.228 18.228 23.0747C18.2515 23.9027 17.9797 24.6993 17.169 25.1114C16.7444 25.3283 16.2796 25.4552 15.8037 25.4842C15.1363 25.5124 14.4627 25.4004 13.7914 25.3487C13.8608 24.885 13.9308 24.4213 14.0013 23.9575C14.3624 23.992 14.7282 24.0813 15.0838 24.0531C16.4985 23.9403 17.382 23.0277 17.5403 21.5371C17.5959 21.0044 17.6014 20.471 17.6296 19.9391Z" fill="white"/>
    <path d="M7.82123 24.7958C7.85178 25.0151 7.84473 25.2493 7.92228 25.4491C8.04135 25.7253 8.18529 25.9901 8.35231 26.2402C8.45336 26.4039 8.6155 26.5316 8.70245 26.7008C8.89436 27.0737 8.79488 27.351 8.43299 27.5507C7.56588 28.0309 6.57891 27.7724 6.18726 26.8645C5.89274 26.1791 5.74156 25.4279 5.56845 24.6963C5.46741 24.2694 5.44861 23.8229 5.39221 23.385C5.48196 23.4489 5.56728 23.5187 5.64757 23.5942C6.24601 24.2271 6.92278 24.7104 7.82123 24.7958Z" fill="white"/>
    <path d="M13.2368 23.6207C13.1812 24.6579 12.9979 25.6668 12.5013 26.5919C12.1033 27.3313 11.5167 27.7904 10.6253 27.7724C10.2665 27.7653 9.95789 27.6556 9.82003 27.3282C9.6759 26.9859 9.86781 26.7015 10.12 26.4626C10.1772 26.4094 10.2344 26.3357 10.3033 26.3193C10.9112 26.1767 10.9636 25.7099 10.9746 25.2085C10.9887 25.1207 11.0151 25.0352 11.0529 24.9547C11.8699 24.8874 12.4057 24.361 12.9329 23.8134C13.0104 23.7288 13.1318 23.6834 13.2368 23.6207Z" fill="white"/>
    <path d="M12.4536 13.5158C12.4536 14.2953 12.4606 14.3188 11.7353 14.5169C9.83969 15.0347 8.00364 14.8922 6.25923 13.942C5.63259 13.6004 5.52919 13.349 5.71484 12.731C6.43234 13.0263 7.13026 13.3921 7.87361 13.5926C8.58133 13.7924 9.31433 13.8882 10.0496 13.877C10.8525 13.8558 11.6515 13.6443 12.4536 13.5158Z" fill="white"/>
    <path d="M12.3235 8.51354C11.6076 10.1264 9.91093 10.1585 8.86914 9.43394L8.83154 9.29608C8.86053 9.19111 8.93885 9.06891 8.90987 8.98275C8.75321 8.5292 8.93415 8.15869 9.19969 7.83596C9.35635 7.64248 9.53651 7.3738 9.87881 7.49991C9.8608 7.57824 9.842 7.65109 9.82633 7.72629C9.78199 7.91064 9.80334 8.10469 9.8867 8.27499C9.97006 8.44529 10.1102 8.58117 10.283 8.65923C10.4607 8.74502 10.664 8.76158 10.8532 8.70569C11.0425 8.64979 11.2042 8.52545 11.3068 8.35687C11.559 7.97069 11.4399 7.61741 11.1885 7.28215L11.6146 7.24298C12.0321 7.56258 12.1809 8.03727 12.3235 8.51354Z" fill="white"/>
    <path d="M7.82133 24.7957C6.92288 24.7088 6.24611 24.2255 5.6508 23.5926C5.57043 23.518 5.48512 23.4489 5.39544 23.3858L5.16907 20.6974C5.81686 21.8724 6.65029 22.8868 7.74535 23.674L7.82133 24.7957Z" fill="white"/>
    <path d="M13.2369 23.6207C13.1351 23.6841 13.0137 23.7296 12.9338 23.8134C12.4066 24.3617 11.8708 24.8873 11.0538 24.9547L11.1384 23.9967C12.3181 23.4191 13.0272 22.4843 13.2659 21.1924C13.2544 22.0018 13.2447 22.8113 13.2369 23.6207Z" fill="white"/>
    <path d="M12.4537 13.5159C11.6524 13.6451 10.8534 13.8566 10.0497 13.8793C9.31414 13.8903 8.58086 13.7943 7.87293 13.5942C7.12723 13.3913 6.43166 13.0255 5.71729 12.7325C5.72747 12.6088 5.73765 12.485 5.75253 12.297C7.87371 13.5503 10.0999 13.6287 12.4404 13.2041L12.4537 13.5159Z" fill="white"/>
    <path d="M8.05161 6.33037C7.70774 6.27789 7.46178 6.10948 7.3623 5.7609C7.38815 5.69118 7.44063 5.61911 7.43437 5.55097C7.39207 4.89062 7.65917 4.30783 7.87771 3.71171C7.95604 3.50727 8.05709 3.36548 8.30305 3.48612C8.32028 3.56445 8.33751 3.6373 8.35396 3.71328C8.41584 4.26788 8.54743 4.82639 8.51062 5.37472C8.49574 5.70371 8.21532 6.01313 8.05161 6.33037Z" fill="white"/>
    <path d="M11.6147 7.2414L11.1886 7.28057C10.5737 6.98055 10.3638 7.01424 9.87814 7.50146C9.53584 7.37535 9.35803 7.64403 9.19902 7.83751C8.93348 8.16024 8.74862 8.53075 8.9092 8.9843C8.93896 9.0689 8.86063 9.1911 8.83087 9.29763C8.80834 9.29373 8.78557 9.29138 8.76272 9.29058V9.30076C8.73452 9.1347 8.71024 8.96785 8.67734 8.80335C8.53713 8.10776 8.79092 7.57901 9.41286 7.2367C9.94239 6.94305 10.5598 6.84937 11.1526 6.97272C11.3178 7.00484 11.4612 7.14897 11.6147 7.2414Z" fill="white"/>
    <path d="M8.30199 3.4893C8.05604 3.36867 7.95186 3.51045 7.87666 3.7149C7.65812 4.31101 7.39102 4.8938 7.43331 5.55415C7.43801 5.6223 7.3871 5.69436 7.36125 5.76408C7.33932 5.34578 7.23671 4.91104 7.31504 4.51076C7.44036 3.90446 7.68162 3.3248 7.8892 2.68561L8.22758 3.08275C8.25343 3.21749 8.2785 3.35143 8.30199 3.4893Z" fill="white"/>
    <path d="M10.5914 3.57386C10.5914 3.49553 10.5914 3.4172 10.5977 3.33887C10.687 3.37803 10.8249 3.3937 10.8578 3.46107C11.088 3.93106 11.2972 4.41672 11.5126 4.89612C11.3338 4.8923 11.155 4.89753 10.9768 4.91178C10.7222 4.94312 10.6157 4.84442 10.6431 4.59297L10.5914 3.57386Z" fill="white"/>
    <path d="M10.5924 3.06861L10.8438 2.67303C11.2715 3.38899 11.6788 4.06422 11.6843 4.89924L11.5136 4.89219C11.2982 4.4128 11.089 3.92949 10.8587 3.45714C10.8258 3.38978 10.688 3.37411 10.5987 3.33494C10.5955 3.24643 10.594 3.15713 10.5924 3.06861Z" fill="white"/>
    <path d="M10.5914 3.57385L10.6431 4.59218L10.5914 3.57385Z" fill="white"/>
    <path d="M8.35621 3.71642C8.33976 3.63809 8.32253 3.56524 8.3053 3.48926C8.32253 3.56759 8.33976 3.64044 8.35621 3.71642Z" fill="white"/>
    <path d="M8.76343 9.28589C8.78642 9.28669 8.80934 9.28904 8.83201 9.29294L8.86985 9.4308L8.76343 9.28589Z" fill="white"/>
    <path d="M13.5024 9.48955L13.4186 9.38458L13.5752 9.41905L13.5024 9.48955Z" fill="white"/>
    <path d="M9.87803 7.50147C10.3637 7.01581 10.5744 6.98056 11.1885 7.28057C11.4399 7.61584 11.559 7.96912 11.3068 8.3553C11.2044 8.52415 11.0429 8.64882 10.8536 8.70501C10.6643 8.7612 10.4609 8.74488 10.283 8.65923C10.1107 8.5814 9.97085 8.44607 9.88739 8.27643C9.80393 8.1068 9.78207 7.91341 9.82555 7.72942C9.84122 7.65265 9.86002 7.57667 9.87803 7.50147ZM10.4483 7.17091C10.3018 7.39181 10.1483 7.52105 10.1624 7.62837C10.1788 7.74979 10.3449 7.85162 10.4459 7.96207C10.5595 7.84848 10.7334 7.74979 10.7671 7.61584C10.7898 7.5234 10.612 7.38397 10.4483 7.17091Z" fill="white"/>
</svg>
