<?xml version="1.0" encoding="utf-8"?>
<svg width="122" height="55" viewBox="0 0 122 55" fill="none" xmlns="http://www.w3.org/2000/svg">
    <path d="M112.891 9.69024C112.479 10.971 121.875 15.0935 119.061 18.3799C116.248 21.6666 110.073 18.1319 110.073 18.1319L95.5229 23.4279C95.5229 23.4279 92.6229 30.2653 89.4478 29.3971C86.6275 28.6264 86.2159 25.9982 87.846 21.4454" stroke="white" stroke-opacity="0.7" stroke-width="2" stroke-linecap="round" stroke-linejoin="round"/>
    <path d="M89.6061 22.8066C90.0173 21.5258 80.6221 17.4034 83.436 14.117C86.2493 10.8302 92.4233 14.365 92.4233 14.365L106.974 9.06898C106.974 9.06898 109.874 2.23156 113.049 3.0997C115.869 3.87048 116.281 6.49869 114.651 11.0515" stroke="white" stroke-opacity="0.7" stroke-width="2" stroke-linecap="round" stroke-linejoin="round"/>
    <path fill-rule="evenodd" clip-rule="evenodd" d="M22.006 27.9966C22.6397 28.1083 23.1288 28.5642 23.4452 29.1547C23.8315 29.8757 23.9698 30.8057 23.8 31.7683C23.6303 32.731 23.1823 33.5576 22.5728 34.103C22.0735 34.5497 21.458 34.8107 20.8242 34.6989C20.1906 34.5872 19.7015 34.1313 19.385 33.5407C18.9988 32.8198 18.8605 31.8899 19.0302 30.9272C19.1999 29.9647 19.648 29.1382 20.2576 28.5928C20.7569 28.1461 21.3724 27.8849 22.006 27.9966Z" stroke="white" stroke-opacity="0.7" stroke-width="2"/>
    <path fill-rule="evenodd" clip-rule="evenodd" d="M27.3728 36.1992C27.8743 36.2876 28.2736 36.6166 28.5325 37.049C28.8363 37.5564 28.9537 38.207 28.8358 38.8759C28.7178 39.5449 28.385 40.1161 27.9259 40.489C27.5348 40.8067 27.047 40.9793 26.5455 40.8909C26.044 40.8024 25.6447 40.4734 25.3858 40.0411C25.0819 39.5336 24.9645 38.8831 25.0825 38.2141C25.2004 37.5452 25.5333 36.974 25.9924 36.6011C26.3835 36.2834 26.8713 36.1108 27.3728 36.1992Z" stroke="white" stroke-opacity="0.7" stroke-width="2"/>
    <path fill-rule="evenodd" clip-rule="evenodd" d="M12.8573 26.3834C12.2235 26.2716 11.6081 26.5327 11.1088 26.9794C10.4992 27.5248 10.0512 28.3515 9.88143 29.314C9.71168 30.2767 9.8499 31.2067 10.2362 31.9276C10.5526 32.5182 11.0417 32.974 11.6755 33.0857C12.3091 33.1975 12.9246 32.9364 13.424 32.4896C14.0335 31.9443 14.4815 31.1177 14.6513 30.1551C14.821 29.1926 14.6826 28.2626 14.2963 27.5416C13.9799 26.9511 13.4909 26.4951 12.8573 26.3834Z" stroke="white" stroke-opacity="0.7" stroke-width="2"/>
    <path fill-rule="evenodd" clip-rule="evenodd" d="M5.00883 32.2558C4.50733 32.1673 4.01957 32.3399 3.62843 32.6576C3.16933 33.0305 2.83649 33.6018 2.71854 34.2707C2.60059 34.9396 2.71799 35.5902 3.02186 36.0977C3.28075 36.53 3.68006 36.859 4.18157 36.9474C4.68307 37.0359 5.17083 36.8633 5.56197 36.5456C6.02107 36.1726 6.35391 35.6014 6.47186 34.9325C6.58982 34.2636 6.47241 33.613 6.16854 33.1055C5.90965 32.6732 5.51034 32.3442 5.00883 32.2558Z" stroke="white" stroke-opacity="0.7" stroke-width="2"/>
    <path fill-rule="evenodd" clip-rule="evenodd" d="M14.6516 38.7936L14.7354 38.8149C17.086 39.2297 18.7177 40.6746 19.8357 42.3816C21.5909 45.0613 22.1532 48.4242 21.9084 49.8127C21.7415 50.7591 21.1764 51.539 20.4082 52.0417C19.6081 52.5654 18.589 52.7911 17.543 52.6067C16.3895 52.4033 15.4365 51.7423 14.8769 50.8535L14.7769 50.7007C14.4818 50.2225 13.8148 49.7133 12.8871 49.5497C11.967 49.3874 11.1723 49.6322 10.729 49.976L10.5812 50.0818C9.75001 50.7339 8.62181 51.0336 7.46119 50.829C6.41518 50.6445 5.53473 50.0839 4.96198 49.3181C4.41211 48.583 4.1478 47.6568 4.31468 46.7104C4.5595 45.322 6.23688 42.3548 8.78014 40.4295C10.3953 39.2067 12.3932 38.3954 14.6655 38.7961L14.6516 38.7936Z" stroke="white" stroke-opacity="0.7" stroke-width="2"/>
</svg>
