<?xml version="1.0" encoding="utf-8"?>
<svg width="104" height="83" viewBox="0 0 104 83" fill="none" xmlns="http://www.w3.org/2000/svg">
    <path fill-rule="evenodd" clip-rule="evenodd" d="M17.6327 2.49585C18.2665 2.38411 18.8819 2.64522 19.3812 3.09193C19.9908 3.6373 20.4388 4.46396 20.6086 5.42651C20.7783 6.38922 20.6401 7.31922 20.2538 8.04013C19.9374 8.63069 19.4483 9.08648 18.8145 9.19823C18.1809 9.30996 17.5654 9.04884 17.066 8.60208C16.4565 8.05677 16.0084 7.23021 15.8387 6.26757C15.669 5.30508 15.8074 4.37509 16.1936 3.65414C16.5101 3.06354 16.9991 2.60758 17.6327 2.49585Z" stroke="white" stroke-opacity="0.7" stroke-width="2"/>
    <path fill-rule="evenodd" clip-rule="evenodd" d="M25.4809 8.36831C25.9824 8.27988 26.4702 8.45248 26.8613 8.77018C27.3204 9.14309 27.6533 9.7143 27.7712 10.3832C27.8892 11.0522 27.7718 11.7028 27.4679 12.2102C27.209 12.6425 26.8097 12.9715 26.3082 13.06C25.8067 13.1484 25.3189 12.9758 24.9278 12.6581C24.4687 12.2852 24.1358 11.714 24.0179 11.045C23.8999 10.3761 24.0173 9.72552 24.3212 9.21807C24.5801 8.78575 24.9794 8.45674 25.4809 8.36831Z" stroke="white" stroke-opacity="0.7" stroke-width="2"/>
    <path fill-rule="evenodd" clip-rule="evenodd" d="M8.48397 4.109C7.85024 4.22075 7.3612 4.67661 7.04479 5.26715C6.6585 5.98812 6.52022 6.91816 6.68995 7.88072C6.8597 8.84342 7.30767 9.67006 7.9172 10.2154C8.41652 10.6621 9.03202 10.9231 9.66578 10.8114C10.2994 10.6996 10.7885 10.2438 11.105 9.65315C11.4912 8.93225 11.6295 8.0023 11.4598 7.03966C11.2901 6.07718 10.842 5.25059 10.2324 4.70523C9.73308 4.25849 9.11759 3.99728 8.48397 4.109Z" stroke="white" stroke-opacity="0.7" stroke-width="2"/>
    <path fill-rule="evenodd" clip-rule="evenodd" d="M3.11748 12.3116C2.61597 12.4 2.21666 12.729 1.95777 13.1613C1.6539 13.6688 1.53649 14.3194 1.65445 14.9883C1.7724 15.6572 2.10524 16.2284 2.56434 16.6013C2.95548 16.9191 3.44324 17.0916 3.94474 17.0032C4.44624 16.9148 4.84556 16.5858 5.10445 16.1535C5.40832 15.646 5.52572 14.9954 5.40777 14.3265C5.28982 13.6575 4.95698 13.0863 4.49788 12.7134C4.10674 12.3957 3.61898 12.2231 3.11748 12.3116Z" stroke="white" stroke-opacity="0.7" stroke-width="2"/>
    <path fill-rule="evenodd" clip-rule="evenodd" d="M14.4148 15.1571L14.5008 15.1484C16.8515 14.7343 18.879 15.5339 20.5134 16.7556C23.0792 18.6733 24.7579 21.6412 25.0027 23.0296C25.1696 23.976 24.9053 24.9022 24.3554 25.6373C23.7826 26.4031 22.9022 26.9637 21.8562 27.1482C20.7026 27.3516 19.581 27.0564 18.7512 26.4126L18.6049 26.3033C18.1641 25.9547 17.3632 25.7044 16.4355 25.868C15.5153 26.0302 14.8523 26.532 14.5533 27.0067L14.4507 27.1566C13.8926 28.0537 12.935 28.7212 11.7743 28.9259C10.7283 29.1103 9.70921 28.8846 8.90912 28.3609C8.14097 27.8582 7.57583 27.0783 7.40895 26.1319C7.16414 24.7434 7.72552 21.3815 9.4569 18.7024C10.5565 17.001 12.1564 15.5553 14.4287 15.1547L14.4148 15.1571Z" stroke="white" stroke-opacity="0.7" stroke-width="2"/>
    <path d="M91.1345 52.3845C91.3031 53.7191 101.56 53.4847 100.399 57.6524C99.2382 61.8201 92.1488 61.2258 92.1488 61.2258L81.1996 72.175C81.1996 72.175 81.461 79.5974 78.2165 80.1524C75.3347 80.6458 73.8509 78.4377 73.4042 73.6226" stroke="white" stroke-opacity="0.7" stroke-width="2" stroke-linecap="round" stroke-linejoin="round"/>
    <path d="M75.5749 74.1122C75.4063 72.7777 65.1491 73.012 66.3105 68.8443C67.4712 64.6766 74.5606 65.2709 74.5606 65.2709L85.5098 54.3217C85.5098 54.3217 85.2484 46.8993 88.4929 46.3443C91.3747 45.8509 92.8585 48.059 93.3051 52.8741" stroke="white" stroke-opacity="0.7" stroke-width="2" stroke-linecap="round" stroke-linejoin="round"/>
</svg>
