<?xml version="1.0" encoding="utf-8"?>
<svg width="1046" height="239" viewBox="0 0 1046 239" fill="none" xmlns="http://www.w3.org/2000/svg">
<path d="M1007.03 20.3844C1007.2 21.7189 1017.45 21.4846 1016.29 25.6523C1015.13 29.82 1008.04 29.2257 1008.04 29.2257L997.093 40.1749C997.093 40.1749 997.355 47.5973 994.11 48.1523C991.228 48.6457 989.745 46.4376 989.298 41.6225" stroke="white" stroke-opacity="0.5" stroke-width="2" stroke-linecap="round" stroke-linejoin="round"/>
<path d="M991.469 42.1121C991.3 40.7775 981.043 41.0119 982.204 36.8442C983.365 32.6765 990.454 33.2708 990.454 33.2708L1001.4 22.3216C1001.4 22.3216 1001.14 14.8992 1004.39 14.3442C1007.27 13.8508 1008.75 16.0589 1009.2 20.874" stroke="white" stroke-opacity="0.5" stroke-width="2" stroke-linecap="round" stroke-linejoin="round"/>
<path d="M878.721 31.8577C877.993 32.9885 886.001 39.4021 882.432 41.8482C878.864 44.2948 873.815 39.2826 873.815 39.2826L858.39 40.6321C858.39 40.6321 853.819 46.486 850.977 44.8257C848.452 43.3512 848.735 40.706 851.488 36.7303" stroke="white" stroke-opacity="0.5" stroke-width="2" stroke-linecap="round" stroke-linejoin="round"/>
<path d="M852.836 38.5006C853.565 37.3699 845.557 30.9563 849.125 28.5102C852.693 26.0635 857.742 31.0758 857.742 31.0758L873.168 29.7262C873.168 29.7262 877.738 23.8724 880.581 25.5327C883.105 27.0072 882.823 29.6523 880.07 33.6281" stroke="white" stroke-opacity="0.5" stroke-width="2" stroke-linecap="round" stroke-linejoin="round"/>
<path fill-rule="evenodd" clip-rule="evenodd" d="M1038.51 120.11C1039.06 120.432 1039.37 121.028 1039.46 121.691C1039.58 122.5 1039.39 123.422 1038.9 124.268C1038.41 125.115 1037.71 125.738 1036.95 126.042C1036.33 126.291 1035.66 126.326 1035.1 126.004C1034.55 125.683 1034.24 125.087 1034.15 124.424C1034.03 123.614 1034.22 122.693 1034.71 121.846C1035.2 121 1035.9 120.377 1036.66 120.073C1037.28 119.824 1037.95 119.789 1038.51 120.11Z" stroke="white" stroke-opacity="0.5" stroke-width="2"/>
<path fill-rule="evenodd" clip-rule="evenodd" d="M1040.74 129.653C1041.18 129.908 1041.45 130.354 1041.54 130.849C1041.65 131.429 1041.54 132.081 1041.2 132.669C1040.86 133.257 1040.35 133.68 1039.8 133.874C1039.32 134.039 1038.8 134.034 1038.36 133.779C1037.92 133.525 1037.66 133.079 1037.56 132.584C1037.45 132.003 1037.56 131.352 1037.9 130.764C1038.24 130.175 1038.75 129.752 1039.31 129.559C1039.78 129.394 1040.3 129.399 1040.74 129.653Z" stroke="white" stroke-opacity="0.5" stroke-width="2"/>
<path fill-rule="evenodd" clip-rule="evenodd" d="M1030.46 115.465C1029.9 115.144 1029.24 115.179 1028.61 115.428C1027.85 115.732 1027.15 116.355 1026.66 117.202C1026.17 118.048 1025.98 118.969 1026.1 119.779C1026.2 120.442 1026.5 121.038 1027.06 121.359C1027.61 121.681 1028.28 121.646 1028.9 121.397C1029.66 121.093 1030.37 120.47 1030.86 119.623C1031.34 118.777 1031.53 117.856 1031.42 117.046C1031.32 116.383 1031.02 115.787 1030.46 115.465Z" stroke="white" stroke-opacity="0.5" stroke-width="2"/>
<path fill-rule="evenodd" clip-rule="evenodd" d="M1021.08 118.299C1020.64 118.045 1020.12 118.04 1019.64 118.205C1019.08 118.398 1018.58 118.821 1018.24 119.409C1017.9 119.998 1017.78 120.649 1017.9 121.23C1017.99 121.725 1018.25 122.171 1018.69 122.425C1019.14 122.68 1019.65 122.684 1020.13 122.52C1020.69 122.326 1021.2 121.903 1021.54 121.315C1021.88 120.727 1021.99 120.075 1021.88 119.495C1021.78 119 1021.52 118.554 1021.08 118.299Z" stroke="white" stroke-opacity="0.5" stroke-width="2"/>
<path fill-rule="evenodd" clip-rule="evenodd" d="M1027.9 127.741L1027.97 127.79C1030.04 128.983 1031.08 130.899 1031.55 132.886C1032.28 136.004 1031.66 139.356 1030.95 140.577C1030.47 141.41 1029.67 141.949 1028.78 142.159C1027.85 142.377 1026.81 142.241 1025.89 141.71C1024.88 141.124 1024.21 140.177 1023.99 139.151L1023.95 138.973C1023.83 138.422 1023.38 137.716 1022.56 137.245C1021.76 136.778 1020.93 136.736 1020.39 136.907L1020.22 136.956C1019.21 137.285 1018.05 137.18 1017.03 136.591C1016.11 136.06 1015.47 135.232 1015.2 134.317C1014.93 133.438 1015 132.477 1015.48 131.645C1016.19 130.424 1018.78 128.209 1021.83 127.27C1023.76 126.673 1025.92 126.594 1027.91 127.748L1027.9 127.741Z" stroke="white" stroke-opacity="0.5" stroke-width="2"/>
<path fill-rule="evenodd" clip-rule="evenodd" d="M17.6327 72.496C18.2665 72.3842 18.8819 72.6453 19.3812 73.092C19.9908 73.6374 20.4388 74.4641 20.6086 75.4266C20.7783 76.3893 20.6401 77.3193 20.2538 78.0403C19.9374 78.6308 19.4483 79.0866 18.8145 79.1983C18.1809 79.3101 17.5654 79.049 17.066 78.6022C16.4565 78.0569 16.0084 77.2303 15.8387 76.2677C15.669 75.3052 15.8074 74.3752 16.1936 73.6543C16.5101 73.0637 16.9991 72.6077 17.6327 72.496Z" stroke="white" stroke-opacity="0.5" stroke-width="2"/>
<path fill-rule="evenodd" clip-rule="evenodd" d="M25.4809 78.3683C25.9824 78.2799 26.4702 78.4525 26.8613 78.7702C27.3204 79.1431 27.6533 79.7143 27.7712 80.3832C27.8892 81.0522 27.7718 81.7028 27.4679 82.2102C27.209 82.6425 26.8097 82.9715 26.3082 83.06C25.8067 83.1484 25.3189 82.9758 24.9278 82.6581C24.4687 82.2852 24.1358 81.714 24.0179 81.045C23.8999 80.3761 24.0173 79.7255 24.3212 79.2181C24.5801 78.7857 24.9794 78.4567 25.4809 78.3683Z" stroke="white" stroke-opacity="0.5" stroke-width="2"/>
<path fill-rule="evenodd" clip-rule="evenodd" d="M8.48397 74.109C7.85024 74.2207 7.3612 74.6766 7.04479 75.2671C6.6585 75.9881 6.52022 76.9182 6.68995 77.8807C6.8597 78.8434 7.30767 79.6701 7.9172 80.2154C8.41652 80.6621 9.03202 80.9231 9.66578 80.8114C10.2994 80.6996 10.7885 80.2438 11.105 79.6531C11.4912 78.9323 11.6295 78.0023 11.4598 77.0397C11.2901 76.0772 10.842 75.2506 10.2324 74.7052C9.73308 74.2585 9.11759 73.9973 8.48397 74.109Z" stroke="white" stroke-opacity="0.5" stroke-width="2"/>
<path fill-rule="evenodd" clip-rule="evenodd" d="M3.11748 82.3116C2.61597 82.4 2.21666 82.7291 1.95777 83.1614C1.6539 83.6688 1.53649 84.3194 1.65445 84.9884C1.7724 85.6573 2.10524 86.2285 2.56434 86.6014C2.95548 86.9191 3.44324 87.0917 3.94474 87.0033C4.44624 86.9149 4.84556 86.5858 5.10445 86.1535C5.40832 85.6461 5.52572 84.9955 5.40777 84.3265C5.28982 83.6576 4.95698 83.0864 4.49788 82.7135C4.10674 82.3958 3.61898 82.2232 3.11748 82.3116Z" stroke="white" stroke-opacity="0.5" stroke-width="2"/>
<path fill-rule="evenodd" clip-rule="evenodd" d="M14.4148 85.157L14.5008 85.1483C16.8515 84.7342 18.879 85.5339 20.5134 86.7555C23.0792 88.6733 24.7579 91.6411 25.0027 93.0296C25.1696 93.976 24.9053 94.9021 24.3554 95.6373C23.7826 96.403 22.9022 96.9637 21.8562 97.1481C20.7026 97.3515 19.581 97.0563 18.7512 96.4126L18.6049 96.3032C18.1641 95.9547 17.3632 95.7043 16.4355 95.8679C15.5153 96.0301 14.8523 96.532 14.5533 97.0066L14.4507 97.1565C13.8926 98.0537 12.935 98.7212 11.7743 98.9258C10.7283 99.1103 9.70921 98.8845 8.90912 98.3609C8.14097 97.8581 7.57583 97.0782 7.40895 96.1318C7.16414 94.7434 7.72552 91.3814 9.4569 88.7024C10.5565 87.0009 12.1564 85.5553 14.4287 85.1546L14.4148 85.157Z" stroke="white" stroke-opacity="0.5" stroke-width="2"/>
<path d="M123.028 9.38437C123.197 10.7189 133.454 10.4846 132.292 14.6523C131.132 18.82 124.042 18.2257 124.042 18.2257L113.093 29.1749C113.093 29.1749 113.354 36.5973 110.11 37.1523C107.228 37.6457 105.744 35.4376 105.298 30.6225" stroke="white" stroke-opacity="0.5" stroke-width="2" stroke-linecap="round" stroke-linejoin="round"/>
<path d="M107.468 31.1121C107.3 29.7775 97.0427 30.0119 98.2041 25.8442C99.3647 21.6765 106.454 22.2708 106.454 22.2708L117.403 11.3216C117.403 11.3216 117.142 3.89922 120.386 3.34419C123.268 2.85082 124.752 5.05885 125.199 9.87399" stroke="white" stroke-opacity="0.5" stroke-width="2" stroke-linecap="round" stroke-linejoin="round"/>
<path fill-rule="evenodd" clip-rule="evenodd" d="M237.905 9C238.548 9 239.109 9.36402 239.523 9.89064C240.029 10.5336 240.327 11.4255 240.327 12.4029C240.327 13.3804 240.029 14.2723 239.523 14.9152C239.109 15.4418 238.548 15.8058 237.905 15.8058C237.261 15.8058 236.701 15.4417 236.286 14.915C235.781 14.2722 235.483 13.3804 235.483 12.4029C235.483 11.4255 235.781 10.5337 236.287 9.89079C236.701 9.36412 237.261 9 237.905 9Z" stroke="white" stroke-opacity="0.5" stroke-width="2"/>
<path fill-rule="evenodd" clip-rule="evenodd" d="M244.614 16.146C245.124 16.146 245.574 16.4007 245.904 16.7815C246.291 17.2284 246.52 17.8488 246.52 18.528C246.52 19.2073 246.291 19.8276 245.904 20.2746C245.574 20.6554 245.124 20.91 244.614 20.91C244.105 20.91 243.655 20.6554 243.325 20.2746C242.937 19.8276 242.709 19.2073 242.709 18.528C242.709 17.8488 242.937 17.2284 243.325 16.7815C243.655 16.4007 244.105 16.146 244.614 16.146Z" stroke="white" stroke-opacity="0.5" stroke-width="2"/>
<path fill-rule="evenodd" clip-rule="evenodd" d="M228.615 9C227.972 9 227.411 9.36402 226.997 9.89064C226.491 10.5336 226.193 11.4255 226.193 12.4029C226.193 13.3804 226.491 14.2723 226.997 14.9152C227.411 15.4418 227.971 15.8058 228.615 15.8058C229.258 15.8058 229.819 15.4417 230.233 14.915C230.739 14.2722 231.037 13.3804 231.037 12.4029C231.037 11.4255 230.739 10.5337 230.233 9.89079C229.819 9.36412 229.258 9 228.615 9Z" stroke="white" stroke-opacity="0.5" stroke-width="2"/>
<path fill-rule="evenodd" clip-rule="evenodd" d="M221.906 16.146C221.396 16.146 220.946 16.4007 220.616 16.7815C220.229 17.2284 220 17.8488 220 18.528C220 19.2073 220.229 19.8276 220.616 20.2746C220.946 20.6554 221.396 20.91 221.906 20.91C222.415 20.91 222.865 20.6554 223.195 20.2746C223.583 19.8276 223.811 19.2073 223.811 18.528C223.811 17.8488 223.583 17.2284 223.195 16.7815C222.865 16.4007 222.415 16.146 221.906 16.146Z" stroke="white" stroke-opacity="0.5" stroke-width="2"/>
<path fill-rule="evenodd" clip-rule="evenodd" d="M232.537 20.9102L232.623 20.9165C235.01 20.9169 236.868 22.0565 238.266 23.5434C240.459 25.8776 241.597 29.0918 241.597 30.5017C241.597 31.4627 241.176 32.3289 240.507 32.9574C239.81 33.612 238.845 34.0113 237.783 34.0113C236.612 34.0113 235.559 33.5258 234.853 32.7477L234.728 32.6146C234.355 32.1948 233.609 31.8092 232.667 31.8092C231.733 31.8092 230.993 32.1882 230.616 32.6037L230.489 32.7336C229.783 33.5202 228.724 34.0113 227.546 34.0113C226.484 34.0113 225.519 33.612 224.822 32.9574C224.153 32.3289 223.732 31.4627 223.732 30.5017C223.732 29.0918 224.869 25.8784 227.039 23.5407C228.417 22.056 230.244 20.9102 232.551 20.9102H232.537Z" stroke="white" stroke-opacity="0.5" stroke-width="2"/>
<path fill-rule="evenodd" clip-rule="evenodd" d="M89 154C89 161.18 83.1796 167 76 167C68.8199 167 63 161.18 63 154C63 146.82 68.8199 141 76 141C83.1796 141 89 146.82 89 154Z" stroke="white" stroke-opacity="0.3" stroke-width="2"/>
<path fill-rule="evenodd" clip-rule="evenodd" d="M77.7003 161.824C79.0412 160.147 78.8501 159.17 82.1001 155.355C84.7544 152.241 87.6319 152.877 89 153.452C88.6654 146.519 82.9773 141 76.0079 141C68.8239 140.999 63 146.864 63 154.098C63 160.565 67.6573 165.935 73.7783 167C74.939 165.439 76.8101 162.938 77.7003 161.824Z" stroke="white" stroke-opacity="0.3" stroke-width="2"/>
<path fill-rule="evenodd" clip-rule="evenodd" d="M76.0182 145.152C79.0056 144.679 80.2297 143.135 80.7275 142.069C79.1664 141.382 77.4516 141 75.6501 141C70.702 141 66.3973 143.866 64.182 148.091C65.6798 147.366 67.4987 146.568 69.0805 146.109C71.1519 145.509 73.5722 145.418 76.0182 145.152Z" stroke="white" stroke-opacity="0.3" stroke-width="2"/>
<path fill-rule="evenodd" clip-rule="evenodd" d="M989 224C989 231.18 983.18 237 976 237C968.82 237 963 231.18 963 224C963 216.82 968.82 211 976 211C983.18 211 989 216.82 989 224Z" stroke="white" stroke-opacity="0.3" stroke-width="2"/>
<path fill-rule="evenodd" clip-rule="evenodd" d="M977.7 231.824C979.041 230.147 978.85 229.17 982.1 225.355C984.754 222.241 987.632 222.877 989 223.452C988.665 216.519 982.977 211 976.008 211C968.824 210.999 963 216.864 963 224.098C963 230.565 967.657 235.935 973.778 237C974.939 235.439 976.81 232.938 977.7 231.824Z" stroke="white" stroke-opacity="0.3" stroke-width="2"/>
<path fill-rule="evenodd" clip-rule="evenodd" d="M976.018 215.152C979.005 214.679 980.23 213.135 980.727 212.069C979.166 211.382 977.452 211 975.65 211C970.702 211 966.397 213.866 964.182 218.091C965.68 217.366 967.499 216.568 969.08 216.109C971.152 215.509 973.572 215.418 976.018 215.152Z" stroke="white" stroke-opacity="0.3" stroke-width="2"/>
</svg>
