<?xml version="1.0" encoding="utf-8"?>
<svg width="39" height="23" viewBox="0 0 39 23" fill="none" xmlns="http://www.w3.org/2000/svg">
    <path fill-rule="evenodd" clip-rule="evenodd" d="M15.1423 1.96204C15.6506 1.96204 16.0935 2.24956 16.4207 2.66552C16.82 3.17336 17.0552 3.87784 17.0552 4.64986C17.0552 5.422 16.8201 6.12646 16.4207 6.63425C16.0936 7.05023 15.6506 7.33768 15.1423 7.33768C14.6341 7.33768 14.1911 7.05015 13.864 6.63413C13.4646 6.12635 13.2295 5.42194 13.2295 4.64986C13.2295 3.8779 13.4647 3.17346 13.864 2.66564C14.1912 2.24964 14.6341 1.96204 15.1423 1.96204Z" stroke="white" stroke-width="2"/>
    <path fill-rule="evenodd" clip-rule="evenodd" d="M20.4417 7.60645C20.8439 7.60645 21.1997 7.8076 21.4604 8.10838C21.7663 8.46143 21.9469 8.9514 21.9469 9.48792C21.9469 10.0244 21.7663 10.5144 21.4604 10.8675C21.1997 11.1682 20.8439 11.3694 20.4417 11.3694C20.0395 11.3694 19.6837 11.1682 19.4231 10.8675C19.1171 10.5144 18.9365 10.0244 18.9365 9.48792C18.9365 8.9514 19.1171 8.46143 19.4231 8.10838C19.6837 7.8076 20.0395 7.60645 20.4417 7.60645Z" stroke="white" stroke-width="2"/>
    <path fill-rule="evenodd" clip-rule="evenodd" d="M7.8047 1.96204C7.29641 1.96204 6.85348 2.24956 6.52636 2.66552C6.12699 3.17336 5.89186 3.87784 5.89186 4.64986C5.89186 5.422 6.12694 6.12646 6.52628 6.63425C6.85341 7.05023 7.29639 7.33768 7.8047 7.33768C8.31292 7.33768 8.7559 7.05015 9.08306 6.63413C9.48239 6.12635 9.71753 5.42194 9.71753 4.64986C9.71753 3.8779 9.48234 3.17346 9.08298 2.66564C8.75583 2.24964 8.31289 1.96204 7.8047 1.96204Z" stroke="white" stroke-width="2"/>
    <path fill-rule="evenodd" clip-rule="evenodd" d="M2.50507 7.60645C2.10284 7.60645 1.7471 7.8076 1.48642 8.10838C1.18045 8.46143 0.999893 8.9514 0.999893 9.48792C0.999893 10.0244 1.18045 10.5144 1.48642 10.8675C1.7471 11.1682 2.10284 11.3694 2.50507 11.3694C2.9073 11.3694 3.26305 11.1682 3.52372 10.8675C3.82969 10.5144 4.01025 10.0244 4.01025 9.48792C4.01025 8.9514 3.82969 8.46143 3.52372 8.10838C3.26305 7.8076 2.9073 7.60645 2.50507 7.60645Z" stroke="white" stroke-width="2"/>
    <path fill-rule="evenodd" clip-rule="evenodd" d="M10.9026 11.3694L10.9707 11.3745C12.8561 11.3747 14.3235 12.2749 15.4273 13.4493C17.1601 15.293 18.0588 17.8318 18.0588 18.9454C18.0588 19.7045 17.7262 20.3887 17.1976 20.8851C16.6471 21.4022 15.8853 21.7176 15.0464 21.7176C14.1212 21.7176 13.2892 21.3341 12.732 20.7195L12.6332 20.6144C12.3381 20.2828 11.7495 19.9782 11.0054 19.9782C10.2674 19.9782 9.68279 20.2776 9.38511 20.6058L9.2847 20.7084C8.72757 21.3297 7.89109 21.7176 6.96022 21.7176C6.12126 21.7176 5.35949 21.4022 4.80894 20.8851C4.28038 20.3887 3.94775 19.7045 3.94775 18.9454C3.94775 17.8318 4.84555 15.2937 6.5598 13.4472C7.64847 12.2745 9.09131 11.3694 10.9138 11.3694H10.9026Z" stroke="white" stroke-width="2"/>
    <path d="M31.2481 17.9965C31.2524 18.155 31.3017 18.309 31.3904 18.4405C31.4791 18.5719 31.6035 18.6753 31.7489 18.7386C31.8943 18.8018 32.0548 18.8222 32.2114 18.7974C32.3681 18.7727 32.5144 18.7037 32.6332 18.5987L38.4714 13.6036C38.5631 13.5254 38.6367 13.4282 38.6872 13.3187C38.7377 13.2093 38.7638 13.0902 38.7638 12.9696C38.7638 12.8491 38.7377 12.73 38.6872 12.6206C38.6367 12.5111 38.5631 12.4139 38.4714 12.3357L32.6332 7.33569C32.5507 7.26002 32.4539 7.20175 32.3484 7.16433C32.2429 7.12691 32.131 7.11111 32.0193 7.11789C31.9076 7.12466 31.7983 7.15387 31.6982 7.20376C31.598 7.25365 31.5089 7.3232 31.4362 7.40828C31.3635 7.49335 31.3086 7.59219 31.2749 7.69892C31.2413 7.80564 31.2295 7.91806 31.2402 8.02946C31.2509 8.14086 31.2838 8.24896 31.3372 8.34732C31.3906 8.44569 31.4632 8.53229 31.5508 8.60196L36.6501 12.9705L31.5508 17.3373C31.4539 17.4173 31.3765 17.5181 31.3241 17.6322C31.2716 17.7464 31.2456 17.8709 31.2481 17.9965Z" fill="white"/>
</svg>
