<?xml version="1.0" encoding="utf-8"?>
<svg width="149" height="275" viewBox="0 0 149 275" fill="none" xmlns="http://www.w3.org/2000/svg">
    <path fill-rule="evenodd" clip-rule="evenodd" d="M135.633 92.4959C136.266 92.3842 136.882 92.6453 137.381 93.092C137.991 93.6374 138.439 94.4641 138.609 95.4266C138.778 96.3893 138.64 97.3193 138.254 98.0402C137.937 98.6308 137.448 99.0866 136.815 99.1983C136.181 99.31 135.565 99.0489 135.066 98.6022C134.456 98.0569 134.008 97.2303 133.839 96.2677C133.669 95.3052 133.807 94.3752 134.194 93.6542C134.51 93.0636 134.999 92.6077 135.633 92.4959Z" stroke="white" stroke-opacity="0.39" stroke-width="2"/>
    <path fill-rule="evenodd" clip-rule="evenodd" d="M143.481 98.3684C143.982 98.28 144.47 98.4526 144.861 98.7703C145.32 99.1432 145.653 99.7144 145.771 100.383C145.889 101.052 145.772 101.703 145.468 102.21C145.209 102.643 144.81 102.972 144.308 103.06C143.807 103.148 143.319 102.976 142.928 102.658C142.469 102.285 142.136 101.714 142.018 101.045C141.9 100.376 142.017 99.7256 142.321 99.2182C142.58 98.7858 142.979 98.4568 143.481 98.3684Z" stroke="white" stroke-opacity="0.39" stroke-width="2"/>
    <path fill-rule="evenodd" clip-rule="evenodd" d="M126.484 94.1091C125.85 94.2209 125.361 94.6767 125.045 95.2673C124.658 95.9882 124.52 96.9183 124.69 97.8808C124.86 98.8435 125.308 99.6702 125.917 100.216C126.417 100.662 127.032 100.923 127.666 100.811C128.299 100.7 128.789 100.244 129.105 99.6533C129.491 98.9324 129.63 98.0024 129.46 97.0398C129.29 96.0773 128.842 95.2507 128.232 94.7054C127.733 94.2586 127.118 93.9974 126.484 94.1091Z" stroke="white" stroke-opacity="0.39" stroke-width="2"/>
    <path fill-rule="evenodd" clip-rule="evenodd" d="M121.117 102.312C120.616 102.4 120.217 102.729 119.958 103.161C119.654 103.669 119.536 104.319 119.654 104.988C119.772 105.657 120.105 106.229 120.564 106.601C120.955 106.919 121.443 107.092 121.945 107.003C122.446 106.915 122.846 106.586 123.104 106.154C123.408 105.646 123.526 104.996 123.408 104.327C123.29 103.658 122.957 103.086 122.498 102.714C122.107 102.396 121.619 102.223 121.117 102.312Z" stroke="white" stroke-opacity="0.39" stroke-width="2"/>
    <path fill-rule="evenodd" clip-rule="evenodd" d="M132.415 105.157L132.501 105.148C134.851 104.734 136.879 105.534 138.513 106.756C141.079 108.673 142.758 111.641 143.003 113.03C143.17 113.976 142.905 114.902 142.355 115.637C141.783 116.403 140.902 116.964 139.856 117.148C138.703 117.352 137.581 117.056 136.751 116.413L136.605 116.303C136.164 115.955 135.363 115.704 134.435 115.868C133.515 116.03 132.852 116.532 132.553 117.007L132.451 117.157C131.893 118.054 130.935 118.721 129.774 118.926C128.728 119.11 127.709 118.885 126.909 118.361C126.141 117.858 125.576 117.078 125.409 116.132C125.164 114.744 125.726 111.382 127.457 108.703C128.556 107.001 130.156 105.555 132.429 105.155L132.415 105.157Z" stroke="white" stroke-opacity="0.39" stroke-width="2"/>
    <path d="M28.0279 9.38449C28.1965 10.7191 38.4537 10.4847 37.2923 14.6524C36.1317 18.8201 29.0422 18.2258 29.0422 18.2258L18.0931 29.175C18.0931 29.175 18.3544 36.5974 15.1099 37.1524C12.2281 37.6458 10.7443 35.4377 10.2977 30.6226" stroke="#F2C7BD" stroke-width="2" stroke-linecap="round" stroke-linejoin="round"/>
    <path d="M12.4685 31.1122C12.2999 29.7776 2.04267 30.012 3.20408 25.8443C4.36472 21.6765 11.4541 22.2709 11.4541 22.2709L22.4033 11.3217C22.4033 11.3217 22.142 3.89928 25.3864 3.34425C28.2683 2.85088 29.752 5.05891 30.1987 9.87405" stroke="#F2C7BD" stroke-width="2" stroke-linecap="round" stroke-linejoin="round"/>
    <path d="M120.028 244.384C120.197 245.719 130.454 245.485 129.292 249.652C128.132 253.82 121.042 253.226 121.042 253.226L110.093 264.175C110.093 264.175 110.354 271.597 107.11 272.152C104.228 272.646 102.744 270.438 102.298 265.623" stroke="#F2C7BD" stroke-width="2" stroke-linecap="round" stroke-linejoin="round"/>
    <path d="M104.468 266.112C104.3 264.777 94.0427 265.012 95.2041 260.844C96.3647 256.676 103.454 257.271 103.454 257.271L114.403 246.322C114.403 246.322 114.142 238.899 117.386 238.344C120.268 237.851 121.752 240.059 122.199 244.874" stroke="#F2C7BD" stroke-width="2" stroke-linecap="round" stroke-linejoin="round"/>
</svg>
