<?xml version="1.0" encoding="utf-8"?>
<svg width="154" height="158" viewBox="0 0 154 158" fill="none" xmlns="http://www.w3.org/2000/svg">
    <path d="M39.0284 127.384C39.197 128.719 49.4542 128.485 48.2928 132.652C47.1321 136.82 40.0427 136.226 40.0427 136.226L29.0936 147.175C29.0936 147.175 29.3549 154.597 26.1104 155.152C23.2286 155.646 21.7448 153.438 21.2982 148.623" stroke="#F2C7BD" stroke-width="2" stroke-linecap="round" stroke-linejoin="round"/>
    <path d="M23.4685 149.112C23.2999 147.778 13.0427 148.012 14.2041 143.845C15.3647 139.677 22.4541 140.271 22.4541 140.271L33.4033 129.322C33.4033 129.322 33.142 121.9 36.3864 121.344C39.2683 120.851 40.752 123.059 41.1987 127.874" stroke="#F2C7BD" stroke-width="2" stroke-linecap="round" stroke-linejoin="round"/>
    <path fill-rule="evenodd" clip-rule="evenodd" d="M21.976 4.10916C22.6097 4.2209 23.0988 4.67676 23.4152 5.2673C23.8015 5.98827 23.9397 6.91832 23.77 7.88087C23.6003 8.84357 23.1523 9.67022 22.5428 10.2155C22.0434 10.6623 21.4279 10.9233 20.7942 10.8115C20.1605 10.6998 19.6714 10.2439 19.355 9.6533C18.9687 8.93241 18.8304 8.00245 19.0002 7.03982C19.1699 6.07733 19.618 5.25074 20.2275 4.70539C20.7269 4.25864 21.3424 3.99743 21.976 4.10916Z" stroke="white" stroke-opacity="0.39" stroke-width="2"/>
    <path fill-rule="evenodd" clip-rule="evenodd" d="M27.3427 12.3117C27.8442 12.4002 28.2435 12.7292 28.5024 13.1615C28.8063 13.6689 28.9237 14.3195 28.8058 14.9885C28.6878 15.6574 28.355 16.2286 27.8959 16.6015C27.5047 16.9192 27.017 17.0918 26.5155 17.0034C26.014 16.915 25.6146 16.586 25.3558 16.1536C25.0519 15.6462 24.9345 14.9956 25.0524 14.3267C25.1704 13.6577 25.5032 13.0865 25.9623 12.7136C26.3535 12.3959 26.8412 12.2233 27.3427 12.3117Z" stroke="white" stroke-opacity="0.39" stroke-width="2"/>
    <path fill-rule="evenodd" clip-rule="evenodd" d="M12.8274 2.49598C12.1936 2.38423 11.5782 2.64534 11.0789 3.09205C10.4693 3.63742 10.0212 4.46408 9.85152 5.42664C9.68177 6.38934 9.82 7.31934 10.2063 8.04026C10.5227 8.63081 11.0118 9.0866 11.6455 9.19835C12.2792 9.31008 12.8947 9.04897 13.3941 8.6022C14.0036 8.05689 14.4516 7.23033 14.6214 6.26769C14.7911 5.3052 14.6527 4.37521 14.2664 3.65426C13.95 3.06367 13.461 2.6077 12.8274 2.49598Z" stroke="white" stroke-opacity="0.39" stroke-width="2"/>
    <path fill-rule="evenodd" clip-rule="evenodd" d="M4.97893 8.36837C4.47742 8.27994 3.98966 8.45254 3.59852 8.77024C3.13942 9.14315 2.80658 9.71436 2.68863 10.3833C2.57068 11.0522 2.68808 11.7028 2.99195 12.2103C3.25084 12.6426 3.65016 12.9716 4.15166 13.06C4.65316 13.1485 5.14093 12.9759 5.53207 12.6582C5.99117 12.2853 6.32401 11.714 6.44196 11.0451C6.55991 10.3762 6.44251 9.72558 6.13863 9.21814C5.87975 8.78581 5.48043 8.4568 4.97893 8.36837Z" stroke="white" stroke-opacity="0.39" stroke-width="2"/>
    <path fill-rule="evenodd" clip-rule="evenodd" d="M14.6218 14.9062L14.7056 14.9274C17.0562 15.3423 18.6879 16.7872 19.8059 18.4941C21.5611 21.1738 22.1234 24.5368 21.8786 25.9253C21.7117 26.8717 21.1466 27.6516 20.3785 28.1543C19.5784 28.678 18.5592 28.9037 17.5132 28.7193C16.3597 28.5159 15.4067 27.8548 14.8471 26.9661L14.7471 26.8133C14.4521 26.335 13.7851 25.8258 12.8573 25.6623C11.9372 25.5 11.1425 25.7448 10.6992 26.0885L10.5514 26.1943C9.72022 26.8465 8.59203 27.1462 7.43141 26.9416C6.38539 26.7571 5.50494 26.1965 4.9322 25.4307C4.38232 24.6956 4.11802 23.7694 4.28489 22.823C4.52971 21.4346 6.20709 18.4674 8.75036 16.542C10.3655 15.3193 12.3634 14.508 14.6357 14.9087L14.6218 14.9062Z" stroke="white" stroke-opacity="0.39" stroke-width="2"/>
    <path fill-rule="evenodd" clip-rule="evenodd" d="M138.295 102.23C138.916 102.063 139.552 102.27 140.089 102.671C140.743 103.161 141.262 103.946 141.515 104.89C141.768 105.834 141.711 106.773 141.389 107.525C141.125 108.14 140.678 108.637 140.056 108.804C139.435 108.97 138.799 108.764 138.262 108.362C137.608 107.872 137.089 107.088 136.836 106.144C136.583 105.199 136.64 104.261 136.962 103.509C137.226 102.893 137.673 102.396 138.295 102.23Z" stroke="white" stroke-opacity="0.39" stroke-width="2"/>
    <path fill-rule="evenodd" clip-rule="evenodd" d="M146.625 107.396C147.117 107.264 147.618 107.393 148.035 107.676C148.525 108.007 148.907 108.547 149.082 109.203C149.258 109.86 149.198 110.518 148.939 111.05C148.719 111.503 148.35 111.866 147.858 111.997C147.366 112.129 146.865 112 146.448 111.717C145.958 111.386 145.577 110.846 145.401 110.19C145.225 109.534 145.286 108.875 145.544 108.343C145.764 107.89 146.133 107.528 146.625 107.396Z" stroke="white" stroke-opacity="0.39" stroke-width="2"/>
    <path fill-rule="evenodd" clip-rule="evenodd" d="M129.322 104.634C128.7 104.801 128.253 105.297 127.989 105.913C127.667 106.665 127.61 107.604 127.863 108.548C128.116 109.492 128.634 110.277 129.289 110.767C129.826 111.168 130.461 111.375 131.083 111.208C131.705 111.042 132.152 110.545 132.416 109.929C132.738 109.177 132.794 108.238 132.541 107.294C132.289 106.35 131.77 105.566 131.115 105.076C130.579 104.674 129.943 104.468 129.322 104.634Z" stroke="white" stroke-opacity="0.39" stroke-width="2"/>
    <path fill-rule="evenodd" clip-rule="evenodd" d="M124.69 113.273C124.198 113.405 123.829 113.768 123.609 114.221C123.35 114.753 123.29 115.411 123.466 116.067C123.642 116.723 124.023 117.263 124.513 117.595C124.93 117.877 125.431 118.007 125.923 117.875C126.415 117.743 126.784 117.381 127.004 116.927C127.263 116.395 127.323 115.737 127.147 115.081C126.972 114.425 126.59 113.885 126.1 113.553C125.683 113.271 125.182 113.141 124.69 113.273Z" stroke="white" stroke-opacity="0.39" stroke-width="2"/>
    <path fill-rule="evenodd" clip-rule="evenodd" d="M136.193 115.123L136.277 115.107C138.583 114.49 140.673 115.11 142.407 116.184C145.131 117.871 147.061 120.681 147.426 122.043C147.675 122.971 147.493 123.917 147.009 124.697C146.505 125.51 145.677 126.145 144.651 126.42C143.519 126.723 142.376 126.527 141.494 125.958L141.338 125.862C140.869 125.553 140.049 125.373 139.139 125.617C138.237 125.859 137.62 126.417 137.363 126.916L137.274 127.074C136.796 128.016 135.901 128.765 134.762 129.07C133.736 129.345 132.701 129.209 131.859 128.757C131.05 128.323 130.419 127.595 130.17 126.667C129.805 125.305 130.071 121.907 131.563 119.087C132.51 117.296 133.978 115.717 136.206 115.12L136.193 115.123Z" stroke="white" stroke-opacity="0.39" stroke-width="2"/>
</svg>
