<svg width="795" height="12" viewBox="0 0 795 12" fill="none" xmlns="http://www.w3.org/2000/svg">
    <path d="M17.7671 4.45457C17.3327 5.01453 21.2411 8.74825 19.2559 9.86817C17.2709 10.9884 14.8514 8.12601 14.8514 8.12601H6.69373C6.69373 8.12601 4.02607 10.9884 2.61068 9.9865C1.35334 9.09674 1.62315 7.72147 3.2505 5.76133" stroke="#E1E3E8" stroke-width="2" stroke-linecap="round" stroke-linejoin="round"/>
    <path d="M3.87668 6.75244C4.31103 6.19248 0.402685 2.45876 2.3879 1.33884C4.37284 0.218636 6.79241 3.081 6.79241 3.081L14.95 3.081C14.95 3.081 17.6177 0.218637 19.0331 1.22051C20.2904 2.11027 20.0206 3.48554 18.3933 5.44568" stroke="#E1E3E8" stroke-width="2" stroke-linecap="round" stroke-linejoin="round"/>
    <line x1="58" y1="5.5" x2="31" y2="5.5" stroke="#E1E3E8"/>
    <path d="M87.7671 4.45457C87.3327 5.01453 91.2411 8.74825 89.2559 9.86817C87.2709 10.9884 84.8514 8.12601 84.8514 8.12601H76.6937C76.6937 8.12601 74.0261 10.9884 72.6107 9.9865C71.3533 9.09674 71.6231 7.72147 73.2505 5.76133" stroke="#E1E3E8" stroke-width="2" stroke-linecap="round" stroke-linejoin="round"/>
    <path d="M73.8767 6.75244C74.311 6.19248 70.4027 2.45876 72.3879 1.33884C74.3728 0.218636 76.7924 3.081 76.7924 3.081L84.95 3.081C84.95 3.081 87.6177 0.218637 89.0331 1.22051C90.2904 2.11027 90.0206 3.48554 88.3933 5.44568" stroke="#E1E3E8" stroke-width="2" stroke-linecap="round" stroke-linejoin="round"/>
    <line x1="128" y1="5.5" x2="101" y2="5.5" stroke="#E1E3E8"/>
    <path d="M157.945 4.45457C157.511 5.01453 161.419 8.74825 159.434 9.86817C157.449 10.9884 155.029 8.12601 155.029 8.12601H146.872C146.872 8.12601 144.204 10.9884 142.789 9.9865C141.531 9.09674 141.801 7.72147 143.429 5.76133" stroke="#E1E3E8" stroke-width="2" stroke-linecap="round" stroke-linejoin="round"/>
    <path d="M144.055 6.75244C144.489 6.19248 140.581 2.45876 142.566 1.33884C144.551 0.218636 146.971 3.081 146.971 3.081L155.128 3.081C155.128 3.081 157.796 0.218637 159.211 1.22051C160.469 2.11027 160.199 3.48554 158.571 5.44568" stroke="#E1E3E8" stroke-width="2" stroke-linecap="round" stroke-linejoin="round"/>
    <line x1="198.178" y1="5.5" x2="171.178" y2="5.5" stroke="#E1E3E8"/>
    <path d="M227.945 4.45457C227.511 5.01453 231.419 8.74825 229.434 9.86817C227.449 10.9884 225.029 8.12601 225.029 8.12601H216.872C216.872 8.12601 214.204 10.9884 212.789 9.9865C211.531 9.09674 211.801 7.72147 213.429 5.76133" stroke="#E1E3E8" stroke-width="2" stroke-linecap="round" stroke-linejoin="round"/>
    <path d="M214.055 6.75244C214.489 6.19248 210.581 2.45876 212.566 1.33884C214.551 0.218636 216.971 3.081 216.971 3.081L225.128 3.081C225.128 3.081 227.796 0.218637 229.211 1.22051C230.469 2.11027 230.199 3.48554 228.571 5.44568" stroke="#E1E3E8" stroke-width="2" stroke-linecap="round" stroke-linejoin="round"/>
    <line x1="268.178" y1="5.5" x2="241.178" y2="5.5" stroke="#E1E3E8"/>
    <path d="M298.945 4.45457C298.511 5.01453 302.419 8.74825 300.434 9.86817C298.449 10.9884 296.029 8.12601 296.029 8.12601H287.872C287.872 8.12601 285.204 10.9884 283.789 9.9865C282.531 9.09674 282.801 7.72147 284.429 5.76133" stroke="#E1E3E8" stroke-width="2" stroke-linecap="round" stroke-linejoin="round"/>
    <path d="M285.055 6.75244C285.489 6.19248 281.581 2.45876 283.566 1.33884C285.551 0.218636 287.971 3.081 287.971 3.081L296.128 3.081C296.128 3.081 298.796 0.218637 300.211 1.22051C301.469 2.11027 301.199 3.48554 299.571 5.44568" stroke="#E1E3E8" stroke-width="2" stroke-linecap="round" stroke-linejoin="round"/>
    <line x1="339.178" y1="5.5" x2="312.178" y2="5.5" stroke="#E1E3E8"/>
    <path d="M368.945 4.45457C368.511 5.01453 372.419 8.74825 370.434 9.86817C368.449 10.9884 366.029 8.12601 366.029 8.12601H357.872C357.872 8.12601 355.204 10.9884 353.789 9.9865C352.531 9.09674 352.801 7.72147 354.429 5.76133" stroke="#E1E3E8" stroke-width="2" stroke-linecap="round" stroke-linejoin="round"/>
    <path d="M355.055 6.75244C355.489 6.19248 351.581 2.45876 353.566 1.33884C355.551 0.218636 357.971 3.081 357.971 3.081L366.128 3.081C366.128 3.081 368.796 0.218637 370.211 1.22051C371.469 2.11027 371.199 3.48554 369.571 5.44568" stroke="#E1E3E8" stroke-width="2" stroke-linecap="round" stroke-linejoin="round"/>
    <line x1="409.178" y1="5.5" x2="382.178" y2="5.5" stroke="#E1E3E8"/>
    <path d="M439.123 4.45457C438.689 5.01453 442.597 8.74825 440.612 9.86817C438.627 10.9884 436.208 8.12601 436.208 8.12601H428.05C428.05 8.12601 425.382 10.9884 423.967 9.9865C422.71 9.09674 422.979 7.72147 424.607 5.76133" stroke="#E1E3E8" stroke-width="2" stroke-linecap="round" stroke-linejoin="round"/>
    <path d="M425.233 6.75244C425.667 6.19248 421.759 2.45876 423.744 1.33884C425.729 0.218636 428.149 3.081 428.149 3.081L436.306 3.081C436.306 3.081 438.974 0.218637 440.389 1.22051C441.647 2.11027 441.377 3.48554 439.749 5.44568" stroke="#E1E3E8" stroke-width="2" stroke-linecap="round" stroke-linejoin="round"/>
    <line x1="479.356" y1="5.5" x2="452.356" y2="5.5" stroke="#E1E3E8"/>
    <path d="M509.123 4.45457C508.689 5.01453 512.597 8.74825 510.612 9.86817C508.627 10.9884 506.208 8.12601 506.208 8.12601H498.05C498.05 8.12601 495.382 10.9884 493.967 9.9865C492.71 9.09674 492.979 7.72147 494.607 5.76133" stroke="#E1E3E8" stroke-width="2" stroke-linecap="round" stroke-linejoin="round"/>
    <path d="M495.233 6.75244C495.667 6.19248 491.759 2.45876 493.744 1.33884C495.729 0.218636 498.149 3.081 498.149 3.081L506.306 3.081C506.306 3.081 508.974 0.218637 510.389 1.22051C511.647 2.11027 511.377 3.48554 509.749 5.44568" stroke="#E1E3E8" stroke-width="2" stroke-linecap="round" stroke-linejoin="round"/>
    <line x1="549.356" y1="5.5" x2="522.356" y2="5.5" stroke="#E1E3E8"/>
    <path d="M580.945 4.45457C580.511 5.01453 584.419 8.74825 582.434 9.86817C580.449 10.9884 578.029 8.12601 578.029 8.12601H569.872C569.872 8.12601 567.204 10.9884 565.789 9.9865C564.531 9.09674 564.801 7.72147 566.429 5.76133" stroke="#E1E3E8" stroke-width="2" stroke-linecap="round" stroke-linejoin="round"/>
    <path d="M567.055 6.75244C567.489 6.19248 563.581 2.45876 565.566 1.33884C567.551 0.218636 569.971 3.081 569.971 3.081L578.128 3.081C578.128 3.081 580.796 0.218637 582.211 1.22051C583.469 2.11027 583.199 3.48554 581.571 5.44568" stroke="#E1E3E8" stroke-width="2" stroke-linecap="round" stroke-linejoin="round"/>
    <line x1="621.178" y1="5.5" x2="594.178" y2="5.5" stroke="#E1E3E8"/>
    <path d="M650.945 4.45457C650.511 5.01453 654.419 8.74825 652.434 9.86817C650.449 10.9884 648.029 8.12601 648.029 8.12601H639.872C639.872 8.12601 637.204 10.9884 635.789 9.9865C634.531 9.09674 634.801 7.72147 636.429 5.76133" stroke="#E1E3E8" stroke-width="2" stroke-linecap="round" stroke-linejoin="round"/>
    <path d="M637.055 6.75244C637.489 6.19248 633.581 2.45876 635.566 1.33884C637.551 0.218636 639.971 3.081 639.971 3.081L648.128 3.081C648.128 3.081 650.796 0.218637 652.211 1.22051C653.469 2.11027 653.199 3.48554 651.571 5.44568" stroke="#E1E3E8" stroke-width="2" stroke-linecap="round" stroke-linejoin="round"/>
    <line x1="691.178" y1="5.5" x2="664.178" y2="5.5" stroke="#E1E3E8"/>
    <path d="M721.123 4.45457C720.689 5.01453 724.597 8.74825 722.612 9.86817C720.627 10.9884 718.208 8.12601 718.208 8.12601H710.05C710.05 8.12601 707.382 10.9884 705.967 9.9865C704.71 9.09674 704.979 7.72147 706.607 5.76133" stroke="#E1E3E8" stroke-width="2" stroke-linecap="round" stroke-linejoin="round"/>
    <path d="M707.233 6.75244C707.667 6.19248 703.759 2.45876 705.744 1.33884C707.729 0.218636 710.149 3.081 710.149 3.081L718.306 3.081C718.306 3.081 720.974 0.218637 722.389 1.22051C723.647 2.11027 723.377 3.48554 721.749 5.44568" stroke="#E1E3E8" stroke-width="2" stroke-linecap="round" stroke-linejoin="round"/>
    <line x1="761.356" y1="5.5" x2="734.356" y2="5.5" stroke="#E1E3E8"/>
    <path d="M791.123 4.45457C790.689 5.01453 794.597 8.74825 792.612 9.86817C790.627 10.9884 788.208 8.12601 788.208 8.12601H780.05C780.05 8.12601 777.382 10.9884 775.967 9.9865C774.71 9.09674 774.979 7.72147 776.607 5.76133" stroke="#E1E3E8" stroke-width="2" stroke-linecap="round" stroke-linejoin="round"/>
    <path d="M777.233 6.75244C777.667 6.19248 773.759 2.45876 775.744 1.33884C777.729 0.218636 780.149 3.081 780.149 3.081L788.306 3.081C788.306 3.081 790.974 0.218637 792.389 1.22051C793.647 2.11027 793.377 3.48554 791.749 5.44568" stroke="#E1E3E8" stroke-width="2" stroke-linecap="round" stroke-linejoin="round"/>
</svg>
