<?xml version="1.0" encoding="utf-8"?>
<svg width="1259" height="1286" viewBox="0 0 1259 1286" fill="none" xmlns="http://www.w3.org/2000/svg">
    <path fill-rule="evenodd" clip-rule="evenodd" d="M281 176C281 183.18 275.18 189 268 189C260.82 189 255 183.18 255 176C255 168.82 260.82 163 268 163C275.18 163 281 168.82 281 176Z" stroke="white" stroke-opacity="0.3" stroke-width="2"/>
    <path fill-rule="evenodd" clip-rule="evenodd" d="M269.7 183.824C271.041 182.147 270.85 181.17 274.1 177.355C276.754 174.241 279.632 174.877 281 175.452C280.665 168.519 274.977 163 268.008 163C260.824 162.999 255 168.864 255 176.098C255 182.565 259.657 187.935 265.778 189C266.939 187.439 268.81 184.938 269.7 183.824Z" stroke="white" stroke-opacity="0.3" stroke-width="2"/>
    <path fill-rule="evenodd" clip-rule="evenodd" d="M268.018 167.152C271.006 166.679 272.23 165.135 272.728 164.069C271.167 163.382 269.452 163 267.65 163C262.702 163 258.397 165.866 256.182 170.091C257.68 169.366 259.499 168.568 261.081 168.109C263.152 167.509 265.572 167.418 268.018 167.152Z" stroke="white" stroke-opacity="0.3" stroke-width="2"/>
    <path d="M159.462 178.686C159.63 180.021 169.887 179.787 168.726 183.954C167.565 188.122 160.476 187.528 160.476 187.528L149.527 198.477C149.527 198.477 149.788 205.899 146.544 206.454C143.662 206.948 142.178 204.74 141.731 199.924" stroke="white" stroke-opacity="0.5" stroke-width="2" stroke-linecap="round" stroke-linejoin="round"/>
    <path d="M143.902 200.414C143.733 199.08 133.476 199.314 134.637 195.146C135.798 190.979 142.887 191.573 142.887 191.573L153.836 180.624C153.836 180.624 153.575 173.201 156.82 172.646C159.701 172.153 161.185 174.361 161.632 179.176" stroke="white" stroke-opacity="0.5" stroke-width="2" stroke-linecap="round" stroke-linejoin="round"/>
    <path d="M404.371 279.157C404.539 280.492 414.796 280.258 413.635 284.425C412.474 288.593 405.385 287.999 405.385 287.999L394.436 298.948C394.436 298.948 394.697 306.37 391.453 306.925C388.571 307.419 387.087 305.211 386.64 300.395" stroke="white" stroke-opacity="0.5" stroke-width="2" stroke-linecap="round" stroke-linejoin="round"/>
    <path d="M388.811 300.885C388.643 299.55 378.385 299.785 379.547 295.617C380.707 291.449 387.797 292.044 387.797 292.044L398.746 281.095C398.746 281.095 398.485 273.672 401.729 273.117C404.611 272.624 406.095 274.832 406.541 279.647" stroke="white" stroke-opacity="0.5" stroke-width="2" stroke-linecap="round" stroke-linejoin="round"/>
    <path fill-rule="evenodd" clip-rule="evenodd" d="M18.9051 1C19.5486 1 20.1094 1.36402 20.5235 1.89064C21.0292 2.53358 21.3268 3.42548 21.3268 4.40288C21.3268 5.38044 21.0292 6.27231 20.5236 6.9152C20.1095 7.44184 19.5487 7.80577 18.9051 7.80577C18.2617 7.80577 17.7009 7.44174 17.2867 6.91505C16.7811 6.27218 16.4834 5.38037 16.4834 4.40288C16.4834 3.42555 16.7812 2.53371 17.2868 1.89079C17.7009 1.36412 18.2617 1 18.9051 1Z" stroke="white" stroke-opacity="0.5" stroke-width="2"/>
    <path fill-rule="evenodd" clip-rule="evenodd" d="M25.6146 8.146C26.1238 8.146 26.5742 8.40067 26.9042 8.78147C27.2916 9.22843 27.5202 9.84876 27.5202 10.528C27.5202 11.2073 27.2916 11.8276 26.9042 12.2746C26.5742 12.6554 26.1238 12.91 25.6146 12.91C25.1054 12.91 24.655 12.6554 24.3249 12.2746C23.9376 11.8276 23.709 11.2073 23.709 10.528C23.709 9.84876 23.9376 9.22843 24.3249 8.78147C24.655 8.40067 25.1054 8.146 25.6146 8.146Z" stroke="white" stroke-opacity="0.5" stroke-width="2"/>
    <path fill-rule="evenodd" clip-rule="evenodd" d="M9.6149 1C8.9714 1 8.41063 1.36402 7.99648 1.89064C7.49086 2.53358 7.19318 3.42548 7.19318 4.40288C7.19318 5.38044 7.4908 6.27231 7.99638 6.9152C8.41054 7.44184 8.97136 7.80577 9.6149 7.80577C10.2583 7.80577 10.8192 7.44174 11.2334 6.91505C11.7389 6.27218 12.0366 5.38037 12.0366 4.40288C12.0366 3.42555 11.7389 2.53371 11.2333 1.89079C10.8191 1.36412 10.2583 1 9.6149 1Z" stroke="white" stroke-opacity="0.5" stroke-width="2"/>
    <path fill-rule="evenodd" clip-rule="evenodd" d="M2.90542 8.146C2.39618 8.146 1.9458 8.40067 1.61577 8.78147C1.2284 9.22843 0.999806 9.84876 0.999806 10.528C0.999806 11.2073 1.2284 11.8276 1.61577 12.2746C1.9458 12.6554 2.39618 12.91 2.90542 12.91C3.41466 12.91 3.86504 12.6554 4.19507 12.2746C4.58244 11.8276 4.81104 11.2073 4.81104 10.528C4.81104 9.84876 4.58244 9.22843 4.19507 8.78147C3.86504 8.40067 3.41466 8.146 2.90542 8.146Z" stroke="white" stroke-opacity="0.5" stroke-width="2"/>
    <path fill-rule="evenodd" clip-rule="evenodd" d="M13.5376 12.9102L13.6237 12.9165C16.0107 12.9169 17.8685 14.0565 19.266 15.5434C21.4598 17.8776 22.5976 21.0918 22.5976 22.5017C22.5976 23.4627 22.1764 24.3289 21.5073 24.9574C20.8103 25.612 19.8458 26.0113 18.7837 26.0113C17.6123 26.0113 16.559 25.5258 15.8536 24.7477L15.7286 24.6146C15.355 24.1948 14.6097 23.8092 13.6676 23.8092C12.7333 23.8092 11.9932 24.1882 11.6163 24.6037L11.4892 24.7336C10.7839 25.5202 9.72484 26.0113 8.54631 26.0113C7.48416 26.0113 6.51973 25.612 5.82272 24.9574C5.15354 24.3289 4.73242 23.4627 4.73242 22.5017C4.73242 21.0918 5.86907 17.8784 8.03937 15.5407C9.41767 14.056 11.2443 12.9102 13.5517 12.9102H13.5376Z" stroke="white" stroke-opacity="0.5" stroke-width="2"/>
    <path d="M888.891 84.6902C888.479 85.971 897.875 90.0935 895.061 93.3799C892.248 96.6666 886.073 93.1319 886.073 93.1319L871.523 98.4279C871.523 98.4279 868.623 105.265 865.448 104.397C862.627 103.626 862.216 100.998 863.846 96.4454" stroke="white" stroke-opacity="0.5" stroke-width="2" stroke-linecap="round" stroke-linejoin="round"/>
    <path d="M865.606 97.8064C866.017 96.5256 856.622 92.4031 859.436 89.1167C862.249 85.83 868.423 89.3647 868.423 89.3647L882.974 84.0687C882.974 84.0687 885.874 77.2313 889.049 78.0995C891.869 78.8702 892.281 81.4984 890.651 86.0512" stroke="white" stroke-opacity="0.5" stroke-width="2" stroke-linecap="round" stroke-linejoin="round"/>
    <path d="M818.686 279.158C818.855 280.492 829.112 280.258 827.951 284.425C826.79 288.593 819.7 287.999 819.7 287.999L808.751 298.948C808.751 298.948 809.013 306.37 805.768 306.925C802.886 307.419 801.403 305.211 800.956 300.396" stroke="white" stroke-opacity="0.5" stroke-width="2" stroke-linecap="round" stroke-linejoin="round"/>
    <path d="M803.127 300.885C802.958 299.55 792.701 299.785 793.862 295.617C795.023 291.449 802.112 292.044 802.112 292.044L813.062 281.095C813.062 281.095 812.8 273.672 816.045 273.117C818.926 272.624 820.41 274.832 820.857 279.647" stroke="white" stroke-opacity="0.5" stroke-width="2" stroke-linecap="round" stroke-linejoin="round"/>
    <path fill-rule="evenodd" clip-rule="evenodd" d="M1132.63 150.496C1133.27 150.384 1133.88 150.645 1134.38 151.092C1134.99 151.637 1135.44 152.464 1135.61 153.427C1135.78 154.389 1135.64 155.319 1135.25 156.04C1134.94 156.631 1134.45 157.087 1133.81 157.198C1133.18 157.31 1132.57 157.049 1132.07 156.602C1131.46 156.057 1131.01 155.23 1130.84 154.268C1130.67 153.305 1130.81 152.375 1131.19 151.654C1131.51 151.064 1132 150.608 1132.63 150.496Z" stroke="white" stroke-opacity="0.5" stroke-width="2"/>
    <path fill-rule="evenodd" clip-rule="evenodd" d="M1140.48 156.368C1140.98 156.28 1141.47 156.452 1141.86 156.77C1142.32 157.143 1142.65 157.714 1142.77 158.383C1142.89 159.052 1142.77 159.703 1142.47 160.21C1142.21 160.643 1141.81 160.972 1141.31 161.06C1140.81 161.148 1140.32 160.976 1139.93 160.658C1139.47 160.285 1139.14 159.714 1139.02 159.045C1138.9 158.376 1139.02 157.726 1139.32 157.218C1139.58 156.786 1139.98 156.457 1140.48 156.368Z" stroke="white" stroke-opacity="0.5" stroke-width="2"/>
    <path fill-rule="evenodd" clip-rule="evenodd" d="M1123.48 152.109C1122.85 152.221 1122.36 152.677 1122.05 153.267C1121.66 153.988 1121.52 154.918 1121.69 155.881C1121.86 156.843 1122.31 157.67 1122.92 158.215C1123.42 158.662 1124.03 158.923 1124.67 158.811C1125.3 158.7 1125.79 158.244 1126.11 157.653C1126.49 156.932 1126.63 156.002 1126.46 155.04C1126.29 154.077 1125.84 153.251 1125.23 152.705C1124.73 152.258 1124.12 151.997 1123.48 152.109Z" stroke="white" stroke-opacity="0.5" stroke-width="2"/>
    <path fill-rule="evenodd" clip-rule="evenodd" d="M1118.12 160.312C1117.62 160.4 1117.22 160.729 1116.96 161.161C1116.65 161.669 1116.54 162.319 1116.65 162.988C1116.77 163.657 1117.11 164.228 1117.56 164.601C1117.96 164.919 1118.44 165.092 1118.95 165.003C1119.45 164.915 1119.85 164.586 1120.1 164.154C1120.41 163.646 1120.53 162.995 1120.41 162.327C1120.29 161.658 1119.96 161.086 1119.5 160.713C1119.11 160.396 1118.62 160.223 1118.12 160.312Z" stroke="white" stroke-opacity="0.5" stroke-width="2"/>
    <path fill-rule="evenodd" clip-rule="evenodd" d="M1129.41 163.157L1129.5 163.148C1131.85 162.734 1133.88 163.534 1135.51 164.756C1138.08 166.673 1139.76 169.641 1140 171.03C1140.17 171.976 1139.91 172.902 1139.36 173.637C1138.78 174.403 1137.9 174.964 1136.86 175.148C1135.7 175.352 1134.58 175.056 1133.75 174.413L1133.6 174.303C1133.16 173.955 1132.36 173.704 1131.44 173.868C1130.52 174.03 1129.85 174.532 1129.55 175.007L1129.45 175.157C1128.89 176.054 1127.93 176.721 1126.77 176.926C1125.73 177.11 1124.71 176.885 1123.91 176.361C1123.14 175.858 1122.58 175.078 1122.41 174.132C1122.16 172.743 1122.73 169.381 1124.46 166.702C1125.56 165.001 1127.16 163.555 1129.43 163.155L1129.41 163.157Z" stroke="white" stroke-opacity="0.5" stroke-width="2"/>
    <path fill-rule="evenodd" clip-rule="evenodd" d="M366.632 86.496C367.266 86.3842 367.882 86.6453 368.381 87.092C368.991 87.6374 369.439 88.4641 369.608 89.4266C369.778 90.3893 369.64 91.3193 369.254 92.0403C368.937 92.6308 368.448 93.0866 367.814 93.1983C367.181 93.3101 366.565 93.049 366.066 92.6022C365.456 92.0569 365.008 91.2303 364.838 90.2677C364.669 89.3052 364.807 88.3752 365.193 87.6543C365.51 87.0637 365.999 86.6077 366.632 86.496Z" stroke="white" stroke-opacity="0.5" stroke-width="2"/>
    <path fill-rule="evenodd" clip-rule="evenodd" d="M374.481 92.3683C374.982 92.2799 375.47 92.4525 375.861 92.7702C376.32 93.1431 376.653 93.7143 376.771 94.3832C376.889 95.0522 376.772 95.7028 376.468 96.2102C376.209 96.6425 375.809 96.9715 375.308 97.06C374.806 97.1484 374.319 96.9758 373.928 96.6581C373.468 96.2852 373.136 95.714 373.018 95.045C372.9 94.3761 373.017 93.7255 373.321 93.2181C373.58 92.7857 373.979 92.4567 374.481 92.3683Z" stroke="white" stroke-opacity="0.5" stroke-width="2"/>
    <path fill-rule="evenodd" clip-rule="evenodd" d="M357.484 88.109C356.85 88.2207 356.361 88.6766 356.045 89.2671C355.659 89.9881 355.52 90.9182 355.69 91.8807C355.86 92.8434 356.308 93.6701 356.917 94.2154C357.417 94.6621 358.032 94.9231 358.666 94.8114C359.3 94.6996 359.789 94.2438 360.105 93.6531C360.491 92.9323 360.63 92.0023 360.46 91.0397C360.29 90.0772 359.842 89.2506 359.233 88.7052C358.733 88.2585 358.118 87.9973 357.484 88.109Z" stroke="white" stroke-opacity="0.5" stroke-width="2"/>
    <path fill-rule="evenodd" clip-rule="evenodd" d="M352.118 96.3116C351.616 96.4 351.217 96.7291 350.958 97.1614C350.654 97.6688 350.537 98.3194 350.655 98.9884C350.773 99.6573 351.106 100.228 351.565 100.601C351.956 100.919 352.444 101.092 352.945 101.003C353.447 100.915 353.846 100.586 354.105 100.154C354.409 99.6461 354.526 98.9955 354.408 98.3265C354.29 97.6576 353.957 97.0864 353.498 96.7135C353.107 96.3958 352.619 96.2232 352.118 96.3116Z" stroke="white" stroke-opacity="0.5" stroke-width="2"/>
    <path fill-rule="evenodd" clip-rule="evenodd" d="M363.415 99.157L363.501 99.1483C365.851 98.7342 367.879 99.5339 369.513 100.756C372.079 102.673 373.758 105.641 374.002 107.03C374.169 107.976 373.905 108.902 373.355 109.637C372.782 110.403 371.902 110.964 370.856 111.148C369.702 111.352 368.581 111.056 367.751 110.413L367.605 110.303C367.164 109.955 366.363 109.704 365.435 109.868C364.515 110.03 363.852 110.532 363.553 111.007L363.45 111.157C362.892 112.054 361.935 112.721 360.774 112.926C359.728 113.11 358.709 112.885 357.909 112.361C357.141 111.858 356.576 111.078 356.409 110.132C356.164 108.743 356.725 105.381 358.457 102.702C359.556 101.001 361.156 99.5553 363.428 99.1546L363.415 99.157Z" stroke="white" stroke-opacity="0.5" stroke-width="2"/>
    <path fill-rule="evenodd" clip-rule="evenodd" d="M433.22 1C433.864 1 434.424 1.36402 434.838 1.89064C435.344 2.53358 435.642 3.42548 435.642 4.40288C435.642 5.38044 435.344 6.27231 434.839 6.9152C434.424 7.44184 433.864 7.80577 433.22 7.80577C432.577 7.80577 432.016 7.44174 431.602 6.91505C431.096 6.27218 430.798 5.38037 430.798 4.40288C430.798 3.42555 431.096 2.53371 431.602 1.89079C432.016 1.36412 432.577 1 433.22 1Z" stroke="white" stroke-opacity="0.5" stroke-width="2"/>
    <path fill-rule="evenodd" clip-rule="evenodd" d="M439.93 8.146C440.439 8.146 440.889 8.40067 441.219 8.78147C441.607 9.22843 441.835 9.84876 441.835 10.528C441.835 11.2073 441.607 11.8276 441.219 12.2746C440.889 12.6554 440.439 12.91 439.93 12.91C439.42 12.91 438.97 12.6554 438.64 12.2746C438.253 11.8276 438.024 11.2073 438.024 10.528C438.024 9.84876 438.253 9.22843 438.64 8.78147C438.97 8.40067 439.42 8.146 439.93 8.146Z" stroke="white" stroke-opacity="0.5" stroke-width="2"/>
    <path fill-rule="evenodd" clip-rule="evenodd" d="M423.93 1C423.287 1 422.726 1.36402 422.312 1.89064C421.806 2.53358 421.509 3.42548 421.509 4.40288C421.509 5.38044 421.806 6.27231 422.312 6.9152C422.726 7.44184 423.287 7.80577 423.93 7.80577C424.574 7.80577 425.135 7.44174 425.549 6.91505C426.054 6.27218 426.352 5.38037 426.352 4.40288C426.352 3.42555 426.054 2.53371 425.549 1.89079C425.135 1.36412 424.574 1 423.93 1Z" stroke="white" stroke-opacity="0.5" stroke-width="2"/>
    <path fill-rule="evenodd" clip-rule="evenodd" d="M417.221 8.146C416.712 8.146 416.261 8.40067 415.931 8.78147C415.544 9.22843 415.315 9.84876 415.315 10.528C415.315 11.2073 415.544 11.8276 415.931 12.2746C416.261 12.6554 416.712 12.91 417.221 12.91C417.73 12.91 418.18 12.6554 418.51 12.2746C418.898 11.8276 419.126 11.2073 419.126 10.528C419.126 9.84876 418.898 9.22843 418.51 8.78147C418.18 8.40067 417.73 8.146 417.221 8.146Z" stroke="white" stroke-opacity="0.5" stroke-width="2"/>
    <path fill-rule="evenodd" clip-rule="evenodd" d="M427.852 12.9102L427.939 12.9165C430.326 12.9169 432.183 14.0565 433.581 15.5434C435.775 17.8776 436.913 21.0918 436.913 22.5017C436.913 23.4627 436.491 24.3289 435.822 24.9574C435.125 25.612 434.161 26.0113 433.099 26.0113C431.927 26.0113 430.874 25.5258 430.169 24.7477L430.044 24.6146C429.67 24.1948 428.925 23.8092 427.983 23.8092C427.048 23.8092 426.308 24.1882 425.931 24.6037L425.804 24.7336C425.099 25.5202 424.04 26.0113 422.861 26.0113C421.799 26.0113 420.835 25.612 420.138 24.9574C419.468 24.3289 419.047 23.4627 419.047 22.5017C419.047 21.0918 420.184 17.8784 422.354 15.5407C423.733 14.056 425.559 12.9102 427.867 12.9102H427.852Z" stroke="white" stroke-opacity="0.5" stroke-width="2"/>
    <path d="M1016.03 175.385C1016.2 176.719 1026.45 176.485 1025.29 180.653C1024.13 184.82 1017.04 184.226 1017.04 184.226L1006.09 195.175C1006.09 195.175 1006.35 202.598 1003.11 203.153C1000.23 203.646 998.744 201.438 998.298 196.623" stroke="white" stroke-opacity="0.5" stroke-width="2" stroke-linecap="round" stroke-linejoin="round"/>
    <path d="M1000.47 197.112C1000.3 195.778 990.043 196.012 991.204 191.844C992.365 187.676 999.454 188.271 999.454 188.271L1010.4 177.322C1010.4 177.322 1010.14 169.899 1013.39 169.344C1016.27 168.851 1017.75 171.059 1018.2 175.874" stroke="white" stroke-opacity="0.5" stroke-width="2" stroke-linecap="round" stroke-linejoin="round"/>
    <path d="M1246.26 279.158C1246.43 280.492 1256.69 280.258 1255.53 284.425C1254.37 288.593 1247.28 287.999 1247.28 287.999L1236.33 298.948C1236.33 298.948 1236.59 306.37 1233.35 306.925C1230.46 307.419 1228.98 305.211 1228.53 300.396" stroke="white" stroke-opacity="0.5" stroke-width="2" stroke-linecap="round" stroke-linejoin="round"/>
    <path d="M1230.7 300.885C1230.54 299.55 1220.28 299.785 1221.44 295.617C1222.6 291.449 1229.69 292.044 1229.69 292.044L1240.64 281.095C1240.64 281.095 1240.38 273.672 1243.62 273.117C1246.5 272.624 1247.99 274.832 1248.43 279.647" stroke="white" stroke-opacity="0.5" stroke-width="2" stroke-linecap="round" stroke-linejoin="round"/>
    <path fill-rule="evenodd" clip-rule="evenodd" d="M860.798 1C861.442 1 862.002 1.36402 862.417 1.89064C862.922 2.53358 863.22 3.42548 863.22 4.40288C863.22 5.38044 862.922 6.27231 862.417 6.9152C862.003 7.44184 861.442 7.80577 860.798 7.80577C860.155 7.80577 859.594 7.44174 859.18 6.91505C858.674 6.27218 858.376 5.38037 858.376 4.40288C858.376 3.42555 858.674 2.53371 859.18 1.89079C859.594 1.36412 860.155 1 860.798 1Z" stroke="white" stroke-opacity="0.5" stroke-width="2"/>
    <path fill-rule="evenodd" clip-rule="evenodd" d="M867.507 8.146C868.016 8.146 868.467 8.40067 868.797 8.78147C869.184 9.22843 869.413 9.84876 869.413 10.528C869.413 11.2073 869.184 11.8276 868.797 12.2746C868.467 12.6554 868.016 12.91 867.507 12.91C866.998 12.91 866.548 12.6554 866.218 12.2746C865.83 11.8276 865.602 11.2073 865.602 10.528C865.602 9.84876 865.83 9.22843 866.218 8.78147C866.548 8.40067 866.998 8.146 867.507 8.146Z" stroke="white" stroke-opacity="0.5" stroke-width="2"/>
    <path fill-rule="evenodd" clip-rule="evenodd" d="M851.508 1C850.865 1 850.304 1.36402 849.89 1.89064C849.384 2.53358 849.087 3.42548 849.087 4.40288C849.087 5.38044 849.384 6.27231 849.89 6.9152C850.304 7.44184 850.865 7.80577 851.508 7.80577C852.152 7.80577 852.713 7.44174 853.127 6.91505C853.632 6.27218 853.93 5.38037 853.93 4.40288C853.93 3.42555 853.632 2.53371 853.127 1.89079C852.713 1.36412 852.152 1 851.508 1Z" stroke="white" stroke-opacity="0.5" stroke-width="2"/>
    <path fill-rule="evenodd" clip-rule="evenodd" d="M844.799 8.146C844.29 8.146 843.839 8.40067 843.509 8.78147C843.122 9.22843 842.893 9.84876 842.893 10.528C842.893 11.2073 843.122 11.8276 843.509 12.2746C843.839 12.6554 844.29 12.91 844.799 12.91C845.308 12.91 845.759 12.6554 846.089 12.2746C846.476 11.8276 846.705 11.2073 846.705 10.528C846.705 9.84876 846.476 9.22843 846.089 8.78147C845.759 8.40067 845.308 8.146 844.799 8.146Z" stroke="white" stroke-opacity="0.5" stroke-width="2"/>
    <path fill-rule="evenodd" clip-rule="evenodd" d="M855.43 12.9102L855.516 12.9165C857.903 12.9169 859.761 14.0565 861.159 15.5434C863.352 17.8776 864.49 21.0918 864.49 22.5017C864.49 23.4627 864.069 24.3289 863.4 24.9574C862.703 25.612 861.738 26.0113 860.676 26.0113C859.505 26.0113 858.452 25.5258 857.746 24.7477L857.621 24.6146C857.248 24.1948 856.502 23.8092 855.56 23.8092C854.626 23.8092 853.886 24.1882 853.509 24.6037L853.382 24.7336C852.676 25.5202 851.617 26.0113 850.439 26.0113C849.377 26.0113 848.412 25.612 847.715 24.9574C847.046 24.3289 846.625 23.4627 846.625 22.5017C846.625 21.0918 847.762 17.8784 849.932 15.5407C851.31 14.056 853.137 12.9102 855.444 12.9102H855.43Z" stroke="white" stroke-opacity="0.5" stroke-width="2"/>
    <path d="M119.462 859.686C119.63 861.021 129.887 860.787 128.726 864.954C127.565 869.122 120.476 868.528 120.476 868.528L109.527 879.477C109.527 879.477 109.788 886.899 106.544 887.454C103.662 887.948 102.178 885.74 101.731 880.924" stroke="white" stroke-opacity="0.5" stroke-width="2" stroke-linecap="round" stroke-linejoin="round"/>
    <path d="M103.902 881.414C103.733 880.08 93.4758 880.314 94.6372 876.146C95.7978 871.979 102.887 872.573 102.887 872.573L113.836 861.624C113.836 861.624 113.575 854.201 116.82 853.646C119.701 853.153 121.185 855.361 121.632 860.176" stroke="white" stroke-opacity="0.5" stroke-width="2" stroke-linecap="round" stroke-linejoin="round"/>
    <path d="M404.371 940.157C404.539 941.492 414.796 941.258 413.635 945.425C412.474 949.593 405.385 948.999 405.385 948.999L394.436 959.948C394.436 959.948 394.697 967.37 391.453 967.925C388.571 968.419 387.087 966.211 386.64 961.395" stroke="white" stroke-opacity="0.5" stroke-width="2" stroke-linecap="round" stroke-linejoin="round"/>
    <path d="M388.811 961.885C388.643 960.55 378.385 960.785 379.547 956.617C380.707 952.449 387.797 953.044 387.797 953.044L398.746 942.095C398.746 942.095 398.485 934.672 401.729 934.117C404.611 933.624 406.095 935.832 406.541 940.647" stroke="white" stroke-opacity="0.5" stroke-width="2" stroke-linecap="round" stroke-linejoin="round"/>
    <path fill-rule="evenodd" clip-rule="evenodd" d="M272.006 826.997C272.64 827.108 273.129 827.564 273.445 828.155C273.831 828.876 273.97 829.806 273.8 830.768C273.63 831.731 273.182 832.558 272.573 833.103C272.073 833.55 271.458 833.811 270.824 833.699C270.191 833.587 269.701 833.131 269.385 832.541C268.999 831.82 268.86 830.89 269.03 829.927C269.2 828.965 269.648 828.138 270.258 827.593C270.757 827.146 271.372 826.885 272.006 826.997Z" stroke="white" stroke-opacity="0.5" stroke-width="2"/>
    <path fill-rule="evenodd" clip-rule="evenodd" d="M277.373 835.199C277.874 835.288 278.274 835.617 278.532 836.049C278.836 836.557 278.954 837.207 278.836 837.876C278.718 838.545 278.385 839.116 277.926 839.489C277.535 839.807 277.047 839.979 276.545 839.891C276.044 839.803 275.645 839.474 275.386 839.041C275.082 838.534 274.965 837.883 275.082 837.214C275.2 836.545 275.533 835.974 275.992 835.601C276.383 835.283 276.871 835.111 277.373 835.199Z" stroke="white" stroke-opacity="0.5" stroke-width="2"/>
    <path fill-rule="evenodd" clip-rule="evenodd" d="M262.857 825.383C262.224 825.272 261.608 825.533 261.109 825.979C260.499 826.525 260.051 827.352 259.881 828.314C259.712 829.277 259.85 830.207 260.236 830.928C260.553 831.518 261.042 831.974 261.675 832.086C262.309 832.198 262.925 831.936 263.424 831.49C264.034 830.944 264.482 830.118 264.651 829.155C264.821 828.193 264.683 827.263 264.296 826.542C263.98 825.951 263.491 825.495 262.857 825.383Z" stroke="white" stroke-opacity="0.5" stroke-width="2"/>
    <path fill-rule="evenodd" clip-rule="evenodd" d="M255.009 831.256C254.507 831.167 254.019 831.34 253.628 831.658C253.169 832.031 252.836 832.602 252.718 833.271C252.6 833.94 252.718 834.59 253.022 835.098C253.281 835.53 253.68 835.859 254.181 835.947C254.683 836.036 255.171 835.863 255.562 835.546C256.021 835.173 256.354 834.601 256.472 833.932C256.59 833.264 256.472 832.613 256.168 832.106C255.909 831.673 255.51 831.344 255.009 831.256Z" stroke="white" stroke-opacity="0.5" stroke-width="2"/>
    <path fill-rule="evenodd" clip-rule="evenodd" d="M264.652 837.794L264.736 837.815C267.086 838.23 268.718 839.675 269.836 841.382C271.591 844.061 272.153 847.424 271.909 848.813C271.742 849.759 271.177 850.539 270.408 851.042C269.608 851.565 268.589 851.791 267.543 851.607C266.39 851.403 265.437 850.742 264.877 849.854L264.777 849.701C264.482 849.222 263.815 848.713 262.887 848.55C261.967 848.387 261.173 848.632 260.729 848.976L260.581 849.082C259.75 849.734 258.622 850.034 257.461 849.829C256.415 849.645 255.535 849.084 254.962 848.318C254.412 847.583 254.148 846.657 254.315 845.71C254.56 844.322 256.237 841.355 258.78 839.429C260.396 838.207 262.393 837.395 264.666 837.796L264.652 837.794Z" stroke="white" stroke-opacity="0.5" stroke-width="2"/>
    <path fill-rule="evenodd" clip-rule="evenodd" d="M18.9051 662C19.5486 662 20.1094 662.364 20.5235 662.891C21.0292 663.534 21.3268 664.425 21.3268 665.403C21.3268 666.38 21.0292 667.272 20.5236 667.915C20.1095 668.442 19.5487 668.806 18.9051 668.806C18.2617 668.806 17.7009 668.442 17.2867 667.915C16.7811 667.272 16.4834 666.38 16.4834 665.403C16.4834 664.426 16.7812 663.534 17.2868 662.891C17.7009 662.364 18.2617 662 18.9051 662Z" stroke="white" stroke-opacity="0.5" stroke-width="2"/>
    <path fill-rule="evenodd" clip-rule="evenodd" d="M25.6146 669.146C26.1238 669.146 26.5742 669.401 26.9042 669.781C27.2916 670.228 27.5202 670.849 27.5202 671.528C27.5202 672.207 27.2916 672.828 26.9042 673.275C26.5742 673.655 26.1238 673.91 25.6146 673.91C25.1054 673.91 24.655 673.655 24.3249 673.275C23.9376 672.828 23.709 672.207 23.709 671.528C23.709 670.849 23.9376 670.228 24.3249 669.781C24.655 669.401 25.1054 669.146 25.6146 669.146Z" stroke="white" stroke-opacity="0.5" stroke-width="2"/>
    <path fill-rule="evenodd" clip-rule="evenodd" d="M9.6149 662C8.9714 662 8.41063 662.364 7.99648 662.891C7.49086 663.534 7.19318 664.425 7.19318 665.403C7.19318 666.38 7.4908 667.272 7.99638 667.915C8.41054 668.442 8.97136 668.806 9.6149 668.806C10.2583 668.806 10.8192 668.442 11.2334 667.915C11.7389 667.272 12.0366 666.38 12.0366 665.403C12.0366 664.426 11.7389 663.534 11.2333 662.891C10.8191 662.364 10.2583 662 9.6149 662Z" stroke="white" stroke-opacity="0.5" stroke-width="2"/>
    <path fill-rule="evenodd" clip-rule="evenodd" d="M2.90542 669.146C2.39618 669.146 1.9458 669.401 1.61577 669.781C1.2284 670.228 0.999806 670.849 0.999806 671.528C0.999806 672.207 1.2284 672.828 1.61577 673.275C1.9458 673.655 2.39618 673.91 2.90542 673.91C3.41466 673.91 3.86504 673.655 4.19507 673.275C4.58244 672.828 4.81104 672.207 4.81104 671.528C4.81104 670.849 4.58244 670.228 4.19507 669.781C3.86504 669.401 3.41466 669.146 2.90542 669.146Z" stroke="white" stroke-opacity="0.5" stroke-width="2"/>
    <path fill-rule="evenodd" clip-rule="evenodd" d="M13.5376 673.91L13.6237 673.916C16.0107 673.917 17.8685 675.056 19.266 676.543C21.4598 678.878 22.5976 682.092 22.5976 683.502C22.5976 684.463 22.1764 685.329 21.5073 685.957C20.8103 686.612 19.8458 687.011 18.7837 687.011C17.6123 687.011 16.559 686.526 15.8536 685.748L15.7286 685.615C15.355 685.195 14.6097 684.809 13.6676 684.809C12.7333 684.809 11.9932 685.188 11.6163 685.604L11.4892 685.734C10.7839 686.52 9.72484 687.011 8.54631 687.011C7.48416 687.011 6.51973 686.612 5.82272 685.957C5.15354 685.329 4.73242 684.463 4.73242 683.502C4.73242 682.092 5.86907 678.878 8.03937 676.541C9.41767 675.056 11.2443 673.91 13.5517 673.91H13.5376Z" stroke="white" stroke-opacity="0.5" stroke-width="2"/>
    <path d="M885.028 741.384C885.197 742.719 895.454 742.485 894.292 746.652C893.132 750.82 886.042 750.226 886.042 750.226L875.093 761.175C875.093 761.175 875.354 768.597 872.11 769.152C869.228 769.646 867.744 767.438 867.298 762.622" stroke="white" stroke-opacity="0.5" stroke-width="2" stroke-linecap="round" stroke-linejoin="round"/>
    <path d="M869.468 763.112C869.3 761.778 859.043 762.012 860.204 757.844C861.365 753.676 868.454 754.271 868.454 754.271L879.403 743.322C879.403 743.322 879.142 735.899 882.386 735.344C885.268 734.851 886.752 737.059 887.199 741.874" stroke="white" stroke-opacity="0.5" stroke-width="2" stroke-linecap="round" stroke-linejoin="round"/>
    <path d="M818.686 940.158C818.855 941.492 829.112 941.258 827.951 945.425C826.79 949.593 819.7 948.999 819.7 948.999L808.751 959.948C808.751 959.948 809.013 967.37 805.768 967.925C802.886 968.419 801.403 966.211 800.956 961.396" stroke="white" stroke-opacity="0.5" stroke-width="2" stroke-linecap="round" stroke-linejoin="round"/>
    <path d="M803.127 961.885C802.958 960.55 792.701 960.785 793.862 956.617C795.023 952.449 802.112 953.044 802.112 953.044L813.062 942.095C813.062 942.095 812.8 934.672 816.045 934.117C818.926 933.624 820.41 935.832 820.857 940.647" stroke="white" stroke-opacity="0.5" stroke-width="2" stroke-linecap="round" stroke-linejoin="round"/>
    <path fill-rule="evenodd" clip-rule="evenodd" d="M1142.63 811.496C1143.27 811.384 1143.88 811.645 1144.38 812.092C1144.99 812.637 1145.44 813.464 1145.61 814.427C1145.78 815.389 1145.64 816.319 1145.25 817.04C1144.94 817.631 1144.45 818.087 1143.81 818.198C1143.18 818.31 1142.57 818.049 1142.07 817.602C1141.46 817.057 1141.01 816.23 1140.84 815.268C1140.67 814.305 1140.81 813.375 1141.19 812.654C1141.51 812.064 1142 811.608 1142.63 811.496Z" stroke="white" stroke-opacity="0.5" stroke-width="2"/>
    <path fill-rule="evenodd" clip-rule="evenodd" d="M1150.48 817.368C1150.98 817.28 1151.47 817.452 1151.86 817.77C1152.32 818.143 1152.65 818.714 1152.77 819.383C1152.89 820.052 1152.77 820.703 1152.47 821.21C1152.21 821.643 1151.81 821.972 1151.31 822.06C1150.81 822.148 1150.32 821.976 1149.93 821.658C1149.47 821.285 1149.14 820.714 1149.02 820.045C1148.9 819.376 1149.02 818.726 1149.32 818.218C1149.58 817.786 1149.98 817.457 1150.48 817.368Z" stroke="white" stroke-opacity="0.5" stroke-width="2"/>
    <path fill-rule="evenodd" clip-rule="evenodd" d="M1133.48 813.109C1132.85 813.221 1132.36 813.677 1132.05 814.267C1131.66 814.988 1131.52 815.918 1131.69 816.881C1131.86 817.843 1132.31 818.67 1132.92 819.215C1133.42 819.662 1134.03 819.923 1134.67 819.811C1135.3 819.7 1135.79 819.244 1136.11 818.653C1136.49 817.932 1136.63 817.002 1136.46 816.04C1136.29 815.077 1135.84 814.251 1135.23 813.705C1134.73 813.258 1134.12 812.997 1133.48 813.109Z" stroke="white" stroke-opacity="0.5" stroke-width="2"/>
    <path fill-rule="evenodd" clip-rule="evenodd" d="M1128.12 821.312C1127.62 821.4 1127.22 821.729 1126.96 822.161C1126.65 822.669 1126.54 823.319 1126.65 823.988C1126.77 824.657 1127.11 825.228 1127.56 825.601C1127.96 825.919 1128.44 826.092 1128.95 826.003C1129.45 825.915 1129.85 825.586 1130.1 825.154C1130.41 824.646 1130.53 823.995 1130.41 823.327C1130.29 822.658 1129.96 822.086 1129.5 821.713C1129.11 821.396 1128.62 821.223 1128.12 821.312Z" stroke="white" stroke-opacity="0.5" stroke-width="2"/>
    <path fill-rule="evenodd" clip-rule="evenodd" d="M1139.41 824.157L1139.5 824.148C1141.85 823.734 1143.88 824.534 1145.51 825.756C1148.08 827.673 1149.76 830.641 1150 832.03C1150.17 832.976 1149.91 833.902 1149.36 834.637C1148.78 835.403 1147.9 835.964 1146.86 836.148C1145.7 836.352 1144.58 836.056 1143.75 835.413L1143.6 835.303C1143.16 834.955 1142.36 834.704 1141.44 834.868C1140.52 835.03 1139.85 835.532 1139.55 836.007L1139.45 836.157C1138.89 837.054 1137.93 837.721 1136.77 837.926C1135.73 838.11 1134.71 837.885 1133.91 837.361C1133.14 836.858 1132.58 836.078 1132.41 835.132C1132.16 833.743 1132.73 830.381 1134.46 827.702C1135.56 826.001 1137.16 824.555 1139.43 824.155L1139.41 824.157Z" stroke="white" stroke-opacity="0.5" stroke-width="2"/>
    <path fill-rule="evenodd" clip-rule="evenodd" d="M366.632 747.496C367.266 747.384 367.882 747.645 368.381 748.092C368.991 748.637 369.439 749.464 369.608 750.427C369.778 751.389 369.64 752.319 369.254 753.04C368.937 753.631 368.448 754.087 367.814 754.198C367.181 754.31 366.565 754.049 366.066 753.602C365.456 753.057 365.008 752.23 364.838 751.268C364.669 750.305 364.807 749.375 365.193 748.654C365.51 748.064 365.999 747.608 366.632 747.496Z" stroke="white" stroke-opacity="0.5" stroke-width="2"/>
    <path fill-rule="evenodd" clip-rule="evenodd" d="M374.481 753.368C374.982 753.28 375.47 753.452 375.861 753.77C376.32 754.143 376.653 754.714 376.771 755.383C376.889 756.052 376.772 756.703 376.468 757.21C376.209 757.643 375.809 757.972 375.308 758.06C374.806 758.148 374.319 757.976 373.928 757.658C373.468 757.285 373.136 756.714 373.018 756.045C372.9 755.376 373.017 754.726 373.321 754.218C373.58 753.786 373.979 753.457 374.481 753.368Z" stroke="white" stroke-opacity="0.5" stroke-width="2"/>
    <path fill-rule="evenodd" clip-rule="evenodd" d="M357.484 749.109C356.85 749.221 356.361 749.677 356.045 750.267C355.659 750.988 355.52 751.918 355.69 752.881C355.86 753.843 356.308 754.67 356.917 755.215C357.417 755.662 358.032 755.923 358.666 755.811C359.3 755.7 359.789 755.244 360.105 754.653C360.491 753.932 360.63 753.002 360.46 752.04C360.29 751.077 359.842 750.251 359.233 749.705C358.733 749.258 358.118 748.997 357.484 749.109Z" stroke="white" stroke-opacity="0.5" stroke-width="2"/>
    <path fill-rule="evenodd" clip-rule="evenodd" d="M352.118 757.312C351.616 757.4 351.217 757.729 350.958 758.161C350.654 758.669 350.537 759.319 350.655 759.988C350.773 760.657 351.106 761.228 351.565 761.601C351.956 761.919 352.444 762.092 352.945 762.003C353.447 761.915 353.846 761.586 354.105 761.154C354.409 760.646 354.526 759.995 354.408 759.327C354.29 758.658 353.957 758.086 353.498 757.713C353.107 757.396 352.619 757.223 352.118 757.312Z" stroke="white" stroke-opacity="0.5" stroke-width="2"/>
    <path fill-rule="evenodd" clip-rule="evenodd" d="M363.415 760.157L363.501 760.148C365.851 759.734 367.879 760.534 369.513 761.756C372.079 763.673 373.758 766.641 374.002 768.03C374.169 768.976 373.905 769.902 373.355 770.637C372.782 771.403 371.902 771.964 370.856 772.148C369.702 772.352 368.581 772.056 367.751 771.413L367.605 771.303C367.164 770.955 366.363 770.704 365.435 770.868C364.515 771.03 363.852 771.532 363.553 772.007L363.45 772.157C362.892 773.054 361.935 773.721 360.774 773.926C359.728 774.11 358.709 773.885 357.909 773.361C357.141 772.858 356.576 772.078 356.409 771.132C356.164 769.743 356.725 766.381 358.457 763.702C359.556 762.001 361.156 760.555 363.428 760.155L363.415 760.157Z" stroke="white" stroke-opacity="0.5" stroke-width="2"/>
    <path fill-rule="evenodd" clip-rule="evenodd" d="M433.22 662C433.864 662 434.424 662.364 434.838 662.891C435.344 663.534 435.642 664.425 435.642 665.403C435.642 666.38 435.344 667.272 434.839 667.915C434.424 668.442 433.864 668.806 433.22 668.806C432.577 668.806 432.016 668.442 431.602 667.915C431.096 667.272 430.798 666.38 430.798 665.403C430.798 664.426 431.096 663.534 431.602 662.891C432.016 662.364 432.577 662 433.22 662Z" stroke="white" stroke-opacity="0.5" stroke-width="2"/>
    <path fill-rule="evenodd" clip-rule="evenodd" d="M439.93 669.146C440.439 669.146 440.889 669.401 441.219 669.781C441.607 670.228 441.835 670.849 441.835 671.528C441.835 672.207 441.607 672.828 441.219 673.275C440.889 673.655 440.439 673.91 439.93 673.91C439.42 673.91 438.97 673.655 438.64 673.275C438.253 672.828 438.024 672.207 438.024 671.528C438.024 670.849 438.253 670.228 438.64 669.781C438.97 669.401 439.42 669.146 439.93 669.146Z" stroke="white" stroke-opacity="0.5" stroke-width="2"/>
    <path fill-rule="evenodd" clip-rule="evenodd" d="M423.93 662C423.287 662 422.726 662.364 422.312 662.891C421.806 663.534 421.509 664.425 421.509 665.403C421.509 666.38 421.806 667.272 422.312 667.915C422.726 668.442 423.287 668.806 423.93 668.806C424.574 668.806 425.135 668.442 425.549 667.915C426.054 667.272 426.352 666.38 426.352 665.403C426.352 664.426 426.054 663.534 425.549 662.891C425.135 662.364 424.574 662 423.93 662Z" stroke="white" stroke-opacity="0.5" stroke-width="2"/>
    <path fill-rule="evenodd" clip-rule="evenodd" d="M417.221 669.146C416.712 669.146 416.261 669.401 415.931 669.781C415.544 670.228 415.315 670.849 415.315 671.528C415.315 672.207 415.544 672.828 415.931 673.275C416.261 673.655 416.712 673.91 417.221 673.91C417.73 673.91 418.18 673.655 418.51 673.275C418.898 672.828 419.126 672.207 419.126 671.528C419.126 670.849 418.898 670.228 418.51 669.781C418.18 669.401 417.73 669.146 417.221 669.146Z" stroke="white" stroke-opacity="0.5" stroke-width="2"/>
    <path fill-rule="evenodd" clip-rule="evenodd" d="M427.852 673.91L427.939 673.916C430.326 673.917 432.183 675.056 433.581 676.543C435.775 678.878 436.913 682.092 436.913 683.502C436.913 684.463 436.491 685.329 435.822 685.957C435.125 686.612 434.161 687.011 433.099 687.011C431.927 687.011 430.874 686.526 430.169 685.748L430.044 685.615C429.67 685.195 428.925 684.809 427.983 684.809C427.048 684.809 426.308 685.188 425.931 685.604L425.804 685.734C425.099 686.52 424.04 687.011 422.861 687.011C421.799 687.011 420.835 686.612 420.138 685.957C419.468 685.329 419.047 684.463 419.047 683.502C419.047 682.092 420.184 678.878 422.354 676.541C423.733 675.056 425.559 673.91 427.867 673.91H427.852Z" stroke="white" stroke-opacity="0.5" stroke-width="2"/>
    <path d="M1026.03 846.385C1026.2 847.719 1036.45 847.485 1035.29 851.653C1034.13 855.82 1027.04 855.226 1027.04 855.226L1016.09 866.175C1016.09 866.175 1016.35 873.598 1013.11 874.153C1010.23 874.646 1008.74 872.438 1008.3 867.623" stroke="white" stroke-opacity="0.5" stroke-width="2" stroke-linecap="round" stroke-linejoin="round"/>
    <path d="M1010.47 868.112C1010.3 866.778 1000.04 867.012 1001.2 862.844C1002.36 858.676 1009.45 859.271 1009.45 859.271L1020.4 848.322C1020.4 848.322 1020.14 840.899 1023.39 840.344C1026.27 839.851 1027.75 842.059 1028.2 846.874" stroke="white" stroke-opacity="0.5" stroke-width="2" stroke-linecap="round" stroke-linejoin="round"/>
    <path d="M1246.26 940.158C1246.43 941.492 1256.69 941.258 1255.53 945.425C1254.37 949.593 1247.28 948.999 1247.28 948.999L1236.33 959.948C1236.33 959.948 1236.59 967.37 1233.35 967.925C1230.46 968.419 1228.98 966.211 1228.53 961.396" stroke="white" stroke-opacity="0.5" stroke-width="2" stroke-linecap="round" stroke-linejoin="round"/>
    <path d="M1230.7 961.885C1230.54 960.55 1220.28 960.785 1221.44 956.617C1222.6 952.449 1229.69 953.044 1229.69 953.044L1240.64 942.095C1240.64 942.095 1240.38 934.672 1243.62 934.117C1246.5 933.624 1247.99 935.832 1248.43 940.647" stroke="white" stroke-opacity="0.5" stroke-width="2" stroke-linecap="round" stroke-linejoin="round"/>
    <path fill-rule="evenodd" clip-rule="evenodd" d="M860.798 662C861.442 662 862.002 662.364 862.417 662.891C862.922 663.534 863.22 664.425 863.22 665.403C863.22 666.38 862.922 667.272 862.417 667.915C862.003 668.442 861.442 668.806 860.798 668.806C860.155 668.806 859.594 668.442 859.18 667.915C858.674 667.272 858.376 666.38 858.376 665.403C858.376 664.426 858.674 663.534 859.18 662.891C859.594 662.364 860.155 662 860.798 662Z" stroke="white" stroke-opacity="0.5" stroke-width="2"/>
    <path fill-rule="evenodd" clip-rule="evenodd" d="M867.507 669.146C868.016 669.146 868.467 669.401 868.797 669.781C869.184 670.228 869.413 670.849 869.413 671.528C869.413 672.207 869.184 672.828 868.797 673.275C868.467 673.655 868.016 673.91 867.507 673.91C866.998 673.91 866.548 673.655 866.218 673.275C865.83 672.828 865.602 672.207 865.602 671.528C865.602 670.849 865.83 670.228 866.218 669.781C866.548 669.401 866.998 669.146 867.507 669.146Z" stroke="white" stroke-opacity="0.5" stroke-width="2"/>
    <path fill-rule="evenodd" clip-rule="evenodd" d="M851.508 662C850.865 662 850.304 662.364 849.89 662.891C849.384 663.534 849.087 664.425 849.087 665.403C849.087 666.38 849.384 667.272 849.89 667.915C850.304 668.442 850.865 668.806 851.508 668.806C852.152 668.806 852.713 668.442 853.127 667.915C853.632 667.272 853.93 666.38 853.93 665.403C853.93 664.426 853.632 663.534 853.127 662.891C852.713 662.364 852.152 662 851.508 662Z" stroke="white" stroke-opacity="0.5" stroke-width="2"/>
    <path fill-rule="evenodd" clip-rule="evenodd" d="M844.799 669.146C844.29 669.146 843.839 669.401 843.509 669.781C843.122 670.228 842.893 670.849 842.893 671.528C842.893 672.207 843.122 672.828 843.509 673.275C843.839 673.655 844.29 673.91 844.799 673.91C845.308 673.91 845.759 673.655 846.089 673.275C846.476 672.828 846.705 672.207 846.705 671.528C846.705 670.849 846.476 670.228 846.089 669.781C845.759 669.401 845.308 669.146 844.799 669.146Z" stroke="white" stroke-opacity="0.5" stroke-width="2"/>
    <path fill-rule="evenodd" clip-rule="evenodd" d="M855.43 673.91L855.516 673.916C857.903 673.917 859.761 675.056 861.159 676.543C863.352 678.878 864.49 682.092 864.49 683.502C864.49 684.463 864.069 685.329 863.4 685.957C862.703 686.612 861.738 687.011 860.676 687.011C859.505 687.011 858.452 686.526 857.746 685.748L857.621 685.615C857.248 685.195 856.502 684.809 855.56 684.809C854.626 684.809 853.886 685.188 853.509 685.604L853.382 685.734C852.676 686.52 851.617 687.011 850.439 687.011C849.377 687.011 848.412 686.612 847.715 685.957C847.046 685.329 846.625 684.463 846.625 683.502C846.625 682.092 847.762 678.878 849.932 676.541C851.31 675.056 853.137 673.91 855.444 673.91H855.43Z" stroke="white" stroke-opacity="0.5" stroke-width="2"/>
    <path fill-rule="evenodd" clip-rule="evenodd" d="M272.006 1259C272.64 1259.11 273.129 1259.56 273.445 1260.15C273.831 1260.88 273.97 1261.81 273.8 1262.77C273.63 1263.73 273.182 1264.56 272.573 1265.1C272.073 1265.55 271.458 1265.81 270.824 1265.7C270.191 1265.59 269.701 1265.13 269.385 1264.54C268.999 1263.82 268.86 1262.89 269.03 1261.93C269.2 1260.96 269.648 1260.14 270.258 1259.59C270.757 1259.15 271.372 1258.88 272.006 1259Z" stroke="white" stroke-opacity="0.5" stroke-width="2"/>
    <path fill-rule="evenodd" clip-rule="evenodd" d="M277.373 1267.2C277.874 1267.29 278.274 1267.62 278.532 1268.05C278.836 1268.56 278.954 1269.21 278.836 1269.88C278.718 1270.54 278.385 1271.12 277.926 1271.49C277.535 1271.81 277.047 1271.98 276.545 1271.89C276.044 1271.8 275.645 1271.47 275.386 1271.04C275.082 1270.53 274.965 1269.88 275.082 1269.21C275.2 1268.54 275.533 1267.97 275.992 1267.6C276.383 1267.28 276.871 1267.11 277.373 1267.2Z" stroke="white" stroke-opacity="0.5" stroke-width="2"/>
    <path fill-rule="evenodd" clip-rule="evenodd" d="M262.857 1257.38C262.224 1257.27 261.608 1257.53 261.109 1257.98C260.499 1258.52 260.051 1259.35 259.881 1260.31C259.712 1261.28 259.85 1262.21 260.236 1262.93C260.553 1263.52 261.042 1263.97 261.675 1264.09C262.309 1264.2 262.925 1263.94 263.424 1263.49C264.034 1262.94 264.482 1262.12 264.651 1261.15C264.821 1260.19 264.683 1259.26 264.296 1258.54C263.98 1257.95 263.491 1257.49 262.857 1257.38Z" stroke="white" stroke-opacity="0.5" stroke-width="2"/>
    <path fill-rule="evenodd" clip-rule="evenodd" d="M255.009 1263.26C254.507 1263.17 254.019 1263.34 253.628 1263.66C253.169 1264.03 252.836 1264.6 252.718 1265.27C252.6 1265.94 252.718 1266.59 253.022 1267.1C253.281 1267.53 253.68 1267.86 254.181 1267.95C254.683 1268.04 255.171 1267.86 255.562 1267.55C256.021 1267.17 256.354 1266.6 256.472 1265.93C256.59 1265.26 256.472 1264.61 256.168 1264.11C255.909 1263.67 255.51 1263.34 255.009 1263.26Z" stroke="white" stroke-opacity="0.5" stroke-width="2"/>
    <path fill-rule="evenodd" clip-rule="evenodd" d="M264.652 1269.79L264.736 1269.81C267.086 1270.23 268.718 1271.67 269.836 1273.38C271.591 1276.06 272.153 1279.42 271.909 1280.81C271.742 1281.76 271.177 1282.54 270.408 1283.04C269.608 1283.57 268.589 1283.79 267.543 1283.61C266.39 1283.4 265.437 1282.74 264.877 1281.85L264.777 1281.7C264.482 1281.22 263.815 1280.71 262.887 1280.55C261.967 1280.39 261.173 1280.63 260.729 1280.98L260.581 1281.08C259.75 1281.73 258.622 1282.03 257.461 1281.83C256.415 1281.64 255.535 1281.08 254.962 1280.32C254.412 1279.58 254.148 1278.66 254.315 1277.71C254.56 1276.32 256.237 1273.35 258.78 1271.43C260.396 1270.21 262.393 1269.4 264.666 1269.8L264.652 1269.79Z" stroke="white" stroke-opacity="0.5" stroke-width="2"/>
    <path fill-rule="evenodd" clip-rule="evenodd" d="M18.9051 1094C19.5486 1094 20.1094 1094.36 20.5235 1094.89C21.0292 1095.53 21.3268 1096.43 21.3268 1097.4C21.3268 1098.38 21.0292 1099.27 20.5236 1099.92C20.1095 1100.44 19.5487 1100.81 18.9051 1100.81C18.2617 1100.81 17.7009 1100.44 17.2867 1099.92C16.7811 1099.27 16.4834 1098.38 16.4834 1097.4C16.4834 1096.43 16.7812 1095.53 17.2868 1094.89C17.7009 1094.36 18.2617 1094 18.9051 1094Z" stroke="white" stroke-opacity="0.5" stroke-width="2"/>
    <path fill-rule="evenodd" clip-rule="evenodd" d="M25.6146 1101.15C26.1238 1101.15 26.5742 1101.4 26.9042 1101.78C27.2916 1102.23 27.5202 1102.85 27.5202 1103.53C27.5202 1104.21 27.2916 1104.83 26.9042 1105.27C26.5742 1105.66 26.1238 1105.91 25.6146 1105.91C25.1054 1105.91 24.655 1105.66 24.3249 1105.27C23.9376 1104.83 23.709 1104.21 23.709 1103.53C23.709 1102.85 23.9376 1102.23 24.3249 1101.78C24.655 1101.4 25.1054 1101.15 25.6146 1101.15Z" stroke="white" stroke-opacity="0.5" stroke-width="2"/>
    <path fill-rule="evenodd" clip-rule="evenodd" d="M9.6149 1094C8.9714 1094 8.41063 1094.36 7.99648 1094.89C7.49086 1095.53 7.19318 1096.43 7.19318 1097.4C7.19318 1098.38 7.4908 1099.27 7.99638 1099.92C8.41054 1100.44 8.97136 1100.81 9.6149 1100.81C10.2583 1100.81 10.8192 1100.44 11.2334 1099.92C11.7389 1099.27 12.0366 1098.38 12.0366 1097.4C12.0366 1096.43 11.7389 1095.53 11.2333 1094.89C10.8191 1094.36 10.2583 1094 9.6149 1094Z" stroke="white" stroke-opacity="0.5" stroke-width="2"/>
    <path fill-rule="evenodd" clip-rule="evenodd" d="M2.90542 1101.15C2.39618 1101.15 1.9458 1101.4 1.61577 1101.78C1.2284 1102.23 0.999806 1102.85 0.999806 1103.53C0.999806 1104.21 1.2284 1104.83 1.61577 1105.27C1.9458 1105.66 2.39618 1105.91 2.90542 1105.91C3.41466 1105.91 3.86504 1105.66 4.19507 1105.27C4.58244 1104.83 4.81104 1104.21 4.81104 1103.53C4.81104 1102.85 4.58244 1102.23 4.19507 1101.78C3.86504 1101.4 3.41466 1101.15 2.90542 1101.15Z" stroke="white" stroke-opacity="0.5" stroke-width="2"/>
    <path fill-rule="evenodd" clip-rule="evenodd" d="M13.5376 1105.91L13.6237 1105.92C16.0107 1105.92 17.8685 1107.06 19.266 1108.54C21.4598 1110.88 22.5976 1114.09 22.5976 1115.5C22.5976 1116.46 22.1764 1117.33 21.5073 1117.96C20.8103 1118.61 19.8458 1119.01 18.7837 1119.01C17.6123 1119.01 16.559 1118.53 15.8536 1117.75L15.7286 1117.61C15.355 1117.19 14.6097 1116.81 13.6676 1116.81C12.7333 1116.81 11.9932 1117.19 11.6163 1117.6L11.4892 1117.73C10.7839 1118.52 9.72484 1119.01 8.54631 1119.01C7.48416 1119.01 6.51973 1118.61 5.82272 1117.96C5.15354 1117.33 4.73242 1116.46 4.73242 1115.5C4.73242 1114.09 5.86907 1110.88 8.03937 1108.54C9.41767 1107.06 11.2443 1105.91 13.5517 1105.91H13.5376Z" stroke="white" stroke-opacity="0.5" stroke-width="2"/>
    <path d="M885.028 1173.38C885.197 1174.72 895.454 1174.48 894.292 1178.65C893.132 1182.82 886.042 1182.23 886.042 1182.23L875.093 1193.17C875.093 1193.17 875.354 1200.6 872.11 1201.15C869.228 1201.65 867.744 1199.44 867.298 1194.62" stroke="white" stroke-opacity="0.5" stroke-width="2" stroke-linecap="round" stroke-linejoin="round"/>
    <path d="M869.468 1195.11C869.3 1193.78 859.043 1194.01 860.204 1189.84C861.365 1185.68 868.454 1186.27 868.454 1186.27L879.403 1175.32C879.403 1175.32 879.142 1167.9 882.386 1167.34C885.268 1166.85 886.752 1169.06 887.199 1173.87" stroke="white" stroke-opacity="0.5" stroke-width="2" stroke-linecap="round" stroke-linejoin="round"/>
    <path d="M533.028 1244.38C533.197 1245.72 543.454 1245.48 542.292 1249.65C541.132 1253.82 534.042 1253.23 534.042 1253.23L523.093 1264.18C523.093 1264.18 523.354 1271.6 520.11 1272.15C517.228 1272.65 515.744 1270.44 515.298 1265.62" stroke="white" stroke-opacity="0.5" stroke-width="2" stroke-linecap="round" stroke-linejoin="round"/>
    <path d="M517.468 1266.11C517.3 1264.78 507.043 1265.01 508.204 1260.84C509.365 1256.68 516.454 1257.27 516.454 1257.27L527.403 1246.32C527.403 1246.32 527.142 1238.9 530.386 1238.34C533.268 1237.85 534.752 1240.06 535.199 1244.87" stroke="white" stroke-opacity="0.5" stroke-width="2" stroke-linecap="round" stroke-linejoin="round"/>
    <path fill-rule="evenodd" clip-rule="evenodd" d="M1142.63 1243.5C1143.27 1243.38 1143.88 1243.65 1144.38 1244.09C1144.99 1244.64 1145.44 1245.46 1145.61 1246.43C1145.78 1247.39 1145.64 1248.32 1145.25 1249.04C1144.94 1249.63 1144.45 1250.09 1143.81 1250.2C1143.18 1250.31 1142.57 1250.05 1142.07 1249.6C1141.46 1249.06 1141.01 1248.23 1140.84 1247.27C1140.67 1246.31 1140.81 1245.38 1141.19 1244.65C1141.51 1244.06 1142 1243.61 1142.63 1243.5Z" stroke="white" stroke-opacity="0.5" stroke-width="2"/>
    <path fill-rule="evenodd" clip-rule="evenodd" d="M1150.48 1249.37C1150.98 1249.28 1151.47 1249.45 1151.86 1249.77C1152.32 1250.14 1152.65 1250.71 1152.77 1251.38C1152.89 1252.05 1152.77 1252.7 1152.47 1253.21C1152.21 1253.64 1151.81 1253.97 1151.31 1254.06C1150.81 1254.15 1150.32 1253.98 1149.93 1253.66C1149.47 1253.29 1149.14 1252.71 1149.02 1252.05C1148.9 1251.38 1149.02 1250.73 1149.32 1250.22C1149.58 1249.79 1149.98 1249.46 1150.48 1249.37Z" stroke="white" stroke-opacity="0.5" stroke-width="2"/>
    <path fill-rule="evenodd" clip-rule="evenodd" d="M1133.48 1245.11C1132.85 1245.22 1132.36 1245.68 1132.05 1246.27C1131.66 1246.99 1131.52 1247.92 1131.69 1248.88C1131.86 1249.84 1132.31 1250.67 1132.92 1251.22C1133.42 1251.66 1134.03 1251.92 1134.67 1251.81C1135.3 1251.7 1135.79 1251.24 1136.11 1250.65C1136.49 1249.93 1136.63 1249 1136.46 1248.04C1136.29 1247.08 1135.84 1246.25 1135.23 1245.71C1134.73 1245.26 1134.12 1245 1133.48 1245.11Z" stroke="white" stroke-opacity="0.5" stroke-width="2"/>
    <path fill-rule="evenodd" clip-rule="evenodd" d="M1128.12 1253.31C1127.62 1253.4 1127.22 1253.73 1126.96 1254.16C1126.65 1254.67 1126.54 1255.32 1126.65 1255.99C1126.77 1256.66 1127.11 1257.23 1127.56 1257.6C1127.96 1257.92 1128.44 1258.09 1128.95 1258C1129.45 1257.91 1129.85 1257.59 1130.1 1257.15C1130.41 1256.65 1130.53 1256 1130.41 1255.33C1130.29 1254.66 1129.96 1254.09 1129.5 1253.71C1129.11 1253.4 1128.62 1253.22 1128.12 1253.31Z" stroke="white" stroke-opacity="0.5" stroke-width="2"/>
    <path fill-rule="evenodd" clip-rule="evenodd" d="M1139.41 1256.16L1139.5 1256.15C1141.85 1255.73 1143.88 1256.53 1145.51 1257.76C1148.08 1259.67 1149.76 1262.64 1150 1264.03C1150.17 1264.98 1149.91 1265.9 1149.36 1266.64C1148.78 1267.4 1147.9 1267.96 1146.86 1268.15C1145.7 1268.35 1144.58 1268.06 1143.75 1267.41L1143.6 1267.3C1143.16 1266.95 1142.36 1266.7 1141.44 1266.87C1140.52 1267.03 1139.85 1267.53 1139.55 1268.01L1139.45 1268.16C1138.89 1269.05 1137.93 1269.72 1136.77 1269.93C1135.73 1270.11 1134.71 1269.88 1133.91 1269.36C1133.14 1268.86 1132.58 1268.08 1132.41 1267.13C1132.16 1265.74 1132.73 1262.38 1134.46 1259.7C1135.56 1258 1137.16 1256.56 1139.43 1256.15L1139.41 1256.16Z" stroke="white" stroke-opacity="0.5" stroke-width="2"/>
    <path fill-rule="evenodd" clip-rule="evenodd" d="M366.632 1179.5C367.266 1179.38 367.882 1179.65 368.381 1180.09C368.991 1180.64 369.439 1181.46 369.608 1182.43C369.778 1183.39 369.64 1184.32 369.254 1185.04C368.937 1185.63 368.448 1186.09 367.814 1186.2C367.181 1186.31 366.565 1186.05 366.066 1185.6C365.456 1185.06 365.008 1184.23 364.838 1183.27C364.669 1182.31 364.807 1181.38 365.193 1180.65C365.51 1180.06 365.999 1179.61 366.632 1179.5Z" stroke="white" stroke-opacity="0.5" stroke-width="2"/>
    <path fill-rule="evenodd" clip-rule="evenodd" d="M374.481 1185.37C374.982 1185.28 375.47 1185.45 375.861 1185.77C376.32 1186.14 376.653 1186.71 376.771 1187.38C376.889 1188.05 376.772 1188.7 376.468 1189.21C376.209 1189.64 375.809 1189.97 375.308 1190.06C374.806 1190.15 374.319 1189.98 373.928 1189.66C373.468 1189.29 373.136 1188.71 373.018 1188.05C372.9 1187.38 373.017 1186.73 373.321 1186.22C373.58 1185.79 373.979 1185.46 374.481 1185.37Z" stroke="white" stroke-opacity="0.5" stroke-width="2"/>
    <path fill-rule="evenodd" clip-rule="evenodd" d="M357.484 1181.11C356.85 1181.22 356.361 1181.68 356.045 1182.27C355.659 1182.99 355.52 1183.92 355.69 1184.88C355.86 1185.84 356.308 1186.67 356.917 1187.22C357.417 1187.66 358.032 1187.92 358.666 1187.81C359.3 1187.7 359.789 1187.24 360.105 1186.65C360.491 1185.93 360.63 1185 360.46 1184.04C360.29 1183.08 359.842 1182.25 359.233 1181.71C358.733 1181.26 358.118 1181 357.484 1181.11Z" stroke="white" stroke-opacity="0.5" stroke-width="2"/>
    <path fill-rule="evenodd" clip-rule="evenodd" d="M352.118 1189.31C351.616 1189.4 351.217 1189.73 350.958 1190.16C350.654 1190.67 350.537 1191.32 350.655 1191.99C350.773 1192.66 351.106 1193.23 351.565 1193.6C351.956 1193.92 352.444 1194.09 352.945 1194C353.447 1193.91 353.846 1193.59 354.105 1193.15C354.409 1192.65 354.526 1192 354.408 1191.33C354.29 1190.66 353.957 1190.09 353.498 1189.71C353.107 1189.4 352.619 1189.22 352.118 1189.31Z" stroke="white" stroke-opacity="0.5" stroke-width="2"/>
    <path fill-rule="evenodd" clip-rule="evenodd" d="M363.415 1192.16L363.501 1192.15C365.851 1191.73 367.879 1192.53 369.513 1193.76C372.079 1195.67 373.758 1198.64 374.002 1200.03C374.169 1200.98 373.905 1201.9 373.355 1202.64C372.782 1203.4 371.902 1203.96 370.856 1204.15C369.702 1204.35 368.581 1204.06 367.751 1203.41L367.605 1203.3C367.164 1202.95 366.363 1202.7 365.435 1202.87C364.515 1203.03 363.852 1203.53 363.553 1204.01L363.45 1204.16C362.892 1205.05 361.935 1205.72 360.774 1205.93C359.728 1206.11 358.709 1205.88 357.909 1205.36C357.141 1204.86 356.576 1204.08 356.409 1203.13C356.164 1201.74 356.725 1198.38 358.457 1195.7C359.556 1194 361.156 1192.56 363.428 1192.15L363.415 1192.16Z" stroke="white" stroke-opacity="0.5" stroke-width="2"/>
    <path fill-rule="evenodd" clip-rule="evenodd" d="M433.22 1094C433.864 1094 434.424 1094.36 434.838 1094.89C435.344 1095.53 435.642 1096.43 435.642 1097.4C435.642 1098.38 435.344 1099.27 434.839 1099.92C434.424 1100.44 433.864 1100.81 433.22 1100.81C432.577 1100.81 432.016 1100.44 431.602 1099.92C431.096 1099.27 430.798 1098.38 430.798 1097.4C430.798 1096.43 431.096 1095.53 431.602 1094.89C432.016 1094.36 432.577 1094 433.22 1094Z" stroke="white" stroke-opacity="0.5" stroke-width="2"/>
    <path fill-rule="evenodd" clip-rule="evenodd" d="M439.93 1101.15C440.439 1101.15 440.889 1101.4 441.219 1101.78C441.607 1102.23 441.835 1102.85 441.835 1103.53C441.835 1104.21 441.607 1104.83 441.219 1105.27C440.889 1105.66 440.439 1105.91 439.93 1105.91C439.42 1105.91 438.97 1105.66 438.64 1105.27C438.253 1104.83 438.024 1104.21 438.024 1103.53C438.024 1102.85 438.253 1102.23 438.64 1101.78C438.97 1101.4 439.42 1101.15 439.93 1101.15Z" stroke="white" stroke-opacity="0.5" stroke-width="2"/>
    <path fill-rule="evenodd" clip-rule="evenodd" d="M423.93 1094C423.287 1094 422.726 1094.36 422.312 1094.89C421.806 1095.53 421.509 1096.43 421.509 1097.4C421.509 1098.38 421.806 1099.27 422.312 1099.92C422.726 1100.44 423.287 1100.81 423.93 1100.81C424.574 1100.81 425.135 1100.44 425.549 1099.92C426.054 1099.27 426.352 1098.38 426.352 1097.4C426.352 1096.43 426.054 1095.53 425.549 1094.89C425.135 1094.36 424.574 1094 423.93 1094Z" stroke="white" stroke-opacity="0.5" stroke-width="2"/>
    <path fill-rule="evenodd" clip-rule="evenodd" d="M417.221 1101.15C416.712 1101.15 416.261 1101.4 415.931 1101.78C415.544 1102.23 415.315 1102.85 415.315 1103.53C415.315 1104.21 415.544 1104.83 415.931 1105.27C416.261 1105.66 416.712 1105.91 417.221 1105.91C417.73 1105.91 418.18 1105.66 418.51 1105.27C418.898 1104.83 419.126 1104.21 419.126 1103.53C419.126 1102.85 418.898 1102.23 418.51 1101.78C418.18 1101.4 417.73 1101.15 417.221 1101.15Z" stroke="white" stroke-opacity="0.5" stroke-width="2"/>
    <path fill-rule="evenodd" clip-rule="evenodd" d="M427.852 1105.91L427.939 1105.92C430.326 1105.92 432.183 1107.06 433.581 1108.54C435.775 1110.88 436.913 1114.09 436.913 1115.5C436.913 1116.46 436.491 1117.33 435.822 1117.96C435.125 1118.61 434.161 1119.01 433.099 1119.01C431.927 1119.01 430.874 1118.53 430.169 1117.75L430.044 1117.61C429.67 1117.19 428.925 1116.81 427.983 1116.81C427.048 1116.81 426.308 1117.19 425.931 1117.6L425.804 1117.73C425.099 1118.52 424.04 1119.01 422.861 1119.01C421.799 1119.01 420.835 1118.61 420.138 1117.96C419.468 1117.33 419.047 1116.46 419.047 1115.5C419.047 1114.09 420.184 1110.88 422.354 1108.54C423.733 1107.06 425.559 1105.91 427.867 1105.91H427.852Z" stroke="white" stroke-opacity="0.5" stroke-width="2"/>
    <path fill-rule="evenodd" clip-rule="evenodd" d="M860.798 1094C861.442 1094 862.002 1094.36 862.417 1094.89C862.922 1095.53 863.22 1096.43 863.22 1097.4C863.22 1098.38 862.922 1099.27 862.417 1099.92C862.003 1100.44 861.442 1100.81 860.798 1100.81C860.155 1100.81 859.594 1100.44 859.18 1099.92C858.674 1099.27 858.376 1098.38 858.376 1097.4C858.376 1096.43 858.674 1095.53 859.18 1094.89C859.594 1094.36 860.155 1094 860.798 1094Z" stroke="white" stroke-opacity="0.5" stroke-width="2"/>
    <path fill-rule="evenodd" clip-rule="evenodd" d="M867.507 1101.15C868.016 1101.15 868.467 1101.4 868.797 1101.78C869.184 1102.23 869.413 1102.85 869.413 1103.53C869.413 1104.21 869.184 1104.83 868.797 1105.27C868.467 1105.66 868.016 1105.91 867.507 1105.91C866.998 1105.91 866.548 1105.66 866.218 1105.27C865.83 1104.83 865.602 1104.21 865.602 1103.53C865.602 1102.85 865.83 1102.23 866.218 1101.78C866.548 1101.4 866.998 1101.15 867.507 1101.15Z" stroke="white" stroke-opacity="0.5" stroke-width="2"/>
    <path fill-rule="evenodd" clip-rule="evenodd" d="M851.508 1094C850.865 1094 850.304 1094.36 849.89 1094.89C849.384 1095.53 849.087 1096.43 849.087 1097.4C849.087 1098.38 849.384 1099.27 849.89 1099.92C850.304 1100.44 850.865 1100.81 851.508 1100.81C852.152 1100.81 852.713 1100.44 853.127 1099.92C853.632 1099.27 853.93 1098.38 853.93 1097.4C853.93 1096.43 853.632 1095.53 853.127 1094.89C852.713 1094.36 852.152 1094 851.508 1094Z" stroke="white" stroke-opacity="0.5" stroke-width="2"/>
    <path fill-rule="evenodd" clip-rule="evenodd" d="M844.799 1101.15C844.29 1101.15 843.839 1101.4 843.509 1101.78C843.122 1102.23 842.893 1102.85 842.893 1103.53C842.893 1104.21 843.122 1104.83 843.509 1105.27C843.839 1105.66 844.29 1105.91 844.799 1105.91C845.308 1105.91 845.759 1105.66 846.089 1105.27C846.476 1104.83 846.705 1104.21 846.705 1103.53C846.705 1102.85 846.476 1102.23 846.089 1101.78C845.759 1101.4 845.308 1101.15 844.799 1101.15Z" stroke="white" stroke-opacity="0.5" stroke-width="2"/>
    <path fill-rule="evenodd" clip-rule="evenodd" d="M855.43 1105.91L855.516 1105.92C857.903 1105.92 859.761 1107.06 861.159 1108.54C863.352 1110.88 864.49 1114.09 864.49 1115.5C864.49 1116.46 864.069 1117.33 863.4 1117.96C862.703 1118.61 861.738 1119.01 860.676 1119.01C859.505 1119.01 858.452 1118.53 857.746 1117.75L857.621 1117.61C857.248 1117.19 856.502 1116.81 855.56 1116.81C854.626 1116.81 853.886 1117.19 853.509 1117.6L853.382 1117.73C852.676 1118.52 851.617 1119.01 850.439 1119.01C849.377 1119.01 848.412 1118.61 847.715 1117.96C847.046 1117.33 846.625 1116.46 846.625 1115.5C846.625 1114.09 847.762 1110.88 849.932 1108.54C851.31 1107.06 853.137 1105.91 855.444 1105.91H855.43Z" stroke="white" stroke-opacity="0.5" stroke-width="2"/>
</svg>
