<?xml version="1.0" encoding="utf-8"?>
<svg width="1189" height="315" viewBox="0 0 1189 315" fill="none" xmlns="http://www.w3.org/2000/svg">
    <path d="M28.0284 113.799C28.197 115.133 38.4542 114.899 37.2928 119.067C36.1321 123.235 29.0427 122.64 29.0427 122.64L18.0936 133.589C18.0936 133.589 18.3549 141.012 15.1104 141.567C12.2286 142.06 10.7448 139.852 10.2982 135.037" stroke="#F2C7BD" stroke-width="2" stroke-linecap="round" stroke-linejoin="round"/>
    <path d="M12.4685 135.527C12.2999 134.192 2.04267 134.427 3.20408 130.259C4.36472 126.091 11.4541 126.686 11.4541 126.686L22.4033 115.736C22.4033 115.736 22.142 108.314 25.3864 107.759C28.2683 107.266 29.752 109.474 30.1987 114.289" stroke="#F2C7BD" stroke-width="2" stroke-linecap="round" stroke-linejoin="round"/>
    <path d="M334.371 158.157C334.54 159.492 344.797 159.258 343.635 163.425C342.475 167.593 335.385 166.999 335.385 166.999L324.436 177.948C324.436 177.948 324.697 185.37 321.453 185.925C318.571 186.419 317.087 184.211 316.641 179.395" stroke="#F2C7BD" stroke-width="2" stroke-linecap="round" stroke-linejoin="round"/>
    <path d="M318.811 179.885C318.643 178.55 308.385 178.785 309.547 174.617C310.707 170.449 317.797 171.044 317.797 171.044L328.746 160.095C328.746 160.095 328.485 152.672 331.729 152.117C334.611 151.624 336.095 153.832 336.541 158.647" stroke="#F2C7BD" stroke-width="2" stroke-linecap="round" stroke-linejoin="round"/>
    <path fill-rule="evenodd" clip-rule="evenodd" d="M180.573 81.1092C181.207 81.221 181.696 81.6769 182.012 82.2674C182.398 82.9884 182.537 83.9184 182.367 84.881C182.197 85.8437 181.749 86.6703 181.14 87.2156C180.64 87.6624 180.025 87.9234 179.391 87.8116C178.757 87.6999 178.268 87.244 177.952 86.6534C177.566 85.9325 177.427 85.0025 177.597 84.0399C177.767 83.0774 178.215 82.2508 178.824 81.7055C179.324 81.2587 179.939 80.9975 180.573 81.1092Z" stroke="#2873BE" stroke-opacity="0.39" stroke-width="2"/>
    <path fill-rule="evenodd" clip-rule="evenodd" d="M185.94 89.3119C186.441 89.4003 186.84 89.7293 187.099 90.1616C187.403 90.6691 187.521 91.3197 187.403 91.9886C187.285 92.6575 186.952 93.2287 186.493 93.6017C186.102 93.9194 185.614 94.092 185.112 94.0035C184.611 93.9151 184.212 93.5861 183.953 93.1538C183.649 92.6463 183.531 91.9957 183.649 91.3268C183.767 90.6579 184.1 90.0866 184.559 89.7137C184.95 89.396 185.438 89.2234 185.94 89.3119Z" stroke="#2873BE" stroke-opacity="0.39" stroke-width="2"/>
    <path fill-rule="evenodd" clip-rule="evenodd" d="M171.424 79.496C170.79 79.3842 170.175 79.6453 169.676 80.092C169.066 80.6374 168.618 81.4641 168.448 82.4266C168.279 83.3893 168.417 84.3193 168.803 85.0403C169.119 85.6308 169.609 86.0866 170.242 86.1983C170.876 86.3101 171.492 86.049 171.991 85.6022C172.6 85.0569 173.048 84.2303 173.218 83.2677C173.388 82.3052 173.25 81.3752 172.863 80.6543C172.547 80.0637 172.058 79.6077 171.424 79.496Z" stroke="#2873BE" stroke-opacity="0.39" stroke-width="2"/>
    <path fill-rule="evenodd" clip-rule="evenodd" d="M163.576 85.3683C163.074 85.2799 162.586 85.4525 162.195 85.7702C161.736 86.1431 161.403 86.7143 161.285 87.3832C161.167 88.0522 161.285 88.7028 161.589 89.2102C161.848 89.6425 162.247 89.9715 162.748 90.06C163.25 90.1484 163.738 89.9758 164.129 89.6581C164.588 89.2852 164.921 88.714 165.039 88.045C165.157 87.3761 165.039 86.7255 164.735 86.2181C164.477 85.7857 164.077 85.4567 163.576 85.3683Z" stroke="#2873BE" stroke-opacity="0.39" stroke-width="2"/>
    <path fill-rule="evenodd" clip-rule="evenodd" d="M173.218 91.9062L173.302 91.9274C175.653 92.3423 177.285 93.7872 178.403 95.4941C180.158 98.1738 180.72 101.537 180.475 102.925C180.308 103.872 179.743 104.652 178.975 105.154C178.175 105.678 177.156 105.904 176.11 105.719C174.956 105.516 174.003 104.855 173.444 103.966L173.344 103.813C173.049 103.335 172.382 102.826 171.454 102.662C170.534 102.5 169.739 102.745 169.296 103.089L169.148 103.194C168.317 103.846 167.189 104.146 166.028 103.942C164.982 103.757 164.102 103.196 163.529 102.431C162.979 101.696 162.715 100.769 162.882 99.823C163.126 98.4345 164.804 95.4673 167.347 93.542C168.962 92.3193 170.96 91.508 173.232 91.9086L173.218 91.9062Z" stroke="#2873BE" stroke-opacity="0.39" stroke-width="2"/>
    <path d="M748.686 158.158C748.855 159.492 759.112 159.258 757.951 163.425C756.79 167.593 749.701 166.999 749.701 166.999L738.752 177.948C738.752 177.948 739.013 185.37 735.768 185.925C732.887 186.419 731.403 184.211 730.956 179.396" stroke="#F2C7BD" stroke-width="2" stroke-linecap="round" stroke-linejoin="round"/>
    <path d="M733.127 179.885C732.958 178.55 722.701 178.785 723.863 174.617C725.023 170.449 732.113 171.044 732.113 171.044L743.062 160.095C743.062 160.095 742.8 152.672 746.045 152.117C748.927 151.624 750.41 153.832 750.857 158.647" stroke="#F2C7BD" stroke-width="2" stroke-linecap="round" stroke-linejoin="round"/>
    <path fill-rule="evenodd" clip-rule="evenodd" d="M1099.63 2.49598C1100.27 2.38423 1100.88 2.64534 1101.38 3.09205C1101.99 3.63742 1102.44 4.46408 1102.61 5.42664C1102.78 6.38934 1102.64 7.31934 1102.25 8.04026C1101.94 8.63081 1101.45 9.0866 1100.81 9.19835C1100.18 9.31008 1099.57 9.04897 1099.07 8.6022C1098.46 8.05689 1098.01 7.23033 1097.84 6.26769C1097.67 5.3052 1097.81 4.37521 1098.19 3.65426C1098.51 3.06367 1099 2.6077 1099.63 2.49598Z" stroke="#2873BE" stroke-opacity="0.39" stroke-width="2"/>
    <path fill-rule="evenodd" clip-rule="evenodd" d="M1107.48 8.36831C1107.98 8.27988 1108.47 8.45248 1108.86 8.77018C1109.32 9.14309 1109.65 9.7143 1109.77 10.3832C1109.89 11.0522 1109.77 11.7028 1109.47 12.2102C1109.21 12.6425 1108.81 12.9715 1108.31 13.06C1107.81 13.1484 1107.32 12.9758 1106.93 12.6581C1106.47 12.2852 1106.14 11.714 1106.02 11.045C1105.9 10.3761 1106.02 9.72552 1106.32 9.21807C1106.58 8.78575 1106.98 8.45674 1107.48 8.36831Z" stroke="#2873BE" stroke-opacity="0.39" stroke-width="2"/>
    <path fill-rule="evenodd" clip-rule="evenodd" d="M1090.48 4.109C1089.85 4.22075 1089.36 4.67661 1089.05 5.26715C1088.66 5.98812 1088.52 6.91816 1088.69 7.88072C1088.86 8.84342 1089.31 9.67006 1089.92 10.2154C1090.42 10.6621 1091.03 10.9231 1091.67 10.8114C1092.3 10.6996 1092.79 10.2438 1093.11 9.65315C1093.49 8.93225 1093.63 8.0023 1093.46 7.03966C1093.29 6.07718 1092.84 5.25059 1092.23 4.70523C1091.73 4.25849 1091.12 3.99728 1090.48 4.109Z" stroke="#2873BE" stroke-opacity="0.39" stroke-width="2"/>
    <path fill-rule="evenodd" clip-rule="evenodd" d="M1085.12 12.3116C1084.62 12.4 1084.22 12.7291 1083.96 13.1614C1083.65 13.6688 1083.54 14.3194 1083.65 14.9884C1083.77 15.6573 1084.11 16.2285 1084.56 16.6014C1084.96 16.9191 1085.44 17.0917 1085.94 17.0033C1086.45 16.9149 1086.85 16.5858 1087.1 16.1535C1087.41 15.6461 1087.53 14.9955 1087.41 14.3265C1087.29 13.6576 1086.96 13.0864 1086.5 12.7135C1086.11 12.3958 1085.62 12.2232 1085.12 12.3116Z" stroke="#2873BE" stroke-opacity="0.39" stroke-width="2"/>
    <path fill-rule="evenodd" clip-rule="evenodd" d="M1096.42 15.157L1096.5 15.1483C1098.85 14.7342 1100.88 15.5339 1102.51 16.7555C1105.08 18.6733 1106.76 21.6411 1107 23.0296C1107.17 23.976 1106.91 24.9021 1106.36 25.6373C1105.78 26.403 1104.9 26.9637 1103.86 27.1481C1102.7 27.3515 1101.58 27.0563 1100.75 26.4126L1100.61 26.3032C1100.16 25.9547 1099.36 25.7043 1098.44 25.8679C1097.52 26.0301 1096.85 26.532 1096.55 27.0066L1096.45 27.1565C1095.89 28.0537 1094.94 28.7212 1093.77 28.9258C1092.73 29.1103 1091.71 28.8845 1090.91 28.3609C1090.14 27.8581 1089.58 27.0782 1089.41 26.1318C1089.16 24.7434 1089.73 21.3814 1091.46 18.7024C1092.56 17.0009 1094.16 15.5553 1096.43 15.1546L1096.42 15.157Z" stroke="#2873BE" stroke-opacity="0.39" stroke-width="2"/>
    <path d="M983.028 37.3846C983.197 38.7192 993.454 38.4848 992.292 42.6525C991.132 46.8202 984.042 46.2259 984.042 46.2259L973.093 57.1751C973.093 57.1751 973.355 64.5975 970.11 65.1525C967.228 65.6459 965.744 63.4379 965.298 58.6227" stroke="#F2C7BD" stroke-width="2" stroke-linecap="round" stroke-linejoin="round"/>
    <path d="M967.468 59.1121C967.3 57.7775 957.043 58.0119 958.204 53.8442C959.365 49.6765 966.454 50.2708 966.454 50.2708L977.403 39.3216C977.403 39.3216 977.142 31.8992 980.386 31.3442C983.268 30.8508 984.752 33.0589 985.199 37.874" stroke="#F2C7BD" stroke-width="2" stroke-linecap="round" stroke-linejoin="round"/>
    <path d="M1176.26 158.158C1176.43 159.492 1186.69 159.258 1185.53 163.425C1184.37 167.593 1177.28 166.999 1177.28 166.999L1166.33 177.948C1166.33 177.948 1166.59 185.37 1163.35 185.925C1160.46 186.419 1158.98 184.211 1158.53 179.396" stroke="#F2C7BD" stroke-width="2" stroke-linecap="round" stroke-linejoin="round"/>
    <path d="M1160.7 179.885C1160.54 178.55 1150.28 178.785 1151.44 174.617C1152.6 170.449 1159.69 171.044 1159.69 171.044L1170.64 160.095C1170.64 160.095 1170.38 152.672 1173.62 152.117C1176.5 151.624 1177.99 153.832 1178.43 158.647" stroke="#F2C7BD" stroke-width="2" stroke-linecap="round" stroke-linejoin="round"/>
    <path d="M49.4613 283.686C49.6299 285.021 59.8871 284.787 58.7257 288.954C57.565 293.122 50.4756 292.528 50.4756 292.528L39.5264 303.477C39.5264 303.477 39.7877 310.899 36.5433 311.454C33.6614 311.948 32.1777 309.74 31.731 304.924" stroke="white" stroke-opacity="0.5" stroke-width="2" stroke-linecap="round" stroke-linejoin="round"/>
    <path d="M33.9013 305.414C33.7327 304.08 23.4755 304.314 24.6369 300.146C25.7976 295.979 32.887 296.573 32.887 296.573L43.8362 285.624C43.8362 285.624 43.5748 278.201 46.8193 277.646C49.7011 277.153 51.1849 279.361 51.6316 284.176" stroke="white" stroke-opacity="0.5" stroke-width="2" stroke-linecap="round" stroke-linejoin="round"/>
    <path fill-rule="evenodd" clip-rule="evenodd" d="M202.006 250.997C202.64 251.108 203.129 251.564 203.445 252.155C203.831 252.876 203.97 253.806 203.8 254.768C203.63 255.731 203.182 256.558 202.573 257.103C202.073 257.55 201.458 257.811 200.824 257.699C200.191 257.587 199.701 257.131 199.385 256.541C198.999 255.82 198.86 254.89 199.03 253.927C199.2 252.965 199.648 252.138 200.258 251.593C200.757 251.146 201.372 250.885 202.006 250.997Z" stroke="white" stroke-opacity="0.5" stroke-width="2"/>
    <path fill-rule="evenodd" clip-rule="evenodd" d="M207.373 259.199C207.874 259.288 208.274 259.617 208.532 260.049C208.836 260.557 208.954 261.207 208.836 261.876C208.718 262.545 208.385 263.116 207.926 263.489C207.535 263.807 207.047 263.979 206.545 263.891C206.044 263.803 205.645 263.474 205.386 263.041C205.082 262.534 204.965 261.883 205.082 261.214C205.2 260.545 205.533 259.974 205.992 259.601C206.383 259.283 206.871 259.111 207.373 259.199Z" stroke="white" stroke-opacity="0.5" stroke-width="2"/>
    <path fill-rule="evenodd" clip-rule="evenodd" d="M192.857 249.383C192.224 249.272 191.608 249.533 191.109 249.979C190.499 250.525 190.051 251.352 189.881 252.314C189.712 253.277 189.85 254.207 190.236 254.928C190.553 255.518 191.042 255.974 191.675 256.086C192.309 256.198 192.925 255.936 193.424 255.49C194.034 254.944 194.482 254.118 194.651 253.155C194.821 252.193 194.683 251.263 194.296 250.542C193.98 249.951 193.491 249.495 192.857 249.383Z" stroke="white" stroke-opacity="0.5" stroke-width="2"/>
    <path fill-rule="evenodd" clip-rule="evenodd" d="M185.009 255.256C184.507 255.167 184.02 255.34 183.628 255.658C183.169 256.031 182.836 256.602 182.719 257.271C182.601 257.94 182.718 258.59 183.022 259.098C183.281 259.53 183.68 259.859 184.182 259.947C184.683 260.036 185.171 259.863 185.562 259.546C186.021 259.173 186.354 258.601 186.472 257.932C186.59 257.264 186.472 256.613 186.169 256.106C185.91 255.673 185.51 255.344 185.009 255.256Z" stroke="white" stroke-opacity="0.5" stroke-width="2"/>
    <path fill-rule="evenodd" clip-rule="evenodd" d="M194.652 261.794L194.735 261.815C197.086 262.23 198.718 263.675 199.836 265.382C201.591 268.061 202.153 271.424 201.908 272.813C201.742 273.759 201.176 274.539 200.408 275.042C199.608 275.565 198.589 275.791 197.543 275.607C196.389 275.403 195.436 274.742 194.877 273.854L194.777 273.701C194.482 273.222 193.815 272.713 192.887 272.55C191.967 272.387 191.172 272.632 190.729 272.976L190.581 273.082C189.75 273.734 188.622 274.034 187.461 273.829C186.415 273.645 185.535 273.084 184.962 272.318C184.412 271.583 184.148 270.657 184.315 269.71C184.559 268.322 186.237 265.355 188.78 263.429C190.395 262.207 192.393 261.395 194.665 261.796L194.652 261.794Z" stroke="white" stroke-opacity="0.5" stroke-width="2"/>
    <path d="M815.028 165.384C815.197 166.719 825.454 166.485 824.293 170.652C823.132 174.82 816.042 174.226 816.042 174.226L805.093 185.175C805.093 185.175 805.355 192.597 802.11 193.152C799.228 193.646 797.745 191.438 797.298 186.622" stroke="white" stroke-opacity="0.5" stroke-width="2" stroke-linecap="round" stroke-linejoin="round"/>
    <path d="M799.469 187.112C799.3 185.778 789.043 186.012 790.204 181.844C791.365 177.676 798.454 178.271 798.454 178.271L809.404 167.322C809.404 167.322 809.142 159.899 812.387 159.344C815.269 158.851 816.752 161.059 817.199 165.874" stroke="white" stroke-opacity="0.5" stroke-width="2" stroke-linecap="round" stroke-linejoin="round"/>
    <path fill-rule="evenodd" clip-rule="evenodd" d="M1072.63 235.496C1073.27 235.384 1073.88 235.645 1074.38 236.092C1074.99 236.637 1075.44 237.464 1075.61 238.427C1075.78 239.389 1075.64 240.319 1075.25 241.04C1074.94 241.631 1074.45 242.087 1073.81 242.198C1073.18 242.31 1072.57 242.049 1072.07 241.602C1071.46 241.057 1071.01 240.23 1070.84 239.268C1070.67 238.305 1070.81 237.375 1071.19 236.654C1071.51 236.064 1072 235.608 1072.63 235.496Z" stroke="white" stroke-opacity="0.5" stroke-width="2"/>
    <path fill-rule="evenodd" clip-rule="evenodd" d="M1080.48 241.368C1080.98 241.28 1081.47 241.452 1081.86 241.77C1082.32 242.143 1082.65 242.714 1082.77 243.383C1082.89 244.052 1082.77 244.703 1082.47 245.21C1082.21 245.643 1081.81 245.972 1081.31 246.06C1080.81 246.148 1080.32 245.976 1079.93 245.658C1079.47 245.285 1079.14 244.714 1079.02 244.045C1078.9 243.376 1079.02 242.726 1079.32 242.218C1079.58 241.786 1079.98 241.457 1080.48 241.368Z" stroke="white" stroke-opacity="0.5" stroke-width="2"/>
    <path fill-rule="evenodd" clip-rule="evenodd" d="M1063.48 237.109C1062.85 237.221 1062.36 237.677 1062.05 238.267C1061.66 238.988 1061.52 239.918 1061.69 240.881C1061.86 241.843 1062.31 242.67 1062.92 243.215C1063.42 243.662 1064.03 243.923 1064.67 243.811C1065.3 243.7 1065.79 243.244 1066.11 242.653C1066.49 241.932 1066.63 241.002 1066.46 240.04C1066.29 239.077 1065.84 238.251 1065.23 237.705C1064.73 237.258 1064.12 236.997 1063.48 237.109Z" stroke="white" stroke-opacity="0.5" stroke-width="2"/>
    <path fill-rule="evenodd" clip-rule="evenodd" d="M1058.12 245.312C1057.62 245.4 1057.22 245.729 1056.96 246.161C1056.65 246.669 1056.54 247.319 1056.65 247.988C1056.77 248.657 1057.11 249.228 1057.56 249.601C1057.96 249.919 1058.44 250.092 1058.94 250.003C1059.45 249.915 1059.85 249.586 1060.1 249.154C1060.41 248.646 1060.53 247.995 1060.41 247.327C1060.29 246.658 1059.96 246.086 1059.5 245.713C1059.11 245.396 1058.62 245.223 1058.12 245.312Z" stroke="white" stroke-opacity="0.5" stroke-width="2"/>
    <path fill-rule="evenodd" clip-rule="evenodd" d="M1069.42 248.157L1069.5 248.148C1071.85 247.734 1073.88 248.534 1075.51 249.756C1078.08 251.673 1079.76 254.641 1080 256.03C1080.17 256.976 1079.91 257.902 1079.36 258.637C1078.78 259.403 1077.9 259.964 1076.86 260.148C1075.7 260.352 1074.58 260.056 1073.75 259.413L1073.61 259.303C1073.16 258.955 1072.36 258.704 1071.44 258.868C1070.52 259.03 1069.85 259.532 1069.55 260.007L1069.45 260.157C1068.89 261.054 1067.94 261.721 1066.77 261.926C1065.73 262.11 1064.71 261.885 1063.91 261.361C1063.14 260.858 1062.58 260.078 1062.41 259.132C1062.16 257.743 1062.73 254.381 1064.46 251.702C1065.56 250.001 1067.16 248.555 1069.43 248.155L1069.42 248.157Z" stroke="white" stroke-opacity="0.5" stroke-width="2"/>
    <path fill-rule="evenodd" clip-rule="evenodd" d="M296.633 171.496C297.267 171.384 297.882 171.645 298.381 172.092C298.991 172.637 299.439 173.464 299.609 174.427C299.779 175.389 299.64 176.319 299.254 177.04C298.938 177.631 298.449 178.087 297.815 178.198C297.181 178.31 296.566 178.049 296.066 177.602C295.457 177.057 295.009 176.23 294.839 175.268C294.669 174.305 294.808 173.375 295.194 172.654C295.51 172.064 295.999 171.608 296.633 171.496Z" stroke="white" stroke-opacity="0.5" stroke-width="2"/>
    <path fill-rule="evenodd" clip-rule="evenodd" d="M304.481 177.368C304.983 177.28 305.47 177.452 305.862 177.77C306.321 178.143 306.654 178.714 306.771 179.383C306.889 180.052 306.772 180.703 306.468 181.21C306.209 181.643 305.81 181.972 305.308 182.06C304.807 182.148 304.319 181.976 303.928 181.658C303.469 181.285 303.136 180.714 303.018 180.045C302.9 179.376 303.018 178.726 303.321 178.218C303.58 177.786 303.98 177.457 304.481 177.368Z" stroke="white" stroke-opacity="0.5" stroke-width="2"/>
    <path fill-rule="evenodd" clip-rule="evenodd" d="M287.484 173.109C286.85 173.221 286.361 173.677 286.045 174.267C285.659 174.988 285.52 175.918 285.69 176.881C285.86 177.843 286.308 178.67 286.917 179.215C287.417 179.662 288.032 179.923 288.666 179.811C289.3 179.7 289.789 179.244 290.105 178.653C290.491 177.932 290.63 177.002 290.46 176.04C290.29 175.077 289.842 174.251 289.233 173.705C288.733 173.258 288.118 172.997 287.484 173.109Z" stroke="white" stroke-opacity="0.5" stroke-width="2"/>
    <path fill-rule="evenodd" clip-rule="evenodd" d="M282.118 181.312C281.616 181.4 281.217 181.729 280.958 182.161C280.654 182.669 280.537 183.319 280.655 183.988C280.773 184.657 281.105 185.228 281.565 185.601C281.956 185.919 282.443 186.092 282.945 186.003C283.446 185.915 283.846 185.586 284.105 185.154C284.409 184.646 284.526 183.995 284.408 183.327C284.29 182.658 283.957 182.086 283.498 181.713C283.107 181.396 282.619 181.223 282.118 181.312Z" stroke="white" stroke-opacity="0.5" stroke-width="2"/>
    <path fill-rule="evenodd" clip-rule="evenodd" d="M293.415 184.157L293.501 184.148C295.852 183.734 297.879 184.534 299.514 185.756C302.079 187.673 303.758 190.641 304.003 192.03C304.17 192.976 303.905 193.902 303.356 194.637C302.783 195.403 301.902 195.964 300.856 196.148C299.703 196.352 298.581 196.056 297.751 195.413L297.605 195.303C297.164 194.955 296.363 194.704 295.436 194.868C294.516 195.03 293.853 195.532 293.554 196.007L293.451 196.157C292.893 197.054 291.935 197.721 290.775 197.926C289.729 198.11 288.709 197.885 287.909 197.361C287.141 196.858 286.576 196.078 286.409 195.132C286.164 193.743 286.726 190.381 288.457 187.702C289.557 186.001 291.157 184.555 293.429 184.155L293.415 184.157Z" stroke="white" stroke-opacity="0.5" stroke-width="2"/>
    <path fill-rule="evenodd" clip-rule="evenodd" d="M363.221 86C363.864 86 364.425 86.364 364.839 86.8906C365.345 87.5336 365.642 88.4255 365.642 89.4029C365.642 90.3804 365.345 91.2723 364.839 91.9152C364.425 92.4418 363.864 92.8058 363.221 92.8058C362.577 92.8058 362.016 92.4417 361.602 91.915C361.097 91.2722 360.799 90.3804 360.799 89.4029C360.799 88.4255 361.097 87.5337 361.602 86.8908C362.016 86.3641 362.577 86 363.221 86Z" stroke="white" stroke-opacity="0.5" stroke-width="2"/>
    <path fill-rule="evenodd" clip-rule="evenodd" d="M369.93 93.146C370.44 93.146 370.89 93.4007 371.22 93.7815C371.607 94.2284 371.836 94.8488 371.836 95.528C371.836 96.2073 371.607 96.8276 371.22 97.2746C370.89 97.6554 370.44 97.91 369.93 97.91C369.421 97.91 368.971 97.6554 368.641 97.2746C368.253 96.8276 368.025 96.2073 368.025 95.528C368.025 94.8488 368.253 94.2284 368.641 93.7815C368.971 93.4007 369.421 93.146 369.93 93.146Z" stroke="white" stroke-opacity="0.5" stroke-width="2"/>
    <path fill-rule="evenodd" clip-rule="evenodd" d="M353.931 86C353.287 86 352.726 86.364 352.312 86.8906C351.807 87.5336 351.509 88.4255 351.509 89.4029C351.509 90.3804 351.806 91.2723 352.312 91.9152C352.726 92.4418 353.287 92.8058 353.931 92.8058C354.574 92.8058 355.135 92.4417 355.549 91.915C356.055 91.2722 356.352 90.3804 356.352 89.4029C356.352 88.4255 356.055 87.5337 355.549 86.8908C355.135 86.3641 354.574 86 353.931 86Z" stroke="white" stroke-opacity="0.5" stroke-width="2"/>
    <path fill-rule="evenodd" clip-rule="evenodd" d="M347.221 93.146C346.712 93.146 346.261 93.4007 345.931 93.7815C345.544 94.2284 345.315 94.8488 345.315 95.528C345.315 96.2073 345.544 96.8276 345.931 97.2746C346.261 97.6554 346.712 97.91 347.221 97.91C347.73 97.91 348.181 97.6554 348.511 97.2746C348.898 96.8276 349.127 96.2073 349.127 95.528C349.127 94.8488 348.898 94.2284 348.511 93.7815C348.181 93.4007 347.73 93.146 347.221 93.146Z" stroke="white" stroke-opacity="0.5" stroke-width="2"/>
    <path fill-rule="evenodd" clip-rule="evenodd" d="M357.853 97.9102L357.939 97.9165C360.326 97.9169 362.184 99.0565 363.581 100.543C365.775 102.878 366.913 106.092 366.913 107.502C366.913 108.463 366.492 109.329 365.822 109.957C365.125 110.612 364.161 111.011 363.099 111.011C361.928 111.011 360.874 110.526 360.169 109.748L360.044 109.615C359.67 109.195 358.925 108.809 357.983 108.809C357.049 108.809 356.308 109.188 355.932 109.604L355.804 109.734C355.099 110.52 354.04 111.011 352.861 111.011C351.799 111.011 350.835 110.612 350.138 109.957C349.469 109.329 349.048 108.463 349.048 107.502C349.048 106.092 350.184 102.878 352.355 100.541C353.733 99.056 355.56 97.9102 357.867 97.9102H357.853Z" stroke="white" stroke-opacity="0.5" stroke-width="2"/>
    <path d="M956.028 270.385C956.197 271.719 966.454 271.485 965.292 275.653C964.132 279.82 957.042 279.226 957.042 279.226L946.093 290.175C946.093 290.175 946.355 297.598 943.11 298.153C940.228 298.646 938.744 296.438 938.298 291.623" stroke="white" stroke-opacity="0.5" stroke-width="2" stroke-linecap="round" stroke-linejoin="round"/>
    <path d="M940.468 292.112C940.3 290.778 930.043 291.012 931.204 286.844C932.365 282.676 939.454 283.271 939.454 283.271L950.403 272.322C950.403 272.322 950.142 264.899 953.386 264.344C956.268 263.851 957.752 266.059 958.199 270.874" stroke="white" stroke-opacity="0.5" stroke-width="2" stroke-linecap="round" stroke-linejoin="round"/>
    <path fill-rule="evenodd" clip-rule="evenodd" d="M790.798 86C791.442 86 792.003 86.364 792.417 86.8906C792.922 87.5336 793.22 88.4255 793.22 89.4029C793.22 90.3804 792.922 91.2723 792.417 91.9152C792.003 92.4418 791.442 92.8058 790.798 92.8058C790.155 92.8058 789.594 92.4417 789.18 91.915C788.674 91.2722 788.377 90.3804 788.377 89.4029C788.377 88.4255 788.674 87.5337 789.18 86.8908C789.594 86.3641 790.155 86 790.798 86Z" stroke="white" stroke-opacity="0.5" stroke-width="2"/>
    <path fill-rule="evenodd" clip-rule="evenodd" d="M797.507 93.146C798.017 93.146 798.467 93.4007 798.797 93.7815C799.184 94.2284 799.413 94.8488 799.413 95.528C799.413 96.2073 799.184 96.8276 798.797 97.2746C798.467 97.6554 798.017 97.91 797.507 97.91C796.998 97.91 796.548 97.6554 796.218 97.2746C795.83 96.8276 795.602 96.2073 795.602 95.528C795.602 94.8488 795.83 94.2284 796.218 93.7815C796.548 93.4007 796.998 93.146 797.507 93.146Z" stroke="white" stroke-opacity="0.5" stroke-width="2"/>
    <path fill-rule="evenodd" clip-rule="evenodd" d="M781.508 86C780.865 86 780.304 86.364 779.89 86.8906C779.384 87.5336 779.087 88.4255 779.087 89.4029C779.087 90.3804 779.384 91.2723 779.89 91.9152C780.304 92.4418 780.865 92.8058 781.508 92.8058C782.152 92.8058 782.713 92.4417 783.127 91.915C783.632 91.2722 783.93 90.3804 783.93 89.4029C783.93 88.4255 783.632 87.5337 783.127 86.8908C782.713 86.3641 782.152 86 781.508 86Z" stroke="white" stroke-opacity="0.5" stroke-width="2"/>
    <path fill-rule="evenodd" clip-rule="evenodd" d="M774.799 93.146C774.29 93.146 773.84 93.4007 773.51 93.7815C773.122 94.2284 772.894 94.8488 772.894 95.528C772.894 96.2073 773.122 96.8276 773.51 97.2746C773.84 97.6554 774.29 97.91 774.799 97.91C775.308 97.91 775.759 97.6554 776.089 97.2746C776.476 96.8276 776.705 96.2073 776.705 95.528C776.705 94.8488 776.476 94.2284 776.089 93.7815C775.759 93.4007 775.308 93.146 774.799 93.146Z" stroke="white" stroke-opacity="0.5" stroke-width="2"/>
    <path fill-rule="evenodd" clip-rule="evenodd" d="M785.43 97.9102L785.517 97.9165C787.903 97.9169 789.761 99.0565 791.159 100.543C793.353 102.878 794.49 106.092 794.49 107.502C794.49 108.463 794.069 109.329 793.4 109.957C792.703 110.612 791.739 111.011 790.676 111.011C789.505 111.011 788.452 110.526 787.746 109.748L787.621 109.615C787.248 109.195 786.503 108.809 785.56 108.809C784.626 108.809 783.886 109.188 783.509 109.604L783.382 109.734C782.677 110.52 781.618 111.011 780.439 111.011C779.377 111.011 778.413 110.612 777.716 109.957C777.046 109.329 776.625 108.463 776.625 107.502C776.625 106.092 777.762 102.878 779.932 100.541C781.31 99.056 783.137 97.9102 785.444 97.9102H785.43Z" stroke="white" stroke-opacity="0.5" stroke-width="2"/>
    <path fill-rule="evenodd" clip-rule="evenodd" d="M95 56.5C95 64.508 88.508 71 80.5 71C72.4914 71 66 64.508 66 56.5C66 48.492 72.4914 42 80.5 42C88.508 42 95 48.492 95 56.5Z" stroke="#D2DEB8" stroke-width="2"/>
    <path fill-rule="evenodd" clip-rule="evenodd" d="M82.3964 65.2271C83.8921 63.3563 83.6789 62.2662 87.304 58.0116C90.2645 54.5377 93.474 55.2471 95 55.8888C94.6268 48.1554 88.2823 42 80.5088 42C72.4959 41.9994 66 48.5403 66 56.6092C66 63.8229 71.1947 69.8117 78.022 71C79.3166 69.2591 81.4035 66.469 82.3964 65.2271Z" stroke="#D2DEB8" stroke-width="2"/>
    <path fill-rule="evenodd" clip-rule="evenodd" d="M80.52 46.6306C83.8521 46.1031 85.2174 44.3812 85.7727 43.1925C84.0315 42.4262 82.1188 42 80.1095 42C74.5905 42 69.7891 45.1968 67.3181 49.9091C68.9887 49.101 71.0175 48.2106 72.7818 47.6989C75.0922 47.0295 77.7918 46.9276 80.52 46.6306Z" stroke="#D2DEB8" stroke-width="2"/>
    <path fill-rule="evenodd" clip-rule="evenodd" d="M1115 99.5C1115 107.508 1108.51 114 1100.5 114C1092.49 114 1086 107.508 1086 99.5C1086 91.492 1092.49 85 1100.5 85C1108.51 85 1115 91.492 1115 99.5Z" stroke="#D2DEB8" stroke-width="2"/>
    <path fill-rule="evenodd" clip-rule="evenodd" d="M1102.4 108.227C1103.89 106.356 1103.68 105.266 1107.3 101.012C1110.26 97.5377 1113.47 98.2471 1115 98.8888C1114.63 91.1554 1108.28 85 1100.51 85C1092.5 84.9994 1086 91.5403 1086 99.6092C1086 106.823 1091.19 112.812 1098.02 114C1099.32 112.259 1101.4 109.469 1102.4 108.227Z" stroke="#D2DEB8" stroke-width="2"/>
    <path fill-rule="evenodd" clip-rule="evenodd" d="M1100.52 89.6306C1103.85 89.1031 1105.22 87.3812 1105.77 86.1925C1104.03 85.4262 1102.12 85 1100.11 85C1094.59 85 1089.79 88.1968 1087.32 92.9091C1088.99 92.101 1091.02 91.2106 1092.78 90.6989C1095.09 90.0295 1097.79 89.9276 1100.52 89.6306Z" stroke="#D2DEB8" stroke-width="2"/>
</svg>
