<?xml version="1.0" encoding="utf-8"?>
<svg width="1357" height="1211" viewBox="0 0 1357 1211" fill="none" xmlns="http://www.w3.org/2000/svg">
    <path d="M159.461 69.6864C159.63 71.0209 169.887 70.7866 168.726 74.9543C167.565 79.122 160.476 78.5277 160.476 78.5277L149.526 89.4769C149.526 89.4769 149.788 96.8993 146.543 97.4543C143.661 97.9477 142.178 95.7396 141.731 90.9245" stroke="#F2C7BD" stroke-width="2" stroke-linecap="round" stroke-linejoin="round"/>
    <path d="M143.901 91.4145C143.733 90.0799 133.476 90.3143 134.637 86.1466C135.798 81.9788 142.887 82.5732 142.887 82.5732L153.836 71.624C153.836 71.624 153.575 64.2016 156.819 63.6466C159.701 63.1532 161.185 65.3612 161.632 70.1764" stroke="#F2C7BD" stroke-width="2" stroke-linecap="round" stroke-linejoin="round"/>
    <path d="M444.371 150.158C444.54 151.492 454.797 151.258 453.635 155.425C452.475 159.593 445.385 158.999 445.385 158.999L434.436 169.948C434.436 169.948 434.697 177.37 431.453 177.925C428.571 178.419 427.087 176.211 426.641 171.396" stroke="#F2C7BD" stroke-width="2" stroke-linecap="round" stroke-linejoin="round"/>
    <path d="M428.811 171.885C428.643 170.55 418.385 170.785 419.547 166.617C420.707 162.449 427.797 163.044 427.797 163.044L438.746 152.095C438.746 152.095 438.485 144.672 441.729 144.117C444.611 143.624 446.095 145.832 446.541 150.647" stroke="#F2C7BD" stroke-width="2" stroke-linecap="round" stroke-linejoin="round"/>
    <path fill-rule="evenodd" clip-rule="evenodd" d="M312.006 36.9966C312.64 37.1083 313.129 37.5642 313.445 38.1547C313.831 38.8757 313.97 39.8057 313.8 40.7683C313.63 41.731 313.182 42.5576 312.573 43.103C312.073 43.5497 311.458 43.8107 310.824 43.6989C310.191 43.5872 309.701 43.1313 309.385 42.5407C308.999 41.8198 308.86 40.8899 309.03 39.9272C309.2 38.9647 309.648 38.1382 310.258 37.5928C310.757 37.1461 311.372 36.8849 312.006 36.9966Z" stroke="#2873BE" stroke-opacity="0.39" stroke-width="2"/>
    <path fill-rule="evenodd" clip-rule="evenodd" d="M317.373 45.1992C317.874 45.2876 318.274 45.6166 318.532 46.049C318.836 46.5564 318.954 47.207 318.836 47.8759C318.718 48.5449 318.385 49.1161 317.926 49.489C317.535 49.8067 317.047 49.9793 316.545 49.8909C316.044 49.8024 315.645 49.4734 315.386 49.0411C315.082 48.5336 314.965 47.8831 315.082 47.2141C315.2 46.5452 315.533 45.974 315.992 45.6011C316.383 45.2834 316.871 45.1108 317.373 45.1992Z" stroke="#2873BE" stroke-opacity="0.39" stroke-width="2"/>
    <path fill-rule="evenodd" clip-rule="evenodd" d="M302.857 35.3834C302.224 35.2717 301.608 35.5328 301.109 35.9795C300.499 36.5249 300.051 37.3515 299.881 38.3141C299.712 39.2768 299.85 40.2068 300.236 40.9277C300.553 41.5183 301.042 41.9741 301.675 42.0858C302.309 42.1975 302.925 41.9364 303.424 41.4897C304.034 40.9443 304.482 40.1178 304.651 39.1551C304.821 38.1927 304.683 37.2627 304.296 36.5417C303.98 35.9511 303.491 35.4952 302.857 35.3834Z" stroke="#2873BE" stroke-opacity="0.39" stroke-width="2"/>
    <path fill-rule="evenodd" clip-rule="evenodd" d="M295.009 41.2559C294.507 41.1675 294.02 41.34 293.628 41.6578C293.169 42.0307 292.836 42.6019 292.719 43.2708C292.601 43.9397 292.718 44.5903 293.022 45.0978C293.281 45.5301 293.68 45.8591 294.182 45.9475C294.683 46.036 295.171 45.8634 295.562 45.5457C296.021 45.1728 296.354 44.6016 296.472 43.9326C296.59 43.2637 296.472 42.6131 296.169 42.1056C295.91 41.6733 295.51 41.3443 295.009 41.2559Z" stroke="#2873BE" stroke-opacity="0.39" stroke-width="2"/>
    <path fill-rule="evenodd" clip-rule="evenodd" d="M304.652 47.7936L304.735 47.8149C307.086 48.2297 308.718 49.6746 309.836 51.3816C311.591 54.0613 312.153 57.4242 311.908 58.8127C311.742 59.7591 311.176 60.539 310.408 61.0417C309.608 61.5654 308.589 61.7911 307.543 61.6067C306.389 61.4033 305.436 60.7423 304.877 59.8535L304.777 59.7007C304.482 59.2225 303.815 58.7133 302.887 58.5497C301.967 58.3874 301.172 58.6322 300.729 58.976L300.581 59.0818C299.75 59.7339 298.622 60.0336 297.461 59.829C296.415 59.6445 295.535 59.0839 294.962 58.3181C294.412 57.583 294.148 56.6568 294.315 55.7104C294.559 54.322 296.237 51.3548 298.78 49.4295C300.395 48.2067 302.393 47.3954 304.665 47.7961L304.652 47.7936Z" stroke="#2873BE" stroke-opacity="0.39" stroke-width="2"/>
    <path d="M858.686 150.158C858.855 151.492 869.112 151.258 867.951 155.425C866.79 159.593 859.701 158.999 859.701 158.999L848.752 169.948C848.752 169.948 849.013 177.37 845.768 177.925C842.887 178.419 841.403 176.211 840.956 171.396" stroke="#F2C7BD" stroke-width="2" stroke-linecap="round" stroke-linejoin="round"/>
    <path d="M843.127 171.885C842.958 170.55 832.701 170.785 833.863 166.617C835.023 162.449 842.113 163.044 842.113 163.044L853.062 152.095C853.062 152.095 852.8 144.672 856.045 144.117C858.927 143.624 860.41 145.832 860.857 150.647" stroke="#F2C7BD" stroke-width="2" stroke-linecap="round" stroke-linejoin="round"/>
    <path fill-rule="evenodd" clip-rule="evenodd" d="M1182.63 21.496C1183.27 21.3842 1183.88 21.6453 1184.38 22.092C1184.99 22.6374 1185.44 23.4641 1185.61 24.4266C1185.78 25.3893 1185.64 26.3193 1185.25 27.0403C1184.94 27.6308 1184.45 28.0866 1183.81 28.1983C1183.18 28.3101 1182.57 28.049 1182.07 27.6022C1181.46 27.0569 1181.01 26.2303 1180.84 25.2677C1180.67 24.3052 1180.81 23.3752 1181.19 22.6543C1181.51 22.0637 1182 21.6077 1182.63 21.496Z" stroke="#2873BE" stroke-opacity="0.39" stroke-width="2"/>
    <path fill-rule="evenodd" clip-rule="evenodd" d="M1190.48 27.3684C1190.98 27.28 1191.47 27.4526 1191.86 27.7703C1192.32 28.1432 1192.65 28.7144 1192.77 29.3834C1192.89 30.0523 1192.77 30.7029 1192.47 31.2103C1192.21 31.6427 1191.81 31.9717 1191.31 32.0601C1190.81 32.1485 1190.32 31.9759 1189.93 31.6582C1189.47 31.2853 1189.14 30.7141 1189.02 30.0452C1188.9 29.3762 1189.02 28.7256 1189.32 28.2182C1189.58 27.7859 1189.98 27.4569 1190.48 27.3684Z" stroke="#2873BE" stroke-opacity="0.39" stroke-width="2"/>
    <path fill-rule="evenodd" clip-rule="evenodd" d="M1173.48 23.1091C1172.85 23.2209 1172.36 23.6767 1172.05 24.2673C1171.66 24.9882 1171.52 25.9183 1171.69 26.8808C1171.86 27.8435 1172.31 28.6702 1172.92 29.2155C1173.42 29.6622 1174.03 29.9232 1174.67 29.8115C1175.3 29.6998 1175.79 29.2439 1176.11 28.6533C1176.49 27.9324 1176.63 27.0024 1176.46 26.0398C1176.29 25.0773 1175.84 24.2507 1175.23 23.7054C1174.73 23.2586 1174.12 22.9974 1173.48 23.1091Z" stroke="#2873BE" stroke-opacity="0.39" stroke-width="2"/>
    <path fill-rule="evenodd" clip-rule="evenodd" d="M1168.12 31.3116C1167.62 31.4 1167.22 31.7291 1166.96 32.1614C1166.65 32.6688 1166.54 33.3194 1166.65 33.9884C1166.77 34.6573 1167.11 35.2285 1167.56 35.6014C1167.96 35.9191 1168.44 36.0917 1168.94 36.0033C1169.45 35.9149 1169.85 35.5858 1170.1 35.1535C1170.41 34.6461 1170.53 33.9955 1170.41 33.3265C1170.29 32.6576 1169.96 32.0864 1169.5 31.7135C1169.11 31.3958 1168.62 31.2232 1168.12 31.3116Z" stroke="#2873BE" stroke-opacity="0.39" stroke-width="2"/>
    <path fill-rule="evenodd" clip-rule="evenodd" d="M1179.42 34.1573L1179.5 34.1486C1181.85 33.7344 1183.88 34.5341 1185.51 35.7558C1188.08 37.6735 1189.76 40.6414 1190 42.0298C1190.17 42.9762 1189.91 43.9024 1189.36 44.6375C1188.78 45.4033 1187.9 45.9639 1186.86 46.1484C1185.7 46.3518 1184.58 46.0565 1183.75 45.4128L1183.61 45.3035C1183.16 44.9549 1182.36 44.7046 1181.44 44.8681C1180.52 45.0304 1179.85 45.5322 1179.55 46.0068L1179.45 46.1568C1178.89 47.0539 1177.94 47.7214 1176.77 47.9261C1175.73 48.1105 1174.71 47.8848 1173.91 47.3611C1173.14 46.8584 1172.58 46.0785 1172.41 45.1321C1172.16 43.7436 1172.73 40.3817 1174.46 37.7026C1175.56 36.0012 1177.16 34.5555 1179.43 34.1548L1179.42 34.1573Z" stroke="#2873BE" stroke-opacity="0.39" stroke-width="2"/>
    <path d="M1066.03 56.3845C1066.2 57.7191 1076.45 57.4847 1075.29 61.6524C1074.13 65.8201 1067.04 65.2258 1067.04 65.2258L1056.09 76.175C1056.09 76.175 1056.35 83.5974 1053.11 84.1524C1050.23 84.6458 1048.74 82.4377 1048.3 77.6226" stroke="#F2C7BD" stroke-width="2" stroke-linecap="round" stroke-linejoin="round"/>
    <path d="M1050.47 78.1122C1050.3 76.7777 1040.04 77.012 1041.2 72.8443C1042.36 68.6766 1049.45 69.2709 1049.45 69.2709L1060.4 58.3217C1060.4 58.3217 1060.14 50.8993 1063.39 50.3443C1066.27 49.8509 1067.75 52.059 1068.2 56.8741" stroke="#F2C7BD" stroke-width="2" stroke-linecap="round" stroke-linejoin="round"/>
    <path d="M1286.26 150.158C1286.43 151.492 1296.69 151.258 1295.53 155.425C1294.37 159.593 1287.28 158.999 1287.28 158.999L1276.33 169.948C1276.33 169.948 1276.59 177.37 1273.35 177.925C1270.46 178.419 1268.98 176.211 1268.53 171.396" stroke="#F2C7BD" stroke-width="2" stroke-linecap="round" stroke-linejoin="round"/>
    <path d="M1270.7 171.885C1270.54 170.55 1260.28 170.785 1261.44 166.617C1262.6 162.449 1269.69 163.044 1269.69 163.044L1280.64 152.095C1280.64 152.095 1280.38 144.672 1283.62 144.117C1286.5 143.624 1287.99 145.832 1288.43 150.647" stroke="#F2C7BD" stroke-width="2" stroke-linecap="round" stroke-linejoin="round"/>
    <path d="M159.461 701.686C159.63 703.021 169.887 702.787 168.726 706.954C167.565 711.122 160.476 710.528 160.476 710.528L149.526 721.477C149.526 721.477 149.788 728.899 146.543 729.454C143.661 729.948 142.178 727.74 141.731 722.924" stroke="#F2C7BD" stroke-width="2" stroke-linecap="round" stroke-linejoin="round"/>
    <path d="M143.901 723.414C143.733 722.08 133.476 722.314 134.637 718.147C135.798 713.979 142.887 714.573 142.887 714.573L153.836 703.624C153.836 703.624 153.575 696.202 156.819 695.647C159.701 695.153 161.185 697.361 161.632 702.176" stroke="#F2C7BD" stroke-width="2" stroke-linecap="round" stroke-linejoin="round"/>
    <path d="M444.371 782.158C444.54 783.492 454.797 783.258 453.635 787.425C452.475 791.593 445.385 790.999 445.385 790.999L434.436 801.948C434.436 801.948 434.697 809.37 431.453 809.925C428.571 810.419 427.087 808.211 426.641 803.396" stroke="#F2C7BD" stroke-width="2" stroke-linecap="round" stroke-linejoin="round"/>
    <path d="M428.811 803.885C428.643 802.55 418.385 802.785 419.547 798.617C420.707 794.449 427.797 795.044 427.797 795.044L438.746 784.095C438.746 784.095 438.485 776.672 441.729 776.117C444.611 775.624 446.095 777.832 446.541 782.647" stroke="#F2C7BD" stroke-width="2" stroke-linecap="round" stroke-linejoin="round"/>
    <path fill-rule="evenodd" clip-rule="evenodd" d="M312.006 668.997C312.64 669.108 313.129 669.564 313.445 670.155C313.831 670.876 313.97 671.806 313.8 672.768C313.63 673.731 313.182 674.558 312.573 675.103C312.073 675.55 311.458 675.811 310.824 675.699C310.191 675.587 309.701 675.131 309.385 674.541C308.999 673.82 308.86 672.89 309.03 671.927C309.2 670.965 309.648 670.138 310.258 669.593C310.757 669.146 311.372 668.885 312.006 668.997Z" stroke="#2873BE" stroke-opacity="0.39" stroke-width="2"/>
    <path fill-rule="evenodd" clip-rule="evenodd" d="M317.373 677.199C317.874 677.288 318.274 677.617 318.532 678.049C318.836 678.556 318.954 679.207 318.836 679.876C318.718 680.545 318.385 681.116 317.926 681.489C317.535 681.807 317.047 681.979 316.545 681.891C316.044 681.802 315.645 681.473 315.386 681.041C315.082 680.534 314.965 679.883 315.082 679.214C315.2 678.545 315.533 677.974 315.992 677.601C316.383 677.283 316.871 677.111 317.373 677.199Z" stroke="#2873BE" stroke-opacity="0.39" stroke-width="2"/>
    <path fill-rule="evenodd" clip-rule="evenodd" d="M302.857 667.383C302.224 667.272 301.608 667.533 301.109 667.979C300.499 668.525 300.051 669.352 299.881 670.314C299.712 671.277 299.85 672.207 300.236 672.928C300.553 673.518 301.042 673.974 301.675 674.086C302.309 674.198 302.925 673.936 303.424 673.49C304.034 672.944 304.482 672.118 304.651 671.155C304.821 670.193 304.683 669.263 304.296 668.542C303.98 667.951 303.491 667.495 302.857 667.383Z" stroke="#2873BE" stroke-opacity="0.39" stroke-width="2"/>
    <path fill-rule="evenodd" clip-rule="evenodd" d="M295.009 673.256C294.507 673.167 294.02 673.34 293.628 673.658C293.169 674.031 292.836 674.602 292.719 675.271C292.601 675.94 292.718 676.59 293.022 677.098C293.281 677.53 293.68 677.859 294.182 677.948C294.683 678.036 295.171 677.863 295.562 677.546C296.021 677.173 296.354 676.602 296.472 675.933C296.59 675.264 296.472 674.613 296.169 674.106C295.91 673.673 295.51 673.344 295.009 673.256Z" stroke="#2873BE" stroke-opacity="0.39" stroke-width="2"/>
    <path fill-rule="evenodd" clip-rule="evenodd" d="M304.652 679.794L304.735 679.815C307.086 680.23 308.718 681.675 309.836 683.382C311.591 686.061 312.153 689.424 311.908 690.813C311.742 691.759 311.176 692.539 310.408 693.042C309.608 693.565 308.589 693.791 307.543 693.607C306.389 693.403 305.436 692.742 304.877 691.854L304.777 691.701C304.482 691.222 303.815 690.713 302.887 690.55C301.967 690.387 301.172 690.632 300.729 690.976L300.581 691.082C299.75 691.734 298.622 692.034 297.461 691.829C296.415 691.645 295.535 691.084 294.962 690.318C294.412 689.583 294.148 688.657 294.315 687.71C294.559 686.322 296.237 683.355 298.78 681.429C300.395 680.207 302.393 679.395 304.665 679.796L304.652 679.794Z" stroke="#2873BE" stroke-opacity="0.39" stroke-width="2"/>
    <path fill-rule="evenodd" clip-rule="evenodd" d="M58.9049 504C59.5484 504 60.1091 504.364 60.5233 504.891C61.0289 505.534 61.3266 506.425 61.3266 507.403C61.3266 508.38 61.029 509.272 60.5234 509.915C60.1092 510.442 59.5484 510.806 58.9049 510.806C58.2614 510.806 57.7006 510.442 57.2864 509.915C56.7808 509.272 56.4832 508.38 56.4832 507.403C56.4832 506.426 56.7809 505.534 57.2865 504.891C57.7007 504.364 58.2615 504 58.9049 504Z" stroke="#2873BE" stroke-opacity="0.39" stroke-width="2"/>
    <path fill-rule="evenodd" clip-rule="evenodd" d="M65.6144 511.146C66.1236 511.146 66.574 511.401 66.904 511.781C67.2914 512.228 67.52 512.849 67.52 513.528C67.52 514.207 67.2914 514.828 66.904 515.275C66.574 515.655 66.1236 515.91 65.6144 515.91C65.1051 515.91 64.6547 515.655 64.3247 515.275C63.9373 514.828 63.7087 514.207 63.7087 513.528C63.7087 512.849 63.9373 512.228 64.3247 511.781C64.6547 511.401 65.1051 511.146 65.6144 511.146Z" stroke="#2873BE" stroke-opacity="0.39" stroke-width="2"/>
    <path fill-rule="evenodd" clip-rule="evenodd" d="M49.6151 504C48.9716 504 48.4109 504.364 47.9967 504.891C47.4911 505.534 47.1934 506.425 47.1934 507.403C47.1934 508.38 47.491 509.272 47.9966 509.915C48.4108 510.442 48.9716 510.806 49.6151 510.806C50.2586 510.806 50.8194 510.442 51.2336 509.915C51.7392 509.272 52.0369 508.38 52.0369 507.403C52.0369 506.426 51.7391 505.534 51.2335 504.891C50.8193 504.364 50.2585 504 49.6151 504Z" stroke="#2873BE" stroke-opacity="0.39" stroke-width="2"/>
    <path fill-rule="evenodd" clip-rule="evenodd" d="M42.9057 511.146C42.3964 511.146 41.946 511.401 41.616 511.781C41.2286 512.228 41.0001 512.849 41.0001 513.528C41.0001 514.207 41.2286 514.828 41.616 515.275C41.946 515.655 42.3964 515.91 42.9057 515.91C43.4149 515.91 43.8653 515.655 44.1953 515.275C44.5827 514.828 44.8113 514.207 44.8113 513.528C44.8113 512.849 44.5827 512.228 44.1953 511.781C43.8653 511.401 43.4149 511.146 42.9057 511.146Z" stroke="#2873BE" stroke-opacity="0.39" stroke-width="2"/>
    <path fill-rule="evenodd" clip-rule="evenodd" d="M53.5373 515.91L53.6235 515.916C56.0104 515.917 57.8682 517.056 59.2657 518.543C61.4596 520.878 62.5973 524.092 62.5973 525.502C62.5973 526.463 62.1762 527.329 61.507 527.957C60.81 528.612 59.8456 529.011 58.7834 529.011C57.6121 529.011 56.5588 528.526 55.8534 527.748L55.7283 527.615C55.3547 527.195 54.6094 526.809 53.6674 526.809C52.7331 526.809 51.9929 527.188 51.6161 527.604L51.489 527.734C50.7836 528.52 49.7246 529.011 48.5461 529.011C47.4839 529.011 46.5195 528.612 45.8225 527.957C45.1533 527.329 44.7322 526.463 44.7322 525.502C44.7322 524.092 45.8688 520.878 48.0391 518.541C49.4174 517.056 51.2441 515.91 53.5514 515.91H53.5373Z" stroke="#2873BE" stroke-opacity="0.39" stroke-width="2"/>
    <path d="M925.028 583.384C925.197 584.719 935.454 584.484 934.293 588.652C933.132 592.82 926.043 592.226 926.043 592.226L915.093 603.175C915.093 603.175 915.355 610.597 912.11 611.152C909.228 611.646 907.745 609.438 907.298 604.622" stroke="#F2C7BD" stroke-width="2" stroke-linecap="round" stroke-linejoin="round"/>
    <path d="M909.469 605.112C909.3 603.778 899.043 604.012 900.204 599.844C901.365 595.676 908.455 596.271 908.455 596.271L919.404 585.322C919.404 585.322 919.142 577.899 922.387 577.344C925.269 576.851 926.752 579.059 927.199 583.874" stroke="#F2C7BD" stroke-width="2" stroke-linecap="round" stroke-linejoin="round"/>
    <path d="M858.686 782.158C858.855 783.492 869.112 783.258 867.951 787.425C866.79 791.593 859.701 790.999 859.701 790.999L848.752 801.948C848.752 801.948 849.013 809.37 845.768 809.925C842.887 810.419 841.403 808.211 840.956 803.396" stroke="#F2C7BD" stroke-width="2" stroke-linecap="round" stroke-linejoin="round"/>
    <path d="M843.127 803.885C842.958 802.55 832.701 802.785 833.863 798.617C835.023 794.449 842.113 795.044 842.113 795.044L853.062 784.095C853.062 784.095 852.8 776.672 856.045 776.117C858.927 775.624 860.41 777.832 860.857 782.647" stroke="#F2C7BD" stroke-width="2" stroke-linecap="round" stroke-linejoin="round"/>
    <path fill-rule="evenodd" clip-rule="evenodd" d="M1182.63 653.496C1183.27 653.384 1183.88 653.645 1184.38 654.092C1184.99 654.637 1185.44 655.464 1185.61 656.427C1185.78 657.389 1185.64 658.319 1185.25 659.04C1184.94 659.631 1184.45 660.087 1183.81 660.198C1183.18 660.31 1182.57 660.049 1182.07 659.602C1181.46 659.057 1181.01 658.23 1180.84 657.268C1180.67 656.305 1180.81 655.375 1181.19 654.654C1181.51 654.064 1182 653.608 1182.63 653.496Z" stroke="#2873BE" stroke-opacity="0.39" stroke-width="2"/>
    <path fill-rule="evenodd" clip-rule="evenodd" d="M1190.48 659.368C1190.98 659.28 1191.47 659.453 1191.86 659.77C1192.32 660.143 1192.65 660.714 1192.77 661.383C1192.89 662.052 1192.77 662.703 1192.47 663.21C1192.21 663.643 1191.81 663.972 1191.31 664.06C1190.81 664.149 1190.32 663.976 1189.93 663.658C1189.47 663.285 1189.14 662.714 1189.02 662.045C1188.9 661.376 1189.02 660.726 1189.32 660.218C1189.58 659.786 1189.98 659.457 1190.48 659.368Z" stroke="#2873BE" stroke-opacity="0.39" stroke-width="2"/>
    <path fill-rule="evenodd" clip-rule="evenodd" d="M1173.48 655.109C1172.85 655.221 1172.36 655.677 1172.05 656.267C1171.66 656.988 1171.52 657.918 1171.69 658.881C1171.86 659.844 1172.31 660.67 1172.92 661.216C1173.42 661.662 1174.03 661.923 1174.67 661.811C1175.3 661.7 1175.79 661.244 1176.11 660.653C1176.49 659.932 1176.63 659.002 1176.46 658.04C1176.29 657.077 1175.84 656.251 1175.23 655.705C1174.73 655.259 1174.12 654.997 1173.48 655.109Z" stroke="#2873BE" stroke-opacity="0.39" stroke-width="2"/>
    <path fill-rule="evenodd" clip-rule="evenodd" d="M1168.12 663.312C1167.62 663.4 1167.22 663.729 1166.96 664.161C1166.65 664.669 1166.54 665.319 1166.65 665.988C1166.77 666.657 1167.11 667.228 1167.56 667.601C1167.96 667.919 1168.44 668.092 1168.94 668.003C1169.45 667.915 1169.85 667.586 1170.1 667.154C1170.41 666.646 1170.53 665.995 1170.41 665.327C1170.29 664.658 1169.96 664.086 1169.5 663.713C1169.11 663.396 1168.62 663.223 1168.12 663.312Z" stroke="#2873BE" stroke-opacity="0.39" stroke-width="2"/>
    <path fill-rule="evenodd" clip-rule="evenodd" d="M1179.42 666.157L1179.5 666.149C1181.85 665.734 1183.88 666.534 1185.51 667.756C1188.08 669.674 1189.76 672.641 1190 674.03C1190.17 674.976 1189.91 675.902 1189.36 676.638C1188.78 677.403 1187.9 677.964 1186.86 678.148C1185.7 678.352 1184.58 678.057 1183.75 677.413L1183.61 677.303C1183.16 676.955 1182.36 676.705 1181.44 676.868C1180.52 677.03 1179.85 677.532 1179.55 678.007L1179.45 678.157C1178.89 679.054 1177.94 679.721 1176.77 679.926C1175.73 680.111 1174.71 679.885 1173.91 679.361C1173.14 678.858 1172.58 678.078 1172.41 677.132C1172.16 675.744 1172.73 672.382 1174.46 669.703C1175.56 668.001 1177.16 666.555 1179.43 666.155L1179.42 666.157Z" stroke="#2873BE" stroke-opacity="0.39" stroke-width="2"/>
    <path fill-rule="evenodd" clip-rule="evenodd" d="M406.633 589.496C407.267 589.384 407.882 589.645 408.381 590.092C408.991 590.637 409.439 591.464 409.609 592.427C409.779 593.389 409.64 594.319 409.254 595.04C408.938 595.631 408.449 596.087 407.815 596.198C407.181 596.31 406.566 596.049 406.066 595.602C405.457 595.057 405.009 594.23 404.839 593.268C404.669 592.305 404.808 591.375 405.194 590.654C405.51 590.064 405.999 589.608 406.633 589.496Z" stroke="#2873BE" stroke-opacity="0.39" stroke-width="2"/>
    <path fill-rule="evenodd" clip-rule="evenodd" d="M414.481 595.368C414.983 595.28 415.47 595.453 415.862 595.77C416.321 596.143 416.654 596.714 416.771 597.383C416.889 598.052 416.772 598.703 416.468 599.21C416.209 599.643 415.81 599.972 415.308 600.06C414.807 600.149 414.319 599.976 413.928 599.658C413.469 599.285 413.136 598.714 413.018 598.045C412.9 597.376 413.018 596.726 413.321 596.218C413.58 595.786 413.98 595.457 414.481 595.368Z" stroke="#2873BE" stroke-opacity="0.39" stroke-width="2"/>
    <path fill-rule="evenodd" clip-rule="evenodd" d="M397.484 591.109C396.85 591.221 396.361 591.677 396.045 592.267C395.659 592.988 395.52 593.918 395.69 594.881C395.86 595.844 396.308 596.67 396.917 597.216C397.417 597.662 398.032 597.923 398.666 597.811C399.3 597.7 399.789 597.244 400.105 596.653C400.491 595.932 400.63 595.002 400.46 594.04C400.29 593.077 399.842 592.251 399.233 591.705C398.733 591.259 398.118 590.997 397.484 591.109Z" stroke="#2873BE" stroke-opacity="0.39" stroke-width="2"/>
    <path fill-rule="evenodd" clip-rule="evenodd" d="M392.118 599.312C391.616 599.4 391.217 599.729 390.958 600.161C390.654 600.669 390.537 601.319 390.655 601.988C390.773 602.657 391.105 603.228 391.565 603.601C391.956 603.919 392.443 604.092 392.945 604.003C393.446 603.915 393.846 603.586 394.105 603.154C394.409 602.646 394.526 601.995 394.408 601.327C394.29 600.658 393.957 600.086 393.498 599.713C393.107 599.396 392.619 599.223 392.118 599.312Z" stroke="#2873BE" stroke-opacity="0.39" stroke-width="2"/>
    <path fill-rule="evenodd" clip-rule="evenodd" d="M403.415 602.157L403.501 602.149C405.852 601.734 407.879 602.534 409.514 603.756C412.079 605.674 413.758 608.641 414.003 610.03C414.17 610.976 413.905 611.902 413.356 612.638C412.783 613.403 411.902 613.964 410.856 614.148C409.703 614.352 408.581 614.057 407.751 613.413L407.605 613.303C407.164 612.955 406.363 612.705 405.436 612.868C404.516 613.03 403.853 613.532 403.554 614.007L403.451 614.157C402.893 615.054 401.935 615.721 400.775 615.926C399.729 616.111 398.709 615.885 397.909 615.361C397.141 614.858 396.576 614.078 396.409 613.132C396.164 611.744 396.726 608.382 398.457 605.703C399.557 604.001 401.157 602.555 403.429 602.155L403.415 602.157Z" stroke="#2873BE" stroke-opacity="0.39" stroke-width="2"/>
    <path fill-rule="evenodd" clip-rule="evenodd" d="M473.221 504C473.864 504 474.425 504.364 474.839 504.891C475.345 505.534 475.642 506.425 475.642 507.403C475.642 508.38 475.345 509.272 474.839 509.915C474.425 510.442 473.864 510.806 473.221 510.806C472.577 510.806 472.016 510.442 471.602 509.915C471.097 509.272 470.799 508.38 470.799 507.403C470.799 506.426 471.097 505.534 471.602 504.891C472.016 504.364 472.577 504 473.221 504Z" stroke="#2873BE" stroke-opacity="0.39" stroke-width="2"/>
    <path fill-rule="evenodd" clip-rule="evenodd" d="M479.93 511.146C480.44 511.146 480.89 511.401 481.22 511.781C481.607 512.228 481.836 512.849 481.836 513.528C481.836 514.207 481.607 514.828 481.22 515.275C480.89 515.655 480.44 515.91 479.93 515.91C479.421 515.91 478.971 515.655 478.641 515.275C478.253 514.828 478.025 514.207 478.025 513.528C478.025 512.849 478.253 512.228 478.641 511.781C478.971 511.401 479.421 511.146 479.93 511.146Z" stroke="#2873BE" stroke-opacity="0.39" stroke-width="2"/>
    <path fill-rule="evenodd" clip-rule="evenodd" d="M463.931 504C463.287 504 462.726 504.364 462.312 504.891C461.807 505.534 461.509 506.425 461.509 507.403C461.509 508.38 461.806 509.272 462.312 509.915C462.726 510.442 463.287 510.806 463.931 510.806C464.574 510.806 465.135 510.442 465.549 509.915C466.055 509.272 466.352 508.38 466.352 507.403C466.352 506.426 466.055 505.534 465.549 504.891C465.135 504.364 464.574 504 463.931 504Z" stroke="#2873BE" stroke-opacity="0.39" stroke-width="2"/>
    <path fill-rule="evenodd" clip-rule="evenodd" d="M457.221 511.146C456.712 511.146 456.261 511.401 455.931 511.781C455.544 512.228 455.315 512.849 455.315 513.528C455.315 514.207 455.544 514.828 455.931 515.275C456.261 515.655 456.712 515.91 457.221 515.91C457.73 515.91 458.181 515.655 458.511 515.275C458.898 514.828 459.127 514.207 459.127 513.528C459.127 512.849 458.898 512.228 458.511 511.781C458.181 511.401 457.73 511.146 457.221 511.146Z" stroke="#2873BE" stroke-opacity="0.39" stroke-width="2"/>
    <path fill-rule="evenodd" clip-rule="evenodd" d="M467.853 515.91L467.939 515.916C470.326 515.917 472.184 517.056 473.581 518.543C475.775 520.878 476.913 524.092 476.913 525.502C476.913 526.463 476.492 527.329 475.822 527.957C475.125 528.612 474.161 529.011 473.099 529.011C471.928 529.011 470.874 528.526 470.169 527.748L470.044 527.615C469.67 527.195 468.925 526.809 467.983 526.809C467.049 526.809 466.308 527.188 465.932 527.604L465.804 527.734C465.099 528.52 464.04 529.011 462.861 529.011C461.799 529.011 460.835 528.612 460.138 527.957C459.469 527.329 459.048 526.463 459.048 525.502C459.048 524.092 460.184 520.878 462.355 518.541C463.733 517.056 465.56 515.91 467.867 515.91H467.853Z" stroke="#2873BE" stroke-opacity="0.39" stroke-width="2"/>
    <path d="M1066.03 688.384C1066.2 689.719 1076.45 689.485 1075.29 693.652C1074.13 697.82 1067.04 697.226 1067.04 697.226L1056.09 708.175C1056.09 708.175 1056.35 715.597 1053.11 716.152C1050.23 716.646 1048.74 714.438 1048.3 709.623" stroke="#F2C7BD" stroke-width="2" stroke-linecap="round" stroke-linejoin="round"/>
    <path d="M1050.47 710.112C1050.3 708.778 1040.04 709.012 1041.2 704.844C1042.36 700.677 1049.45 701.271 1049.45 701.271L1060.4 690.322C1060.4 690.322 1060.14 682.899 1063.39 682.344C1066.27 681.851 1067.75 684.059 1068.2 688.874" stroke="#F2C7BD" stroke-width="2" stroke-linecap="round" stroke-linejoin="round"/>
    <path d="M1286.26 782.158C1286.43 783.492 1296.69 783.258 1295.53 787.425C1294.37 791.593 1287.28 790.999 1287.28 790.999L1276.33 801.948C1276.33 801.948 1276.59 809.37 1273.35 809.925C1270.46 810.419 1268.98 808.211 1268.53 803.396" stroke="#F2C7BD" stroke-width="2" stroke-linecap="round" stroke-linejoin="round"/>
    <path d="M1270.7 803.885C1270.54 802.55 1260.28 802.785 1261.44 798.617C1262.6 794.449 1269.69 795.044 1269.69 795.044L1280.64 784.095C1280.64 784.095 1280.38 776.672 1283.62 776.117C1286.5 775.624 1287.99 777.832 1288.43 782.647" stroke="#F2C7BD" stroke-width="2" stroke-linecap="round" stroke-linejoin="round"/>
    <path fill-rule="evenodd" clip-rule="evenodd" d="M900.798 504C901.442 504 902.003 504.364 902.417 504.891C902.922 505.534 903.22 506.425 903.22 507.403C903.22 508.38 902.922 509.272 902.417 509.915C902.003 510.442 901.442 510.806 900.798 510.806C900.155 510.806 899.594 510.442 899.18 509.915C898.674 509.272 898.377 508.38 898.377 507.403C898.377 506.426 898.674 505.534 899.18 504.891C899.594 504.364 900.155 504 900.798 504Z" stroke="#2873BE" stroke-opacity="0.39" stroke-width="2"/>
    <path fill-rule="evenodd" clip-rule="evenodd" d="M907.507 511.146C908.017 511.146 908.467 511.401 908.797 511.781C909.184 512.228 909.413 512.849 909.413 513.528C909.413 514.207 909.184 514.828 908.797 515.275C908.467 515.655 908.017 515.91 907.507 515.91C906.998 515.91 906.548 515.655 906.218 515.275C905.83 514.828 905.602 514.207 905.602 513.528C905.602 512.849 905.83 512.228 906.218 511.781C906.548 511.401 906.998 511.146 907.507 511.146Z" stroke="#2873BE" stroke-opacity="0.39" stroke-width="2"/>
    <path fill-rule="evenodd" clip-rule="evenodd" d="M891.508 504C890.865 504 890.304 504.364 889.89 504.891C889.384 505.534 889.087 506.425 889.087 507.403C889.087 508.38 889.384 509.272 889.89 509.915C890.304 510.442 890.865 510.806 891.508 510.806C892.152 510.806 892.713 510.442 893.127 509.915C893.632 509.272 893.93 508.38 893.93 507.403C893.93 506.426 893.632 505.534 893.127 504.891C892.713 504.364 892.152 504 891.508 504Z" stroke="#2873BE" stroke-opacity="0.39" stroke-width="2"/>
    <path fill-rule="evenodd" clip-rule="evenodd" d="M884.799 511.146C884.29 511.146 883.84 511.401 883.51 511.781C883.122 512.228 882.894 512.849 882.894 513.528C882.894 514.207 883.122 514.828 883.51 515.275C883.84 515.655 884.29 515.91 884.799 515.91C885.308 515.91 885.759 515.655 886.089 515.275C886.476 514.828 886.705 514.207 886.705 513.528C886.705 512.849 886.476 512.228 886.089 511.781C885.759 511.401 885.308 511.146 884.799 511.146Z" stroke="#2873BE" stroke-opacity="0.39" stroke-width="2"/>
    <path fill-rule="evenodd" clip-rule="evenodd" d="M895.43 515.91L895.517 515.916C897.903 515.917 899.761 517.056 901.159 518.543C903.353 520.878 904.49 524.092 904.49 525.502C904.49 526.463 904.069 527.329 903.4 527.957C902.703 528.612 901.739 529.011 900.676 529.011C899.505 529.011 898.452 528.526 897.746 527.748L897.621 527.615C897.248 527.195 896.503 526.809 895.56 526.809C894.626 526.809 893.886 527.188 893.509 527.604L893.382 527.734C892.677 528.52 891.618 529.011 890.439 529.011C889.377 529.011 888.413 528.612 887.716 527.957C887.046 527.329 886.625 526.463 886.625 525.502C886.625 524.092 887.762 520.878 889.932 518.541C891.31 517.056 893.137 515.91 895.444 515.91H895.43Z" stroke="#2873BE" stroke-opacity="0.39" stroke-width="2"/>
    <path fill-rule="evenodd" clip-rule="evenodd" d="M58.9049 1127C59.5484 1127 60.1091 1127.36 60.5233 1127.89C61.0289 1128.53 61.3266 1129.43 61.3266 1130.4C61.3266 1131.38 61.029 1132.27 60.5234 1132.92C60.1092 1133.44 59.5484 1133.81 58.9049 1133.81C58.2614 1133.81 57.7006 1133.44 57.2864 1132.92C56.7808 1132.27 56.4832 1131.38 56.4832 1130.4C56.4832 1129.43 56.7809 1128.53 57.2865 1127.89C57.7007 1127.36 58.2615 1127 58.9049 1127Z" stroke="#2873BE" stroke-opacity="0.39" stroke-width="2"/>
    <path fill-rule="evenodd" clip-rule="evenodd" d="M65.6144 1134.15C66.1236 1134.15 66.574 1134.4 66.904 1134.78C67.2914 1135.23 67.52 1135.85 67.52 1136.53C67.52 1137.21 67.2914 1137.83 66.904 1138.27C66.574 1138.66 66.1236 1138.91 65.6144 1138.91C65.1051 1138.91 64.6547 1138.66 64.3247 1138.27C63.9373 1137.83 63.7087 1137.21 63.7087 1136.53C63.7087 1135.85 63.9373 1135.23 64.3247 1134.78C64.6547 1134.4 65.1051 1134.15 65.6144 1134.15Z" stroke="#2873BE" stroke-opacity="0.39" stroke-width="2"/>
    <path fill-rule="evenodd" clip-rule="evenodd" d="M49.6151 1127C48.9716 1127 48.4109 1127.36 47.9967 1127.89C47.4911 1128.53 47.1934 1129.43 47.1934 1130.4C47.1934 1131.38 47.491 1132.27 47.9966 1132.92C48.4108 1133.44 48.9716 1133.81 49.6151 1133.81C50.2586 1133.81 50.8194 1133.44 51.2336 1132.92C51.7392 1132.27 52.0369 1131.38 52.0369 1130.4C52.0369 1129.43 51.7391 1128.53 51.2335 1127.89C50.8193 1127.36 50.2585 1127 49.6151 1127Z" stroke="#2873BE" stroke-opacity="0.39" stroke-width="2"/>
    <path fill-rule="evenodd" clip-rule="evenodd" d="M42.9057 1134.15C42.3964 1134.15 41.946 1134.4 41.616 1134.78C41.2286 1135.23 41.0001 1135.85 41.0001 1136.53C41.0001 1137.21 41.2286 1137.83 41.616 1138.27C41.946 1138.66 42.3964 1138.91 42.9057 1138.91C43.4149 1138.91 43.8653 1138.66 44.1953 1138.27C44.5827 1137.83 44.8113 1137.21 44.8113 1136.53C44.8113 1135.85 44.5827 1135.23 44.1953 1134.78C43.8653 1134.4 43.4149 1134.15 42.9057 1134.15Z" stroke="#2873BE" stroke-opacity="0.39" stroke-width="2"/>
    <path fill-rule="evenodd" clip-rule="evenodd" d="M53.5373 1138.91L53.6235 1138.92C56.0104 1138.92 57.8682 1140.06 59.2657 1141.54C61.4596 1143.88 62.5973 1147.09 62.5973 1148.5C62.5973 1149.46 62.1762 1150.33 61.507 1150.96C60.81 1151.61 59.8456 1152.01 58.7834 1152.01C57.6121 1152.01 56.5588 1151.53 55.8534 1150.75L55.7283 1150.61C55.3547 1150.19 54.6094 1149.81 53.6674 1149.81C52.7331 1149.81 51.9929 1150.19 51.6161 1150.6L51.489 1150.73C50.7836 1151.52 49.7246 1152.01 48.5461 1152.01C47.4839 1152.01 46.5195 1151.61 45.8225 1150.96C45.1533 1150.33 44.7322 1149.46 44.7322 1148.5C44.7322 1147.09 45.8688 1143.88 48.0391 1141.54C49.4174 1140.06 51.2441 1138.91 53.5514 1138.91H53.5373Z" stroke="#2873BE" stroke-opacity="0.39" stroke-width="2"/>
    <path d="M266.029 1180.38C266.197 1181.72 276.454 1181.48 275.293 1185.65C274.132 1189.82 267.043 1189.23 267.043 1189.23L256.094 1200.17C256.094 1200.17 256.355 1207.6 253.111 1208.15C250.229 1208.65 248.745 1206.44 248.298 1201.62" stroke="#F2C7BD" stroke-width="2" stroke-linecap="round" stroke-linejoin="round"/>
    <path d="M250.469 1202.11C250.301 1200.78 240.043 1201.01 241.205 1196.84C242.365 1192.68 249.455 1193.27 249.455 1193.27L260.404 1182.32C260.404 1182.32 260.143 1174.9 263.387 1174.34C266.269 1173.85 267.753 1176.06 268.199 1180.87" stroke="#F2C7BD" stroke-width="2" stroke-linecap="round" stroke-linejoin="round"/>
    <path fill-rule="evenodd" clip-rule="evenodd" d="M473.221 1127C473.864 1127 474.425 1127.36 474.839 1127.89C475.345 1128.53 475.643 1129.43 475.643 1130.4C475.643 1131.38 475.345 1132.27 474.839 1132.92C474.425 1133.44 473.864 1133.81 473.221 1133.81C472.577 1133.81 472.017 1133.44 471.602 1132.92C471.097 1132.27 470.799 1131.38 470.799 1130.4C470.799 1129.43 471.097 1128.53 471.602 1127.89C472.017 1127.36 472.577 1127 473.221 1127Z" stroke="#2873BE" stroke-opacity="0.39" stroke-width="2"/>
    <path fill-rule="evenodd" clip-rule="evenodd" d="M479.931 1134.15C480.44 1134.15 480.89 1134.4 481.22 1134.78C481.608 1135.23 481.836 1135.85 481.836 1136.53C481.836 1137.21 481.608 1137.83 481.22 1138.27C480.89 1138.66 480.44 1138.91 479.931 1138.91C479.421 1138.91 478.971 1138.66 478.641 1138.27C478.253 1137.83 478.025 1137.21 478.025 1136.53C478.025 1135.85 478.253 1135.23 478.641 1134.78C478.971 1134.4 479.421 1134.15 479.931 1134.15Z" stroke="#2873BE" stroke-opacity="0.39" stroke-width="2"/>
    <path fill-rule="evenodd" clip-rule="evenodd" d="M463.931 1127C463.287 1127 462.727 1127.36 462.312 1127.89C461.807 1128.53 461.509 1129.43 461.509 1130.4C461.509 1131.38 461.807 1132.27 462.312 1132.92C462.726 1133.44 463.287 1133.81 463.931 1133.81C464.574 1133.81 465.135 1133.44 465.549 1132.92C466.055 1132.27 466.353 1131.38 466.353 1130.4C466.353 1129.43 466.055 1128.53 465.549 1127.89C465.135 1127.36 464.574 1127 463.931 1127Z" stroke="#2873BE" stroke-opacity="0.39" stroke-width="2"/>
    <path fill-rule="evenodd" clip-rule="evenodd" d="M457.221 1134.15C456.712 1134.15 456.262 1134.4 455.932 1134.78C455.544 1135.23 455.316 1135.85 455.316 1136.53C455.316 1137.21 455.544 1137.83 455.932 1138.27C456.262 1138.66 456.712 1138.91 457.221 1138.91C457.731 1138.91 458.181 1138.66 458.511 1138.27C458.898 1137.83 459.127 1137.21 459.127 1136.53C459.127 1135.85 458.898 1135.23 458.511 1134.78C458.181 1134.4 457.731 1134.15 457.221 1134.15Z" stroke="#2873BE" stroke-opacity="0.39" stroke-width="2"/>
    <path fill-rule="evenodd" clip-rule="evenodd" d="M467.853 1138.91L467.939 1138.92C470.326 1138.92 472.184 1140.06 473.581 1141.54C475.775 1143.88 476.913 1147.09 476.913 1148.5C476.913 1149.46 476.492 1150.33 475.823 1150.96C475.126 1151.61 474.161 1152.01 473.099 1152.01C471.928 1152.01 470.874 1151.53 470.169 1150.75L470.044 1150.61C469.67 1150.19 468.925 1149.81 467.983 1149.81C467.049 1149.81 466.309 1150.19 465.932 1150.6L465.805 1150.73C465.099 1151.52 464.04 1152.01 462.862 1152.01C461.8 1152.01 460.835 1151.61 460.138 1150.96C459.469 1150.33 459.048 1149.46 459.048 1148.5C459.048 1147.09 460.184 1143.88 462.355 1141.54C463.733 1140.06 465.56 1138.91 467.867 1138.91H467.853Z" stroke="#2873BE" stroke-opacity="0.39" stroke-width="2"/>
    <path fill-rule="evenodd" clip-rule="evenodd" d="M900.798 1127C901.442 1127 902.003 1127.36 902.417 1127.89C902.922 1128.53 903.22 1129.43 903.22 1130.4C903.22 1131.38 902.922 1132.27 902.417 1132.92C902.003 1133.44 901.442 1133.81 900.798 1133.81C900.155 1133.81 899.594 1133.44 899.18 1132.92C898.674 1132.27 898.377 1131.38 898.377 1130.4C898.377 1129.43 898.674 1128.53 899.18 1127.89C899.594 1127.36 900.155 1127 900.798 1127Z" stroke="#2873BE" stroke-opacity="0.39" stroke-width="2"/>
    <path fill-rule="evenodd" clip-rule="evenodd" d="M907.507 1134.15C908.017 1134.15 908.467 1134.4 908.797 1134.78C909.184 1135.23 909.413 1135.85 909.413 1136.53C909.413 1137.21 909.184 1137.83 908.797 1138.27C908.467 1138.66 908.017 1138.91 907.507 1138.91C906.998 1138.91 906.548 1138.66 906.218 1138.27C905.83 1137.83 905.602 1137.21 905.602 1136.53C905.602 1135.85 905.83 1135.23 906.218 1134.78C906.548 1134.4 906.998 1134.15 907.507 1134.15Z" stroke="#2873BE" stroke-opacity="0.39" stroke-width="2"/>
    <path fill-rule="evenodd" clip-rule="evenodd" d="M891.508 1127C890.865 1127 890.304 1127.36 889.89 1127.89C889.384 1128.53 889.087 1129.43 889.087 1130.4C889.087 1131.38 889.384 1132.27 889.89 1132.92C890.304 1133.44 890.865 1133.81 891.508 1133.81C892.152 1133.81 892.713 1133.44 893.127 1132.92C893.632 1132.27 893.93 1131.38 893.93 1130.4C893.93 1129.43 893.632 1128.53 893.127 1127.89C892.713 1127.36 892.152 1127 891.508 1127Z" stroke="#2873BE" stroke-opacity="0.39" stroke-width="2"/>
    <path fill-rule="evenodd" clip-rule="evenodd" d="M884.799 1134.15C884.29 1134.15 883.84 1134.4 883.51 1134.78C883.122 1135.23 882.894 1135.85 882.894 1136.53C882.894 1137.21 883.122 1137.83 883.51 1138.27C883.84 1138.66 884.29 1138.91 884.799 1138.91C885.308 1138.91 885.759 1138.66 886.089 1138.27C886.476 1137.83 886.705 1137.21 886.705 1136.53C886.705 1135.85 886.476 1135.23 886.089 1134.78C885.759 1134.4 885.308 1134.15 884.799 1134.15Z" stroke="#2873BE" stroke-opacity="0.39" stroke-width="2"/>
    <path fill-rule="evenodd" clip-rule="evenodd" d="M895.43 1138.91L895.517 1138.92C897.903 1138.92 899.761 1140.06 901.159 1141.54C903.353 1143.88 904.49 1147.09 904.49 1148.5C904.49 1149.46 904.069 1150.33 903.4 1150.96C902.703 1151.61 901.739 1152.01 900.676 1152.01C899.505 1152.01 898.452 1151.53 897.746 1150.75L897.621 1150.61C897.248 1150.19 896.503 1149.81 895.56 1149.81C894.626 1149.81 893.886 1150.19 893.509 1150.6L893.382 1150.73C892.677 1151.52 891.618 1152.01 890.439 1152.01C889.377 1152.01 888.413 1151.61 887.716 1150.96C887.046 1150.33 886.625 1149.46 886.625 1148.5C886.625 1147.09 887.762 1143.88 889.932 1141.54C891.31 1140.06 893.137 1138.91 895.444 1138.91H895.43Z" stroke="#2873BE" stroke-opacity="0.39" stroke-width="2"/>
    <path fill-rule="evenodd" clip-rule="evenodd" d="M223 15.5C223 23.508 216.508 30 208.5 30C200.491 30 194 23.508 194 15.5C194 7.492 200.491 1 208.5 1C216.508 1 223 7.492 223 15.5Z" stroke="#D2DEB8" stroke-width="2"/>
    <path fill-rule="evenodd" clip-rule="evenodd" d="M210.396 24.2271C211.892 22.3563 211.679 21.2662 215.304 17.0116C218.265 13.5377 221.474 14.2471 223 14.8888C222.627 7.15538 216.282 1 208.509 1C200.496 0.99939 194 7.54028 194 15.6092C194 22.8229 199.195 28.8117 206.022 30C207.317 28.2591 209.404 25.469 210.396 24.2271Z" stroke="#D2DEB8" stroke-width="2"/>
    <path fill-rule="evenodd" clip-rule="evenodd" d="M208.52 5.6307C211.852 5.10317 213.217 3.38128 213.773 2.1926C212.032 1.42633 210.119 1.00012 208.109 1.00012C202.59 1.00012 197.789 4.19694 195.318 8.90921C196.989 8.10114 199.018 7.21074 200.782 6.69905C203.092 6.02967 205.792 5.92771 208.52 5.6307Z" stroke="#D2DEB8" stroke-width="2"/>
    <path fill-rule="evenodd" clip-rule="evenodd" d="M30 431.5C30 439.508 23.508 446 15.5 446C7.4914 446 1 439.508 1 431.5C1 423.492 7.4914 417 15.5 417C23.508 417 30 423.492 30 431.5Z" stroke="#D2DEB8" stroke-width="2"/>
    <path fill-rule="evenodd" clip-rule="evenodd" d="M17.3964 440.227C18.8921 438.356 18.6789 437.266 22.304 433.012C25.2645 429.538 28.474 430.247 30 430.889C29.6268 423.155 23.2823 417 15.5088 417C7.49594 416.999 1 423.54 1 431.609C1 438.823 6.19469 444.812 13.022 446C14.3166 444.259 16.4035 441.469 17.3964 440.227Z" stroke="#D2DEB8" stroke-width="2"/>
    <path fill-rule="evenodd" clip-rule="evenodd" d="M15.52 421.631C18.8521 421.103 20.2174 419.381 20.7727 418.193C19.0315 417.426 17.1188 417 15.1095 417C9.59047 417 4.78906 420.197 2.31812 424.909C3.98872 424.101 6.01754 423.211 7.7818 422.699C10.0922 422.03 12.7918 421.928 15.52 421.631Z" stroke="#D2DEB8" stroke-width="2"/>
    <path fill-rule="evenodd" clip-rule="evenodd" d="M1355 92.5C1355 100.508 1348.51 107 1340.5 107C1332.49 107 1326 100.508 1326 92.5C1326 84.492 1332.49 78 1340.5 78C1348.51 78 1355 84.492 1355 92.5Z" stroke="#D2DEB8" stroke-width="2"/>
    <path fill-rule="evenodd" clip-rule="evenodd" d="M1342.4 101.227C1343.89 99.3563 1343.68 98.2662 1347.3 94.0116C1350.26 90.5377 1353.47 91.2471 1355 91.8888C1354.63 84.1554 1348.28 78 1340.51 78C1332.5 77.9994 1326 84.5403 1326 92.6092C1326 99.8229 1331.19 105.812 1338.02 107C1339.32 105.259 1341.4 102.469 1342.4 101.227Z" stroke="#D2DEB8" stroke-width="2"/>
    <path fill-rule="evenodd" clip-rule="evenodd" d="M1340.52 82.6307C1343.85 82.1032 1345.22 80.3813 1345.77 79.1926C1344.03 78.4263 1342.12 78.0001 1340.11 78.0001C1334.59 78.0001 1329.79 81.1969 1327.32 85.9092C1328.99 85.1011 1331.02 84.2107 1332.78 83.699C1335.09 83.0297 1337.79 82.9277 1340.52 82.6307Z" stroke="#D2DEB8" stroke-width="2"/>
    <path fill-rule="evenodd" clip-rule="evenodd" d="M1305 698.5C1305 706.508 1298.51 713 1290.5 713C1282.49 713 1276 706.508 1276 698.5C1276 690.492 1282.49 684 1290.5 684C1298.51 684 1305 690.492 1305 698.5Z" stroke="#D2DEB8" stroke-width="2"/>
    <path fill-rule="evenodd" clip-rule="evenodd" d="M1292.4 707.227C1293.89 705.356 1293.68 704.266 1297.3 700.012C1300.26 696.538 1303.47 697.247 1305 697.889C1304.63 690.155 1298.28 684 1290.51 684C1282.5 683.999 1276 690.54 1276 698.609C1276 705.823 1281.19 711.812 1288.02 713C1289.32 711.259 1291.4 708.469 1292.4 707.227Z" stroke="#D2DEB8" stroke-width="2"/>
    <path fill-rule="evenodd" clip-rule="evenodd" d="M1290.52 688.631C1293.85 688.103 1295.22 686.381 1295.77 685.193C1294.03 684.426 1292.12 684 1290.11 684C1284.59 684 1279.79 687.197 1277.32 691.909C1278.99 691.101 1281.02 690.211 1282.78 689.699C1285.09 689.03 1287.79 688.928 1290.52 688.631Z" stroke="#D2DEB8" stroke-width="2"/>
</svg>
