<svg width="443" height="85" viewBox="0 0 443 85" fill="none" xmlns="http://www.w3.org/2000/svg">
    <path fill-rule="evenodd" clip-rule="evenodd" d="M18.905 1C19.5485 1 20.1093 1.36402 20.5234 1.89064C21.029 2.53358 21.3267 3.42548 21.3267 4.40288C21.3267 5.38044 21.0291 6.27231 20.5235 6.9152C20.1094 7.44184 19.5485 7.80577 18.905 7.80577C18.2616 7.80577 17.7007 7.44174 17.2865 6.91505C16.781 6.27218 16.4833 5.38037 16.4833 4.40288C16.4833 3.42555 16.781 2.53371 17.2866 1.89079C17.7008 1.36412 18.2616 1 18.905 1Z" stroke="#2873BE" stroke-opacity="0.39" stroke-width="2"/>
    <path fill-rule="evenodd" clip-rule="evenodd" d="M25.6145 8.146C26.1237 8.146 26.5741 8.40067 26.9041 8.78147C27.2915 9.22843 27.5201 9.84876 27.5201 10.528C27.5201 11.2073 27.2915 11.8276 26.9041 12.2746C26.5741 12.6554 26.1237 12.91 25.6145 12.91C25.1052 12.91 24.6549 12.6554 24.3248 12.2746C23.9375 11.8276 23.7089 11.2073 23.7089 10.528C23.7089 9.84876 23.9375 9.22843 24.3248 8.78147C24.6549 8.40067 25.1052 8.146 25.6145 8.146Z" stroke="#2873BE" stroke-opacity="0.39" stroke-width="2"/>
    <path fill-rule="evenodd" clip-rule="evenodd" d="M9.61515 1C8.97164 1 8.41087 1.36402 7.99673 1.89064C7.49111 2.53358 7.19343 3.42548 7.19343 4.40288C7.19343 5.38044 7.49105 6.27231 7.99662 6.9152C8.41078 7.44184 8.97161 7.80577 9.61515 7.80577C10.2586 7.80577 10.8194 7.44174 11.2336 6.91505C11.7392 6.27218 12.0369 5.38037 12.0369 4.40288C12.0369 3.42555 11.7391 2.53371 11.2335 1.89079C10.8193 1.36412 10.2585 1 9.61515 1Z" stroke="#2873BE" stroke-opacity="0.39" stroke-width="2"/>
    <path fill-rule="evenodd" clip-rule="evenodd" d="M2.90566 8.146C2.39643 8.146 1.94604 8.40067 1.61602 8.78147C1.22865 9.22843 1.00005 9.84876 1.00005 10.528C1.00005 11.2073 1.22865 11.8276 1.61602 12.2746C1.94604 12.6554 2.39643 12.91 2.90566 12.91C3.4149 12.91 3.86529 12.6554 4.19531 12.2746C4.58268 11.8276 4.81128 11.2073 4.81128 10.528C4.81128 9.84876 4.58268 9.22843 4.19531 8.78147C3.86529 8.40067 3.4149 8.146 2.90566 8.146Z" stroke="#2873BE" stroke-opacity="0.39" stroke-width="2"/>
    <path fill-rule="evenodd" clip-rule="evenodd" d="M13.5373 12.9102L13.6235 12.9165C16.0104 12.9169 17.8682 14.0565 19.2657 15.5434C21.4596 17.8776 22.5973 21.0918 22.5973 22.5017C22.5973 23.4627 22.1762 24.3289 21.507 24.9574C20.81 25.612 19.8456 26.0113 18.7834 26.0113C17.6121 26.0113 16.5588 25.5258 15.8534 24.7477L15.7283 24.6146C15.3547 24.1948 14.6094 23.8092 13.6674 23.8092C12.7331 23.8092 11.9929 24.1882 11.6161 24.6037L11.489 24.7336C10.7836 25.5202 9.72459 26.0113 8.54607 26.0113C7.48392 26.0113 6.51949 25.612 5.82247 24.9574C5.1533 24.3289 4.73218 23.4627 4.73218 22.5017C4.73218 21.0918 5.86883 17.8784 8.03912 15.5407C9.41743 14.056 11.2441 12.9102 13.5514 12.9102H13.5373Z" stroke="#2873BE" stroke-opacity="0.39" stroke-width="2"/>
    <path d="M226.028 54.3844C226.197 55.7189 236.454 55.4846 235.293 59.6523C234.132 63.82 227.042 63.2257 227.042 63.2257L216.093 74.1749C216.093 74.1749 216.355 81.5973 213.11 82.1523C210.228 82.6457 208.745 80.4376 208.298 75.6225" stroke="#F2C7BD" stroke-width="2" stroke-linecap="round" stroke-linejoin="round"/>
    <path d="M210.469 76.1121C210.3 74.7775 200.043 75.0119 201.204 70.8442C202.365 66.6765 209.454 67.2708 209.454 67.2708L220.404 56.3216C220.404 56.3216 220.142 48.8992 223.387 48.3442C226.268 47.8508 227.752 50.0589 228.199 54.874" stroke="#F2C7BD" stroke-width="2" stroke-linecap="round" stroke-linejoin="round"/>
    <path fill-rule="evenodd" clip-rule="evenodd" d="M433.22 1C433.864 1 434.425 1.36402 434.839 1.89064C435.344 2.53358 435.642 3.42548 435.642 4.40288C435.642 5.38044 435.344 6.27231 434.839 6.9152C434.425 7.44184 433.864 7.80577 433.22 7.80577C432.577 7.80577 432.016 7.44174 431.602 6.91505C431.096 6.27218 430.799 5.38037 430.799 4.40288C430.799 3.42555 431.096 2.53371 431.602 1.89079C432.016 1.36412 432.577 1 433.22 1Z" stroke="#2873BE" stroke-opacity="0.39" stroke-width="2"/>
    <path fill-rule="evenodd" clip-rule="evenodd" d="M439.93 8.146C440.439 8.146 440.89 8.40067 441.22 8.78147C441.607 9.22843 441.836 9.84876 441.836 10.528C441.836 11.2073 441.607 11.8276 441.22 12.2746C440.89 12.6554 440.439 12.91 439.93 12.91C439.421 12.91 438.97 12.6554 438.64 12.2746C438.253 11.8276 438.024 11.2073 438.024 10.528C438.024 9.84876 438.253 9.22843 438.64 8.78147C438.97 8.40067 439.421 8.146 439.93 8.146Z" stroke="#2873BE" stroke-opacity="0.39" stroke-width="2"/>
    <path fill-rule="evenodd" clip-rule="evenodd" d="M423.931 1C423.287 1 422.726 1.36402 422.312 1.89064C421.807 2.53358 421.509 3.42548 421.509 4.40288C421.509 5.38044 421.806 6.27231 422.312 6.9152C422.726 7.44184 423.287 7.80577 423.931 7.80577C424.574 7.80577 425.135 7.44174 425.549 6.91505C426.055 6.27218 426.352 5.38037 426.352 4.40288C426.352 3.42555 426.055 2.53371 425.549 1.89079C425.135 1.36412 424.574 1 423.931 1Z" stroke="#2873BE" stroke-opacity="0.39" stroke-width="2"/>
    <path fill-rule="evenodd" clip-rule="evenodd" d="M417.221 8.146C416.712 8.146 416.262 8.40067 415.932 8.78147C415.544 9.22843 415.316 9.84876 415.316 10.528C415.316 11.2073 415.544 11.8276 415.932 12.2746C416.262 12.6554 416.712 12.91 417.221 12.91C417.73 12.91 418.181 12.6554 418.511 12.2746C418.898 11.8276 419.127 11.2073 419.127 10.528C419.127 9.84876 418.898 9.22843 418.511 8.78147C418.181 8.40067 417.73 8.146 417.221 8.146Z" stroke="#2873BE" stroke-opacity="0.39" stroke-width="2"/>
    <path fill-rule="evenodd" clip-rule="evenodd" d="M427.853 12.9102L427.939 12.9165C430.326 12.9169 432.184 14.0565 433.581 15.5434C435.775 17.8776 436.913 21.0918 436.913 22.5017C436.913 23.4627 436.492 24.3289 435.822 24.9574C435.125 25.612 434.161 26.0113 433.099 26.0113C431.928 26.0113 430.874 25.5258 430.169 24.7477L430.044 24.6146C429.67 24.1948 428.925 23.8092 427.983 23.8092C427.049 23.8092 426.308 24.1882 425.932 24.6037L425.804 24.7336C425.099 25.5202 424.04 26.0113 422.861 26.0113C421.799 26.0113 420.835 25.612 420.138 24.9574C419.469 24.3289 419.048 23.4627 419.048 22.5017C419.048 21.0918 420.184 17.8784 422.355 15.5407C423.733 14.056 425.56 12.9102 427.867 12.9102H427.853Z" stroke="#2873BE" stroke-opacity="0.39" stroke-width="2"/>
</svg>
