<?xml version="1.0" encoding="utf-8"?>
<svg width="304" height="201" viewBox="0 0 304 201" fill="none" xmlns="http://www.w3.org/2000/svg">
    <path fill-rule="evenodd" clip-rule="evenodd" d="M243.633 75.4959C244.266 75.3842 244.882 75.6453 245.381 76.092C245.991 76.6374 246.439 77.4641 246.609 78.4266C246.778 79.3893 246.64 80.3193 246.254 81.0402C245.937 81.6308 245.448 82.0866 244.814 82.1983C244.181 82.31 243.565 82.0489 243.066 81.6022C242.456 81.0569 242.008 80.2303 241.839 79.2677C241.669 78.3052 241.807 77.3752 242.194 76.6542C242.51 76.0636 242.999 75.6077 243.633 75.4959Z" stroke="white" stroke-opacity="0.39" stroke-width="2"/>
    <path fill-rule="evenodd" clip-rule="evenodd" d="M251.481 81.3684C251.982 81.28 252.47 81.4526 252.861 81.7703C253.32 82.1432 253.653 82.7144 253.771 83.3833C253.889 84.0523 253.772 84.7029 253.468 85.2103C253.209 85.6426 252.81 85.9716 252.308 86.0601C251.807 86.1485 251.319 85.9759 250.928 85.6582C250.469 85.2853 250.136 84.7141 250.018 84.0451C249.9 83.3762 250.017 82.7256 250.321 82.2182C250.58 81.7858 250.979 81.4568 251.481 81.3684Z" stroke="white" stroke-opacity="0.39" stroke-width="2"/>
    <path fill-rule="evenodd" clip-rule="evenodd" d="M234.484 77.1091C233.85 77.2209 233.361 77.6767 233.045 78.2673C232.658 78.9882 232.52 79.9183 232.69 80.8808C232.86 81.8435 233.308 82.6702 233.917 83.2155C234.417 83.6622 235.032 83.9232 235.666 83.8115C236.299 83.6998 236.789 83.2439 237.105 82.6533C237.491 81.9324 237.63 81.0024 237.46 80.0398C237.29 79.0773 236.842 78.2507 236.232 77.7054C235.733 77.2586 235.118 76.9974 234.484 77.1091Z" stroke="white" stroke-opacity="0.39" stroke-width="2"/>
    <path fill-rule="evenodd" clip-rule="evenodd" d="M229.117 85.3117C228.616 85.4001 228.217 85.7291 227.958 86.1614C227.654 86.6689 227.536 87.3195 227.654 87.9884C227.772 88.6574 228.105 89.2286 228.564 89.6015C228.955 89.9192 229.443 90.0918 229.945 90.0033C230.446 89.9149 230.846 89.5859 231.104 89.1536C231.408 88.6461 231.526 87.9955 231.408 87.3266C231.29 86.6577 230.957 86.0865 230.498 85.7136C230.107 85.3958 229.619 85.2233 229.117 85.3117Z" stroke="white" stroke-opacity="0.39" stroke-width="2"/>
    <path fill-rule="evenodd" clip-rule="evenodd" d="M240.415 88.1572L240.501 88.1485C242.851 87.7344 244.879 88.534 246.513 89.7557C249.079 91.6734 250.758 94.6413 251.003 96.0297C251.17 96.9761 250.905 97.9023 250.355 98.6374C249.783 99.4032 248.902 99.9638 247.856 100.148C246.703 100.352 245.581 100.056 244.751 99.4127L244.605 99.3034C244.164 98.9548 243.363 98.7045 242.435 98.8681C241.515 99.0303 240.852 99.5321 240.553 100.007L240.451 100.157C239.893 101.054 238.935 101.721 237.774 101.926C236.728 102.11 235.709 101.885 234.909 101.361C234.141 100.858 233.576 100.078 233.409 99.132C233.164 97.7435 233.725 94.3816 235.457 91.7025C236.556 90.0011 238.156 88.5554 240.429 88.1547L240.415 88.1572Z" stroke="white" stroke-opacity="0.39" stroke-width="2"/>
    <path d="M148.028 9.38449C148.197 10.7191 158.454 10.4847 157.292 14.6524C156.132 18.8201 149.042 18.2258 149.042 18.2258L138.093 29.175C138.093 29.175 138.354 36.5974 135.11 37.1524C132.228 37.6458 130.744 35.4377 130.298 30.6226" stroke="#F2C7BD" stroke-width="2" stroke-linecap="round" stroke-linejoin="round"/>
    <path d="M132.468 31.1122C132.3 29.7776 122.043 30.012 123.204 25.8443C124.365 21.6765 131.454 22.2709 131.454 22.2709L142.403 11.3217C142.403 11.3217 142.142 3.89928 145.386 3.34425C148.268 2.85088 149.752 5.05891 150.199 9.87405" stroke="#F2C7BD" stroke-width="2" stroke-linecap="round" stroke-linejoin="round"/>
    <path d="M292.028 170.384C292.197 171.719 302.454 171.485 301.292 175.652C300.132 179.82 293.042 179.226 293.042 179.226L282.093 190.175C282.093 190.175 282.354 197.597 279.11 198.152C276.228 198.646 274.744 196.438 274.298 191.623" stroke="#F2C7BD" stroke-width="2" stroke-linecap="round" stroke-linejoin="round"/>
    <path d="M276.468 192.112C276.3 190.777 266.043 191.012 267.204 186.844C268.365 182.676 275.454 183.271 275.454 183.271L286.403 172.322C286.403 172.322 286.142 164.899 289.386 164.344C292.268 163.851 293.752 166.059 294.199 170.874" stroke="#F2C7BD" stroke-width="2" stroke-linecap="round" stroke-linejoin="round"/>
    <path fill-rule="evenodd" clip-rule="evenodd" d="M26 38C26 44.6273 20.6273 50 14 50C7.37219 50 2 44.6273 2 38C2 31.3727 7.37219 26 14 26C20.6273 26 26 31.3727 26 38Z" stroke="#D2DEB8" stroke-opacity="0.54" stroke-width="2"/>
    <path fill-rule="evenodd" clip-rule="evenodd" d="M15.5695 45.2224C16.8073 43.6741 16.6308 42.772 19.6309 39.2509C22.081 36.376 24.7371 36.9631 26 37.4942C25.6912 31.0941 20.4406 26 14.0073 26C7.37595 25.9995 2 31.4126 2 38.0904C2 44.0603 6.29905 49.0166 11.9492 50C13.0206 48.5593 14.7478 46.2502 15.5695 45.2224Z" stroke="#D2DEB8" stroke-opacity="0.54" stroke-width="2"/>
    <path fill-rule="evenodd" clip-rule="evenodd" d="M14.0166 29.8323C16.7742 29.3957 17.9041 27.9707 18.3636 26.987C16.9227 26.3528 15.3398 26.0001 13.6769 26.0001C9.10941 26.0001 5.13583 28.6457 3.09091 32.5455C4.47348 31.8768 6.1525 31.1399 7.61258 30.7164C9.52463 30.1625 11.7588 30.0781 14.0166 29.8323Z" stroke="#D2DEB8" stroke-opacity="0.54" stroke-width="2"/>
</svg>
