<?xml version="1.0" encoding="utf-8"?>
<svg width="116" height="197" viewBox="0 0 116 197" fill="none" xmlns="http://www.w3.org/2000/svg">
    <path fill-rule="evenodd" clip-rule="evenodd" d="M64.9761 4.10916C65.6098 4.2209 66.0988 4.67676 66.4152 5.2673C66.8015 5.98827 66.9398 6.91832 66.7701 7.88087C66.6003 8.84357 66.1524 9.67022 65.5428 10.2155C65.0435 10.6623 64.428 10.9233 63.7942 10.8115C63.1606 10.6998 62.6715 10.2439 62.355 9.6533C61.9688 8.93241 61.8305 8.00245 62.0002 7.03982C62.1699 6.07733 62.618 5.25074 63.2276 4.70539C63.7269 4.25864 64.3424 3.99743 64.9761 4.10916Z" stroke="white" stroke-opacity="0.39" stroke-width="2"/>
    <path fill-rule="evenodd" clip-rule="evenodd" d="M70.3428 12.3117C70.8443 12.4002 71.2436 12.7292 71.5025 13.1615C71.8064 13.6689 71.9238 14.3195 71.8058 14.9885C71.6879 15.6574 71.355 16.2286 70.8959 16.6015C70.5048 16.9192 70.017 17.0918 69.5155 17.0034C69.014 16.915 68.6147 16.586 68.3558 16.1536C68.0519 15.6462 67.9345 14.9956 68.0525 14.3267C68.1704 13.6577 68.5033 13.0865 68.9624 12.7136C69.3535 12.3959 69.8413 12.2233 70.3428 12.3117Z" stroke="white" stroke-opacity="0.39" stroke-width="2"/>
    <path fill-rule="evenodd" clip-rule="evenodd" d="M55.8274 2.49598C55.1936 2.38423 54.5782 2.64534 54.0789 3.09205C53.4693 3.63742 53.0212 4.46408 52.8515 5.42664C52.6818 6.38934 52.82 7.31934 53.2063 8.04026C53.5227 8.63081 54.0118 9.0866 54.6455 9.19835C55.2792 9.31008 55.8947 9.04897 56.3941 8.6022C57.0036 8.05689 57.4516 7.23033 57.6214 6.26769C57.7911 5.3052 57.6527 4.37521 57.2664 3.65426C56.95 3.06367 56.461 2.6077 55.8274 2.49598Z" stroke="white" stroke-opacity="0.39" stroke-width="2"/>
    <path fill-rule="evenodd" clip-rule="evenodd" d="M47.9789 8.36837C47.4774 8.27994 46.9897 8.45254 46.5985 8.77024C46.1394 9.14315 45.8066 9.71436 45.6886 10.3833C45.5707 11.0522 45.6881 11.7028 45.992 12.2103C46.2508 12.6426 46.6502 12.9716 47.1517 13.06C47.6532 13.1485 48.1409 12.9759 48.5321 12.6582C48.9912 12.2853 49.324 11.714 49.442 11.0451C49.5599 10.3762 49.4425 9.72558 49.1386 9.21814C48.8797 8.78581 48.4804 8.4568 47.9789 8.36837Z" stroke="white" stroke-opacity="0.39" stroke-width="2"/>
    <path fill-rule="evenodd" clip-rule="evenodd" d="M57.6217 14.9062L57.7055 14.9274C60.0561 15.3423 61.6878 16.7872 62.8059 18.4941C64.5611 21.1738 65.1234 24.5368 64.8786 25.9253C64.7117 26.8717 64.1465 27.6516 63.3784 28.1543C62.5783 28.678 61.5592 28.9037 60.5132 28.7193C59.3596 28.5159 58.4067 27.8548 57.8471 26.9661L57.747 26.8133C57.452 26.335 56.785 25.8258 55.8573 25.6623C54.9371 25.5 54.1424 25.7448 53.6991 26.0885L53.5514 26.1943C52.7202 26.8465 51.592 27.1462 50.4313 26.9416C49.3853 26.7571 48.5049 26.1965 47.9321 25.4307C47.3823 24.6956 47.118 23.7694 47.2848 22.823C47.5297 21.4346 49.207 18.4674 51.7503 16.542C53.3655 15.3193 55.3634 14.508 57.6356 14.9087L57.6217 14.9062Z" stroke="white" stroke-opacity="0.39" stroke-width="2"/>
    <path fill-rule="evenodd" clip-rule="evenodd" d="M87.6358 164.021C88.0494 163.529 88.6887 163.333 89.3583 163.354C90.1758 163.38 91.0504 163.725 91.7992 164.354C92.548 164.982 93.0399 165.783 93.2074 166.584C93.3446 167.24 93.2629 167.903 92.8493 168.396C92.4357 168.889 91.7963 169.085 91.1266 169.063C90.3092 169.037 89.4347 168.692 88.6859 168.064C87.9372 167.436 87.4454 166.634 87.2779 165.834C87.1407 165.178 87.2222 164.514 87.6358 164.021Z" stroke="white" stroke-opacity="0.39" stroke-width="2"/>
    <path fill-rule="evenodd" clip-rule="evenodd" d="M97.4225 163.475C97.7499 163.085 98.2345 162.904 98.7383 162.896C99.3297 162.886 99.9518 163.11 100.472 163.547C100.993 163.983 101.321 164.557 101.414 165.141C101.494 165.639 101.399 166.147 101.072 166.538C100.745 166.928 100.26 167.109 99.7562 167.117C99.1648 167.126 98.5427 166.903 98.0224 166.466C97.502 166.03 97.1738 165.456 97.0804 164.872C97.0008 164.374 97.0952 163.865 97.4225 163.475Z" stroke="white" stroke-opacity="0.39" stroke-width="2"/>
    <path fill-rule="evenodd" clip-rule="evenodd" d="M81.6644 171.138C81.2507 171.631 81.1691 172.294 81.3063 172.95C81.4738 173.751 81.9657 174.552 82.7145 175.18C83.4633 175.809 84.3378 176.154 85.1553 176.18C85.8249 176.201 86.4642 176.006 86.8779 175.513C87.2915 175.02 87.3731 174.356 87.2359 173.7C87.0684 172.9 86.5766 172.098 85.8278 171.47C85.0791 170.842 84.2045 170.497 83.387 170.471C82.7173 170.45 82.0779 170.645 81.6644 171.138Z" stroke="white" stroke-opacity="0.39" stroke-width="2"/>
    <path fill-rule="evenodd" clip-rule="evenodd" d="M82.8259 180.871C82.4985 181.261 82.4041 181.77 82.4837 182.267C82.5771 182.851 82.9054 183.425 83.4257 183.862C83.946 184.298 84.5682 184.522 85.1596 184.513C85.6634 184.505 86.148 184.323 86.4753 183.933C86.8027 183.543 86.8971 183.034 86.8175 182.537C86.7241 181.953 86.3959 181.379 85.8755 180.942C85.3552 180.506 84.733 180.282 84.1416 180.291C83.6378 180.3 83.1532 180.481 82.8259 180.871Z" stroke="white" stroke-opacity="0.39" stroke-width="2"/>
    <path fill-rule="evenodd" clip-rule="evenodd" d="M93.3092 175.789L93.3694 175.727C94.904 173.899 96.9712 173.208 99.0085 173.093C102.207 172.913 105.4 174.108 106.48 175.014C107.217 175.632 107.609 176.511 107.661 177.428C107.714 178.382 107.4 179.378 106.717 180.191C105.964 181.089 104.915 181.584 103.866 181.624L103.684 181.634C103.122 181.65 102.347 181.973 101.742 182.695C101.141 183.411 100.956 184.221 101.032 184.777L101.05 184.958C101.199 186.004 100.894 187.131 100.137 188.034C99.4542 188.847 98.5284 189.33 97.5789 189.443C96.6673 189.551 95.733 189.317 94.9969 188.699C93.9169 187.793 92.1859 184.857 91.7901 181.692C91.5388 179.682 91.8351 177.546 93.3182 175.778L93.3092 175.789Z" stroke="white" stroke-opacity="0.39" stroke-width="2"/>
    <path d="M99.028 76.3845C99.1966 77.7191 109.454 77.4847 108.292 81.6524C107.132 85.8201 100.042 85.2258 100.042 85.2258L89.0931 96.175C89.0931 96.175 89.3545 103.597 86.11 104.152C83.2282 104.646 81.7444 102.438 81.2977 97.6226" stroke="#F2C7BD" stroke-width="2" stroke-linecap="round" stroke-linejoin="round"/>
    <path d="M83.4685 98.1122C83.2999 96.7776 73.0427 97.012 74.2041 92.8443C75.3647 88.6765 82.4541 89.2709 82.4541 89.2709L93.4033 78.3217C93.4033 78.3217 93.142 70.8993 96.3864 70.3442C99.2683 69.8509 100.752 72.0589 101.199 76.874" stroke="#F2C7BD" stroke-width="2" stroke-linecap="round" stroke-linejoin="round"/>
    <path fill-rule="evenodd" clip-rule="evenodd" d="M26 119C26 125.627 20.6273 131 14 131C7.37219 131 2 125.627 2 119C2 112.373 7.37219 107 14 107C20.6273 107 26 112.373 26 119Z" stroke="#D2DEB8" stroke-opacity="0.54" stroke-width="2"/>
    <path fill-rule="evenodd" clip-rule="evenodd" d="M15.5695 126.222C16.8073 124.674 16.6308 123.772 19.6309 120.251C22.081 117.376 24.7371 117.963 26 118.494C25.6912 112.094 20.4406 107 14.0073 107C7.37595 106.999 2 112.413 2 119.09C2 125.06 6.29905 130.017 11.9492 131C13.0206 129.559 14.7478 127.25 15.5695 126.222Z" stroke="#D2DEB8" stroke-opacity="0.54" stroke-width="2"/>
    <path fill-rule="evenodd" clip-rule="evenodd" d="M14.0166 110.832C16.7742 110.396 17.9041 108.971 18.3636 107.987C16.9227 107.353 15.3398 107 13.6769 107C9.10938 107 5.1358 109.646 3.09088 113.546C4.47345 112.877 6.15247 112.14 7.61255 111.716C9.5246 111.162 11.7588 111.078 14.0166 110.832Z" stroke="#D2DEB8" stroke-opacity="0.54" stroke-width="2"/>
</svg>
