<?xml version="1.0" encoding="utf-8"?>
<svg width="1050" height="452" viewBox="0 0 1050 452" fill="none" xmlns="http://www.w3.org/2000/svg">
    <path fill-rule="evenodd" clip-rule="evenodd" d="M1009.59 320.61C1012.58 321.701 1014.58 324.348 1015.61 327.504C1016.88 331.357 1016.75 336.017 1015.1 340.57C1013.44 345.124 1010.54 348.775 1007.1 350.912C1004.27 352.664 1001.04 353.408 998.045 352.317C995.047 351.226 993.052 348.579 992.015 345.423C990.75 341.571 990.875 336.911 992.533 332.357C994.19 327.804 997.089 324.154 1000.53 322.016C1003.36 320.265 1006.59 319.519 1009.59 320.61Z" stroke="#E0DDD7" stroke-width="3"/>
    <path fill-rule="evenodd" clip-rule="evenodd" d="M1028.73 365.279C1031.1 366.143 1032.76 368.093 1033.66 370.426C1034.7 373.166 1034.72 376.443 1033.56 379.608C1032.41 382.772 1030.3 385.275 1027.73 386.7C1025.55 387.915 1023.02 388.337 1020.65 387.474C1018.27 386.61 1016.61 384.66 1015.72 382.326C1014.67 379.587 1014.66 376.31 1015.81 373.145C1016.96 369.981 1019.08 367.478 1021.64 366.053C1023.82 364.838 1026.35 364.416 1028.73 365.279Z" stroke="#E0DDD7" stroke-width="3"/>
    <path fill-rule="evenodd" clip-rule="evenodd" d="M966.305 304.858C963.307 303.767 960.077 304.512 957.255 306.263C953.809 308.401 950.91 312.051 949.253 316.605C947.595 321.159 947.469 325.819 948.735 329.671C949.771 332.827 951.767 335.473 954.765 336.565C957.762 337.656 960.993 336.911 963.815 335.159C967.261 333.022 970.16 329.372 971.817 324.818C973.474 320.264 973.6 315.605 972.334 311.752C971.298 308.596 969.303 305.949 966.305 304.858Z" stroke="#E0DDD7" stroke-width="3"/>
    <path fill-rule="evenodd" clip-rule="evenodd" d="M922.93 326.773C920.558 325.91 918.028 326.332 915.845 327.547C913.282 328.972 911.165 331.475 910.013 334.639C908.862 337.804 908.875 341.081 909.921 343.82C910.813 346.154 912.48 348.104 914.852 348.968C917.224 349.831 919.755 349.408 921.938 348.194C924.5 346.769 926.617 344.266 927.769 341.102C928.921 337.937 928.908 334.66 927.861 331.92C926.969 329.587 925.303 327.637 922.93 326.773Z" stroke="#E0DDD7" stroke-width="3"/>
    <path fill-rule="evenodd" clip-rule="evenodd" d="M964.382 366.995L964.773 367.171C975.892 371.22 982.615 379.68 986.605 388.976C992.867 403.571 992.717 420.475 990.327 427.043C988.697 431.52 985.267 434.841 981.083 436.635C976.726 438.503 971.556 438.727 966.608 436.926C961.151 434.94 957.067 430.892 955.1 426.071L954.743 425.239C953.714 422.65 950.896 419.59 946.507 417.992C942.154 416.408 938.063 416.919 935.603 418.216L934.791 418.605C930.171 421.074 924.404 421.566 918.914 419.567C913.966 417.766 910.15 414.271 908.012 410.039C905.961 405.976 905.467 401.227 907.097 396.75C909.488 390.181 920.232 377.138 934.307 369.927C943.245 365.348 953.699 363.107 964.448 367.019L964.382 366.995Z" stroke="#E0DDD7" stroke-width="3"/>
    <path fill-rule="evenodd" clip-rule="evenodd" d="M973.571 38.1035C974.466 43.1752 957.274 50.4454 935.171 54.3428C913.069 58.2399 894.428 57.2881 893.533 52.2164C892.639 47.1446 909.831 39.8745 931.932 35.9774C954.035 32.08 972.677 33.0318 973.571 38.1035Z" stroke="#E0DDD7" stroke-width="3"/>
    <path d="M990.639 71.0733C992.665 82.5632 971.504 95.8997 943.375 100.86C915.244 105.82 890.798 100.525 888.772 89.0352" stroke="#E0DDD7" stroke-width="3"/>
    <path d="M990.639 71.0731L973.896 39.9399" stroke="#E0DDD7" stroke-width="3"/>
    <path d="M893.857 54.0531L888.772 89.0352" stroke="#E0DDD7" stroke-width="3"/>
    <path d="M911.362 56.7734C916.448 54.6522 924.87 52.3717 934.525 50.6693C944.178 48.9671 952.87 48.2301 958.377 48.4834" stroke="#E0DDD7" stroke-width="3"/>
    <path fill-rule="evenodd" clip-rule="evenodd" d="M943.057 66.3336C940.91 66.7122 939.236 68.1878 938.438 70.1079L938.094 70.918L937.494 70.2745C936.087 68.743 934.01 67.9289 931.863 68.3075C928.456 68.9081 926.21 72.2503 926.834 75.789C928.156 83.2892 936.904 85.7492 941.128 88.1261C944.285 84.4477 951.664 79.1442 950.342 71.644C949.718 68.1053 946.463 65.733 943.057 66.3336Z" stroke="#E0DDD7" stroke-width="3"/>
    <path d="M110.659 31.558C111.311 36.7193 150.979 35.8129 146.488 51.9309C141.999 68.049 114.582 65.7506 114.582 65.7506L72.2373 108.095C72.2373 108.095 73.248 136.8 60.7005 138.947C49.5554 140.855 43.8172 132.315 42.0897 113.694" stroke="#E0DDD7" stroke-width="3" stroke-linecap="round" stroke-linejoin="round"/>
    <path d="M50.4855 115.586C49.8336 110.425 10.1653 111.331 14.6569 95.2133C19.1455 79.0952 46.5628 81.3937 46.5628 81.3937L88.9073 39.0492C88.9073 39.0492 87.8966 10.3442 100.444 8.19764C111.589 6.28962 117.327 14.8289 119.055 33.4507" stroke="#E0DDD7" stroke-width="3" stroke-linecap="round" stroke-linejoin="round"/>
    <path fill-rule="evenodd" clip-rule="evenodd" d="M93 371C93 396.405 72.4047 417 47 417C21.5934 417 1 396.405 1 371C1 345.595 21.5934 325 47 325C72.4047 325 93 345.595 93 371Z" stroke="#E0DDD7" stroke-width="2"/>
    <path fill-rule="evenodd" clip-rule="evenodd" d="M53.0163 398.686C57.7613 392.751 57.0848 389.293 68.5851 375.795C77.977 364.775 88.1589 367.025 93 369.061C91.8162 344.527 71.6888 325 47.0279 325C21.6078 324.998 1 345.748 1 371.346C1 394.231 17.4797 413.23 39.1387 417C43.2457 411.477 49.8664 402.626 53.0163 398.686Z" stroke="#E0DDD7" stroke-width="2"/>
    <path fill-rule="evenodd" clip-rule="evenodd" d="M47.064 339.69C57.6348 338.017 61.9661 332.554 63.7276 328.783C58.2039 326.352 52.1362 325 45.7617 325C28.253 325 13.021 335.142 5.18213 350.091C10.482 347.527 16.9182 344.703 22.5152 343.079C29.8447 340.956 38.409 340.632 47.064 339.69Z" stroke="#E0DDD7" stroke-width="2"/>
</svg>
