<?xml version="1.0" encoding="utf-8"?>
<svg width="32" height="32" viewBox="0 0 32 32" fill="none" xmlns="http://www.w3.org/2000/svg">
    <g clip-path="url(#clip0)">
        <path d="M30.5835 5.86231C28.3 2.13282 25.1174 1.32984 22.8498 1.31275C22.8252 1.31251 22.8008 1.31251 22.7761 1.31251C20.8662 1.31251 18.9783 1.86695 17.314 2.91675L15.9998 3.74L14.688 2.91846C12.9998 1.85352 11.0852 1.29737 9.14968 1.31275C6.88211 1.32984 3.69949 2.13282 1.4163 5.86231C-0.424766 8.86915 -0.47335 12.4356 1.28299 15.647C2.64115 18.1306 4.74832 20.1133 6.78591 22.0303C7.1448 22.3682 7.48391 22.6873 7.82131 23.011C9.08547 24.2249 10.3655 25.3953 11.6035 26.5271C12.8325 27.6509 14.1035 28.813 15.3506 30.0103L15.9998 30.6336L16.6489 30.0103C17.896 28.8127 19.1672 27.6506 20.3965 26.5269C21.6343 25.395 22.9143 24.2246 24.1782 23.011C24.5156 22.687 24.8547 22.3682 25.2136 22.0303C27.2512 20.113 29.3584 18.1304 30.7165 15.6467C32.4729 12.4353 32.4243 8.86915 30.5835 5.86231V5.86231ZM3.01492 6.84107C4.48733 4.43604 6.55618 3.20679 9.16384 3.18726C9.18361 3.18702 9.20363 3.18702 9.22341 3.18702C10.7788 3.18702 12.3213 3.64185 13.6904 4.50538L15.9998 5.95215L18.3118 4.50391C19.6782 3.64161 21.2207 3.18702 22.7761 3.18702C22.7959 3.18702 22.8159 3.18702 22.8357 3.18726C25.4433 3.20679 27.5122 4.43604 28.9846 6.84107C29.749 8.0896 30.1262 9.46192 30.1172 10.8557H16.717L14.5567 17.418L9.98488 4.75855L6.79177 11.2932H1.89774C1.79813 9.74976 2.17069 8.22022 3.01492 6.84107ZM23.9292 20.665C23.5825 20.9912 23.2241 21.3284 22.8801 21.6589C21.6326 22.8567 20.3611 24.019 19.1316 25.1433C18.1057 26.0813 17.0505 27.0459 15.9998 28.0398C14.9492 27.0461 13.8943 26.0818 12.8687 25.1438C11.6389 24.0195 10.3675 22.8569 9.11965 21.6589C8.77541 21.3284 8.41726 20.9912 8.07058 20.665C6.13967 18.8484 4.1431 16.9695 2.92777 14.7473C2.64456 14.2297 2.41996 13.7012 2.25174 13.1677H7.96218L9.72561 9.55909L14.6387 23.1638L18.0735 12.7302H29.8735C29.6992 13.4124 29.4324 14.0886 29.0722 14.7473C27.8567 16.9695 25.8601 18.8482 23.9292 20.665V20.665Z" fill="#EA8C00"/>
    </g>
    <defs>
        <clipPath id="clip0">
            <rect width="32" height="32" fill="white"/>
        </clipPath>
    </defs>
</svg>
