<?xml version="1.0" encoding="utf-8"?>
<svg width="25" height="25" viewBox="0 0 25 25" fill="none" xmlns="http://www.w3.org/2000/svg">
    <g clip-path="url(#clip0)">
        <path d="M23.8933 4.57993C22.1093 1.66627 19.6229 1.03894 17.8514 1.02559C17.8321 1.0254 17.8131 1.0254 17.7938 1.0254C16.3017 1.0254 14.8267 1.45856 13.5265 2.27872L12.4998 2.92187L11.4749 2.28005C10.156 1.44807 8.66028 1.01357 7.14813 1.02559C5.37659 1.03894 2.89018 1.66627 1.10643 4.57993C-0.331902 6.92902 -0.369858 9.71528 1.00229 12.2242C2.06334 14.1646 3.70957 15.7135 5.30144 17.2112C5.58182 17.4751 5.84675 17.7244 6.11035 17.9773C7.09797 18.9257 8.09799 19.8401 9.06521 20.7243C10.0254 21.6023 11.0183 22.5102 11.9926 23.4455L12.4998 23.9325L13.0069 23.4455C13.9812 22.51 14.9744 21.6021 15.9347 20.7241C16.9017 19.8399 17.9017 18.9255 18.8892 17.9773C19.1528 17.7242 19.4177 17.4751 19.6981 17.2112C21.29 15.7133 22.9362 14.1644 23.9972 12.224C25.3694 9.71509 25.3314 6.92902 23.8933 4.57993V4.57993ZM2.35536 5.34459C3.50568 3.46566 5.12196 2.50531 7.1592 2.49005C7.17465 2.48986 7.19029 2.48986 7.20574 2.48986C8.42091 2.48986 9.62597 2.8452 10.6956 3.51983L12.4998 4.65012L14.306 3.51868C15.3736 2.84501 16.5786 2.48986 17.7938 2.48986C17.8092 2.48986 17.8249 2.48986 17.8403 2.49005C19.8776 2.50531 21.4938 3.46566 22.6442 5.34459C23.2414 6.32001 23.536 7.39213 23.529 8.48103H13.0601L11.3723 13.6078L7.80064 3.71762L5.30602 8.82283H1.48256C1.40474 7.617 1.6958 6.42205 2.35536 5.34459ZM18.6946 16.1446C18.4238 16.3994 18.1438 16.6628 17.875 16.9211C16.9004 17.8568 15.907 18.7649 14.9465 19.6432C14.145 20.376 13.3207 21.1296 12.4998 21.9061C11.679 21.1298 10.8549 20.3764 10.0536 19.6436C9.09286 18.7653 8.09952 17.857 7.12467 16.9211C6.85574 16.6628 6.57593 16.3994 6.30509 16.1446C4.79657 14.7253 3.23674 13.2574 2.28726 11.5213C2.06601 11.117 1.89054 10.704 1.75912 10.2873H6.2204L7.59808 7.46804L11.4364 18.0967L14.1199 9.9455H23.3386C23.2024 10.4784 22.994 11.0067 22.7126 11.5213C21.763 13.2574 20.2031 14.7251 18.6946 16.1446V16.1446Z" fill="#E0F0FF"/>
    </g>
    <defs>
        <clipPath id="clip0">
            <rect width="25" height="25" fill="white"/>
        </clipPath>
    </defs>
</svg>
