<svg width="18" height="17" viewBox="0 0 18 17" fill="none" xmlns="http://www.w3.org/2000/svg">
    <path fill-rule="evenodd" clip-rule="evenodd" d="M11.1445 1C11.5091 1 11.8268 1.20624 12.0615 1.50461C12.348 1.86888 12.5166 2.37421 12.5166 2.92798C12.5166 3.48183 12.348 3.98714 12.0615 4.35139C11.8269 4.64977 11.5091 4.85596 11.1445 4.85596C10.78 4.85596 10.4622 4.64971 10.2276 4.3513C9.94113 3.98707 9.77246 3.4818 9.77246 2.92798C9.77246 2.37425 9.94116 1.86896 10.2276 1.5047C10.4623 1.2063 10.78 1 11.1445 1Z" stroke="#2873BE" stroke-width="2"/>
    <path fill-rule="evenodd" clip-rule="evenodd" d="M14.9459 5.04883C15.2344 5.04883 15.4896 5.19312 15.6766 5.40887C15.896 5.66211 16.0255 6.01357 16.0255 6.39841C16.0255 6.78326 15.896 7.13472 15.6766 7.38796C15.4896 7.60371 15.2344 7.748 14.9459 7.748C14.6574 7.748 14.4022 7.60371 14.2152 7.38796C13.9957 7.13472 13.8662 6.78326 13.8662 6.39841C13.8662 6.01357 13.9957 5.66211 14.2152 5.40887C14.4022 5.19312 14.6574 5.04883 14.9459 5.04883Z" stroke="#2873BE" stroke-width="2"/>
    <path fill-rule="evenodd" clip-rule="evenodd" d="M5.88134 1C5.51675 1 5.19903 1.20624 4.96439 1.50461C4.67792 1.86888 4.50926 2.37421 4.50926 2.92798C4.50926 3.48183 4.67788 3.98714 4.96433 4.35139C5.19898 4.64977 5.51673 4.85596 5.88134 4.85596C6.24589 4.85596 6.56364 4.64971 6.79831 4.3513C7.08475 3.98707 7.25342 3.4818 7.25342 2.92798C7.25342 2.37425 7.08472 1.86896 6.79826 1.5047C6.56359 1.2063 6.24587 1 5.88134 1Z" stroke="#2873BE" stroke-width="2"/>
    <path fill-rule="evenodd" clip-rule="evenodd" d="M2.08 5.04883C1.79148 5.04883 1.53631 5.19312 1.34932 5.40887C1.12985 5.66211 1.00033 6.01357 1.00033 6.39841C1.00033 6.78326 1.12985 7.13472 1.34932 7.38796C1.53631 7.60371 1.79148 7.748 2.08 7.748C2.36852 7.748 2.62369 7.60371 2.81068 7.38796C3.03015 7.13472 3.15967 6.78326 3.15967 6.39841C3.15967 6.01357 3.03015 5.66211 2.81068 5.40887C2.62369 5.19312 2.36852 5.04883 2.08 5.04883Z" stroke="#2873BE" stroke-width="2"/>
    <path fill-rule="evenodd" clip-rule="evenodd" d="M8.10349 7.74805L8.15232 7.75164C9.50468 7.75185 10.5573 8.39752 11.349 9.23994C12.592 10.5624 13.2366 12.3835 13.2366 13.1823C13.2366 13.7268 12.998 14.2176 12.6189 14.5737C12.224 14.9445 11.6776 15.1708 11.0758 15.1708C10.4122 15.1708 9.81538 14.8957 9.41572 14.4549L9.34485 14.3795C9.13319 14.1416 8.71093 13.9231 8.1772 13.9231C7.64783 13.9231 7.22849 14.1379 7.01497 14.3733L6.94295 14.4469C6.54332 14.8925 5.94331 15.1708 5.27559 15.1708C4.67381 15.1708 4.12739 14.9445 3.73248 14.5737C3.35334 14.2176 3.11475 13.7268 3.11475 13.1823C3.11475 12.3835 3.75874 10.5629 4.98837 9.23843C5.76928 8.39727 6.80422 7.74805 8.11148 7.74805H8.10349Z" stroke="#2873BE" stroke-width="2"/>
</svg>
