<?xml version="1.0" encoding="utf-8"?>
<svg width="33" height="31" viewBox="0 0 33 31" fill="none" xmlns="http://www.w3.org/2000/svg">
    <path d="M32.5101 6.33154C32.1135 5.86077 31.5331 5.59071 30.9175 5.59071H29.44C28.7841 4.43602 27.5574 3.71079 26.2058 3.71079H25.9003V1.46265C25.9003 1.10667 25.6117 0.818115 25.2557 0.818115C22.8532 0.818115 20.8986 2.77273 20.8986 5.17524V7.18935C20.8986 8.59116 20.1247 9.86134 18.8789 10.5041L16.7745 11.59C16.4582 11.7532 16.3341 12.142 16.4973 12.4583C16.6117 12.6801 16.837 12.8075 17.0706 12.8075C17.1701 12.8075 17.2711 12.7844 17.3656 12.7356L19.47 11.6497C21.1464 10.7848 22.1877 9.07565 22.1877 7.18942V5.17518C22.1877 3.70454 23.228 2.47219 24.6112 2.17525V4.35533C24.6112 4.71131 24.8998 4.99986 25.2557 4.99986H26.2058C27.1858 4.99986 28.0653 5.58323 28.4466 6.48604C28.5474 6.72471 28.7812 6.87985 29.0403 6.87985H30.9175C31.1519 6.87985 31.3731 6.98272 31.5242 7.16209C31.6752 7.34146 31.7391 7.57685 31.6992 7.80798L31.4607 9.19167C31.3093 10.0693 30.5531 10.7063 29.6626 10.7063H26.7931C26.7863 10.7063 26.7798 10.707 26.7731 10.7073C26.7664 10.7071 26.7599 10.7063 26.7531 10.7063C26.3972 10.7063 26.1086 10.9948 26.1086 11.3508V14.5023C26.1086 16.7821 25.6685 19.005 24.8006 21.1092C24.7471 21.2388 24.7375 21.3824 24.7728 21.518L26.3582 27.5811C26.3859 27.687 26.4401 27.784 26.5157 27.8632L27.0822 28.4564C27.1846 28.5636 27.1579 28.6779 27.1328 28.7363C27.1077 28.7948 27.0436 28.8931 26.8953 28.8931H24.7481L21.9781 21.716V18.7354C21.9781 18.3795 21.6895 18.0909 21.3336 18.0909C20.9776 18.0909 20.6891 18.3795 20.6891 18.7354V21.8361C20.6891 21.9155 20.7037 21.9942 20.7323 22.0682L23.3664 28.8929H21.0991C20.7879 26.8766 19.0409 25.3278 16.9388 25.3278H16.2113L15.9236 23.6206C15.616 21.796 14.2478 20.3689 12.4376 19.985L11.2184 19.7264C10.8705 19.6526 10.5281 19.875 10.4542 20.2232C10.3803 20.5714 10.6028 20.9135 10.951 20.9874L12.1702 21.246C13.4591 21.5193 14.4334 22.5355 14.6523 23.8348L14.904 25.3278H10.9328C10.5769 25.3278 10.2882 25.6163 10.2882 25.9723C10.2882 26.3283 10.5769 26.6168 10.9328 26.6168H16.9388C18.3278 26.6168 19.4934 27.5915 19.7876 28.8929H10.8275C7.60285 28.8929 4.97939 26.2694 4.97939 23.0448C4.97939 20.6279 6.31365 18.438 8.4615 17.3298L12.2119 15.3946C12.5282 15.2314 12.6523 14.8426 12.4891 14.5263C12.3259 14.21 11.937 14.0858 11.6208 14.2491L7.8704 16.1842C6.84146 16.7151 5.96869 17.4533 5.29057 18.3325C5.21935 17.9946 5.18313 17.6482 5.18313 17.2948C5.18313 15.4951 6.15825 13.827 7.72789 12.9416C8.15309 12.7017 8.35483 12.2212 8.22998 11.7458C8.09856 11.2454 7.649 10.8952 7.13492 10.8912C7.13195 10.8912 7.12911 10.8908 7.12615 10.8908C7.12428 10.8908 7.12235 10.8908 7.12041 10.8909C7.11964 10.8909 7.11893 10.891 7.11816 10.891C3.2697 10.8952 0.0778226 14.0649 0.00138059 17.9604C-0.051987 20.6786 1.44566 23.2111 3.8354 24.4807C4.50179 27.7303 7.38371 30.182 10.8275 30.182H26.8954C27.5252 30.182 28.0703 29.8222 28.318 29.2432C28.5657 28.6641 28.4494 28.0215 28.0144 27.5659L27.5631 27.0934L26.0741 21.3989C26.9524 19.1979 27.3976 16.8787 27.3976 14.5022V11.9953H29.6626C31.1822 11.9953 32.4727 10.9083 32.7309 9.41062L32.9695 8.02686C33.0742 7.42023 32.9067 6.80231 32.5101 6.33154V6.33154ZM1.29026 17.9857C1.34872 15.0069 3.6191 12.5449 6.47633 12.2171C4.86769 13.3919 3.89419 15.2775 3.89419 17.2948C3.89419 18.1635 4.06705 19 4.40782 19.7863C3.96663 20.7364 3.71752 21.7826 3.69335 22.8706C2.17063 21.7403 1.2523 19.9203 1.29026 17.9857Z" fill="#EA8C00"/>
    <path d="M26.8585 7.64508C26.9783 7.52519 27.0474 7.3589 27.0474 7.18939C27.0474 7.01988 26.9784 6.85359 26.8585 6.73371C26.7386 6.61383 26.5723 6.54486 26.4028 6.54486C26.2327 6.54486 26.067 6.61383 25.9471 6.73371C25.8267 6.85359 25.7583 7.01988 25.7583 7.18939C25.7583 7.3589 25.8267 7.52519 25.9471 7.64508C26.067 7.76496 26.2333 7.83392 26.4028 7.83392C26.5723 7.83392 26.738 7.76496 26.8585 7.64508Z" fill="#EA8C00"/>
    <path d="M14.4929 14.1368C14.6625 14.1368 14.8281 14.0685 14.9486 13.9486C15.0685 13.8281 15.1375 13.6624 15.1375 13.4929C15.1375 13.3234 15.0686 13.1571 14.9486 13.0366C14.8287 12.9167 14.6625 12.8484 14.4929 12.8484C14.3228 12.8484 14.1565 12.9167 14.0367 13.0366C13.9168 13.1565 13.8484 13.3228 13.8484 13.4929C13.8484 13.6624 13.9168 13.8287 14.0367 13.9486C14.1565 14.0685 14.3228 14.1368 14.4929 14.1368Z" fill="#EA8C00"/>
</svg>
