<?xml version="1.0" encoding="utf-8"?>
<svg width="25" height="25" viewBox="0 0 25 25" fill="none" xmlns="http://www.w3.org/2000/svg">
    <g clip-path="url(#clip0)">
        <path d="M24.6288 5.55419C24.3284 5.19754 23.8887 4.99295 23.4223 4.99295H22.303C21.8061 4.11819 20.8768 3.56877 19.8529 3.56877H19.6214V1.86563C19.6214 1.59595 19.4028 1.37735 19.1331 1.37735C17.313 1.37735 15.8323 2.85812 15.8323 4.6782V6.20405C15.8323 7.26602 15.246 8.22828 14.3022 8.71525L12.708 9.53786C12.4683 9.66154 12.3743 9.95603 12.4979 10.1957C12.5846 10.3637 12.7553 10.4602 12.9323 10.4602C13.0076 10.4602 13.0842 10.4427 13.1557 10.4057L14.75 9.58312C16.02 8.92785 16.8088 7.63306 16.8088 6.20409V4.67816C16.8088 3.56404 17.5969 2.63044 18.6448 2.40548V4.05706C18.6448 4.32674 18.8635 4.54534 19.1331 4.54534H19.8529C20.5953 4.54534 21.2616 4.98729 21.5504 5.67123C21.6268 5.85204 21.804 5.96957 22.0002 5.96957H23.4223C23.6 5.96957 23.7675 6.0475 23.8819 6.18339C23.9964 6.31928 24.0447 6.4976 24.0146 6.6727L23.8339 7.72095C23.7192 8.38585 23.1463 8.86837 22.4716 8.86837H20.2978C20.2927 8.86837 20.2877 8.86896 20.2827 8.86915C20.2776 8.86901 20.2726 8.86837 20.2675 8.86837C19.9979 8.86837 19.7792 9.08698 19.7792 9.35666V11.7441C19.7792 13.4713 19.4458 15.1553 18.7884 16.7494C18.7478 16.8476 18.7405 16.9563 18.7673 17.0591L19.9683 21.6523C19.9893 21.7325 20.0304 21.8061 20.0876 21.866L20.5168 22.3154C20.5944 22.3967 20.5742 22.4832 20.5552 22.5275C20.5362 22.5718 20.4876 22.6463 20.3752 22.6463H18.7486L16.6501 17.2091V14.9511C16.6501 14.6814 16.4314 14.4628 16.1618 14.4628C15.8921 14.4628 15.6735 14.6814 15.6735 14.9511V17.3001C15.6735 17.3602 15.6846 17.4198 15.7063 17.4759L17.7018 22.6462H15.9841C15.7484 21.1186 14.4249 19.9453 12.8324 19.9453H12.2813L12.0633 18.6519C11.8303 17.2697 10.7938 16.1885 9.42246 15.8977L8.49882 15.7018C8.23524 15.6459 7.97582 15.8144 7.91986 16.0781C7.8639 16.342 8.03241 16.6011 8.29623 16.6571L9.21987 16.853C10.1963 17.0601 10.9344 17.8299 11.1003 18.8142L11.2909 19.9453H8.28241C8.01278 19.9453 7.79413 20.1639 7.79413 20.4335C7.79413 20.7032 8.01278 20.9218 8.28241 20.9218H12.8324C13.8847 20.9218 14.7678 21.6602 14.9906 22.6461H8.20263C5.75973 22.6461 3.77227 20.6586 3.77227 18.2158C3.77227 16.3847 4.78307 14.7257 6.41023 13.8862L9.25146 12.4202C9.49106 12.2965 9.58511 12.002 9.46147 11.7623C9.33784 11.5227 9.04316 11.4286 8.80366 11.5523L5.96242 13.0184C5.18292 13.4206 4.52174 13.9797 4.00801 14.6458C3.95406 14.3898 3.92661 14.1274 3.92661 13.8597C3.92661 12.4963 4.66534 11.2326 5.85446 10.5618C6.17658 10.3801 6.32942 10.0161 6.23484 9.65593C6.13527 9.27677 5.7947 9.01154 5.40524 9.00851C5.40299 9.00846 5.40084 9.00817 5.3986 9.00817C5.39718 9.00817 5.39572 9.00817 5.39425 9.00822C5.39367 9.00822 5.39313 9.00831 5.39254 9.00831C2.47704 9.01154 0.0589565 11.4128 0.0010459 14.3639C-0.0393841 16.4232 1.0952 18.3417 2.90561 19.3036C3.41045 21.7653 5.59372 23.6227 8.20263 23.6227H20.3753C20.8524 23.6227 21.2654 23.3502 21.453 22.9115C21.6407 22.4728 21.5526 21.9859 21.223 21.6408L20.8811 21.2829L19.7531 16.9688C20.4185 15.3014 20.7558 13.5445 20.7558 11.7441V9.84489H22.4716C23.6229 9.84489 24.6006 9.0214 24.7962 7.88682L24.9769 6.83852C25.0562 6.37895 24.9293 5.91083 24.6288 5.55419V5.55419ZM0.97747 14.3831C1.02176 12.1265 2.74174 10.2613 4.90631 10.0129C3.68765 10.9029 2.95014 12.3314 2.95014 13.8597C2.95014 14.5178 3.0811 15.1515 3.33926 15.7472C3.00502 16.467 2.8163 17.2595 2.79799 18.0838C1.64442 17.2275 0.94871 15.8487 0.97747 14.3831Z" fill="#E0F0FF"/>
        <path d="M20.3472 6.54929C20.4379 6.45847 20.4902 6.33249 20.4902 6.20407C20.4902 6.07565 20.438 5.94968 20.3472 5.85886C20.2563 5.76804 20.1303 5.71579 20.002 5.71579C19.873 5.71579 19.7476 5.76804 19.6567 5.85886C19.5655 5.94968 19.5137 6.07565 19.5137 6.20407C19.5137 6.33249 19.5655 6.45847 19.6567 6.54929C19.7476 6.64011 19.8735 6.69235 20.002 6.69235C20.1303 6.69235 20.2559 6.64011 20.3472 6.54929Z" fill="#E0F0FF"/>
        <path d="M10.9795 11.4673C11.108 11.4673 11.2334 11.4155 11.3247 11.3247C11.4155 11.2334 11.4678 11.1079 11.4678 10.9795C11.4678 10.8511 11.4156 10.7251 11.3247 10.6338C11.2339 10.543 11.108 10.4912 10.9795 10.4912C10.8506 10.4912 10.7246 10.543 10.6338 10.6338C10.543 10.7246 10.4912 10.8506 10.4912 10.9795C10.4912 11.1079 10.543 11.2339 10.6338 11.3247C10.7247 11.4155 10.8506 11.4673 10.9795 11.4673Z" fill="#E0F0FF"/>
    </g>
    <defs>
        <clipPath id="clip0">
            <rect width="25" height="25" fill="white"/>
        </clipPath>
    </defs>
</svg>
