<?xml version="1.0" encoding="utf-8"?>
<svg width="76" height="76" viewBox="0 0 76 76" fill="none" xmlns="http://www.w3.org/2000/svg">
    <path d="M69.3203 27.4609H54.7679C56.0991 24.8787 56.8516 21.9514 56.8516 18.8516C56.8516 8.45678 48.3948 0 38 0C27.6052 0 19.1484 8.45678 19.1484 18.8516C19.1484 21.9514 19.9009 24.8787 21.2321 27.4609H6.67969C2.99651 27.4609 0 30.4574 0 34.1406V69.3203C0 71.5271 1.07647 73.4867 2.7311 74.7035C2.77341 74.7372 2.81794 74.7666 2.86217 74.7968C3.94517 75.5541 5.26092 76 6.67969 76H69.3203C70.7386 76 72.0541 75.5544 73.1369 74.7975C73.1815 74.7671 73.2264 74.7374 73.269 74.7035C74.9235 73.4865 76 71.5271 76 69.3203V34.1406C76 30.4574 73.0035 27.4609 69.3203 27.4609V27.4609ZM4.45312 69.3203V34.1406C4.45312 34.0011 4.46767 33.865 4.49231 33.7324L27.4117 51.5556L4.50716 69.8021C4.47272 69.6469 4.45312 69.486 4.45312 69.3203V69.3203ZM31.0243 54.3712L33.8852 56.6086C35.0966 57.5559 36.5483 58.0296 38.0001 58.0296C39.452 58.0296 40.9037 57.5559 42.1151 56.6086L44.9758 54.3712L66.5361 71.5469H9.46393L31.0243 54.3712ZM48.5883 51.5556L71.5077 33.7324C71.5323 33.865 71.5469 34.0011 71.5469 34.1406V69.3203C71.5469 69.486 71.5273 69.6469 71.4928 69.8021L48.5883 51.5556ZM38 4.45312C45.9393 4.45312 52.3984 10.9122 52.3984 18.8516C52.3984 26.7909 45.9393 33.25 38 33.25C30.0607 33.25 23.6016 26.7909 23.6016 18.8516C23.6016 10.9122 30.0607 4.45312 38 4.45312ZM38 37.7031C43.3285 37.7031 48.147 35.4804 51.5789 31.9141H66.5919L43.6167 49.7807L39.3717 53.1007C38.5641 53.7324 37.4359 53.7323 36.6283 53.1007L32.3784 49.7769L9.40797 31.9141H24.4209C27.853 35.4804 32.6715 37.7031 38 37.7031V37.7031Z" fill="#E0F0FF"/>
</svg>