<?xml version="1.0" encoding="utf-8"?>
<svg width="43" height="43" viewBox="0 0 43 43" fill="none" xmlns="http://www.w3.org/2000/svg">
    <g clip-path="url(#clip0)">
        <path d="M29.5043 33.9256C28.5275 34.9024 27.1879 35.5162 25.7165 35.5347C25.0204 35.5434 24.3405 35.423 23.6956 35.1767C22.0271 34.5394 20.1893 34.5394 18.5208 35.1767C17.8759 35.4231 17.196 35.5435 16.4999 35.5347C13.5503 35.4975 11.1289 33.0672 11.1024 30.1171C11.0915 28.9169 11.4627 27.7744 12.1755 26.8131C12.5811 26.2662 12.7921 25.6304 12.786 24.9744L12.7857 24.9238C12.7857 23.1118 13.6813 21.423 15.3076 20.1686C16.8662 18.9664 18.9257 18.3044 21.1067 18.3044C23.2878 18.3044 25.3473 18.9664 26.9059 20.1686C28.5321 21.4231 29.4278 23.1118 29.4278 24.9238L29.4276 24.9694C29.422 25.6278 29.6333 26.2642 30.0389 26.8105C30.7528 27.772 31.1245 28.9149 31.114 30.1157C31.1012 31.5949 30.4861 32.9438 29.5043 33.9256V33.9256ZM15.8305 22.0367C15.0226 22.8446 14.5445 23.8435 14.5445 24.9238L14.5446 24.9574C14.5545 25.9999 14.2238 27.0037 13.5882 27.8607C13.1052 28.5122 12.8537 29.287 12.861 30.1014C12.879 32.1024 14.5214 33.7509 16.5221 33.7761C16.9953 33.7821 17.4567 33.7006 17.8933 33.5338C19.9664 32.742 22.25 32.742 24.3232 33.5338C24.7598 33.7006 25.2211 33.7821 25.6943 33.7762C27.6956 33.751 29.338 32.102 29.3554 30.1004C29.3626 29.2856 29.1106 28.5105 28.6269 27.859C27.9913 27.0028 27.66 25.9986 27.669 24.955L27.6691 24.9239C27.6691 23.6694 27.0166 22.4753 25.8318 21.5614C24.5792 20.5953 22.9012 20.0632 21.1068 20.0632C18.9468 20.0631 17.027 20.8402 15.8305 22.0367V22.0367Z" fill="#EA8C00"/>
        <path d="M18.9429 15.0823C18.2257 15.7995 17.3303 16.1888 16.3764 16.1888C15.2632 16.1889 14.2295 15.6584 13.4658 14.6954C12.7497 13.7922 12.3553 12.6033 12.3553 11.3474C12.3553 10.0916 12.7497 8.90259 13.4658 7.99943C14.2297 7.03642 15.2632 6.50606 16.3764 6.50598C17.4897 6.50598 18.5233 7.03638 19.2871 7.99944C20.0032 8.90255 20.3976 10.0915 20.3976 11.3474C20.3976 12.6032 20.0032 13.7922 19.287 14.6954C19.1777 14.8333 19.0628 14.9624 18.9429 15.0823V15.0823ZM15.0484 8.86213C14.9775 8.93298 14.9093 9.00971 14.8438 9.0922C14.3732 9.68574 14.114 10.4867 14.114 11.3473C14.114 12.2081 14.3732 13.009 14.8438 13.6025C15.267 14.1362 15.8113 14.43 16.3764 14.4301C16.9416 14.4301 17.4859 14.136 17.909 13.6026C18.3797 13.0091 18.6389 12.2081 18.6389 11.3474C18.6389 10.4866 18.3797 9.68574 17.909 9.09225C17.4859 8.55861 16.9416 8.26478 16.3764 8.26478C15.8986 8.26474 15.4357 8.47479 15.0484 8.86213V8.86213Z" fill="#EA8C00"/>
        <path d="M10.9114 23.7467C10.1941 24.464 9.29883 24.8532 8.34501 24.8533C7.23173 24.8533 6.19807 24.323 5.43437 23.3599C4.71821 22.4568 4.32382 21.2678 4.32382 20.0119C4.32382 18.7561 4.71825 17.5671 5.43433 16.6639C6.1982 15.7008 7.23177 15.1705 8.34493 15.1705C9.45822 15.1705 10.4919 15.7008 11.2556 16.6639C11.9718 17.5671 12.3662 18.756 12.3661 20.0119C12.3662 21.2677 11.9717 22.4568 11.2556 23.3599C11.1463 23.4977 11.0313 23.6268 10.9114 23.7467V23.7467ZM7.01695 17.5266C6.94611 17.5974 6.87784 17.6742 6.81242 17.7567C6.34175 18.3502 6.08254 19.1511 6.08254 20.0118C6.08254 20.8726 6.34179 21.6735 6.81242 22.2671C7.23558 22.8007 7.77983 23.0946 8.34501 23.0946C8.91011 23.0946 9.4544 22.8009 9.87756 22.2671C10.3482 21.6735 10.6074 20.8726 10.6074 20.0118C10.6074 19.1511 10.3482 18.3502 9.87756 17.7567C9.45444 17.2231 8.91015 16.9293 8.34501 16.9292C7.86722 16.9292 7.4043 17.1393 7.01695 17.5266V17.5266Z" fill="#EA8C00"/>
        <path d="M28.8258 15.0823C28.1085 15.7995 27.2132 16.1888 26.2593 16.1889C25.146 16.1889 24.1124 15.6586 23.3487 14.6955C22.6325 13.7923 22.2382 12.6034 22.2382 11.3475C22.2382 10.0917 22.6326 8.90265 23.3488 7.99953C24.1122 7.03634 25.1461 6.5061 26.2594 6.50606C27.3726 6.50601 28.4063 7.03637 29.17 7.99947C29.8862 8.90258 30.2806 10.0916 30.2806 11.3474C30.2805 12.6033 29.8861 13.7923 29.17 14.6954C29.0606 14.8333 28.9456 14.9624 28.8258 15.0823V15.0823ZM24.9313 8.86218C24.8605 8.93302 24.7922 9.00976 24.7268 9.09225C24.2561 9.68579 23.9969 10.4867 23.9969 11.3475C23.9969 12.2082 24.256 13.0091 24.7267 13.6026C25.1499 14.1362 25.6941 14.4301 26.2593 14.4301C26.8245 14.4301 27.3689 14.1363 27.7919 13.6026C28.2625 13.0091 28.5217 12.2081 28.5218 11.3474C28.5218 10.4867 28.2626 9.68573 27.7919 9.09224C27.3688 8.5586 26.8245 8.26478 26.2593 8.26474C25.7815 8.26474 25.3187 8.47479 24.9313 8.86218V8.86218Z" fill="#EA8C00"/>
        <path d="M36.6541 23.7467C35.9369 24.464 35.0415 24.8533 34.0877 24.8533C32.9744 24.8533 31.9408 24.323 31.1771 23.3599C30.4609 22.4568 30.0665 21.2678 30.0665 20.0119C30.0665 18.7561 30.4609 17.5671 31.1771 16.664C31.9406 15.7008 32.9745 15.1705 34.0877 15.1705C35.201 15.1704 36.2347 15.7008 36.9984 16.6639C37.7145 17.567 38.1089 18.756 38.1089 20.0118C38.1089 21.2677 37.7145 22.4567 36.9984 23.3598C36.889 23.4978 36.774 23.6268 36.6541 23.7467V23.7467ZM32.7597 17.5266C32.6888 17.5975 32.6206 17.6742 32.5552 17.7567C32.0845 18.3503 31.8253 19.1512 31.8253 20.0119C31.8253 20.8727 32.0844 21.6736 32.5551 22.2671C32.9783 22.8007 33.5225 23.0946 34.0877 23.0946C34.6528 23.0946 35.1973 22.8006 35.6203 22.2671C36.0909 21.6735 36.3501 20.8726 36.3502 20.0119C36.3502 19.1511 36.091 18.3502 35.6203 17.7567C35.1971 17.2231 34.6529 16.9293 34.0877 16.9292C33.6099 16.9292 33.1471 17.1393 32.7597 17.5266V17.5266Z" fill="#EA8C00"/>
    </g>
    <defs>
        <clipPath id="clip0">
            <rect width="30" height="30" fill="white" transform="translate(0 21.2132) rotate(-45)"/>
        </clipPath>
    </defs>
</svg>
