<svg width="36" height="36" viewBox="0 0 36 36" fill="none" xmlns="http://www.w3.org/2000/svg">
    <g clip-path="url(#clip0)">
        <path d="M25.0302 28.5937C24.2162 29.4077 23.0999 29.9192 21.8737 29.9346C21.2937 29.9419 20.7271 29.8415 20.1897 29.6363C18.7993 29.1052 17.2677 29.1052 15.8773 29.6363C15.3399 29.8416 14.7734 29.9419 14.1933 29.9346C11.7352 29.9036 9.71743 27.8784 9.69528 25.42C9.68627 24.4198 9.99555 23.4677 10.5896 22.6666C10.9275 22.2109 11.1034 21.681 11.0983 21.1344L11.0981 21.0922C11.0981 19.5822 11.8444 18.1749 13.1996 17.1296C14.4985 16.1277 16.2147 15.576 18.0322 15.576C19.8498 15.576 21.5661 16.1277 22.8649 17.1296C24.2201 18.1749 24.9665 19.5822 24.9665 21.0922L24.9663 21.1302C24.9616 21.6789 25.1378 22.2092 25.4757 22.6645C26.0706 23.4657 26.3804 24.4181 26.3717 25.4188C26.361 26.6515 25.8484 27.7756 25.0302 28.5937V28.5937ZM13.6354 18.6863C12.9621 19.3596 12.5637 20.1919 12.5637 21.0922L12.5639 21.1202C12.572 21.989 12.2964 22.8254 11.7668 23.5397C11.3643 24.0825 11.1547 24.7282 11.1608 25.4068C11.1758 27.0744 12.5444 28.4481 14.2117 28.4691C14.6061 28.4741 14.9905 28.4062 15.3544 28.2672C17.082 27.6074 18.985 27.6074 20.7126 28.2672C21.0765 28.4062 21.4609 28.4742 21.8552 28.4692C23.523 28.4482 24.8916 27.074 24.9062 25.406C24.9121 24.727 24.7022 24.0811 24.2991 23.5382C23.7694 22.8247 23.4933 21.9879 23.5008 21.1182L23.5009 21.0923C23.5009 20.0469 22.9571 19.0518 21.9698 18.2902C20.926 17.4851 19.5277 17.0417 18.0323 17.0417C16.2324 17.0417 14.6325 17.6892 13.6354 18.6863V18.6863Z" fill="#E0F0FF"/>
        <path d="M16.2289 12.891C15.6312 13.4887 14.885 13.8131 14.0901 13.8131C13.1624 13.8131 12.3011 13.3711 11.6646 12.5685C11.0679 11.8159 10.7392 10.8251 10.7392 9.77853C10.7392 8.73203 11.0678 7.74121 11.6646 6.98858C12.3012 6.18607 13.1624 5.74411 14.0901 5.74404C15.0178 5.74404 15.8792 6.18604 16.5157 6.98859C17.1125 7.74118 17.4411 8.732 17.4411 9.77854C17.4411 10.8251 17.1124 11.8159 16.5156 12.5685C16.4245 12.6835 16.3288 12.7911 16.2289 12.891V12.891ZM12.9834 7.7075C12.9244 7.76654 12.8675 7.83048 12.813 7.89922C12.4208 8.39384 12.2048 9.06128 12.2048 9.7785C12.2048 10.4958 12.4208 11.1632 12.813 11.6578C13.1656 12.1025 13.6192 12.3474 14.0901 12.3474C14.5611 12.3474 15.0147 12.1024 15.3673 11.6579C15.7595 11.1633 15.9755 10.4958 15.9755 9.77854C15.9755 9.06125 15.7595 8.39384 15.3673 7.89926C15.0147 7.45456 14.5611 7.20971 14.0901 7.20971C13.692 7.20967 13.3062 7.38471 12.9834 7.7075V7.7075Z" fill="#E0F0FF"/>
        <path d="M9.53601 20.1113C8.93828 20.709 8.19218 21.0334 7.39733 21.0334C6.4696 21.0334 5.60822 20.5915 4.9718 19.7889C4.375 19.0363 4.04634 18.0455 4.04634 16.9989C4.04634 15.9524 4.37503 14.9616 4.97176 14.209C5.60832 13.4063 6.46963 12.9645 7.39726 12.9644C8.325 12.9644 9.18641 13.4064 9.82283 14.209C10.4196 14.9616 10.7483 15.9524 10.7483 16.9989C10.7483 18.0455 10.4196 19.0363 9.8228 19.7889C9.73174 19.9038 9.63591 20.0114 9.53601 20.1113V20.1113ZM6.29062 14.9279C6.23158 14.9869 6.17469 15.0508 6.12017 15.1196C5.72795 15.6142 5.51194 16.2816 5.51194 16.9989C5.51194 17.7162 5.72798 18.3836 6.12017 18.8783C6.47281 19.3229 6.92635 19.5678 7.39733 19.5678C7.86825 19.5678 8.32182 19.3231 8.67446 18.8782C9.06668 18.3836 9.28269 17.7162 9.28269 16.9989C9.28269 16.2816 9.06668 15.6142 8.67446 15.1196C8.32186 14.6749 7.86828 14.4301 7.39733 14.43C6.99917 14.43 6.61341 14.6051 6.29062 14.9279V14.9279Z" fill="#E0F0FF"/>
        <path d="M24.4647 12.8909C23.867 13.4886 23.1209 13.8131 22.3261 13.8131C21.3983 13.8131 20.5369 13.3712 19.9005 12.5686C19.3037 11.816 18.9751 10.8252 18.9751 9.7786C18.9751 8.73209 19.3038 7.74124 19.9006 6.98864C20.5368 6.18599 21.3984 5.74412 22.3261 5.74408C23.2538 5.74404 24.1152 6.18601 24.7516 6.98859C25.3484 7.74118 25.6771 8.732 25.6771 9.77854C25.6771 10.8251 25.3484 11.8159 24.7516 12.5685C24.6604 12.6834 24.5646 12.791 24.4647 12.8909V12.8909ZM21.2194 7.70752C21.1603 7.76655 21.1034 7.8305 21.0489 7.89924C20.6567 8.39386 20.4407 9.0613 20.4407 9.77859C20.4407 10.4959 20.6566 11.1633 21.0489 11.6579C21.4015 12.1026 21.855 12.3475 22.326 12.3475C22.797 12.3475 23.2507 12.1026 23.6032 11.6579C23.9954 11.1632 24.2114 10.4958 24.2114 9.77854C24.2114 9.06125 23.9954 8.39381 23.6032 7.89923C23.2506 7.45454 22.797 7.20968 22.326 7.20965C21.9279 7.20965 21.5422 7.38469 21.2194 7.70752V7.70752Z" fill="#E0F0FF"/>
        <path d="M30.9884 20.1113C30.3907 20.709 29.6446 21.0334 28.8497 21.0334C27.922 21.0334 27.0606 20.5915 26.4242 19.7889C25.8274 19.0363 25.4987 18.0455 25.4987 16.9989C25.4987 15.9524 25.8274 14.9616 26.4242 14.209C27.0605 13.4064 27.922 12.9645 28.8497 12.9644C29.7775 12.9644 30.6389 13.4063 31.2753 14.2089C31.8721 14.9615 32.2007 15.9523 32.2008 16.9989C32.2007 18.0454 31.872 19.0363 31.2753 19.7889C31.1842 19.9038 31.0883 20.0114 30.9884 20.1113V20.1113ZM27.7431 14.9279C27.684 14.9869 27.6271 15.0509 27.5726 15.1196C27.1804 15.6142 26.9644 16.2817 26.9644 16.999C26.9644 17.7163 27.1804 18.3837 27.5726 18.8783C27.9252 19.3229 28.3788 19.5678 28.8497 19.5678C29.3207 19.5679 29.7744 19.3229 30.1269 18.8782C30.5191 18.3836 30.7351 17.7162 30.7351 16.9989C30.7351 16.2816 30.5191 15.6142 30.1269 15.1196C29.7743 14.6749 29.3207 14.4301 28.8497 14.43C28.4516 14.43 28.0659 14.6051 27.7431 14.9279V14.9279Z" fill="#E0F0FF"/>
    </g>
    <defs>
        <clipPath id="clip0">
            <rect width="25" height="25" fill="white" transform="translate(0.443359 18) rotate(-45)"/>
        </clipPath>
    </defs>
</svg>
