<svg width="42" height="42" viewBox="0 0 42 42" fill="none" xmlns="http://www.w3.org/2000/svg">
    <path d="M16.0781 24.6914H13.6172V27.1523H11.1562V29.6133H13.6172V32.0742H16.0781V29.6133H18.5391V27.1523H16.0781V24.6914Z" fill="#EA8C00"/>
    <path d="M14.8477 19.7695C10.0983 19.7695 6.23438 23.6334 6.23438 28.3828C6.23438 33.1322 10.0983 36.9961 14.8477 36.9961C19.597 36.9961 23.4609 33.1322 23.4609 28.3828C23.4609 23.6334 19.597 19.7695 14.8477 19.7695ZM14.8477 34.5352C11.4553 34.5352 8.69531 31.7752 8.69531 28.3828C8.69531 24.9904 11.4553 22.2305 14.8477 22.2305C18.2401 22.2305 21 24.9904 21 28.3828C21 31.7752 18.2401 34.5352 14.8477 34.5352Z" fill="#EA8C00"/>
    <path d="M21 12.475V7.38281H18.5391V4.92188H25.9219V2.46094H18.5391V0H11.1562V7.38281H8.69531V12.475C4.52673 13.0739 1.3125 16.6683 1.3125 21V42H28.3828V21C28.3828 16.6683 25.1686 13.0739 21 12.475ZM13.6172 2.46094H16.0781V7.38281H13.6172V2.46094ZM11.1562 9.84375H18.5391V12.3867H11.1562V9.84375ZM25.9219 39.5391H3.77344V21C3.77344 17.6076 6.53338 14.8477 9.92578 14.8477H19.7695C23.1619 14.8477 25.9219 17.6076 25.9219 21V39.5391Z" fill="#EA8C00"/>
    <path d="M28.3828 2.46094H30.8438V4.92188H28.3828V2.46094Z" fill="#EA8C00"/>
    <path d="M33.3047 0H35.7656V2.46094H33.3047V0Z" fill="#EA8C00"/>
    <path d="M33.3047 4.92188H35.7656V7.38281H33.3047V4.92188Z" fill="#EA8C00"/>
    <path d="M38.2266 0H40.6875V2.46094H38.2266V0Z" fill="#EA8C00"/>
    <path d="M38.2266 4.92188H40.6875V7.38281H38.2266V4.92188Z" fill="#EA8C00"/>
</svg>
