<svg width="40" height="40" viewBox="0 0 40 40" fill="none" xmlns="http://www.w3.org/2000/svg">
    <path d="M37.0088 16.5234L23.4766 2.99117C23.2227 1.30047 21.7603 0 20 0C18.2397 0 16.7773 1.30047 16.5234 2.99117L2.99117 16.5234C1.30047 16.7773 0 18.2397 0 20C0 21.7603 1.30047 23.2227 2.99117 23.4766L16.5234 37.0088C16.7773 38.6995 18.2397 40 20 40C21.7603 40 23.2227 38.6995 23.4766 37.0088L37.0088 23.4766C38.6995 23.2227 40 21.7603 40 20C40 18.2397 38.6995 16.7773 37.0088 16.5234V16.5234ZM29.4141 12.2432L32.4443 15.2734L15.2734 32.4443L12.2432 29.4141L29.4141 12.2432ZM10.5859 27.7568L7.5557 24.7266L24.7266 7.5557L27.7568 10.5859L10.5859 27.7568ZM3.51562 21.1719C2.86945 21.1719 2.34375 20.6462 2.34375 20C2.34375 19.3538 2.86945 18.8281 3.51562 18.8281H4.00102L18.8281 4.00102V3.51562C18.8281 2.86945 19.3538 2.34375 20 2.34375C20.6462 2.34375 21.1719 2.86945 21.1719 3.51562V4.00102L23.0693 5.89844L5.89844 23.0693L4.00102 21.1719H3.51562ZM36.4844 21.1719H35.999L21.1719 35.999V36.4844C21.1719 37.1305 20.6462 37.6562 20 37.6562C19.3538 37.6562 18.8281 37.1305 18.8281 36.4844V35.999L16.9307 34.1016L34.1016 16.9307L35.999 18.8281H36.4844C37.1305 18.8281 37.6562 19.3538 37.6562 20C37.6562 20.6462 37.1305 21.1719 36.4844 21.1719V21.1719Z" fill="#EA8C00"/>
</svg>
