<svg width="38" height="38" viewBox="0 0 38 38" fill="none" xmlns="http://www.w3.org/2000/svg">
    <g clip-path="url(#clip0)">
        <path d="M32.435 5.56496C28.8465 1.97636 24.075 0 19 0C13.925 0 9.15355 1.97636 5.56496 5.56496C1.97636 9.15355 0 13.925 0 19C0 24.075 1.97636 28.8465 5.56496 32.435C9.15355 36.0236 13.925 38 19 38C24.075 38 28.8465 36.0236 32.435 32.435C36.0236 28.8465 38 24.075 38 19C38 13.925 36.0236 9.15355 32.435 5.56496V5.56496ZM35.5447 16.2211C31.6372 18.455 26.6358 17.8163 23.4096 14.5901C20.1837 11.3642 19.545 6.36281 21.7789 2.45531C25.2028 3.02296 28.3577 4.63635 30.8605 7.1395C33.3636 9.64235 34.977 12.7972 35.5447 16.2211ZM2.45531 21.7789C6.36281 19.545 11.3642 20.1837 14.5904 23.4099C17.8163 26.6358 18.455 31.6372 16.2211 35.5447C12.7972 34.977 9.64235 33.3636 7.1395 30.8605C4.63635 28.3577 3.02296 25.2028 2.45531 21.7789ZM30.8605 30.8605C27.6926 34.0287 23.4804 35.7734 19 35.7734C18.8701 35.7734 18.7405 35.7717 18.6109 35.7688C20.7752 31.1467 19.8637 25.5347 16.1646 21.8354C12.4653 18.136 6.85335 17.2248 2.2312 19.3891C2.2283 19.2595 2.22656 19.1299 2.22656 19C2.22656 14.5196 3.97128 10.3074 7.1395 7.1395C10.3074 3.97128 14.5196 2.22656 19 2.22656C19.1299 2.22656 19.2595 2.2283 19.3891 2.2312C17.2248 6.85335 18.1363 12.4653 21.8354 16.1646C24.2113 18.5402 27.3757 19.7663 30.5604 19.7663C32.3347 19.7663 34.1151 19.3856 35.7688 18.6115C35.7717 18.7408 35.7734 18.8704 35.7734 19C35.7734 23.4804 34.0287 27.6926 30.8605 30.8605V30.8605Z" fill="#EA8C00"/>
    </g>
    <defs>
        <clipPath id="clip0">
            <rect width="38" height="38" fill="white"/>
        </clipPath>
    </defs>
</svg>
