<svg width="35" height="35" viewBox="0 0 35 35" fill="none" xmlns="http://www.w3.org/2000/svg">
    <g clip-path="url(#clip0)">
        <path d="M20.5361 0H8.81302V7.16305H6.82819C3.06309 7.16305 0 10.2261 0 13.9912V19.5708H20.5361V0ZM18.4821 6.63673H17.3139C15.6001 6.63673 14.2059 5.24231 14.2059 3.52852V2.05399H18.4821V6.63673ZM6.82819 9.21703H10.867V2.05399H12.1519V3.52852C12.1519 6.37505 14.4676 8.69072 17.3139 8.69072H18.4821V13.6906H2.0644C2.22008 11.1979 4.29676 9.21703 6.82819 9.21703ZM2.05399 17.5168V15.7446H18.4821V17.5168H2.05399Z" fill="#EA8C00"/>
        <path d="M16.6052 5.15384C17.1425 5.15384 17.6571 4.68147 17.6322 4.12685C17.6074 3.57036 17.1812 3.09985 16.6052 3.09985C16.0682 3.09985 15.5537 3.57223 15.5785 4.12685C15.6033 4.68307 16.0295 5.15384 16.6052 5.15384V5.15384Z" fill="#EA8C00"/>
        <path d="M23.2771 15.4292V22.5922H21.2923C17.5272 22.5922 14.4644 25.6553 14.4644 29.4204V35H35.0002V15.4292H23.2771ZM32.9462 22.1169H31.7814C30.0676 22.1169 28.6735 20.7228 28.6735 19.009V17.4832H32.9462V22.1169ZM21.2923 24.6462H25.3311V17.4832H26.6195V19.0087C26.6195 21.8552 28.9352 24.1709 31.7814 24.1709H32.9462V29.1198H16.5285C16.6842 26.6271 18.7608 24.6462 21.2923 24.6462V24.6462ZM16.5181 32.946V31.1738H32.9462V32.946H16.5181Z" fill="#EA8C00"/>
        <path d="M30.9844 20.4905C31.5214 20.4905 32.036 20.0181 32.0111 19.4635C31.9863 18.9073 31.5601 18.4365 30.9844 18.4365C30.4471 18.4365 29.9326 18.9089 29.9574 19.4635C29.9822 20.02 30.4087 20.4905 30.9844 20.4905Z" fill="#EA8C00"/>
    </g>
    <defs>
        <clipPath id="clip0">
            <rect width="35" height="35" fill="white"/>
        </clipPath>
    </defs>
</svg>
