<svg width="40" height="40" viewBox="0 0 40 40" fill="none" xmlns="http://www.w3.org/2000/svg">
    <path d="M36.958 10.6552C36.7327 9.0775 36.4652 7.82414 36.1632 6.92992C36.043 6.57422 35.7987 5.85125 35.3125 5.35719V0H33.8026L32.0112 0.835781L30.0437 0.0707813L28.0346 0.852031L26.0256 0.0707813L24.0166 0.852031L22.0075 0.0707813L19.9987 0.852031L17.99 0.0707813L15.9815 0.852031L13.9727 0.0707813L11.9638 0.852031L9.95508 0.0707813L7.9882 0.835781L6.1975 0H4.6875V5.35719C4.20125 5.85125 3.95695 6.57422 3.8368 6.92992C3.53477 7.82414 3.26734 9.0775 3.04195 10.6552C2.59172 13.807 2.34375 17.9859 2.34375 22.4219C2.34375 26.8578 2.59172 31.0367 3.04203 34.1886C3.26742 35.7663 3.53484 37.0196 3.83687 37.9138C4.02953 38.4844 4.54141 40 5.85938 40H34.1406C35.4586 40 35.9705 38.4844 36.1632 37.9138C36.4652 37.0196 36.7327 35.7663 36.958 34.1886C37.4083 31.0367 37.6562 26.8578 37.6562 22.4219C37.6562 17.9859 37.4083 13.807 36.958 10.6552ZM6.47883 32.9315C6.27352 34.6137 6.05133 35.7377 5.85938 36.4803C5.66742 35.7377 5.44523 34.6137 5.23992 32.9315C4.88367 30.0128 4.6875 26.2804 4.6875 22.4219C4.6875 18.5634 4.88367 14.8309 5.23992 11.9123C5.44523 10.2301 5.66742 9.10602 5.85938 8.36344C6.05133 9.10594 6.27352 10.2301 6.47883 11.9123C6.83508 14.8309 7.03125 18.5634 7.03125 22.4219C7.03125 26.2804 6.83508 30.0128 6.47883 32.9315ZM7.03125 2.97555L7.90445 3.38305L9.95508 2.58555L11.9638 3.3668L13.9727 2.58555L15.9816 3.3668L17.9901 2.58555L19.9987 3.3668L22.0075 2.58555L24.0165 3.3668L26.0255 2.58555L28.0345 3.3668L30.0437 2.58555L32.0949 3.38305L32.9688 2.97531V4.84375H7.03125V2.97555ZM34.7601 32.9315C34.3798 36.0467 33.9419 37.248 33.7448 37.6562H7.96445C8.23273 36.7847 8.47211 35.6208 8.67672 34.1886C9.12703 31.0367 9.375 26.8578 9.375 22.4219C9.375 17.9859 9.12703 13.807 8.67672 10.6552C8.47211 9.22297 8.23273 8.05906 7.96445 7.1875H33.7448C33.9419 7.5957 34.3798 8.79711 34.7601 11.9123C35.1163 14.8309 35.3125 18.5634 35.3125 22.4219C35.3125 26.2804 35.1163 30.0128 34.7601 32.9315Z" fill="#EA8C00"/>
    <path d="M22.2656 23.0198C20.1909 23.0198 18.1162 25.9502 18.1162 27.6878C18.1162 28.404 19.0451 28.9845 20.1909 28.9845C21.0986 28.9845 21.3839 28.5956 22.2656 28.5956C23.1473 28.5956 23.4326 28.9845 24.3403 28.9845C25.4861 28.9845 26.415 28.404 26.415 27.6878C26.415 25.9503 24.3403 23.0198 22.2656 23.0198Z" fill="#EA8C00"/>
    <path d="M19.931 21.6711C20.7904 21.6711 21.487 20.5099 21.487 19.0774C21.487 17.6449 20.7904 16.4836 19.931 16.4836C19.0717 16.4836 18.375 17.6449 18.375 19.0774C18.375 20.5099 19.0717 21.6711 19.931 21.6711Z" fill="#EA8C00"/>
    <path d="M24.599 21.6711C25.4583 21.6711 26.155 20.5099 26.155 19.0774C26.155 17.6449 25.4583 16.4836 24.599 16.4836C23.7396 16.4836 23.043 17.6449 23.043 19.0774C23.043 20.5099 23.7396 21.6711 24.599 21.6711Z" fill="#EA8C00"/>
    <path d="M17.9807 24.0733C18.4769 23.7869 18.5307 22.9513 18.1011 22.2071C17.6714 21.4629 16.9208 21.0918 16.4247 21.3783C15.9286 21.6648 15.8747 22.5003 16.3044 23.2445C16.7341 23.9887 17.4846 24.3598 17.9807 24.0733Z" fill="#EA8C00"/>
    <path d="M28.2246 23.2455C28.6543 22.5013 28.6004 21.6658 28.1043 21.3793C27.6081 21.0929 26.8576 21.4639 26.4279 22.2082C25.9982 22.9524 26.0521 23.7879 26.5482 24.0743C27.0444 24.3608 27.7949 23.9897 28.2246 23.2455Z" fill="#EA8C00"/>
</svg>
