<svg width="40" height="40" viewBox="0 0 40 40" fill="none" xmlns="http://www.w3.org/2000/svg">
    <path d="M40 22.0589H38.1346L36.0262 12.1774C35.6602 10.4623 34.0942 9.21742 32.3026 9.21742H27.5V3.53711H12.5V9.21742H7.69742C5.9057 9.21742 4.33969 10.4623 3.97383 12.1773L1.86539 22.0589H0V24.4027H1.71523L3.95938 33.5594C4.3525 35.2695 5.87687 36.4629 7.67047 36.4629H32.3296C34.1232 36.4629 35.6476 35.2695 36.0407 33.5594L38.2848 24.4027H40V22.0589ZM14.8438 5.88086H25.1562V9.21742H14.8438V5.88086ZM6.26602 12.6665C6.40266 12.026 7.00461 11.5612 7.69742 11.5612H32.3025C32.9953 11.5612 33.5973 12.0261 33.7339 12.6665L35.738 22.0589H4.26187L6.26602 12.6665ZM33.7621 33.0103L33.7573 33.0302C33.6143 33.6612 33.0137 34.1191 32.3295 34.1191H7.67047C6.98617 34.1191 6.3857 33.6611 6.24266 33.0302L4.12828 24.4027H35.8718L33.7621 33.0103Z" fill="#EA8C00"/>
    <path d="M12.5 14.3074H14.8438V19.2291H12.5V14.3074Z" fill="#EA8C00"/>
    <path d="M18.8281 14.3074H21.1719V19.2291H18.8281V14.3074Z" fill="#EA8C00"/>
    <path d="M25.1562 14.3074H27.5V19.2291H25.1562V14.3074Z" fill="#EA8C00"/>
</svg>
