<svg width="42" height="42" viewBox="0 0 42 42" fill="none" xmlns="http://www.w3.org/2000/svg">
    <path d="M35.4507 9.14115C31.5707 7.53121 26.4388 6.64453 21 6.64453C15.5612 6.64453 10.4292 7.53121 6.54921 9.14115C2.32591 10.8935 0 13.3571 0 16.0781V25.9219C0 28.6429 2.32591 31.1065 6.54921 32.8588C10.4292 34.4688 15.5612 35.3555 21 35.3555C26.4388 35.3555 31.5707 34.4688 35.4507 32.8588C39.6741 31.1065 42 28.6429 42 25.9219V16.0781C42 13.3571 39.6741 10.8935 35.4507 9.14115ZM15.8814 32.6119C7.76967 31.6914 2.46094 28.6756 2.46094 25.9219V20.6336C3.51061 21.5196 4.88127 22.323 6.54921 23.0151C9.27765 24.1472 12.6257 24.9211 16.2637 25.281C15.3799 26.3465 14.8477 27.7138 14.8477 29.2031C14.8477 30.4631 15.2289 31.6354 15.8814 32.6119ZM8.14579 21.0015C11.6097 19.6986 16.2096 18.9492 21 18.9492C25.7904 18.9492 30.3903 19.6987 33.8542 21.0015C30.621 22.2233 26.1837 23.0508 21 23.0508C15.8163 23.0508 11.379 22.2233 8.14579 21.0015ZM39.5391 25.9219C39.5391 29.2199 31.9254 32.8945 21 32.8945C18.9646 32.8945 17.3086 31.2386 17.3086 29.2031C17.3086 27.1677 18.9646 25.5117 21 25.5117C26.4388 25.5117 31.5707 24.625 35.4507 23.0151C37.1187 22.323 38.4894 21.5196 39.5391 20.6336V25.9219ZM36.7849 19.5941C32.8425 17.6153 27.1454 16.4883 21 16.4883C14.8546 16.4883 9.15756 17.6153 5.21514 19.5941C3.4458 18.4989 2.46094 17.2642 2.46094 16.0781C2.46094 12.7801 10.0747 9.10547 21 9.10547C31.9254 9.10547 39.5391 12.7801 39.5391 16.0781C39.5391 17.2642 38.5543 18.4989 36.7849 19.5941Z" fill="#EA8C00"/>
    <path d="M21 30.8438C21.9061 30.8438 22.6406 30.1092 22.6406 29.2031C22.6406 28.297 21.9061 27.5625 21 27.5625C20.0939 27.5625 19.3594 28.297 19.3594 29.2031C19.3594 30.1092 20.0939 30.8438 21 30.8438Z" fill="#EA8C00"/>
    <path d="M26.7422 30.4336C27.6483 30.4336 28.3828 29.6991 28.3828 28.793C28.3828 27.8869 27.6483 27.1523 26.7422 27.1523C25.8361 27.1523 25.1016 27.8869 25.1016 28.793C25.1016 29.6991 25.8361 30.4336 26.7422 30.4336Z" fill="#EA8C00"/>
    <path d="M32.4844 29.2031C33.3905 29.2031 34.125 28.4686 34.125 27.5625C34.125 26.6564 33.3905 25.9219 32.4844 25.9219C31.5783 25.9219 30.8438 26.6564 30.8438 27.5625C30.8438 28.4686 31.5783 29.2031 32.4844 29.2031Z" fill="#EA8C00"/>
</svg>
