<?xml version="1.0" encoding="utf-8"?>
<svg width="40" height="40" viewBox="0 0 40 40" fill="none" xmlns="http://www.w3.org/2000/svg">
    <g clip-path="url(#clip0)">
        <path d="M40 31.8737L38.3426 30.2163L35.7281 32.8308L33.0692 30.1719L35.6837 27.5574L34.0263 25.9L31.4118 28.5145L28.7529 25.8556L31.3674 23.2411L29.71 21.5837L27.0955 24.1982L25.3351 22.4379L39.9577 4.51757L35.4769 0.0368095L17.5667 14.6693L15.804 12.9067L18.4185 10.2923L16.7611 8.63486L14.1466 11.2494L11.4877 8.59048L14.1023 5.97597L12.4448 4.31857L9.83034 6.93308L7.17145 4.27411L9.78596 1.6596L8.12856 0.00219727L0.0108603 8.1199L11.5091 19.6183L10.7151 20.267C9.51531 19.3431 8.04957 18.8609 6.50733 18.8967C4.66913 18.939 2.97267 19.7123 1.73045 21.0745C0.614582 22.2979 0 23.8916 0 25.5621C0 27.2326 0.614504 28.8264 1.7303 30.0498C2.97251 31.4119 4.66905 32.1853 6.50725 32.2276C6.97253 32.2381 7.43069 32.2016 7.87666 32.1203C7.80416 32.5167 7.76548 32.922 7.76548 33.3336C7.76548 35.1145 8.45898 36.7888 9.7183 38.0481C11.0181 39.3479 12.7254 39.9977 14.4327 39.9977C16.1401 39.9977 17.8474 39.3479 19.1471 38.0481C21.5314 35.6638 21.7271 31.909 19.7377 29.2977L20.3896 28.4988L31.8824 39.9915L40 31.8737ZM31.8824 36.6766L21.8791 26.6734L23.8457 24.2633L34.0707 34.4882L31.8824 36.6766ZM17.4898 36.3907C15.8041 38.0763 13.0615 38.0763 11.3758 36.3907C10.5592 35.5741 10.1095 34.4884 10.1095 33.3336C10.1095 32.1788 10.5592 31.0932 11.3758 30.2766C12.2187 29.4338 13.3257 29.0124 14.4327 29.0124C15.5399 29.0124 16.6469 29.4338 17.4898 30.2766C19.1754 31.9622 19.1754 34.705 17.4898 36.3907ZM14.9603 26.692L19.5195 22.1328L17.8621 20.4754L9.71916 28.6184C9.71892 28.6186 9.71861 28.6188 9.71838 28.6191C9.71822 28.6192 9.71814 28.6193 9.71798 28.6195C8.87479 29.4624 7.75462 29.9129 6.56116 29.8842C5.36935 29.8568 4.26879 29.3546 3.46224 28.4702C1.97493 26.8395 1.97493 24.2846 3.46232 22.6538C4.26887 21.7695 5.36942 21.2673 6.56124 21.24C7.75525 21.2125 8.87518 21.6618 9.71845 22.5051C9.74502 22.5317 9.77033 22.5591 9.7958 22.5865L10.569 23.4131L35.3184 3.19308L36.8022 4.67696L18.0094 27.7082C17.076 27.1146 16.0267 26.776 14.9603 26.692ZM5.51405 5.93151L15.7423 16.1599L13.3335 18.1278L3.32566 8.11997L5.51405 5.93151Z" fill="#EA8C00"/>
    </g>
    <defs>
        <clipPath id="clip0">
            <rect width="40" height="40" fill="white"/>
        </clipPath>
    </defs>
</svg>
