<?xml version="1.0" encoding="utf-8"?>
<svg width="27" height="27" viewBox="0 0 27 27" fill="none" xmlns="http://www.w3.org/2000/svg">
    <g clip-path="url(#clip0)">
        <path d="M3.35748 27L5.59514 24.7623L6.71398 25.8811L10.2182 22.3769C10.8365 21.7585 11.8374 21.7584 12.4558 22.3769L13.5747 21.258L12.4558 20.1392L23.6443 8.95077C24.2605 8.33458 25.2627 8.33384 25.8799 8.94866L25.882 8.95077L27.0008 7.83194C26.9999 7.83099 19.1689 0 19.1689 0L18.0501 1.11883C18.667 1.73582 18.667 2.73962 18.0502 3.35655L6.86171 14.545L5.74282 13.4262L4.62399 14.545C5.24092 15.162 5.24098 16.1658 4.62404 16.7827L1.11981 20.2869L2.2387 21.4058L0.000976562 23.6434L3.35748 27ZM19.169 4.47539C19.5763 4.06811 19.8492 3.57649 19.9876 3.05624L23.9447 7.01342C23.4245 7.15182 22.9328 7.42466 22.5255 7.83194L11.3371 19.0204L7.98054 15.6639L19.169 4.47539ZM5.74288 17.9015C6.15016 17.4943 6.423 17.0027 6.56139 16.4824L10.5169 20.438C9.98567 20.5795 9.49859 20.8589 9.09943 21.2581L6.71403 23.6435L3.35748 20.2869L5.74288 17.9015ZM3.35748 22.5246L4.47631 23.6434L3.35748 24.7623L2.23864 23.6434L3.35748 22.5246Z" fill="#E0F0FF"/>
        <path d="M18.0465 7.8331L19.1652 6.71442L20.2839 7.8331L19.1652 8.95178L18.0465 7.8331Z" fill="#E0F0FF"/>
        <path d="M15.8088 10.0707L16.9275 8.95199L18.0462 10.0707L16.9275 11.1894L15.8088 10.0707Z" fill="#E0F0FF"/>
        <path d="M13.5712 12.3075L14.6898 11.1888L15.8085 12.3075L14.6898 13.4262L13.5712 12.3075Z" fill="#E0F0FF"/>
        <path d="M11.3335 14.545L12.4522 13.4263L13.5708 14.545L12.4522 15.6636L11.3335 14.545Z" fill="#E0F0FF"/>
    </g>
    <defs>
        <clipPath id="clip0">
            <rect width="27" height="27" fill="white"/>
        </clipPath>
    </defs>
</svg>
