<?xml version="1.0" encoding="utf-8"?>
<svg width="30" height="30" viewBox="0 0 30 30" fill="none" xmlns="http://www.w3.org/2000/svg">
    <path d="M25.6066 4.39339C22.7735 1.56029 19.0066 0 15 0C10.9934 0 7.22649 1.56029 4.39339 4.39339C1.56029 7.22649 0 10.9934 0 15C0 19.0066 1.56029 22.7735 4.39339 25.6066C7.22649 28.4397 10.9934 30 15 30C19.0066 30 22.7735 28.4397 25.6066 25.6066C28.4397 22.7735 30 19.0066 30 15C30 10.9934 28.4397 7.22649 25.6066 4.39339V4.39339ZM28.0616 12.8062C24.9767 14.5697 21.0283 14.0655 18.4813 11.5185C15.9345 8.97171 15.4303 5.02327 17.1938 1.9384C19.8969 2.38655 22.3876 3.66028 24.3636 5.63644C26.3397 7.61238 27.6134 10.1031 28.0616 12.8062ZM1.9384 17.1938C5.02327 15.4303 8.97171 15.9345 11.5187 18.4815C14.0655 21.0283 14.5697 24.9767 12.8062 28.0616C10.1031 27.6134 7.61238 26.3397 5.63644 24.3636C3.66028 22.3876 2.38655 19.8969 1.9384 17.1938ZM24.3636 24.3636C21.8626 26.8648 18.5371 28.2422 15 28.2422C14.8975 28.2422 14.7952 28.2408 14.6928 28.2385C16.4014 24.5895 15.6818 20.159 12.7615 17.2385C9.841 14.3179 5.41054 13.5986 1.76147 15.3072C1.75919 15.2048 1.75781 15.1025 1.75781 15C1.75781 11.4629 3.13522 8.13744 5.63644 5.63644C8.13744 3.13522 11.4629 1.75781 15 1.75781C15.1025 1.75781 15.2048 1.75919 15.3072 1.76147C13.5986 5.41054 14.3182 9.841 17.2385 12.7615C19.1142 14.637 21.6124 15.6049 24.1267 15.6049C25.5274 15.6049 26.933 15.3044 28.2385 14.6933C28.2408 14.7954 28.2422 14.8977 28.2422 15C28.2422 18.5371 26.8648 21.8626 24.3636 24.3636V24.3636Z" fill="#EA8C00"/>
</svg>
