<?xml version="1.0" encoding="utf-8"?>
<svg width="25" height="25" viewBox="0 0 25 25" fill="none" xmlns="http://www.w3.org/2000/svg">
    <g clip-path="url(#clip0)">
        <path d="M21.3388 3.66116C18.9779 1.30024 15.8388 0 12.5 0C9.16119 0 6.02207 1.30024 3.66116 3.66116C1.30024 6.02207 0 9.16119 0 12.5C0 15.8388 1.30024 18.9779 3.66116 21.3388C6.02207 23.6998 9.16119 25 12.5 25C15.8388 25 18.9779 23.6998 21.3388 21.3388C23.6998 18.9779 25 15.8388 25 12.5C25 9.16119 23.6998 6.02207 21.3388 3.66116V3.66116ZM23.3847 10.6718C20.8139 12.1414 17.5236 11.7212 15.4011 9.59873C13.2788 7.47643 12.8586 4.18606 14.3282 1.61533C16.5808 1.98879 18.6563 3.05023 20.303 4.69704C21.9498 6.34365 23.0112 8.41923 23.3847 10.6718ZM1.61533 14.3282C4.18606 12.8586 7.47643 13.2788 9.59892 15.4013C11.7212 17.5236 12.1414 20.8139 10.6718 23.3847C8.41923 23.0112 6.34365 21.9498 4.69704 20.303C3.05023 18.6563 1.98879 16.5808 1.61533 14.3282ZM20.303 20.303C18.2188 22.3873 15.4476 23.5352 12.5 23.5352C12.4146 23.5352 12.3293 23.534 12.244 23.5321C13.6679 20.4912 13.0682 16.7992 10.6346 14.3654C8.20084 11.9316 4.50878 11.3321 1.4679 12.756C1.46599 12.6707 1.46484 12.5854 1.46484 12.5C1.46484 9.55238 2.61269 6.7812 4.69704 4.69704C6.7812 2.61269 9.55238 1.46484 12.5 1.46484C12.5854 1.46484 12.6707 1.46599 12.756 1.4679C11.3321 4.50878 11.9318 8.20084 14.3654 10.6346C15.9285 12.1975 18.0103 13.0041 20.1056 13.0041C21.2729 13.0041 22.4442 12.7537 23.5321 12.2444C23.534 12.3295 23.5352 12.4147 23.5352 12.5C23.5352 15.4476 22.3873 18.2188 20.303 20.303V20.303Z" fill="#E0F0FF"/>
    </g>
    <defs>
        <clipPath id="clip0">
            <rect width="25" height="25" fill="white"/>
        </clipPath>
    </defs>
</svg>