<?xml version="1.0" encoding="utf-8"?>
<svg width="33" height="33" viewBox="0 0 33 33" fill="none" xmlns="http://www.w3.org/2000/svg">
    <circle cx="16.5" cy="16.5" r="16.5" fill="#FAF9F7"/>
    <path d="M16.5167 12.6328C14.3739 12.6328 12.6663 14.3739 12.6663 16.4833C12.6663 18.6261 14.3739 20.3337 16.5167 20.3337C18.6261 20.3337 20.3672 18.6261 20.3672 16.4833C20.3672 14.3739 18.6261 12.6328 16.5167 12.6328ZM16.5167 18.9944C15.144 18.9944 14.0056 17.8895 14.0056 16.4833C14.0056 15.1105 15.1105 14.0056 16.5167 14.0056C17.8895 14.0056 18.9944 15.1105 18.9944 16.4833C18.9944 17.8895 17.8895 18.9944 16.5167 18.9944ZM21.4051 12.4989C21.4051 11.9967 21.0033 11.5949 20.5011 11.5949C19.9989 11.5949 19.5971 11.9967 19.5971 12.4989C19.5971 13.0011 19.9989 13.4029 20.5011 13.4029C21.0033 13.4029 21.4051 13.0011 21.4051 12.4989ZM23.9498 13.4029C23.8828 12.1975 23.615 11.1261 22.7444 10.2556C21.8739 9.38504 20.8025 9.11719 19.5971 9.05022C18.3583 8.98326 14.6417 8.98326 13.4029 9.05022C12.1975 9.11719 11.1596 9.38504 10.2556 10.2556C9.38504 11.1261 9.11719 12.1975 9.05022 13.4029C8.98326 14.6417 8.98326 18.3583 9.05022 19.5971C9.11719 20.8025 9.38504 21.8404 10.2556 22.7444C11.1596 23.615 12.1975 23.8828 13.4029 23.9498C14.6417 24.0167 18.3583 24.0167 19.5971 23.9498C20.8025 23.8828 21.8739 23.615 22.7444 22.7444C23.615 21.8404 23.8828 20.8025 23.9498 19.5971C24.0167 18.3583 24.0167 14.6417 23.9498 13.4029ZM22.3426 20.9029C22.1083 21.5725 21.5725 22.0748 20.9364 22.3426C19.9319 22.7444 17.5882 22.644 16.5167 22.644C15.4118 22.644 13.0681 22.7444 12.0971 22.3426C11.4275 22.0748 10.9252 21.5725 10.6574 20.9029C10.2556 19.9319 10.356 17.5882 10.356 16.4833C10.356 15.4118 10.2556 13.0681 10.6574 12.0636C10.9252 11.4275 11.4275 10.9252 12.0971 10.6574C13.0681 10.2556 15.4118 10.356 16.5167 10.356C17.5882 10.356 19.9319 10.2556 20.9364 10.6574C21.5725 10.8917 22.0748 11.4275 22.3426 12.0636C22.7444 13.0681 22.644 15.4118 22.644 16.4833C22.644 17.5882 22.7444 19.9319 22.3426 20.9029Z" fill="#2873BE"/>
</svg>
