<?xml version="1.0" encoding="utf-8"?>
<svg width="25" height="25" viewBox="0 0 25 25" fill="none" xmlns="http://www.w3.org/2000/svg">
    <g clip-path="url(#clip0)">
        <path d="M21.8133 18.5158C22.2535 14.524 22.2535 10.476 21.8133 6.48422L21.5045 3.68301L22.1226 1.52588e-05L2.95766 0.0249975L3.57333 3.66544C2.61728 9.52857 2.61733 15.472 3.57343 21.3351L2.95839 25.0001L22.1234 24.9751L21.5046 21.3165L21.8133 18.5158ZM4.9476 20.6017C4.12181 15.2221 4.12181 9.77795 4.9476 4.39832H20.102L20.3498 6.64555C20.7781 10.5303 20.7781 14.4697 20.3498 18.3545L20.102 20.6017H4.9476ZM20.3821 1.47476L20.1386 2.92589H4.94161L4.69964 1.49512L20.3821 1.47476ZM4.69891 23.5253L4.9424 22.0741H20.1394L20.3813 23.5049L4.69891 23.5253Z" fill="#E0F0FF"/>
        <path d="M16.3885 8.68366C16.3761 8.08904 16.1446 7.49815 15.6942 7.04538C15.2442 6.59305 14.6457 6.34391 14.0088 6.34396C13.3719 6.34396 12.7734 6.59305 12.3234 7.04543C11.4938 7.87937 11.4072 9.18173 12.0636 10.1136L10.1167 12.0707C9.71816 11.7877 9.2434 11.6353 8.74518 11.6353C8.10835 11.6353 7.50976 11.8844 7.05974 12.3368C6.13338 13.268 6.13343 14.7832 7.05974 15.7143C7.4973 16.1541 8.07532 16.4019 8.69247 16.4152C8.70489 17.0098 8.9363 17.6007 9.38667 18.0534C9.8366 18.5058 10.4351 18.7549 11.072 18.7549H11.0721C11.7089 18.7549 12.3075 18.5058 12.7575 18.0535C13.5735 17.2332 13.6707 15.9597 13.049 15.0314L15.0101 13.06C15.399 13.3226 15.8565 13.4636 16.3358 13.4636C16.9726 13.4636 17.5711 13.2145 18.0212 12.7622C18.9475 11.8309 18.9475 10.3158 18.0212 9.38464C17.5836 8.94472 17.0056 8.69701 16.3885 8.68366V8.68366ZM16.9773 11.7237C16.8057 11.8962 16.5779 11.9911 16.3358 11.9911C16.0936 11.9911 15.8659 11.8961 15.6943 11.7237L14.9784 11.0041L11.0033 15.0002L11.7137 15.7143C12.0704 16.073 12.0704 16.6564 11.7137 17.015C11.5421 17.1875 11.3142 17.2825 11.0721 17.2825C10.83 17.2825 10.6022 17.1875 10.4306 17.015C10.0739 16.6564 10.0739 16.073 10.4306 15.7143L9.38667 14.6759C9.21508 14.8484 8.9873 14.9434 8.74518 14.9434C8.50306 14.9434 8.27523 14.8483 8.10364 14.6759C7.74692 14.3173 7.74692 13.7338 8.10364 13.3752C8.27523 13.2027 8.50307 13.1077 8.74523 13.1077C8.98735 13.1077 9.21518 13.2028 9.38667 13.3751L10.1413 14.1339L14.1166 10.1376L13.3673 9.38459C13.0106 9.02595 13.0106 8.44243 13.3673 8.08379C13.5389 7.91132 13.7667 7.8164 14.0088 7.8164C14.2509 7.8164 14.4788 7.91137 14.6503 8.08379C15.0059 8.4412 15.007 9.02202 14.6553 9.37958L14.6397 9.39445L15.6644 10.4518C15.674 10.4428 15.6835 10.4337 15.6943 10.4229C15.8658 10.2505 16.0936 10.1555 16.3358 10.1555C16.5779 10.1555 16.8057 10.2505 16.9773 10.423C17.334 10.7816 17.334 11.3651 16.9773 11.7237V11.7237Z" fill="#E0F0FF"/>
    </g>
    <defs>
        <clipPath id="clip0">
            <rect width="25" height="25" fill="white"/>
        </clipPath>
    </defs>
</svg>
