<?xml version="1.0" encoding="utf-8"?>
<svg width="32" height="32" viewBox="0 0 32 32" fill="none" xmlns="http://www.w3.org/2000/svg">
    <g clip-path="url(#clip0)">
        <path d="M27.9212 23.7002C28.4846 18.5908 28.4846 13.4092 27.9212 8.29978L27.5259 4.71424L28.3171 0L3.78596 0.0319773L4.57402 4.69174C3.35027 12.1966 3.35034 19.8041 4.57415 27.3089L3.7869 32.0001L28.3181 31.9681L27.5261 27.2851L27.9212 23.7002ZM6.33309 26.3702C5.27608 19.4843 5.27608 12.5158 6.33309 5.62983H25.7308L26.0479 8.50628C26.5962 13.4787 26.5962 18.5212 26.048 23.4937L25.7308 26.3702H6.33309ZM26.0893 1.88767L25.7776 3.74512H6.32542L6.0157 1.91374L26.0893 1.88767ZM6.01476 30.1123L6.32643 28.2549H25.7786L26.0883 30.0863L6.01476 30.1123Z" fill="#EA8C00"/>
        <path d="M20.9773 11.1151C20.9614 10.3539 20.6652 9.5976 20.0886 9.01805C19.5127 8.43907 18.7465 8.12018 17.9313 8.12024C17.116 8.12024 16.3499 8.43907 15.774 9.01812C14.7121 10.0856 14.6013 11.7526 15.4414 12.9454L12.9494 15.4505C12.4393 15.0883 11.8316 14.8932 11.1939 14.8932C10.3787 14.8932 9.61253 15.212 9.03649 15.791C7.85076 16.983 7.85082 18.9224 9.03649 20.1143C9.59657 20.6773 10.3364 20.9943 11.1264 21.0114C11.1423 21.7725 11.4385 22.5289 12.015 23.1084C12.5909 23.6874 13.357 24.0062 14.1722 24.0062H14.1723C14.9874 24.0062 15.7536 23.6874 16.3296 23.1084C17.3741 22.0585 17.4985 20.4284 16.7027 19.2402L19.2129 16.7167C19.7107 17.0528 20.2963 17.2334 20.9098 17.2334C21.725 17.2334 22.4911 16.9146 23.0671 16.3355C24.2528 15.1436 24.2528 13.2041 23.0671 12.0123C22.5071 11.4492 21.7672 11.1321 20.9773 11.1151V11.1151ZM21.731 15.0063C21.5113 15.2271 21.2197 15.3486 20.9099 15.3486C20.5999 15.3486 20.3083 15.227 20.0887 15.0063L19.1724 14.0852L14.0842 19.2002L14.9935 20.1143C15.4502 20.5734 15.4502 21.3202 14.9935 21.7792C14.7739 22 14.4822 22.1215 14.1723 22.1215C13.8624 22.1215 13.5709 22 13.3512 21.7792C12.8946 21.3202 12.8946 20.5734 13.3512 20.1143L12.015 18.7851C11.7953 19.0059 11.5038 19.1275 11.1939 19.1275C10.884 19.1275 10.5923 19.0058 10.3727 18.7851C9.91609 18.3261 9.91609 17.5792 10.3727 17.1202C10.5923 16.8994 10.884 16.7779 11.1939 16.7779C11.5038 16.7779 11.7955 16.8995 12.015 17.1201L12.9809 18.0913L18.0692 12.9761L17.1102 12.0122C16.6536 11.5532 16.6536 10.8063 17.1102 10.3472C17.3298 10.1265 17.6214 10.005 17.9313 10.005C18.2412 10.005 18.5329 10.1265 18.7524 10.3472C19.2075 10.8047 19.209 11.5482 18.7588 12.0058L18.7388 12.0249L20.0505 13.3783C20.0628 13.3667 20.0749 13.3552 20.0887 13.3413C20.3083 13.1206 20.5999 12.999 20.9098 12.999C21.2197 12.999 21.5113 13.1206 21.7309 13.3414C22.1876 13.8004 22.1876 14.5473 21.731 15.0063V15.0063Z" fill="#EA8C00"/>
    </g>
    <defs>
        <clipPath id="clip0">
            <rect width="32" height="32" fill="white"/>
        </clipPath>
    </defs>
</svg>
