<?xml version="1.0" encoding="utf-8"?>
<svg width="33" height="33" viewBox="0 0 33 33" fill="none" xmlns="http://www.w3.org/2000/svg">
    <circle cx="16.5" cy="16.5" r="16.5" fill="#FAF9F7"/>
    <path d="M17.375 9.21875C14.1562 9.21875 11 11.3438 11 14.8125C11 17 12.2188 18.25 12.9688 18.25C13.2812 18.25 13.4688 17.4062 13.4688 17.1562C13.4688 16.875 12.7188 16.25 12.7188 15.0312C12.7188 12.5312 14.625 10.75 17.0938 10.75C19.25 10.75 20.8125 11.9688 20.8125 14.1875C20.8125 15.8438 20.1562 18.9375 18 18.9375C17.2188 18.9375 16.5312 18.375 16.5312 17.5938C16.5312 16.4062 17.375 15.25 17.375 14.0312C17.375 11.9688 14.4375 12.3438 14.4375 14.8438C14.4375 15.375 14.5 15.9375 14.75 16.4375C14.3125 18.2812 13.4375 21.0625 13.4375 22.9688C13.4375 23.5625 13.5 24.125 13.5625 24.7188C13.6562 24.8438 13.625 24.8438 13.7812 24.7812C15.3438 22.625 15.3125 22.1875 16 19.375C16.4062 20.0938 17.375 20.5 18.1875 20.5C21.5 20.5 23 17.25 23 14.3438C23 11.25 20.3125 9.21875 17.375 9.21875Z" fill="#2873BE"/>
</svg>
