<?xml version="1.0" encoding="utf-8"?>
<svg width="29" height="29" viewBox="0 0 29 29" fill="none" xmlns="http://www.w3.org/2000/svg">
    <path d="M8.49607 14.9258C5.68524 14.9258 3.39844 17.2126 3.39844 20.0234C3.39844 22.8342 5.68524 25.121 8.49607 25.121C11.3069 25.121 13.5937 22.8342 13.5937 20.0234C13.5937 17.2126 11.3069 14.9258 8.49607 14.9258ZM8.49607 23.4218C6.62218 23.4218 5.09765 21.8973 5.09765 20.0234C5.09765 18.1495 6.62218 16.625 8.49607 16.625C10.37 16.625 11.8945 18.1495 11.8945 20.0234C11.8945 21.8973 10.37 23.4218 8.49607 23.4218Z" fill="#E0F0FF"/>
    <path d="M12.8008 0.482452C12.3316 0.482452 11.9512 0.862849 11.9512 1.33206V3.88088C11.9512 4.35009 12.3316 4.73048 12.8008 4.73048C13.27 4.73048 13.6504 4.35009 13.6504 3.88088V1.33206C13.6504 0.862849 13.27 0.482452 12.8008 0.482452Z" fill="#E0F0FF"/>
    <path d="M10.0031 4.97937L8.30388 3.28016C7.97213 2.94836 7.43416 2.94836 7.10236 3.28016C6.77057 3.61196 6.77057 4.14987 7.10236 4.48167L8.80157 6.18089C9.13332 6.51269 9.67134 6.51269 10.0031 6.18089C10.3349 5.84914 10.3349 5.31123 10.0031 4.97937Z" fill="#E0F0FF"/>
    <path d="M18.4992 3.28016C18.1674 2.94836 17.6294 2.94836 17.2977 3.28016L15.5985 4.97937C15.2667 5.31117 15.2667 5.84909 15.5985 6.18089C15.9302 6.51269 16.4682 6.51269 16.8 6.18089L18.4992 4.48167C18.831 4.14993 18.831 3.61202 18.4992 3.28016Z" fill="#E0F0FF"/>
    <path d="M28.7509 11.776L25.3526 8.37774C25.1933 8.21841 24.9772 8.12886 24.7519 8.12886H14.4433C13.9741 8.12886 13.5937 8.50926 13.5937 8.97847C13.5937 8.97852 13.5937 8.97864 13.5937 8.97875C13.5935 9.44711 13.2125 9.82807 12.7441 9.82807C12.2756 9.82807 11.8945 9.44694 11.8945 8.97847C11.8945 8.50926 11.5141 8.12886 11.0449 8.12886H7.64645C3.4302 8.12886 0 11.5591 0 15.7753C0 16.31 0 20.1349 0 20.6666C0.169808 22.8584 1.20463 24.9667 2.97594 26.4819C4.52795 27.8095 6.48317 28.5176 8.50914 28.5175C9.03397 28.5175 9.5639 28.4699 10.0924 28.3733C11.7451 28.0712 13.2643 27.2714 14.4856 26.0604C15.7075 24.8488 16.5195 23.3361 16.8337 21.6863C16.8385 21.6609 16.8433 21.6356 16.848 21.6094C17.0388 20.5589 17.7932 19.7903 18.7686 19.6516L28.2687 18.3158C28.6881 18.2568 29 17.898 29 17.4745V12.3768C28.9999 12.1551 28.9111 11.9361 28.7509 11.776ZM15.2929 9.82813H24.3999L26.0992 11.5273H15.2929V9.82813ZM11.8945 11.3818C12.1603 11.476 12.4463 11.5273 12.7441 11.5273C13.0418 11.5273 13.3279 11.476 13.5937 11.3818V12.3769C13.5937 12.8454 13.2126 13.2266 12.7441 13.2266C12.2756 13.2266 11.8945 12.8454 11.8945 12.3769V11.3818ZM7.64645 9.82813H10.1953V11.5273H8.8508C8.85052 11.5273 8.85103 11.5273 8.85074 11.5273C5.96803 11.5273 3.37633 12.8877 1.75347 14.9732C2.14644 12.0719 4.63919 9.82813 7.64645 9.82813ZM27.3007 16.7361L18.5305 17.9692C16.843 18.2094 15.4949 19.5503 15.1762 21.3051L15.1644 21.3684C14.659 24.0223 12.4476 26.2156 9.78678 26.702C7.72371 27.079 5.64399 26.5283 4.08049 25.1909C2.51653 23.853 1.64943 21.9052 1.70148 19.8469C1.7938 16.1965 5.00095 13.2267 8.85086 13.2267H10.3415C10.6922 14.2155 11.6365 14.9259 12.7441 14.9259C13.8518 14.9259 14.7961 14.2155 15.1468 13.2267H27.3007V16.7361Z" fill="#E0F0FF"/>
</svg>