<?xml version="1.0" encoding="utf-8"?>
<svg width="25" height="25" viewBox="0 0 25 25" fill="none" xmlns="http://www.w3.org/2000/svg">
    <path d="M11.431 17.2142L14.2854 16.4834C14.3813 16.4667 14.4696 16.4206 14.5382 16.3516L24.475 6.40925C24.739 6.14454 24.8873 5.7859 24.8873 5.412C24.8873 5.0381 24.739 4.67946 24.475 4.41475L23.6728 3.6098C23.5417 3.47828 23.3858 3.37412 23.2141 3.30338C23.0425 3.23263 22.8585 3.19672 22.6728 3.19771C22.4876 3.19708 22.3041 3.23317 22.1329 3.30391C21.9617 3.37464 21.8063 3.47861 21.6755 3.6098L20.0272 5.25815V2.15101C20.0268 1.89115 19.9752 1.63392 19.8752 1.39404C19.7753 1.15417 19.629 0.936375 19.4447 0.753137C19.2605 0.569899 19.0419 0.424819 18.8015 0.326209C18.561 0.2276 18.3035 0.177399 18.0437 0.178484H2.18102C1.6581 0.179211 1.1568 0.387263 0.787039 0.757027C0.417275 1.12679 0.209223 1.62809 0.208496 2.15101V19.3598C0.209223 19.8827 0.417275 20.384 0.787039 20.7538C1.1568 21.1236 1.6581 21.3316 2.18102 21.3323H9.71399L14.4585 24.7252C14.5303 24.7767 14.6149 24.8074 14.703 24.814C14.7912 24.8205 14.8794 24.8027 14.958 24.7624C15.0367 24.722 15.1027 24.6608 15.1488 24.5855C15.1949 24.5101 15.2194 24.4234 15.2195 24.3351V21.3323H18.0437C18.5666 21.3316 19.0679 21.1236 19.4376 20.7538C19.8074 20.384 20.0155 19.8827 20.0162 19.3598V13.912C20.0162 13.7845 19.9655 13.6622 19.8754 13.572C19.7852 13.4819 19.6629 13.4312 19.5354 13.4312C19.4079 13.4312 19.2856 13.4819 19.1955 13.572C19.1053 13.6622 19.0546 13.7845 19.0546 13.912V19.3598C19.0546 19.4926 19.0285 19.624 18.9777 19.7467C18.9269 19.8693 18.8524 19.9808 18.7585 20.0747C18.6647 20.1686 18.5532 20.243 18.4305 20.2938C18.3079 20.3446 18.1764 20.3708 18.0437 20.3708H13.9667C13.8392 20.3708 13.7169 20.4214 13.6268 20.5116C13.5366 20.6018 13.486 20.7241 13.486 20.8516C13.486 20.9791 13.5366 21.1014 13.6268 21.1915C13.7169 21.2817 13.8392 21.3323 13.9667 21.3323H14.2579V23.401L10.1371 20.4587C10.0568 20.4016 9.96081 20.3709 9.86234 20.3708H2.17003C2.03727 20.3708 1.9058 20.3446 1.78315 20.2938C1.66049 20.243 1.54904 20.1686 1.45516 20.0747C1.36128 19.9808 1.28681 19.8693 1.236 19.7467C1.1852 19.624 1.15905 19.4926 1.15905 19.3598V2.15101C1.15904 2.01732 1.18555 1.88495 1.23704 1.76157C1.28853 1.63819 1.36399 1.52625 1.45903 1.43222C1.55408 1.3382 1.66683 1.26396 1.79076 1.2138C1.91469 1.16365 2.04734 1.13857 2.18102 1.14002H18.0437C18.3118 1.14002 18.5689 1.24654 18.7585 1.43613C18.9481 1.62573 19.0546 1.88288 19.0546 2.15101V6.23068L11.7387 13.5466C11.6702 13.6156 11.6242 13.7037 11.6068 13.7994L10.8431 16.6208C10.8188 16.7023 10.8173 16.7888 10.8386 16.8711C10.8599 16.9534 10.9032 17.0284 10.964 17.0878C11.0248 17.1467 11.0995 17.1892 11.1812 17.2113C11.2629 17.2334 11.3488 17.2344 11.431 17.2142V17.2142ZM21.5409 5.10431L22.9805 6.54387L14.1893 15.3351L12.7497 13.8983L21.5409 5.10431ZM12.3459 14.8351L13.2415 15.7307L11.997 16.0686L12.3459 14.8351ZM22.6728 4.15925C22.732 4.15908 22.7906 4.17064 22.8453 4.19328C22.9 4.21591 22.9497 4.24917 22.9915 4.29112L23.7937 5.09332C23.8354 5.13493 23.8686 5.18437 23.8912 5.23883C23.9138 5.29328 23.9255 5.35166 23.9255 5.41063C23.9255 5.46959 23.9138 5.52798 23.8912 5.58243C23.8686 5.63688 23.8354 5.68633 23.7937 5.72794L23.659 5.86255L22.2222 4.42574L22.3568 4.29112C22.3979 4.249 22.4471 4.21561 22.5014 4.19295C22.5556 4.17029 22.614 4.15883 22.6728 4.15925V4.15925Z" fill="#EA8C00"/>
    <path d="M4.74444 5.04113H8.66203C8.78954 5.04113 8.91182 4.99048 9.00199 4.90031C9.09215 4.81015 9.1428 4.68787 9.1428 4.56036C9.1428 4.43285 9.09215 4.31057 9.00199 4.2204C8.91182 4.13024 8.78954 4.07959 8.66203 4.07959H4.74444C4.61693 4.07959 4.49465 4.13024 4.40449 4.2204C4.31432 4.31057 4.26367 4.43285 4.26367 4.56036C4.26367 4.68787 4.31432 4.81015 4.40449 4.90031C4.49465 4.99048 4.61693 5.04113 4.74444 5.04113V5.04113Z" fill="#EA8C00"/>
    <path d="M13.7663 5.04113C13.8938 5.04113 14.0161 4.99048 14.1063 4.90031C14.1964 4.81015 14.2471 4.68787 14.2471 4.56036C14.2471 4.43285 14.1964 4.31057 14.1063 4.2204C14.0161 4.13024 13.8938 4.07959 13.7663 4.07959H10.7718C10.6443 4.07959 10.522 4.13024 10.4318 4.2204C10.3417 4.31057 10.291 4.43285 10.291 4.56036C10.291 4.68787 10.3417 4.81015 10.4318 4.90031C10.522 4.99048 10.6443 5.04113 10.7718 5.04113H13.7663Z" fill="#EA8C00"/>
    <path d="M4.74444 9.06579H6.59334C6.72085 9.06579 6.84313 9.01514 6.9333 8.92497C7.02346 8.83481 7.07411 8.71253 7.07411 8.58502C7.07411 8.45751 7.02346 8.33522 6.9333 8.24506C6.84313 8.1549 6.72085 8.10425 6.59334 8.10425H4.74444C4.61693 8.10425 4.49465 8.1549 4.40449 8.24506C4.31432 8.33522 4.26367 8.45751 4.26367 8.58502C4.26367 8.71253 4.31432 8.83481 4.40449 8.92497C4.49465 9.01514 4.61693 9.06579 4.74444 9.06579V9.06579Z" fill="#EA8C00"/>
    <path d="M10.5931 12.618C10.5931 12.4905 10.5425 12.3682 10.4523 12.278C10.3621 12.1879 10.2398 12.1372 10.1123 12.1372H8.43926C8.31176 12.1372 8.18947 12.1879 8.09931 12.278C8.00915 12.3682 7.9585 12.4905 7.9585 12.618C7.9585 12.7455 8.00915 12.8678 8.09931 12.9579C8.18947 13.0481 8.31176 13.0987 8.43926 13.0987H10.1123C10.2398 13.0987 10.3621 13.0481 10.4523 12.9579C10.5425 12.8678 10.5931 12.7455 10.5931 12.618V12.618Z" fill="#EA8C00"/>
    <path d="M4.74444 17.1263H9.36532C9.49283 17.1263 9.61511 17.0757 9.70527 16.9855C9.79544 16.8953 9.84609 16.7731 9.84609 16.6456C9.84609 16.5181 9.79544 16.3958 9.70527 16.3056C9.61511 16.2154 9.49283 16.1648 9.36532 16.1648H4.74444C4.61693 16.1648 4.49465 16.2154 4.40449 16.3056C4.31432 16.3958 4.26367 16.5181 4.26367 16.6456C4.26367 16.7731 4.31432 16.8953 4.40449 16.9855C4.49465 17.0757 4.61693 17.1263 4.74444 17.1263V17.1263Z" fill="#EA8C00"/>
    <path d="M16.5079 5.04113C16.6354 5.04113 16.7576 4.99048 16.8478 4.90031C16.938 4.81015 16.9886 4.68787 16.9886 4.56036C16.9886 4.43285 16.938 4.31057 16.8478 4.2204C16.7576 4.13024 16.6354 4.07959 16.5079 4.07959H15.5848C15.4573 4.07959 15.335 4.13024 15.2448 4.2204C15.1547 4.31057 15.104 4.43285 15.104 4.56036C15.104 4.68787 15.1547 4.81015 15.2448 4.90031C15.335 4.99048 15.4573 5.04113 15.5848 5.04113H16.5079Z" fill="#EA8C00"/>
    <path d="M14.2467 8.59063C14.2467 8.46313 14.1961 8.34084 14.1059 8.25068C14.0158 8.16052 13.8935 8.10986 13.766 8.10986H8.5462C8.48306 8.10986 8.42055 8.1223 8.36222 8.14646C8.30389 8.17062 8.25089 8.20603 8.20624 8.25068C8.1616 8.29532 8.12619 8.34832 8.10203 8.40665C8.07786 8.46498 8.06543 8.5275 8.06543 8.59063C8.06543 8.65377 8.07786 8.71629 8.10203 8.77462C8.12619 8.83295 8.1616 8.88595 8.20624 8.93059C8.25089 8.97523 8.30389 9.01065 8.36222 9.03481C8.42055 9.05897 8.48306 9.07141 8.5462 9.07141H13.766C13.8935 9.07141 14.0158 9.02075 14.1059 8.93059C14.1961 8.84043 14.2467 8.71814 14.2467 8.59063V8.59063Z" fill="#EA8C00"/>
    <path d="M6.24151 12.1372H5.21954C5.09203 12.1372 4.96974 12.1879 4.87958 12.278C4.78942 12.3682 4.73877 12.4905 4.73877 12.618C4.73877 12.7455 4.78942 12.8678 4.87958 12.9579C4.96974 13.0481 5.09203 13.0987 5.21954 13.0987H6.25525C6.38276 13.0987 6.50504 13.0481 6.5952 12.9579C6.68536 12.8678 6.73602 12.7455 6.73602 12.618C6.73602 12.4905 6.68536 12.3682 6.5952 12.278C6.50504 12.1879 6.38276 12.1372 6.25525 12.1372H6.24151Z" fill="#EA8C00"/>
</svg>
