<?xml version="1.0" encoding="utf-8"?>
<svg width="33" height="33" viewBox="0 0 33 33" fill="none" xmlns="http://www.w3.org/2000/svg">
    <circle cx="16.5" cy="16.5" r="16.5" fill="#FAF9F7"/>
    <g clip-path="url(#clip0)">
        <path d="M22.356 13.742C23.0067 13.28 23.554 12.7033 24 12.0393V12.0387C23.4047 12.2993 22.7713 12.4727 22.11 12.5567C22.79 12.1507 23.3093 11.5127 23.5533 10.744C22.9193 11.122 22.2193 11.3887 21.4733 11.538C20.8713 10.8967 20.0133 10.5 19.0773 10.5C17.2613 10.5 15.7993 11.974 15.7993 13.7807C15.7993 14.0407 15.8213 14.2907 15.8753 14.5287C13.1487 14.3953 10.7353 13.0887 9.114 11.0973C8.83133 11.5887 8.66467 12.1507 8.66467 12.7553C8.66467 13.8913 9.24933 14.898 10.122 15.4813C9.59467 15.4713 9.078 15.318 8.64 15.0773V15.1133C8.64 16.7073 9.77667 18.0313 11.268 18.3367C11.0007 18.41 10.71 18.4447 10.408 18.4447C10.198 18.4447 9.986 18.4327 9.78733 18.3887C10.212 19.6873 11.4187 20.6427 12.852 20.674C11.736 21.5467 10.3187 22.0727 8.78467 22.0727C8.516 22.0727 8.258 22.0607 8 22.028C9.45333 22.9647 11.1747 23.5 13.032 23.5C18.8207 23.5 22.5933 18.6707 22.356 13.742V13.742Z" fill="#2873BE"/>
    </g>
    <defs>
        <clipPath id="clip0">
            <rect width="16" height="16" fill="white" transform="translate(8 9)"/>
        </clipPath>
    </defs>
</svg>
