<svg width="21" height="19" viewBox="0 0 21 19" fill="none" xmlns="http://www.w3.org/2000/svg">
    <path d="M10.494 1.76806C5.91666 -2.2355 0.0966195 1.28214 0.00118346 6.05087C-0.0231369 7.2662 0.327684 8.45002 1.026 9.54141H5.55231L6.35738 8.19956C6.59115 7.80998 7.15688 7.79743 7.4039 8.18582L9.10251 10.855L11.5786 5.62795C11.7945 5.17185 12.438 5.15737 12.6762 5.59965L14.7987 9.54141H19.962C23.787 3.56342 16.2277 -3.24674 10.494 1.76806Z" fill="white"/>
    <path d="M13.8894 10.4485L12.1695 7.25439L9.73743 12.3887C9.53052 12.8256 8.92193 12.8635 8.66245 12.4557L6.90014 9.6864L6.42796 10.4733C6.31678 10.6586 6.11655 10.772 5.90046 10.772H1.99902C2.12132 10.9 1.46951 10.2495 10.0599 18.7954C10.2999 19.0342 10.6877 19.0342 10.9277 18.7954C19.3859 10.381 18.8666 10.8997 18.9886 10.772H14.4311C14.2047 10.772 13.9967 10.6478 13.8894 10.4485Z" fill="white"/>
</svg>
