<svg width="23" height="23" viewBox="0 0 23 23" fill="none" xmlns="http://www.w3.org/2000/svg">
    <path d="M12.1739 9.60263C12.9565 9.88173 13.5215 10.6227 13.5215 11.5C13.5215 12.6147 12.6147 13.5215 11.5 13.5215C10.3853 13.5215 9.47854 12.6147 9.47854 11.5C9.47854 10.6227 10.0435 9.88173 10.8262 9.60263V0L3.91681 12.9556L6.4226 15.4613C7.36236 16.4011 7.91508 17.656 8.06507 18.957H14.935C15.0849 17.656 15.6377 16.4011 16.5775 15.4613L19.0832 12.9556L12.1739 0V9.60263Z" fill="white"/>
    <path d="M11.5 12.1738C11.8721 12.1738 12.1738 11.8721 12.1738 11.5C12.1738 11.1279 11.8721 10.8262 11.5 10.8262C11.1279 10.8262 10.8262 11.1279 10.8262 11.5C10.8262 11.8721 11.1279 12.1738 11.5 12.1738Z" fill="white"/>
    <path d="M6.7832 20.3047H16.2168V23H6.7832V20.3047Z" fill="white"/>
</svg>
