<?xml version="1.0" encoding="utf-8"?>
<svg width="264" height="44" viewBox="0 0 264 44" fill="none" xmlns="http://www.w3.org/2000/svg">
    <path d="M49.2233 14.7168C43.5091 14.7168 39.9661 18.8905 39.9661 23.9992C39.9661 29.108 43.4586 33.2734 49.2822 33.2734C55.1059 33.2734 58.6405 29.0996 58.6405 23.9992C58.6807 22.7645 58.4641 21.5348 58.0043 20.3866C57.5445 19.2385 56.8513 18.1966 55.9679 17.3258C55.0844 16.455 54.0297 15.7739 52.8693 15.3251C51.709 14.8762 50.4679 14.6691 49.2233 14.7168ZM49.2233 29.2332C45.9833 29.2332 44.3506 26.7289 44.3506 23.9992C44.3506 21.2696 46.0338 18.7236 49.2233 18.7236C52.2109 18.7236 54.1044 21.3197 54.1044 23.9992C54.1044 26.6788 52.497 29.2165 49.257 29.2165L49.2233 29.2332Z" fill="white"/>
    <path d="M75.7413 13.2726L73.974 15.5098C72.7336 14.7682 71.2961 14.4161 69.8503 14.4997C64.8009 14.4997 60.7529 17.964 60.7529 23.5234C60.7529 29.0829 64.2539 32.4804 69.8503 32.4804C72.072 32.4804 74.4032 33.5989 74.4032 36.0531C74.4032 38.5073 72.375 39.8847 69.8503 39.8847C67.3256 39.8847 65.1627 38.3988 65.1627 36.0531H60.7613C60.7613 40.8613 64.6578 44 69.8587 44C75.0596 44 78.8551 40.9698 78.8551 36.0531C78.9184 34.8186 78.5959 33.5948 77.9316 32.549C77.2673 31.5031 76.2937 30.6862 75.1438 30.2098C78.0892 28.8742 78.9308 25.7689 78.9308 23.5318C78.9978 21.6011 78.3207 19.7175 77.0373 18.2645L79.0402 15.7602L75.7413 13.2726ZM69.8503 28.4735C67.2667 28.4735 65.1543 26.6287 65.1543 23.5234C65.1543 20.4181 67.2667 18.5149 69.8503 18.5149C72.4339 18.5149 74.5126 20.4682 74.5126 23.5234C74.5126 26.5786 72.375 28.4735 69.8503 28.4735Z" fill="white"/>
    <path d="M95.8548 13.2726L94.0706 15.5098C92.8327 14.7698 91.3984 14.4178 89.9554 14.4997C84.906 14.4997 80.8496 17.964 80.8496 23.5234C80.8496 29.0829 84.3505 32.4804 89.9554 32.4804C92.1771 32.4804 94.5083 33.5989 94.5083 36.0531C94.5083 38.5073 92.5053 39.8847 89.9554 39.8847C87.4054 39.8847 85.2594 38.3654 85.2594 36.0531H80.8496C80.8496 40.8613 84.7461 44 89.9554 44C95.1647 44 98.9433 40.9698 98.9433 36.0531C99.0079 34.8184 98.6859 33.5941 98.0214 32.548C97.357 31.5019 96.3827 30.6852 95.232 30.2098C98.1775 28.8742 99.0191 25.7689 99.0191 23.5318C99.0861 21.6011 98.409 19.7175 97.1255 18.2645L99.1285 15.7602L95.8548 13.2726ZM89.9638 28.4735C87.3802 28.4735 85.2678 26.6287 85.2678 23.5234C85.2678 20.4181 87.3802 18.5149 89.9638 18.5149C92.5474 18.5149 94.6261 20.4682 94.6261 23.5234C94.6261 26.5786 92.5053 28.4735 89.9554 28.4735H89.9638Z" fill="white"/>
    <path d="M106.298 15.0089H101.855V32.881H106.298V15.0089Z" fill="white"/>
    <path d="M101.459 10.0588C101.459 13.4897 106.694 13.4897 106.694 10.0588C106.694 6.62796 101.459 6.62796 101.459 10.0588Z" fill="white"/>
    <path d="M119.04 14.5331C113.216 14.5331 109.497 18.4314 109.497 23.849C109.497 29.5587 113.174 33.3485 119.368 33.3485C122.095 33.3485 125.192 32.4052 127.085 30.4603L124.241 27.6805C123.223 28.724 121.077 29.35 119.436 29.35C116.305 29.35 114.386 27.7556 114.083 25.5602H128.104C128.76 18.2144 125.04 14.5331 119.04 14.5331ZM114.159 21.904C114.815 19.5917 116.776 18.4314 119.208 18.4314C121.733 18.4314 123.576 19.5917 123.871 21.904H114.159Z" fill="white"/>
    <path d="M150.86 19.1994C150.112 17.7836 148.981 16.6028 147.594 15.7902C146.207 14.9776 144.618 14.5653 143.008 14.5999C140.481 14.5999 138.058 15.5955 136.271 17.3676C134.485 19.1397 133.481 21.5432 133.481 24.0493C133.481 26.5555 134.485 28.959 136.271 30.7311C138.058 32.5032 140.481 33.4988 143.008 33.4988C144.618 33.5333 146.207 33.1211 147.594 32.3085C148.981 31.4958 150.112 30.3151 150.86 28.8993V33.073H152.686V7.74654H150.86V19.1994ZM143.117 31.7207C141.578 31.7274 140.071 31.2806 138.788 30.4371C137.505 29.5936 136.503 28.3913 135.909 26.9825C135.315 25.5737 135.157 24.0218 135.453 22.5234C135.749 21.025 136.487 19.6475 137.573 18.5655C138.659 17.4834 140.045 16.7455 141.554 16.4452C143.063 16.1449 144.629 16.2956 146.051 16.8784C147.474 17.4612 148.691 18.4498 149.547 19.7189C150.403 20.9881 150.86 22.4807 150.86 24.0076C150.872 25.0211 150.68 26.0268 150.296 26.966C149.912 27.9051 149.342 28.7588 148.621 29.477C147.901 30.1953 147.042 30.7637 146.097 31.1489C145.152 31.5342 144.139 31.7286 143.117 31.7207Z" fill="white"/>
    <path d="M164.703 14.5915C163.446 14.5566 162.195 14.7776 161.026 15.2409C159.858 15.7043 158.798 16.4002 157.912 17.2857C157.026 18.1711 156.332 19.2274 155.873 20.3893C155.414 21.5511 155.2 22.7939 155.244 24.041C155.206 25.2985 155.43 26.5502 155.9 27.7186C156.37 28.887 157.077 29.9471 157.977 30.8332C158.878 31.7192 159.952 32.4123 161.134 32.8694C162.315 33.3265 163.579 33.5379 164.847 33.4904C166.418 33.5586 167.98 33.2168 169.377 32.4991C170.774 31.7814 171.957 30.7128 172.808 29.4001L171.2 28.4568C170.547 29.5208 169.615 30.3892 168.503 30.9698C167.392 31.5504 166.143 31.8214 164.889 31.7541C162.965 31.8404 161.083 31.1828 159.639 29.92C158.195 28.6572 157.301 26.8877 157.146 24.9843H173.683C173.683 24.6921 173.725 24.3999 173.725 24.1495C173.725 19.1994 170.249 14.5915 164.703 14.5915ZM157.129 23.2062C157.238 21.3064 158.091 19.5239 159.506 18.2389C160.921 16.9539 162.786 16.2682 164.703 16.3278C168.28 16.3278 171.436 18.8321 171.823 23.2062H157.129Z" fill="white"/>
    <path d="M176.729 19.7336C176.729 17.5633 178.732 16.3278 181.105 16.3278C182.074 16.2587 183.042 16.4857 183.877 16.9782C184.712 17.4707 185.375 18.2051 185.776 19.0825L187.316 18.2478C186.323 16.0357 184.068 14.6249 181.105 14.6249C177.386 14.6249 174.903 16.9038 174.903 19.767C174.903 26.2865 185.961 23.4566 185.961 28.3817C185.961 30.6606 183.807 31.7875 181.248 31.7875C178.513 31.7875 176.544 30.5604 175.888 28.5987L174.314 29.5086C175.156 31.8209 177.604 33.5238 181.248 33.5238C185.162 33.5238 187.787 31.3534 187.787 28.3817C187.745 21.7037 176.729 24.5836 176.729 19.7336Z" fill="white"/>
    <path d="M191.036 7.74653C190.752 7.75636 190.477 7.84885 190.246 8.01247C190.015 8.17609 189.837 8.40361 189.735 8.66668C189.634 8.92975 189.612 9.21673 189.673 9.49186C189.735 9.767 189.877 10.0181 190.081 10.2139C190.285 10.4098 190.543 10.5416 190.822 10.5931C191.102 10.6445 191.39 10.6133 191.652 10.5033C191.913 10.3933 192.136 10.2094 192.293 9.97454C192.45 9.73963 192.534 9.46411 192.534 9.18231C192.533 8.9898 192.493 8.79945 192.417 8.62243C192.341 8.44542 192.23 8.28532 192.09 8.15155C191.95 8.01778 191.785 7.91304 191.604 7.84348C191.423 7.77393 191.23 7.74096 191.036 7.74653Z" fill="white"/>
    <path d="M191.987 14.9922H190.161V33.0981H191.987V14.9922Z" fill="white"/>
    <path d="M211.991 19.1994C211.244 17.7836 210.113 16.6029 208.726 15.7902C207.338 14.9776 205.75 14.5653 204.139 14.5999C202.89 14.5931 201.653 14.8332 200.499 15.3061C199.345 15.779 198.297 16.4753 197.417 17.3542C196.538 18.2331 195.843 19.2771 195.374 20.4252C194.906 21.5733 194.673 22.8025 194.688 24.041C194.672 25.2802 194.904 26.5103 195.372 27.6593C195.84 28.8084 196.534 29.8534 197.414 30.7332C198.294 31.613 199.342 32.31 200.497 32.7834C201.652 33.2568 202.89 33.4972 204.139 33.4904C205.75 33.525 207.338 33.1127 208.726 32.3001C210.113 31.4875 211.244 30.3067 211.991 28.8909V32.2299C211.991 36.362 209.29 39.0082 204.728 39.0082C200.714 39.0082 198.669 37.4138 197.718 35.4938L196.085 36.387C197.398 39.0332 200.428 40.7361 204.703 40.7361C209.752 40.7361 213.792 37.6559 213.792 32.2216V15.0256H211.991V19.1994ZM204.257 31.7207C202.717 31.729 201.21 31.2837 199.925 30.4412C198.641 29.5987 197.638 28.397 197.043 26.9883C196.448 25.5797 196.288 24.0275 196.583 22.5286C196.878 21.0296 197.616 19.6514 198.701 18.5685C199.787 17.4856 201.173 16.7469 202.682 16.4459C204.192 16.1448 205.758 16.2951 207.181 16.8777C208.604 17.4602 209.821 18.4488 210.678 19.7181C211.534 20.9874 211.991 22.4803 211.991 24.0076C212.003 25.0204 211.812 26.0254 211.428 26.964C211.044 27.9026 210.476 28.7559 209.756 29.474C209.036 30.1922 208.179 30.7607 207.234 31.1465C206.29 31.5323 205.278 31.7275 204.257 31.7207Z" fill="white"/>
    <path d="M225.986 14.5915C224.637 14.5244 223.297 14.8526 222.134 15.5355C220.971 16.2183 220.037 17.2254 219.447 18.4314V15.0256H217.621V33.0981H219.447V23.5318C219.447 18.6485 222.258 16.3278 225.835 16.3278C229.268 16.3278 231.204 18.4982 231.204 21.8372V33.0981H233.064V21.8372C233.064 17.4548 230.329 14.5915 225.986 14.5915Z" fill="white"/>
    <path d="M244.61 14.5915C243.353 14.5566 242.101 14.7776 240.933 15.2409C239.765 15.7043 238.705 16.4002 237.819 17.2857C236.933 18.1711 236.239 19.2274 235.78 20.3893C235.321 21.5511 235.107 22.7939 235.151 24.041C235.113 25.2985 235.336 26.5502 235.807 27.7186C236.277 28.887 236.984 29.9471 237.884 30.8332C238.785 31.7192 239.859 32.4123 241.041 32.8694C242.222 33.3265 243.486 33.5379 244.753 33.4904C246.325 33.5586 247.887 33.2168 249.284 32.4991C250.681 31.7814 251.864 30.7128 252.715 29.4001L251.107 28.4568C250.454 29.5208 249.522 30.3892 248.41 30.9698C247.299 31.5504 246.05 31.8214 244.796 31.7541C242.872 31.8404 240.99 31.1828 239.546 29.92C238.102 28.6572 237.208 26.8877 237.053 24.9843H253.59C253.59 24.6921 253.59 24.3999 253.59 24.1495C253.624 19.1994 250.156 14.5915 244.61 14.5915ZM237.036 23.2062C237.145 21.3064 237.998 19.5239 239.413 18.2389C240.828 16.9539 242.693 16.2682 244.61 16.3278C248.187 16.3278 251.343 18.8321 251.73 23.2062H237.036Z" fill="white"/>
    <path d="M257.898 18.5399V15.0256H256.072V33.0981H257.898V23.0309C257.898 18.3897 260.861 16.4781 264 16.4781V14.7334C262.708 14.6508 261.424 14.9741 260.328 15.6575C259.233 16.3409 258.383 17.3495 257.898 18.5399Z" fill="white"/>
    <path d="M21.0392 0H10.0231H0V9.85847L5.71425 3.33902H7.28798V8.16392C12.228 9.54961 15.8804 15.1258 15.8804 15.1258H25.55C27.9821 15.1258 27.6034 14.675 27.6034 20.0341C27.6034 24.3498 20.9214 27.547 13.9195 28.6488V32.881H21.0392C32.6276 32.881 37.7359 24.4834 37.5929 16.1859C37.433 8.06374 32.3751 0 21.0392 0Z" fill="white"/>
</svg>
